<svg width="22" height="18" viewBox="0 0 22 18" fill="none" xmlns="http://www.w3.org/2000/svg">
<mask id="mask0_393_1160" style="mask-type:luminance" maskUnits="userSpaceOnUse" x="0" y="0" width="22" height="18">
<path d="M0 0H22V18H0V0Z" fill="white"/>
</mask>
<g mask="url(#mask0_393_1160)">
<path fill-rule="evenodd" clip-rule="evenodd" d="M3.86719 16.3828C3.86719 16.6741 4.15575 16.9102 4.51172 16.9102H21.3555C21.7114 16.9102 22 16.6741 22 16.3828V2.67187C22 2.38063 21.7114 2.14453 21.3555 2.14453H4.51172C4.15575 2.14453 3.86719 2.38063 3.86719 2.67187V5.83594C3.86719 6.12718 4.15575 6.36328 4.51172 6.36328H20.7109V15.8555H5.15625V14.2734C5.15625 13.9822 4.86768 13.7461 4.51172 13.7461C4.15575 13.7461 3.86719 13.9822 3.86719 14.2734V16.3828ZM20.7109 5.30859H5.15625V3.19922H20.7109V5.30859Z" fill="#1D1F21"/>
<path fill-rule="evenodd" clip-rule="evenodd" d="M8.42188 4.25391C8.77784 4.25391 9.06641 4.01781 9.06641 3.72656V1.61719C9.06641 1.32594 8.77784 1.08984 8.42188 1.08984C8.06591 1.08984 7.77734 1.32594 7.77734 1.61719V3.72656C7.77734 4.01781 8.06591 4.25391 8.42188 4.25391Z" fill="#1D1F21"/>
<path fill-rule="evenodd" clip-rule="evenodd" d="M17.4883 4.25391C17.8442 4.25391 18.1328 4.01781 18.1328 3.72656V1.61719C18.1328 1.32594 17.8442 1.08984 17.4883 1.08984C17.1323 1.08984 16.8438 1.32594 16.8438 1.61719V3.72656C16.8438 4.01781 17.1323 4.25391 17.4883 4.25391Z" fill="#1D1F21"/>
<path fill-rule="evenodd" clip-rule="evenodd" d="M12.9336 4.25391C13.2896 4.25391 13.5781 4.01781 13.5781 3.72656V1.61719C13.5781 1.32594 13.2896 1.08984 12.9336 1.08984C12.5776 1.08984 12.2891 1.32594 12.2891 1.61719V3.72656C12.2891 4.01781 12.5776 4.25391 12.9336 4.25391Z" fill="#1D1F21"/>
<path fill-rule="evenodd" clip-rule="evenodd" d="M0.0371094 14.453C0.129487 14.6617 0.371783 14.8008 0.643144 14.8008H17.4869C17.6377 14.8008 17.7837 14.7575 17.8995 14.6786L17.4869 14.2734C17.8995 14.6786 17.8998 14.6784 17.9001 14.6782L17.9007 14.6777L17.9023 14.6766C17.9035 14.6758 17.9049 14.6749 17.9065 14.6737C17.9098 14.6715 17.914 14.6685 17.9191 14.6649C17.9292 14.6578 17.943 14.648 17.96 14.6355C17.9941 14.6105 18.0416 14.5749 18.1005 14.5284C18.2182 14.4355 18.3816 14.2994 18.5755 14.1188C18.963 13.7576 19.4727 13.2181 19.9801 12.4916C20.9969 11.0358 21.9986 8.83703 21.9986 5.83594C21.9986 5.54469 21.71 5.30859 21.3541 5.30859C20.9981 5.30859 20.7095 5.54469 20.7095 5.83594C20.7095 8.63563 19.7777 10.6556 18.8609 11.9683C18.4015 12.6261 17.9444 13.1083 17.6068 13.4229C17.4547 13.5646 17.3271 13.6721 17.2347 13.7461H2.10941C2.42433 13.4177 2.78089 13.0006 3.13635 12.4916C4.15312 11.0358 5.15486 8.83703 5.15486 5.83594C5.15486 5.54469 4.8663 5.30859 4.51033 5.30859C4.15437 5.30859 3.8658 5.54469 3.8658 5.83594C3.8658 8.63563 2.93395 10.6556 2.01713 11.9683C1.55774 12.6261 1.10061 13.1083 0.763065 13.4229C0.594338 13.5801 0.455698 13.6952 0.36192 13.7692C0.315041 13.8062 0.279411 13.8329 0.256882 13.8494C0.245619 13.8576 0.237636 13.8633 0.233164 13.8664C0.230945 13.868 0.229591 13.869 0.229132 13.8693C0.229128 13.8693 0.229125 13.8693 0.229121 13.8693C0.228933 13.8694 0.228904 13.8694 0.229037 13.8693L0.229131 13.8693L0.229654 13.8689L0.230046 13.8686C0.230278 13.8685 0.230525 13.8683 0.643144 14.2734" fill="#1D1F21"/>
</g>
</svg>
