<svg width="26" height="26" viewBox="0 0 26 26" fill="none" xmlns="http://www.w3.org/2000/svg">
<g id="automation 1" clip-path="url(#clip0_444_1766)">
<g id="Group">
<path id="Vector" d="M11.1497 5.67277C10.3618 4.96368 9.29816 4.64852 8.23452 4.76671C6.4618 5.00307 5.08301 6.42125 5.08301 8.11519V8.19398C5.1224 8.86368 5.47695 11.0303 8.03755 11.4637C8.27392 11.5031 8.47089 11.5425 8.70725 11.5425C9.57392 11.5425 10.4012 11.2273 11.0709 10.6758C11.8588 10.0455 12.2921 9.10004 12.2921 8.15458C12.2921 7.16974 11.8982 6.30307 11.1497 5.67277ZM10.5588 10.0455C9.88907 10.597 9.0224 10.8334 8.15574 10.6758C6.22543 10.3606 5.91028 8.78489 5.87089 8.11519C5.87089 8.11519 5.87089 8.11519 5.87089 8.0758C5.87089 6.7758 6.93452 5.67277 8.31331 5.51519C9.14058 5.39701 10.0073 5.67277 10.6376 6.22428C11.1891 6.7364 11.5042 7.4061 11.5042 8.11519C11.5042 8.86368 11.1497 9.57277 10.5588 10.0455Z" fill="black"/>
<path id="Vector_2" d="M13.7494 14.3L15.2858 12.8424C15.4433 12.7242 15.4433 12.4879 15.3251 12.3303L14.2221 10.7939C14.3797 10.4788 14.5373 10.1636 14.6161 9.84847L16.5858 9.49392C16.7827 9.45453 16.9009 9.29695 16.9009 9.09998V7.0515C16.9009 6.85453 16.7433 6.69695 16.5858 6.65756L14.5767 6.30301C14.4585 5.98786 14.3403 5.67271 14.1433 5.35756L15.2464 3.82119C15.3645 3.66362 15.3251 3.42725 15.207 3.30907C15.1676 3.26968 13.7494 1.96968 13.6312 1.89089C13.513 1.8121 13.3948 1.77271 13.2373 1.8121C13.1979 1.8121 13.1191 1.8515 13.0797 1.89089L11.5827 2.83635C11.5433 2.87574 11.5039 2.87574 11.4645 2.91513C11.1494 2.75756 10.8342 2.63938 10.5191 2.56059L10.1251 0.709072C10.0858 0.512103 9.92818 0.393921 9.73121 0.393921H7.56454C7.36757 0.393921 7.21 0.551497 7.1706 0.748466L6.77666 2.56059C6.42212 2.67877 6.06757 2.79695 5.75242 2.95453C4.88575 2.40301 4.41303 2.12725 4.13727 1.96968C4.09788 1.93028 4.09788 1.93028 4.05848 1.89089V1.93028C3.82212 1.8121 3.78272 1.8515 3.66454 1.89089C3.66454 1.93028 3.58575 1.96968 3.58575 2.00907L2.08878 3.38786C1.93121 3.54544 1.93121 3.7818 2.08878 3.93938C2.20697 4.09695 2.56151 4.56968 2.83727 4.96362L3.15242 5.47574C2.99485 5.79089 2.83727 6.10604 2.75848 6.42119L0.788784 6.77574C0.591815 6.81513 0.473633 6.97271 0.473633 7.16968V9.21816C0.473633 9.37574 0.552421 9.49392 0.670603 9.57271C0.74939 9.6121 0.788784 9.6515 0.867572 9.6121L2.79788 9.92726C2.87666 10.1636 2.99485 10.4788 3.23121 10.8727C2.67969 11.6606 2.36454 12.0939 2.20697 12.3697C2.16757 12.4091 2.16757 12.4091 2.12818 12.4485C2.01 12.6848 2.01 12.7242 2.08878 12.8424C2.12818 12.9212 2.16757 12.9606 2.24636 13C2.52212 13.2363 3.66454 14.3 3.74333 14.3788C3.86151 14.4576 3.97969 14.497 4.13727 14.4576C4.17666 14.4576 4.25545 14.4182 4.29485 14.3788L5.91 13.3151C6.22515 13.4727 6.5403 13.5909 6.85545 13.6697L7.24939 15.5212C7.28878 15.7182 7.44636 15.8363 7.64333 15.8363H9.81C10.007 15.8363 10.1645 15.7182 10.2039 15.5212L10.5979 13.6697C10.9524 13.5515 11.307 13.4333 11.6221 13.2757L13.3161 14.3394C13.3948 14.4576 13.5918 14.4182 13.7494 14.3ZM11.4251 12.4879C11.0312 12.7242 10.5979 12.8818 10.1251 13C9.96757 13.0394 9.84939 13.1576 9.84939 13.3151L9.45545 15.0485H7.91909L7.56454 13.2757C7.52515 13.1182 7.40697 13 7.28878 12.9606C6.85545 12.8424 6.42212 12.6848 6.06757 12.4879C5.94939 12.4091 5.79182 12.4091 5.67363 12.4879L4.05848 13.5121C3.82212 13.3939 3.46757 13.0788 2.95545 12.606C3.31 12.0939 3.97969 11.1485 3.97969 11.1091C4.05848 10.9909 4.05848 10.7939 3.97969 10.6757C3.70394 10.203 3.58575 9.92725 3.46757 9.6121L3.42818 9.45453C3.38878 9.33635 3.2706 9.21816 3.11303 9.21816L1.22212 8.90301C1.22212 8.62726 1.22212 8.15453 1.22212 7.52422L3.11303 7.16968C3.2706 7.13029 3.38878 7.0121 3.42818 6.89392C3.50697 6.61816 3.66454 6.18483 3.90091 5.79089C4.05848 5.67271 4.09788 5.55453 3.90091 5.27877C3.90091 5.23938 3.86151 5.23938 3.86151 5.19998C3.78272 5.04241 3.62515 4.88483 3.46757 4.60907L2.87666 3.74241C3.07363 3.54544 3.38878 3.26968 3.82212 2.83635L3.9403 2.75756C4.45242 3.07271 5.51606 3.74241 5.55545 3.7818C5.67363 3.86059 5.83121 3.86059 5.94939 3.7818C6.34333 3.58483 6.77666 3.38786 7.24939 3.26968C7.40697 3.23028 7.52515 3.1121 7.52515 2.95453L7.91909 1.1818H9.45545L9.81 2.95453C9.84939 3.1121 9.96757 3.23028 10.0858 3.26968C10.5191 3.38786 10.8736 3.50604 11.2676 3.70301C11.3858 3.7818 11.5827 3.82119 11.7009 3.70301L13.3161 2.67877C13.513 2.87574 13.8676 3.19089 14.3797 3.66362L13.3161 5.16059C13.2373 5.27877 13.2373 5.47574 13.3161 5.59392C13.5524 5.98786 13.7494 6.3818 13.8676 6.77574C13.907 6.93332 14.0251 7.0121 14.1827 7.0515L16.0736 7.36665V8.74544L14.1827 9.09998C14.0251 9.13938 13.907 9.21816 13.8676 9.37574C13.8282 9.84847 13.6312 10.2424 13.3948 10.597C13.3161 10.7151 13.3161 10.9121 13.3948 11.0303L14.4585 12.4879L13.3948 13.4727L11.8191 12.4879C11.7009 12.4485 11.5433 12.4091 11.4251 12.4879Z" fill="black"/>
<path id="Vector_3" d="M22.1796 18.6728C21.9038 17.294 20.6432 16.2698 19.2644 16.2698C17.6099 16.2698 16.2705 17.6092 16.2705 19.2637V19.3031C16.2705 20.2092 16.6644 20.997 17.3735 21.588C17.9251 22.0213 18.5948 22.2577 19.2644 22.2577C19.816 22.2577 20.3281 22.1001 20.8402 21.8243C21.9038 21.194 22.416 19.9334 22.1796 18.6728ZM20.4069 21.1546C19.7766 21.5486 18.7523 21.7061 17.8857 20.997C17.3735 20.5637 17.0978 19.9728 17.0978 19.3031C17.0978 19.3031 17.0978 19.3031 17.0978 19.2637C17.0978 18.0425 18.0826 17.0577 19.3038 17.0577C20.3281 17.0577 21.2341 17.8061 21.4705 18.791C21.6281 19.9728 21.0372 20.7607 20.4069 21.1546Z" fill="black"/>
<path id="Vector_4" d="M25.5276 18.3969C25.5276 18.1999 25.4094 18.0424 25.2125 18.003L23.7549 17.7272C23.6761 17.4908 23.5973 17.2545 23.4791 17.0575L24.267 15.8363C24.3852 15.6787 24.3458 15.4817 24.2276 15.3242C23.6367 14.7727 23.3215 14.4181 23.1246 14.2605C23.1246 14.2211 23.0852 14.1817 23.0458 14.1817C22.8488 14.0242 22.8094 14.0242 22.6912 14.0636C22.6125 14.0636 22.5731 14.103 22.5337 14.1424C22.3367 14.2605 21.7852 14.6545 21.4306 14.8908L21.3912 14.9302C21.1943 14.8121 20.9973 14.7333 20.7609 14.6939L20.4852 13.2363C20.4458 13.0393 20.2882 12.9211 20.0912 12.9211H18.4367C18.2397 12.9211 18.0821 13.0787 18.0428 13.2757L17.767 14.6939C17.5306 14.7727 17.2943 14.8514 17.0973 14.9696C16.7428 14.7333 15.9549 14.2211 15.8761 14.1424C15.6791 14.0242 15.4428 14.0636 15.3246 14.2211L14.6549 14.9696C14.6155 15.009 14.6155 15.009 14.5761 15.0484L14.4973 15.1272L14.4579 15.1666L14.4185 15.206L14.1821 15.4424C14.064 15.5605 14.0246 15.7969 14.1428 15.9545C14.1428 15.9939 14.6943 16.7817 14.97 17.1757C14.8518 17.4121 14.7731 17.6484 14.6943 17.8848L13.2761 18.1211C13.0791 18.1605 12.9609 18.3181 12.9609 18.5151V20.0908V20.1696C13.0003 20.406 13.0397 20.4454 13.1579 20.5242C13.1973 20.5636 13.2761 20.5636 13.3549 20.5636L14.7337 20.7999C14.8125 20.9969 14.8912 21.1939 15.0094 21.4696C14.8125 21.7454 14.4973 22.2181 14.3397 22.4939L14.2215 22.6908C14.1034 22.8878 14.1428 23.1242 14.3397 23.2424L15.4821 24.3454C15.6003 24.4242 15.7185 24.4636 15.8761 24.4636C15.9155 24.4636 15.9943 24.4242 16.0337 24.3848L17.2155 23.5575C17.4125 23.6363 17.6094 23.7545 17.8458 23.7939L18.1215 25.2514C18.1609 25.4484 18.3185 25.5666 18.5155 25.5666H20.0912C20.2882 25.5666 20.4458 25.4484 20.4852 25.2514L20.7609 23.7939C20.9973 23.7151 21.2337 23.6363 21.4306 23.5181L22.6518 24.3454C22.8094 24.4636 23.0064 24.4242 23.164 24.306L24.3064 23.1242C24.4246 23.006 24.464 22.7696 24.3458 22.6121L23.5185 21.3908C23.6367 21.1545 23.7155 20.9575 23.7943 20.6817L25.2125 20.406C25.4094 20.3666 25.5276 20.209 25.5276 20.0121V18.3969ZM23.4003 20.0121C23.2428 20.0514 23.1246 20.1696 23.0852 20.2878C23.0064 20.6424 22.8488 20.9575 22.6912 21.2333C22.6125 21.3514 22.6125 21.509 22.6912 21.6666L23.4791 22.809L22.77 23.5181L21.6276 22.7302C21.5094 22.6514 21.3518 22.6514 21.1943 22.7302C20.9185 22.8878 20.564 23.0454 20.2488 23.1242C20.0912 23.1636 20.0125 23.2817 19.9731 23.4393L19.7367 24.8181H18.7518L18.4761 23.4787C18.4367 23.3211 18.3185 23.203 18.2003 23.1636C17.8852 23.0848 17.57 22.9666 17.2943 22.809C17.1761 22.7302 17.0185 22.7302 16.8609 22.8484L15.7185 23.6363C15.5609 23.4787 15.3246 23.2424 15.0094 22.9272C15.2852 22.5333 15.7579 21.8242 15.7579 21.7848C15.8367 21.6666 15.8367 21.509 15.7579 21.3514C15.5609 20.9969 15.4821 20.7605 15.4034 20.5242L15.364 20.406C15.364 20.209 15.2458 20.0908 15.0882 20.0908L13.7488 19.8545C13.7488 19.5787 13.7488 19.1454 13.7488 18.8696L15.0882 18.5939C15.2458 18.5545 15.364 18.4363 15.4034 18.2787C15.4428 18.0817 15.6003 17.6878 15.7579 17.3727C15.7579 17.3333 15.7973 17.3333 15.7973 17.2939C15.8367 17.1757 15.8761 17.1363 15.7579 16.8999C15.7579 16.8605 15.7185 16.8605 15.6791 16.8211C15.5609 16.6242 15.364 16.309 14.97 15.7575C14.97 15.7575 14.97 15.7575 15.0094 15.7181L15.0488 15.6787L15.7185 15.009C15.9549 15.206 16.3488 15.4424 16.8609 15.7969C16.9791 15.8757 17.1367 15.8757 17.2943 15.7969C17.57 15.6393 17.8852 15.4817 18.2397 15.403C18.3973 15.3636 18.4761 15.2454 18.5155 15.0878L18.7912 13.7484H19.7761L20.0518 15.0878C20.0912 15.2454 20.17 15.3636 20.3276 15.403C20.6428 15.4817 20.8791 15.5999 21.1549 15.7181C21.3125 15.8757 21.47 15.8363 21.6276 15.7181C21.7852 15.5999 21.667 15.6787 21.667 15.6787C21.7458 15.6393 21.7852 15.5999 21.864 15.5605C22.1003 15.403 22.4943 15.1272 22.7306 14.9302L23.4397 15.6393L22.6912 16.7817C22.6125 16.8999 22.6125 17.0575 22.6912 17.2151C22.8488 17.5302 23.0064 17.8454 23.0852 18.1605C23.1246 18.3181 23.2428 18.3969 23.4003 18.4363L24.7397 18.6727V19.6575L23.4003 20.0121Z" fill="black"/>
<g id="Group_2">
<path id="Vector_5" d="M11.0312 23.1636C7.48573 23.0848 4.53119 20.4454 3.97967 17.0182L4.60998 17.6485C4.76755 17.806 5.00392 17.806 5.16149 17.6485C5.31907 17.4909 5.31907 17.2545 5.16149 17.0969L3.74331 15.7182C3.58573 15.5606 3.34937 15.5606 3.19179 15.7182L1.81301 17.1363C1.65543 17.2939 1.65543 17.5303 1.81301 17.6879C1.97058 17.8454 2.20695 17.8454 2.36452 17.6879L3.1524 16.9C3.66452 20.8 6.93422 23.8727 11.0312 23.9909C11.2676 23.9909 11.4251 23.7939 11.4251 23.5969C11.4251 23.3212 11.2676 23.1636 11.0312 23.1636Z" fill="black"/>
<path id="Vector_6" d="M25.2129 10.6364C25.0553 10.4788 24.8189 10.4788 24.6614 10.6364L23.9129 11.3849C24.0311 7.44548 21.2735 3.93942 17.3735 3.15154C17.1765 3.11215 16.9402 3.26972 16.9402 3.50609C16.9008 3.70306 17.0583 3.90003 17.2553 3.93942C20.7614 4.64851 23.2432 7.80002 23.1644 11.3455L22.4159 10.6364C22.2583 10.4788 22.022 10.4788 21.8644 10.6364C21.7068 10.794 21.7068 11.0303 21.8644 11.1879L23.2432 12.5667C23.322 12.6455 23.4008 12.6849 23.5189 12.6849C23.6371 12.6849 23.7159 12.6455 23.7947 12.5667L25.1735 11.1879C25.3705 11.0303 25.3705 10.794 25.2129 10.6364Z" fill="black"/>
</g>
</g>
</g>
<defs>
<clipPath id="clip0_444_1766">
<rect width="26" height="26" fill="white"/>
</clipPath>
</defs>
</svg>
