<svg width="26" height="26" viewBox="0 0 26 26" fill="none" xmlns="http://www.w3.org/2000/svg">
<g id="globe 1" clip-path="url(#clip0_444_1625)">
<g id="Group">
<g id="Group_2">
<path id="Vector" d="M13 0C7.50827 0 0 4.15079 0 13C0 21.624 7.22165 26 13 26C22.9138 26 26 17.3146 26 13C26 6.63307 21.1276 0 13 0ZM9.98543 1.22323C8.62913 2.37992 7.50315 4.29409 6.77638 6.6689C5.83465 6.11102 4.96969 5.42008 4.20197 4.61654C5.78858 2.95315 7.79488 1.78622 9.98543 1.22323ZM3.64409 5.24095C4.50394 6.13661 5.4815 6.89921 6.54606 7.50315C6.14685 9.05394 5.91142 10.7736 5.88071 12.5803H0.849606C0.941732 9.88307 1.92441 7.30866 3.64409 5.24095ZM3.64409 20.7591C1.91929 18.6913 0.941732 16.1169 0.849606 13.4197H5.88071C5.91142 15.2315 6.14685 16.9461 6.54606 18.4969C5.48661 19.1059 4.50906 19.8634 3.64409 20.7591ZM4.20197 21.3886C4.96969 20.585 5.83465 19.8941 6.77638 19.3362C7.50315 21.7059 8.62913 23.6252 9.98543 24.7819C7.79488 24.2138 5.78858 23.0469 4.20197 21.3886ZM12.5803 25.1299C10.4 24.8535 8.52165 22.4173 7.50827 18.9268C9.07441 18.1335 10.8043 17.6882 12.5803 17.6217V25.1299ZM12.5803 16.7874C10.7276 16.8488 8.92598 17.3043 7.29331 18.1028C6.95039 16.6697 6.74567 15.0882 6.71496 13.4197H12.5803V16.7874ZM12.5803 12.5803H6.71496C6.74567 10.9118 6.95039 9.33032 7.29331 7.89724C8.9311 8.69567 10.7327 9.15118 12.5803 9.2126V12.5803ZM12.5803 8.37835C10.7992 8.31693 9.07441 7.86654 7.50827 7.07323C8.52165 3.57756 10.4 1.14646 12.5803 0.870079V8.37835ZM22.3559 5.24095C24.0756 7.30866 25.0583 9.88307 25.1504 12.5803H20.1244C20.0937 10.7685 19.8583 9.05394 19.4591 7.50315C20.5185 6.89409 21.4961 6.13661 22.3559 5.24095ZM21.798 4.61142C21.0303 5.41496 20.1654 6.10591 19.2236 6.66378C18.4969 4.29409 17.3709 2.37992 16.0146 1.21811C18.2051 1.78622 20.2114 2.95315 21.798 4.61142ZM13.4197 0.870079C15.6 1.14646 17.4783 3.58268 18.4917 7.07323C16.9256 7.86654 15.2008 8.31181 13.4197 8.37835V0.870079ZM13.4197 9.2126C15.2724 9.15118 17.074 8.69567 18.7067 7.89724C19.0496 9.33032 19.2543 10.9118 19.285 12.5803H13.4197V9.2126ZM13.4197 13.4197H19.285C19.2543 15.0882 19.0496 16.6697 18.7067 18.1028C17.074 17.2992 15.2724 16.8437 13.4197 16.7874V13.4197ZM13.4197 25.1299V17.6217C15.2008 17.6831 16.9256 18.1335 18.4917 18.9268C17.4783 22.4224 15.6 24.8535 13.4197 25.1299ZM16.0146 24.7768C17.3709 23.6201 18.4969 21.7059 19.2236 19.3311C20.1654 19.889 21.0303 20.5799 21.798 21.3835C20.2114 23.0469 18.2051 24.2138 16.0146 24.7768ZM22.3559 20.7591C21.4961 19.8634 20.5185 19.1059 19.4591 18.4969C19.8583 16.9461 20.0937 15.2264 20.1244 13.4197H25.1504C25.0583 16.1169 24.0756 18.6913 22.3559 20.7591Z" fill="black"/>
</g>
</g>
</g>
<defs>
<clipPath id="clip0_444_1625">
<rect width="26" height="26" fill="white"/>
</clipPath>
</defs>
</svg>
