<svg width="26" height="26" viewBox="0 0 26 26" fill="none" xmlns="http://www.w3.org/2000/svg">
<g id="group-chat 1" clip-path="url(#clip0_444_1675)">
<g id="Layer_3">
<g id="Group">
<g id="ARC_424_">
<g id="Group_2">
<path id="Vector" d="M3.73701 18.7237C3.71257 18.7237 3.68761 18.7222 3.66213 18.7185C2.47397 18.5469 1.33416 18.1741 0.275475 17.6099C0.0222424 17.4747 -0.0739545 17.1596 0.0612413 16.9059C0.196957 16.6532 0.510507 16.557 0.765299 16.6916C1.71687 17.1997 2.74176 17.5345 3.81032 17.6885C4.09476 17.7295 4.29183 17.9932 4.25127 18.2776C4.21383 18.5371 3.99128 18.7237 3.73701 18.7237Z" fill="black"/>
</g>
</g>
<g id="ARC_423_">
<g id="Group_3">
<path id="Vector_2" d="M22.2627 18.7237C22.0084 18.7237 21.7859 18.537 21.7485 18.2781C21.7079 17.9937 21.905 17.73 22.1894 17.6889C23.2585 17.535 24.2829 17.2002 25.2344 16.6921C25.4897 16.5575 25.8028 16.6537 25.9385 16.9064C26.0737 17.1596 25.9775 17.4752 25.7243 17.6104C24.6656 18.1746 23.5258 18.5474 22.3376 18.719C22.3121 18.7222 22.2872 18.7237 22.2627 18.7237Z" fill="black"/>
</g>
</g>
<g id="ARC_422_">
<g id="Group_4">
<path id="Vector_3" d="M16.8239 14.0558C16.7262 14.0558 16.6279 14.0282 16.5406 13.9715C16.2998 13.8145 16.2317 13.4926 16.3887 13.2519C17.1255 12.122 18.3704 11.447 19.7192 11.447C20.0068 11.447 20.2392 11.6795 20.2392 11.967C20.2392 12.2546 20.0068 12.487 19.7192 12.487C18.7229 12.487 17.8036 12.9851 17.2602 13.8197C17.1609 13.9726 16.9945 14.0558 16.8239 14.0558Z" fill="black"/>
</g>
</g>
<g id="CIRCLE_38_">
<g id="Group_5">
<path id="Vector_4" d="M20.8723 12.4871C19.029 12.4871 17.4722 10.9302 17.4722 9.0874C17.4722 7.24458 19.029 5.68774 20.8723 5.68774C22.7152 5.68774 24.272 7.24458 24.272 9.0874C24.272 10.9302 22.7152 12.4871 20.8723 12.4871ZM20.8723 6.72771C19.5932 6.72771 18.5121 7.80824 18.5121 9.0874C18.5121 10.3666 19.5932 11.4471 20.8723 11.4471C22.1515 11.4471 23.232 10.3666 23.232 9.0874C23.232 7.80824 22.1515 6.72771 20.8723 6.72771Z" fill="black"/>
</g>
</g>
<g id="ARC_421_">
<g id="Group_6">
<path id="Vector_5" d="M25.4792 15.9434C25.1917 15.9434 24.9592 15.711 24.9592 15.4234C24.9592 13.8047 23.6421 12.4876 22.0234 12.4876C21.7359 12.4876 21.5034 12.2552 21.5034 11.9676C21.5034 11.6801 21.7359 11.4476 22.0234 11.4476C24.2157 11.4476 25.9992 13.2317 25.9992 15.4234C25.9992 15.7105 25.7668 15.9434 25.4792 15.9434Z" fill="black"/>
</g>
</g>
<g id="LINE_818_">
<g id="Group_7">
<path id="Vector_6" d="M22.0252 12.487H19.7212C19.4336 12.487 19.2012 12.2546 19.2012 11.967C19.2012 11.6795 19.4336 11.447 19.7212 11.447H22.0252C22.3128 11.447 22.5452 11.6795 22.5452 11.967C22.5452 12.2546 22.3122 12.487 22.0252 12.487Z" fill="black"/>
</g>
</g>
<g id="LINE_817_">
<g id="Group_8">
<path id="Vector_7" d="M25.479 17.6712C25.1914 17.6712 24.959 17.4388 24.959 17.1512V15.4233C24.959 15.1358 25.1914 14.9033 25.479 14.9033C25.7665 14.9033 25.999 15.1358 25.999 15.4233V17.1512C25.999 17.4388 25.7665 17.6712 25.479 17.6712Z" fill="black"/>
</g>
</g>
<g id="ARC_420_">
<g id="Group_9">
<path id="Vector_8" d="M6.85592 18.055C6.56837 18.055 6.33594 17.8226 6.33594 17.535C6.33594 14.7074 8.63635 12.4075 11.4635 12.4075C11.751 12.4075 11.9835 12.6399 11.9835 12.9275C11.9835 13.215 11.751 13.4474 11.4635 13.4474C9.20937 13.4474 7.37591 15.2809 7.37591 17.535C7.37591 17.8226 7.14295 18.055 6.85592 18.055Z" fill="black"/>
</g>
</g>
<g id="LINE_816_">
<g id="Group_10">
<path id="Vector_9" d="M14.5354 13.4474H11.4633C11.1758 13.4474 10.9434 13.215 10.9434 12.9275C10.9434 12.6399 11.1758 12.4075 11.4633 12.4075H14.5354C14.823 12.4075 15.0554 12.6399 15.0554 12.9275C15.0554 13.215 14.823 13.4474 14.5354 13.4474Z" fill="black"/>
</g>
</g>
<g id="ARC_419_">
<g id="Group_11">
<path id="Vector_10" d="M9.17551 14.0558C9.00547 14.0558 8.83908 13.9726 8.73924 13.8197C8.19534 12.9857 7.27653 12.487 6.28024 12.487C5.99269 12.487 5.76025 12.2546 5.76025 11.967C5.76025 11.6795 5.99269 11.447 6.28024 11.447C7.6296 11.447 8.87392 12.122 9.61073 13.2519C9.76777 13.4926 9.69965 13.8145 9.4589 13.9715C9.37102 14.0282 9.27275 14.0558 9.17551 14.0558Z" fill="black"/>
</g>
</g>
<g id="LINE_815_">
<g id="Group_12">
<path id="Vector_11" d="M6.85592 20.359C6.56837 20.359 6.33594 20.1266 6.33594 19.839V17.535C6.33594 17.2474 6.56837 17.015 6.85592 17.015C7.14347 17.015 7.37591 17.2474 7.37591 17.535V19.839C7.37591 20.1266 7.14295 20.359 6.85592 20.359Z" fill="black"/>
</g>
</g>
<g id="CIRCLE_37_">
<g id="Group_13">
<path id="Vector_12" d="M12.9997 13.4474C10.6364 13.4474 8.63965 11.4507 8.63965 9.08736C8.63965 6.72403 10.6364 4.72729 12.9997 4.72729C15.363 4.72729 17.3598 6.72403 17.3598 9.08736C17.3598 11.4507 15.363 13.4474 12.9997 13.4474ZM12.9997 5.76726C11.2 5.76726 9.67962 7.2877 9.67962 9.08736C9.67962 10.887 11.2 12.4075 12.9997 12.4075C14.7994 12.4075 16.3198 10.887 16.3198 9.08736C16.3198 7.2877 14.7994 5.76726 12.9997 5.76726Z" fill="black"/>
</g>
</g>
<g id="ARC_418_">
<g id="Group_14">
<path id="Vector_13" d="M19.1442 18.055C18.8566 18.055 18.6242 17.8226 18.6242 17.535C18.6242 15.2809 16.7907 13.4474 14.5366 13.4474C14.249 13.4474 14.0166 13.215 14.0166 12.9275C14.0166 12.6399 14.249 12.4075 14.5366 12.4075C17.3643 12.4075 19.6641 14.7079 19.6641 17.535C19.6641 17.8226 19.4317 18.055 19.1442 18.055Z" fill="black"/>
</g>
</g>
<g id="LINE_814_">
<g id="Group_15">
<path id="Vector_14" d="M19.144 20.359C18.8565 20.359 18.624 20.1266 18.624 19.839V17.535C18.624 17.2474 18.8565 17.015 19.144 17.015C19.4316 17.015 19.664 17.2474 19.664 17.535V19.839C19.664 20.1266 19.4316 20.359 19.144 20.359Z" fill="black"/>
</g>
</g>
<g id="ARC_417_">
<g id="Group_16">
<path id="Vector_15" d="M12.9999 21.8982C10.8056 21.8982 8.61179 21.3647 6.61141 20.2982C6.35818 20.1625 6.26198 19.8479 6.39718 19.5941C6.53289 19.3414 6.84592 19.2452 7.10124 19.3799C10.7952 21.3501 15.2057 21.3501 18.8992 19.3799C19.1539 19.2452 19.468 19.3414 19.6032 19.5941C19.7384 19.8473 19.6422 20.1625 19.389 20.2982C17.3881 21.3641 15.1943 21.8982 12.9999 21.8982Z" fill="black"/>
</g>
</g>
<g id="CIRCLE_36_">
<g id="Group_17">
<path id="Vector_16" d="M5.12719 12.4869C3.28437 12.4869 1.72754 10.9301 1.72754 9.08728C1.72754 7.24445 3.28437 5.68762 5.12719 5.68762C6.97002 5.68762 8.52685 7.24445 8.52685 9.08728C8.52685 10.9301 6.97002 12.4869 5.12719 12.4869ZM5.12719 6.72759C3.84803 6.72759 2.76751 7.80812 2.76751 9.08728C2.76751 10.3664 3.84803 11.447 5.12719 11.447C6.40635 11.447 7.48688 10.3664 7.48688 9.08728C7.48688 7.80812 6.40635 6.72759 5.12719 6.72759Z" fill="black"/>
</g>
</g>
<g id="ARC_416_">
<g id="Group_18">
<path id="Vector_17" d="M0.519984 15.9433C0.232433 15.9433 0 15.7109 0 15.4233C0 13.2311 1.78406 11.4475 3.9758 11.4475C4.26335 11.4475 4.49578 11.6799 4.49578 11.9675C4.49578 12.255 4.26335 12.4875 3.9758 12.4875C2.35709 12.487 1.03997 13.8041 1.03997 15.4233C1.03997 15.7103 0.807535 15.9433 0.519984 15.9433Z" fill="black"/>
</g>
</g>
<g id="LINE_813_">
<g id="Group_19">
<path id="Vector_18" d="M6.28058 12.487H3.97653C3.68898 12.487 3.45654 12.2546 3.45654 11.967C3.45654 11.6795 3.68898 11.447 3.97653 11.447H6.28058C6.56813 11.447 6.80056 11.6795 6.80056 11.967C6.80056 12.2546 6.56813 12.487 6.28058 12.487Z" fill="black"/>
</g>
</g>
<g id="LINE_812_">
<g id="Group_20">
<path id="Vector_19" d="M0.519984 17.6712C0.232433 17.6712 0 17.4388 0 17.1512V15.4233C0 15.1358 0.232433 14.9033 0.519984 14.9033C0.807535 14.9033 1.03997 15.1358 1.03997 15.4233V17.1512C1.03997 17.4388 0.807535 17.6712 0.519984 17.6712Z" fill="black"/>
</g>
</g>
</g>
</g>
</g>
<defs>
<clipPath id="clip0_444_1675">
<rect width="26" height="26" fill="white"/>
</clipPath>
</defs>
</svg>
