<svg width="31" height="26" viewBox="0 0 31 26" fill="none" xmlns="http://www.w3.org/2000/svg">
<g id="Layer_1">
<g id="Group">
<g id="Group_2">
<g id="Group_3">
<path id="Vector" fill-rule="evenodd" clip-rule="evenodd" d="M28.2662 26H2.33376C1.04698 26 8.32787e-05 24.9531 8.32787e-05 23.6664L0 2.32256C0 2.32081 0 2.31907 0 2.31733C0.0140283 1.03959 1.06582 8.29621e-05 2.34472 8.29621e-05L2.34463 0H10.6889C10.8506 0 11.0014 0.0817629 11.0896 0.217314L14.3258 5.18873H30.1216C30.3856 5.18873 30.5997 5.4028 30.5997 5.66685V23.6663C30.5999 24.9531 29.5531 26 28.2662 26ZM0.956249 2.32463V23.6663C0.956249 24.4258 1.57416 25.0437 2.3336 25.0437H28.2661C29.0256 25.0437 29.6435 24.4258 29.6435 23.6663V6.14506H14.0667C13.905 6.14506 13.7543 6.0633 13.6661 5.92783L10.4298 0.956332H2.34488C1.58852 0.956332 0.966292 1.56992 0.956249 2.32463Z" fill="#1D1F21"/>
</g>
<g id="Group_4">
<path id="Vector_2" fill-rule="evenodd" clip-rule="evenodd" d="M14.0672 6.14497H0.489843C0.225795 6.14497 0.0117188 5.93089 0.0117188 5.66684C0.0117188 5.4028 0.225795 5.18872 0.489843 5.18872H14.0672C14.3313 5.18872 14.5454 5.4028 14.5454 5.66684C14.5454 5.93089 14.3313 6.14497 14.0672 6.14497Z" fill="#1D1F21"/>
</g>
<g id="Group_5">
<path id="Vector_3" fill-rule="evenodd" clip-rule="evenodd" d="M30.1224 6.14509C29.8583 6.14509 29.6443 5.93102 29.6443 5.66697V3.03372C29.6443 2.69397 29.509 2.37156 29.2635 2.12603C29.018 1.88049 28.6956 1.74519 28.3558 1.74519H11.2008C10.9367 1.74519 10.7227 1.53111 10.7227 1.26706C10.7227 1.00302 10.9367 0.78894 11.2008 0.78894H28.3557C28.951 0.78894 29.5135 1.0236 29.9397 1.44976C30.3658 1.87593 30.6005 2.43839 30.6005 3.03363V5.66689C30.6005 5.93102 30.3865 6.14509 30.1224 6.14509Z" fill="#1D1F21"/>
</g>
<g id="Group_6">
<g id="Group_7">
<path id="Vector_4" fill-rule="evenodd" clip-rule="evenodd" d="M3.27951 3.54512H2.74619C2.48214 3.54512 2.26807 3.33104 2.26807 3.06699C2.26807 2.80294 2.48214 2.58887 2.74619 2.58887H3.27951C3.54356 2.58887 3.75764 2.80294 3.75764 3.06699C3.75764 3.33104 3.54356 3.54512 3.27951 3.54512Z" fill="black"/>
</g>
<g id="Group_8">
<path id="Vector_5" fill-rule="evenodd" clip-rule="evenodd" d="M6.57747 3.54512H6.05527C5.79123 3.54512 5.57715 3.33104 5.57715 3.06699C5.57715 2.80294 5.79123 2.58887 6.05527 2.58887H6.57747C6.84152 2.58887 7.0556 2.80294 7.0556 3.06699C7.0556 3.33104 6.84152 3.54512 6.57747 3.54512Z" fill="black"/>
</g>
<g id="Group_9">
<path id="Vector_6" fill-rule="evenodd" clip-rule="evenodd" d="M9.88021 3.54512H9.35801C9.09396 3.54512 8.87988 3.33104 8.87988 3.06699C8.87988 2.80294 9.09396 2.58887 9.35801 2.58887H9.88021C10.1443 2.58887 10.3583 2.80294 10.3583 3.06699C10.3583 3.33104 10.1443 3.54512 9.88021 3.54512Z" fill="black"/>
</g>
</g>
<g id="Group_10">
<path id="Vector_7" fill-rule="evenodd" clip-rule="evenodd" d="M25.0123 3.94514H16.901C16.6369 3.94514 16.4229 3.73106 16.4229 3.46702C16.4229 3.20297 16.6369 2.98889 16.901 2.98889H25.0123C25.2764 2.98889 25.4904 3.20297 25.4904 3.46702C25.4904 3.73106 25.2764 3.94514 25.0123 3.94514Z" fill="black"/>
</g>
<g id="Group_11">
<g id="Group_12">
<path id="Vector_8" fill-rule="evenodd" clip-rule="evenodd" d="M13.7914 21.7015C13.7504 21.7015 13.7088 21.6962 13.6674 21.685C13.4124 21.6166 13.261 21.3545 13.3294 21.0994L16.3458 9.84167C16.4142 9.58659 16.6763 9.43527 16.9315 9.50358C17.1865 9.5719 17.3379 9.83412 17.2695 10.0892L14.253 21.347C14.1958 21.5606 14.0025 21.7015 13.7914 21.7015Z" fill="black"/>
</g>
<g id="Group_13">
<g id="Group_14">
<path id="Vector_9" fill-rule="evenodd" clip-rule="evenodd" d="M11.4329 19.4563C11.3106 19.4563 11.1882 19.4095 11.0948 19.3162L7.53363 15.755C7.34686 15.5683 7.34686 15.2655 7.53363 15.0789L11.0948 11.5176C11.2815 11.3309 11.5843 11.3309 11.771 11.5176C11.9578 11.7043 11.9578 12.0071 11.771 12.1938L8.54782 15.4169L11.771 18.6401C11.9578 18.8267 11.9578 19.1295 11.771 19.3161C11.6776 19.4095 11.5553 19.4563 11.4329 19.4563Z" fill="black"/>
</g>
<g id="Group_15">
<path id="Vector_10" fill-rule="evenodd" clip-rule="evenodd" d="M19.1652 19.4562C19.0428 19.4562 18.9205 19.4094 18.8271 19.3161C18.6403 19.1295 18.6403 18.8267 18.8271 18.6401L22.0503 15.4169L18.8271 12.1938C18.6403 12.007 18.6403 11.7043 18.8271 11.5176C19.0139 11.3309 19.3165 11.3309 19.5033 11.5176L23.0645 15.0789C23.2512 15.2655 23.2512 15.5683 23.0645 15.755L19.5033 19.3162C19.4099 19.4094 19.2875 19.4562 19.1652 19.4562Z" fill="black"/>
</g>
</g>
</g>
</g>
</g>
</g>
</svg>
