<svg width="26" height="26" viewBox="0 0 26 26" fill="none" xmlns="http://www.w3.org/2000/svg">
<g id="artificial-intelligence 1" clip-path="url(#clip0_444_1581)">
<g id="Group">
<g id="Group_2">
<path id="Vector" d="M6.07125 13.5688H4.97879C4.28187 13.5688 3.71484 13.0054 3.71484 12.3129C3.71484 12.1025 3.54437 11.932 3.33398 11.932C3.1236 11.932 2.95312 12.1025 2.95312 12.3129C2.95312 13.4254 3.86186 14.3305 4.97884 14.3305H6.07125C6.28163 14.3305 6.45211 14.16 6.45211 13.9496C6.45211 13.7393 6.28163 13.5688 6.07125 13.5688Z" fill="black"/>
</g>
</g>
<g id="Group_3">
<g id="Group_4">
<path id="Vector_2" d="M9.64839 16.3875H6.39473C5.3201 16.3875 4.4458 17.2582 4.4458 18.3286C4.4458 18.539 4.61627 18.7095 4.82666 18.7095C5.03705 18.7095 5.20752 18.539 5.20752 18.3286C5.20752 17.6783 5.74006 17.1492 6.39473 17.1492H9.64839C9.85878 17.1492 10.0293 16.9787 10.0293 16.7683C10.0293 16.5579 9.85878 16.3875 9.64839 16.3875Z" fill="black"/>
</g>
</g>
<g id="Group_5">
<g id="Group_6">
<path id="Vector_3" d="M12.7531 16.3876H11.1733C10.963 16.3876 10.7925 16.558 10.7925 16.7684C10.7925 16.9788 10.963 17.1493 11.1733 17.1493H12.7531C12.9635 17.1493 13.134 16.9788 13.134 16.7684C13.134 16.558 12.9634 16.3876 12.7531 16.3876Z" fill="black"/>
</g>
</g>
<g id="Group_7">
<g id="Group_8">
<path id="Vector_4" d="M10.0746 8.98706C9.86417 8.98706 9.69369 9.15758 9.69369 9.36792C9.69369 10.457 8.80248 11.343 7.70703 11.343C7.49664 11.343 7.32617 11.5134 7.32617 11.7238C7.32617 11.9342 7.49664 12.1047 7.70703 12.1047C9.2225 12.1047 10.4554 10.877 10.4554 9.36792C10.4554 9.15758 10.2849 8.98706 10.0746 8.98706Z" fill="black"/>
</g>
</g>
<g id="Group_9">
<g id="Group_10">
<path id="Vector_5" d="M9.3732 3.22953C8.46341 3.17113 7.67457 3.86089 7.61556 4.76764C7.6019 4.97757 7.761 5.15876 7.97088 5.17247C7.97931 5.17303 7.98769 5.17328 7.99602 5.17328C8.19508 5.17328 8.36256 5.0186 8.37571 4.81715C8.4074 4.32924 8.83294 3.95869 9.32425 3.98967C9.53433 4.00374 9.71527 3.84403 9.72877 3.6341C9.74233 3.42417 9.58313 3.24308 9.3732 3.22953Z" fill="black"/>
</g>
</g>
<g id="Group_11">
<g id="Group_12">
<path id="Vector_6" d="M8.0918 18.0834C7.88141 18.0834 7.71094 18.2538 7.71094 18.4642C7.71094 18.6746 7.88141 18.8451 8.0918 18.8451C8.72072 18.8451 9.23239 19.3534 9.23239 19.9781C9.23239 20.6029 8.72072 21.1112 8.0918 21.1112C7.88141 21.1112 7.71094 21.2817 7.71094 21.4921C7.71094 21.7025 7.88141 21.8729 8.0918 21.8729C9.14073 21.8729 9.99411 21.0229 9.99411 19.9781C9.99411 18.9334 9.14073 18.0834 8.0918 18.0834Z" fill="black"/>
</g>
</g>
<g id="Group_13">
<g id="Group_14">
<path id="Vector_7" d="M11.9893 9.11487C11.7789 9.11487 11.6084 9.28534 11.6084 9.49573C11.6084 9.70611 11.7789 9.87659 11.9893 9.87659C12.4945 9.87659 12.9056 10.2847 12.9056 10.7864C12.9056 11.2882 12.4945 11.6964 11.9893 11.6964C11.7789 11.6964 11.6084 11.8669 11.6084 12.0772C11.6084 12.2876 11.7789 12.4581 11.9893 12.4581C12.9145 12.4581 13.6673 11.7082 13.6673 10.7864C13.6673 9.86476 12.9145 9.11487 11.9893 9.11487Z" fill="black"/>
</g>
</g>
<g id="Group_15">
<g id="Group_16">
<path id="Vector_8" d="M5.28027 6.69336C5.06989 6.69336 4.89941 6.86383 4.89941 7.07422C4.89941 7.28461 5.06989 7.45508 5.28027 7.45508C6.14833 7.45508 6.85449 8.15687 6.85449 9.01955C6.85449 9.88227 6.14833 10.5841 5.28027 10.5841C5.06989 10.5841 4.89941 10.7546 4.89941 10.965C4.89941 11.1754 5.06989 11.3458 5.28027 11.3458C6.56829 11.3458 7.61621 10.3023 7.61621 9.01955C7.61621 7.73686 6.56829 6.69336 5.28027 6.69336Z" fill="black"/>
</g>
</g>
<g id="Group_17">
<g id="Group_18">
<path id="Vector_9" d="M23.185 6.67603C22.4691 6.67603 21.8867 7.2564 21.8867 7.96978C21.8867 8.68321 22.4691 9.26358 23.185 9.26358C23.9009 9.26358 24.4833 8.68321 24.4833 7.96978C24.4833 7.2564 23.9009 6.67603 23.185 6.67603ZM23.185 8.50192C22.8892 8.50192 22.6485 8.26324 22.6485 7.96983C22.6484 7.67647 22.8891 7.4378 23.185 7.4378C23.4809 7.4378 23.7216 7.67647 23.7216 7.96983C23.7216 8.26319 23.4809 8.50192 23.185 8.50192Z" fill="black"/>
</g>
</g>
<g id="Group_19">
<g id="Group_20">
<path id="Vector_10" d="M24.4575 16.4236C23.7415 16.4236 23.1592 17.004 23.1592 17.7174C23.1592 18.4308 23.7416 19.0111 24.4575 19.0111C25.1733 19.0111 25.7557 18.4308 25.7557 17.7174C25.7557 17.004 25.1733 16.4236 24.4575 16.4236ZM24.4575 18.2494C24.1616 18.2494 23.9209 18.0108 23.9209 17.7174C23.9209 17.424 24.1616 17.1853 24.4575 17.1853C24.7533 17.1853 24.994 17.424 24.994 17.7174C24.994 18.0108 24.7533 18.2494 24.4575 18.2494Z" fill="black"/>
</g>
</g>
<g id="Group_21">
<g id="Group_22">
<path id="Vector_11" d="M23.6584 11.859C23.4387 11.859 23.2317 11.9139 23.0501 12.0103L22.3077 11.2715C22.1585 11.1231 21.9174 11.1238 21.7691 11.2728C21.6207 11.4219 21.6213 11.663 21.7704 11.8114L22.511 12.5483C22.4148 12.7289 22.3601 12.9345 22.3601 13.1527C22.3601 13.8661 22.9425 14.4465 23.6584 14.4465C24.3743 14.4465 24.9566 13.8661 24.9566 13.1527C24.9566 12.4393 24.3742 11.859 23.6584 11.859ZM23.6584 13.6848C23.3626 13.6848 23.1219 13.4462 23.1219 13.1528C23.1219 12.8595 23.3626 12.6207 23.6584 12.6207C23.9543 12.6207 24.195 12.8594 24.195 13.1528C24.195 13.4461 23.9543 13.6848 23.6584 13.6848Z" fill="black"/>
</g>
</g>
<g id="Group_23">
<g id="Group_24">
<path id="Vector_12" d="M22.8002 20.3992C22.0843 20.3992 21.502 20.9795 21.502 21.693C21.502 22.4064 22.0844 22.9868 22.8002 22.9868C23.5161 22.9868 24.0985 22.4064 24.0985 21.693C24.0985 20.9795 23.5161 20.3992 22.8002 20.3992ZM22.8002 22.225C22.5044 22.225 22.2637 21.9863 22.2637 21.6929C22.2637 21.3996 22.5044 21.1608 22.8002 21.1608C23.0961 21.1608 23.3368 21.3995 23.3368 21.6929C23.3368 21.9863 23.0961 22.225 22.8002 22.225Z" fill="black"/>
</g>
</g>
<g id="Group_25">
<g id="Group_26">
<path id="Vector_13" d="M18.343 7.15736C18.5851 7.15736 18.8739 7.03813 19.0455 6.8674L20.5168 5.40328C20.6647 5.46173 20.8256 5.49423 20.994 5.49423C21.71 5.49423 22.2923 4.91385 22.2923 4.20042C22.2923 3.48705 21.7099 2.90672 20.994 2.90672C20.2782 2.90672 19.6958 3.4871 19.6958 4.20042C19.6958 4.46829 19.7779 4.71748 19.9185 4.92416L18.5083 6.32734C18.4785 6.35593 18.3842 6.39493 18.343 6.39564H15.1993V3.87451H16.0836C16.2472 4.40258 16.7415 4.78745 17.3244 4.78745C18.0403 4.78745 18.6227 4.20707 18.6227 3.49365C18.6227 2.78027 18.0402 2.19989 17.3244 2.19989C16.7415 2.19989 16.2472 2.58471 16.0836 3.11279H15.1993V3.0551C15.1993 1.37048 13.8229 0 12.131 0C10.9215 0 9.83648 0.704945 9.34137 1.78283C9.26525 1.77745 9.18933 1.7747 9.11402 1.7747C7.35557 1.7747 5.92023 3.1786 5.87946 4.91989C5.72762 4.89826 5.57406 4.88734 5.41984 4.88734C3.63579 4.88734 2.18441 6.33247 2.18441 8.10875C2.18441 8.49865 2.25281 8.8759 2.38809 9.23477C1.05641 10.0249 0.243652 11.4364 0.243652 13C0.243652 13.8395 0.482781 14.6556 0.935141 15.3599C1.30777 15.94 1.8098 16.4229 2.40028 16.7723C2.2584 17.14 2.18441 17.5338 2.18441 17.9292C2.18441 18.7133 2.47071 19.469 2.99056 20.057C3.12986 20.2146 3.37056 20.2294 3.52818 20.0901C3.68581 19.9507 3.70059 19.7101 3.56124 19.5525C3.16454 19.1038 2.94613 18.5273 2.94613 17.9291C2.94613 17.5267 3.04124 17.1429 3.22852 16.7883C3.45206 16.3637 3.79936 16.0052 4.23866 15.7673C4.42366 15.6671 4.49237 15.436 4.39218 15.2511C4.29204 15.066 4.06083 14.9972 3.87593 15.0976C3.42098 15.344 3.0417 15.6896 2.75809 16.0987C1.66903 15.4435 1.00537 14.2852 1.00537 13C1.00537 11.6259 1.76648 10.394 2.99529 9.77052C2.99529 9.77052 3.70632 9.37493 4.65025 9.37493C4.86063 9.37493 5.0311 9.20446 5.0311 8.99407C5.0311 8.78368 4.86063 8.61321 4.65025 8.61321C4.09693 8.61321 3.56728 8.71554 3.07897 8.90175C2.99143 8.64784 2.94623 8.38251 2.94623 8.1088C2.94623 6.75248 4.0559 5.64911 5.41994 5.64911C5.67633 5.64911 5.92998 5.68836 6.17384 5.7658C6.29881 5.80546 6.43536 5.77809 6.53535 5.69329C6.63539 5.60848 6.68475 5.47828 6.66601 5.34848C6.649 5.23027 6.64036 5.11174 6.64036 4.99616C6.64036 3.6399 7.75008 2.53647 9.11412 2.53647C9.24808 2.53647 9.38499 2.54795 9.52123 2.57034C10.6921 2.76402 11.5878 3.77777 11.5878 4.99616C11.5878 5.20655 11.7583 5.37702 11.9687 5.37702C12.1791 5.37702 12.3495 5.20655 12.3495 4.99616C12.3495 3.56911 11.4124 2.35661 10.1188 1.93482C10.5209 1.21971 11.2852 0.761719 12.131 0.761719C13.4029 0.761719 14.4376 1.79055 14.4376 3.0551V3.0974H13.7051C13.4947 3.0974 13.3242 3.26788 13.3242 3.47826C13.3242 3.68865 13.4947 3.85912 13.7051 3.85912H14.4376V6.39559H11.3572C10.6603 6.39559 10.0932 5.83223 10.0932 5.13977C10.0932 4.92939 9.92276 4.75891 9.71237 4.75891C9.50199 4.75891 9.33152 4.92939 9.33152 5.13977C9.33152 6.25224 10.2402 7.15731 11.3572 7.15731H14.4376V13.5688H8.25968C8.04929 13.5688 7.87882 13.7392 7.87882 13.9496C7.87882 14.16 8.04929 14.3305 8.25968 14.3305H14.4376V19.5597H13.2607C12.1861 19.5597 11.3118 20.4305 11.3118 21.5008C11.3118 21.7112 11.4823 21.8817 11.6927 21.8817C11.9031 21.8817 12.0735 21.7112 12.0735 21.5008C12.0735 20.8505 12.6061 20.3214 13.2607 20.3214H14.4376V22.9449C14.4376 23.0047 14.4346 23.0638 14.4301 23.1225H13.7051C13.4947 23.1225 13.3242 23.293 13.3242 23.5033C13.3242 23.7137 13.4947 23.8842 13.7051 23.8842H14.2344C13.8728 24.6816 13.0663 25.2383 12.131 25.2383C11.2909 25.2383 10.5294 24.785 10.1252 24.0768C10.5853 23.9265 11.0086 23.6739 11.3653 23.3298C11.5167 23.1838 11.521 22.9427 11.375 22.7913C11.2289 22.6399 10.9878 22.6356 10.8365 22.7816C10.4728 23.1325 10.0181 23.3591 9.52717 23.4409C9.38875 23.4641 9.24976 23.4759 9.11402 23.4759C7.74998 23.4759 6.64026 22.3724 6.64026 21.0161C6.64026 20.9814 6.64234 20.9454 6.64402 20.9098C6.95145 20.7847 7.24024 20.6134 7.4978 20.3984C7.65929 20.2636 7.68087 20.0235 7.54605 19.862C7.41122 19.7005 7.17499 19.6838 7.00959 19.8137C6.24534 20.4141 5.50616 20.4047 5.21046 20.3802C5.00023 20.3624 4.81681 20.5186 4.79934 20.7282C4.78192 20.9378 4.93777 21.1219 5.14739 21.1393C5.39089 21.1594 5.63896 21.1524 5.88017 21.118C5.9343 22.8474 7.3642 24.2376 9.11407 24.2376C9.19116 24.2376 9.2689 24.2347 9.3469 24.229C9.84466 25.2998 10.9275 26 12.131 26C13.8229 26 15.1993 24.6295 15.1993 22.9449V22.1033H17.2183C17.2596 22.104 17.354 22.1429 17.3837 22.1714L18.2917 23.075C18.1689 23.2726 18.0977 23.5053 18.0977 23.7544C18.0977 24.4678 18.6801 25.0482 19.396 25.0482C20.1119 25.0482 20.6943 24.4678 20.6943 23.7544C20.6943 23.0409 20.1119 22.4605 19.396 22.4605C19.2078 22.4605 19.029 22.501 18.8673 22.5731L17.921 21.6315C17.7494 21.4608 17.4605 21.3415 17.2185 21.3415H15.1993V19.3056H18.5103C18.6738 19.8337 19.1681 20.2186 19.7511 20.2186C20.467 20.2186 21.0494 19.6382 21.0494 18.9247C21.0494 18.2113 20.467 17.6309 19.7511 17.6309C19.1682 17.6309 18.6738 18.0158 18.5103 18.5439H15.1993V15.9926H19.1614C19.325 16.5207 19.8193 16.9056 20.4022 16.9056C21.1181 16.9056 21.7005 16.3252 21.7005 15.6118C21.7005 14.8984 21.1181 14.318 20.4022 14.318C19.8193 14.318 19.325 14.7028 19.1614 15.2309H15.1993V12.4588H16.1428C16.3064 12.9868 16.8007 13.3717 17.3836 13.3717C18.0995 13.3717 18.6819 12.7913 18.6819 12.078C18.6819 11.3645 18.0995 10.7842 17.3836 10.7842C16.8007 10.7842 16.3063 11.169 16.1428 11.6971H15.1993V9.49924H19.3491C19.3904 9.5 19.4848 9.5389 19.5145 9.56744L20.2968 10.346C20.3711 10.42 20.4682 10.4569 20.5654 10.4569C20.6632 10.4569 20.761 10.4195 20.8354 10.3447C20.9838 10.1956 20.9832 9.95445 20.8341 9.80606L20.0517 9.02748C19.8802 8.85676 19.5913 8.73752 19.3492 8.73752H15.1993V7.15736H18.343ZM20.994 3.66839C21.2899 3.66839 21.5306 3.90706 21.5306 4.20037C21.5306 4.49373 21.2899 4.73246 20.994 4.73246C20.6982 4.73246 20.4575 4.49378 20.4575 4.20037C20.4575 3.90706 20.6982 3.66839 20.994 3.66839ZM17.3244 2.96161C17.6202 2.96161 17.8609 3.20028 17.8609 3.49365C17.8609 3.78701 17.6202 4.02573 17.3244 4.02573C17.0285 4.02573 16.7879 3.78706 16.7879 3.49365C16.7878 3.20028 17.0285 2.96161 17.3244 2.96161ZM19.396 23.2222C19.6919 23.2222 19.9326 23.4609 19.9326 23.7543C19.9326 24.0477 19.6919 24.2864 19.396 24.2864C19.1002 24.2864 18.8594 24.0477 18.8594 23.7543C18.8594 23.4609 19.1002 23.2222 19.396 23.2222ZM19.7511 18.3927C20.047 18.3927 20.2877 18.6313 20.2877 18.9247C20.2877 19.2181 20.047 19.4568 19.7511 19.4568C19.4553 19.4568 19.2146 19.2182 19.2146 18.9247C19.2146 18.6314 19.4553 18.3927 19.7511 18.3927ZM20.4022 15.0797C20.698 15.0797 20.9387 15.3184 20.9387 15.6118C20.9387 15.9051 20.698 16.1439 20.4022 16.1439C20.1063 16.1439 19.8656 15.9052 19.8656 15.6118C19.8656 15.3184 20.1063 15.0797 20.4022 15.0797ZM17.3836 11.5459C17.6794 11.5459 17.9201 11.7846 17.9201 12.078C17.9201 12.3713 17.6794 12.61 17.3836 12.61C17.0877 12.61 16.847 12.3713 16.847 12.078C16.847 11.7846 17.0877 11.5459 17.3836 11.5459Z" fill="black"/>
</g>
</g>
</g>
<defs>
<clipPath id="clip0_444_1581">
<rect width="26" height="26" fill="white"/>
</clipPath>
</defs>
</svg>
