<svg width="61" height="60" viewBox="0 0 61 60" fill="none" xmlns="http://www.w3.org/2000/svg">
<g id="artificial-intelligence 1" clip-path="url(#clip0_647_7030)">
<path id="Vector 9" d="M14.9171 12.375C15.2171 6.07502 20.5421 4.75002 23.1671 4.87502C27.6673 -2.02495 32.7921 2.00003 34.792 4.87502V54C30.592 62.7 25.042 58.375 22.792 55.125C16.792 55.125 15.042 50.375 14.917 48C6.81699 49.2 6.2921 42 7.04215 38.25C-1.95702 31.65 3.2925 24.25 7.04215 21.375C5.54215 12.975 11.6671 11.875 14.9171 12.375Z" fill="#F9BD39"/>
<g id="Group">
<g id="Group_2">
<path id="Vector" d="M14.6771 31.3125H12.1561C10.5478 31.3125 9.23926 30.0123 9.23926 28.4142C9.23926 27.9287 8.84586 27.5353 8.36035 27.5353C7.87484 27.5353 7.48145 27.9287 7.48145 28.4142C7.48145 30.9815 9.57852 33.0703 12.1562 33.0703H14.6771C15.1626 33.0703 15.556 32.6769 15.556 32.1914C15.556 31.7059 15.1626 31.3125 14.6771 31.3125Z" fill="black"/>
</g>
</g>
<g id="Group_3">
<g id="Group_4">
<path id="Vector_2" d="M22.9357 37.8174H15.4272C12.9473 37.8174 10.9297 39.8268 10.9297 42.297C10.9297 42.7825 11.3231 43.1759 11.8086 43.1759C12.2941 43.1759 12.6875 42.7824 12.6875 42.297C12.6875 40.7962 13.9164 39.5752 15.4272 39.5752H22.9357C23.4212 39.5752 23.8146 39.1818 23.8146 38.6963C23.8146 38.2108 23.4212 37.8174 22.9357 37.8174Z" fill="black"/>
</g>
</g>
<g id="Group_5">
<g id="Group_6">
<path id="Vector_3" d="M30.0968 37.8174H26.4512C25.9657 37.8174 25.5723 38.2108 25.5723 38.6963C25.5723 39.1818 25.9657 39.5752 26.4512 39.5752H30.0968C30.5823 39.5752 30.9757 39.1818 30.9757 38.6963C30.9757 38.2108 30.5821 37.8174 30.0968 37.8174Z" fill="black"/>
</g>
</g>
<g id="Group_7">
<g id="Group_8">
<path id="Vector_4" d="M23.9166 20.7395C23.4311 20.7395 23.0377 21.133 23.0377 21.6184C23.0377 24.1316 20.9811 26.1762 18.4531 26.1762C17.9676 26.1762 17.5742 26.5696 17.5742 27.0551C17.5742 27.5406 17.9676 27.934 18.4531 27.934C21.9504 27.934 24.7955 25.1009 24.7955 21.6184C24.7955 21.133 24.4021 20.7395 23.9166 20.7395Z" fill="black"/>
</g>
</g>
<g id="Group_9">
<g id="Group_10">
<path id="Vector_5" d="M22.2972 7.45267C20.1977 7.3179 18.3773 8.90966 18.2411 11.0022C18.2096 11.4866 18.5768 11.9047 19.0611 11.9364C19.0806 11.9377 19.0999 11.9383 19.1191 11.9383C19.5785 11.9383 19.965 11.5813 19.9953 11.1164C20.0684 9.99048 21.0505 9.13536 22.1843 9.20685C22.6691 9.23931 23.0866 8.87075 23.1178 8.3863C23.1491 7.90185 22.7817 7.48396 22.2972 7.45267Z" fill="black"/>
</g>
</g>
<g id="Group_11">
<g id="Group_12">
<path id="Vector_6" d="M19.3408 41.731C18.8553 41.731 18.4619 42.1244 18.4619 42.6099C18.4619 43.0954 18.8553 43.4888 19.3408 43.4888C20.7922 43.4888 21.973 44.6617 21.973 46.1033C21.973 47.5453 20.7922 48.7183 19.3408 48.7183C18.8553 48.7183 18.4619 49.1117 18.4619 49.5972C18.4619 50.0827 18.8553 50.4761 19.3408 50.4761C21.7614 50.4761 23.7308 48.5146 23.7308 46.1033C23.7308 43.6924 21.7614 41.731 19.3408 41.731Z" fill="black"/>
</g>
</g>
<g id="Group_13">
<g id="Group_14">
<path id="Vector_7" d="M28.335 21.0343C27.8495 21.0343 27.4561 21.4277 27.4561 21.9132C27.4561 22.3987 27.8495 22.7921 28.335 22.7921C29.5009 22.7921 30.4495 23.734 30.4495 24.8918C30.4495 26.0497 29.5009 26.9916 28.335 26.9916C27.8495 26.9916 27.4561 27.385 27.4561 27.8706C27.4561 28.3561 27.8495 28.7495 28.335 28.7495C30.4702 28.7495 32.2073 27.0188 32.2073 24.8918C32.2073 22.7648 30.4702 21.0343 28.335 21.0343Z" fill="black"/>
</g>
</g>
<g id="Group_15">
<g id="Group_16">
<path id="Vector_8" d="M12.8516 15.4462C12.3661 15.4462 11.9727 15.8396 11.9727 16.3251C11.9727 16.8106 12.3661 17.204 12.8516 17.204C14.8548 17.204 16.4844 18.8235 16.4844 20.8143C16.4844 22.8052 14.8548 24.4248 12.8516 24.4248C12.3661 24.4248 11.9727 24.8182 11.9727 25.3037C11.9727 25.7893 12.3661 26.1827 12.8516 26.1827C15.8239 26.1827 18.2422 23.7744 18.2422 20.8143C18.2422 17.8543 15.8239 15.4462 12.8516 15.4462Z" fill="black"/>
</g>
</g>
<g id="Group_17">
<g id="Group_18">
<path id="Vector_9" d="M54.1708 15.4062C52.5188 15.4062 51.1748 16.7456 51.1748 18.3918C51.1748 20.0382 52.5188 21.3775 54.1708 21.3775C55.8228 21.3775 57.1668 20.0382 57.1668 18.3918C57.1668 16.7456 55.8228 15.4062 54.1708 15.4062ZM54.1709 19.6198C53.4882 19.6198 52.9327 19.0691 52.9327 18.392C52.9326 17.715 53.4881 17.1642 54.1709 17.1642C54.8537 17.1642 55.4091 17.715 55.4091 18.392C55.4091 19.0689 54.8537 19.6198 54.1709 19.6198Z" fill="black"/>
</g>
</g>
<g id="Group_19">
<g id="Group_20">
<path id="Vector_10" d="M57.1064 37.9005C55.4543 37.9005 54.1104 39.2398 54.1104 40.8862C54.1104 42.5326 55.4544 43.8718 57.1064 43.8718C58.7584 43.8718 60.1023 42.5325 60.1023 40.8862C60.1023 39.24 58.7584 37.9005 57.1064 37.9005ZM57.1064 42.114C56.4236 42.114 55.8682 41.5632 55.8682 40.8862C55.8682 40.2092 56.4236 39.6583 57.1064 39.6583C57.7891 39.6583 58.3445 40.2091 58.3445 40.8862C58.3446 41.5632 57.7891 42.114 57.1064 42.114Z" fill="black"/>
</g>
</g>
<g id="Group_21">
<g id="Group_22">
<path id="Vector_11" d="M55.2632 27.3669C54.7563 27.367 54.2786 27.4935 53.8595 27.7161L52.1463 26.0112C51.802 25.6688 51.2457 25.6703 50.9034 26.0143C50.5609 26.3583 50.5624 26.9148 50.9064 27.2572L52.6154 28.9577C52.3935 29.3744 52.2672 29.8489 52.2672 30.3524C52.2672 31.9988 53.6112 33.3382 55.2632 33.3382C56.9153 33.3382 58.2592 31.9988 58.2592 30.3524C58.2592 28.7062 56.9152 27.3669 55.2632 27.3669ZM55.2633 31.5805C54.5806 31.5805 54.0251 31.0297 54.0251 30.3526C54.0251 29.6757 54.5806 29.1248 55.2633 29.1248C55.9461 29.1248 56.5015 29.6756 56.5015 30.3526C56.5015 31.0296 55.9461 31.5805 55.2633 31.5805Z" fill="black"/>
</g>
</g>
<g id="Group_23">
<g id="Group_24">
<path id="Vector_12" d="M53.2831 47.075C51.631 47.075 50.2871 48.4143 50.2871 50.0607C50.2871 51.707 51.6311 53.0464 53.2831 53.0464C54.9352 53.0464 56.2791 51.707 56.2791 50.0607C56.2791 48.4143 54.9352 47.075 53.2831 47.075ZM53.2831 51.2884C52.6004 51.2884 52.0449 50.7376 52.0449 50.0605C52.0449 49.3835 52.6004 48.8326 53.2831 48.8326C53.9659 48.8326 54.5213 49.3834 54.5213 50.0605C54.5214 50.7376 53.966 51.2884 53.2831 51.2884Z" fill="black"/>
</g>
</g>
<g id="Group_25">
<g id="Group_26">
<path id="Vector_13" d="M43.0002 16.517C43.5588 16.517 44.2254 16.2418 44.6213 15.8479L48.0167 12.4691C48.358 12.604 48.7292 12.679 49.1179 12.679C50.77 12.679 52.114 11.3396 52.114 9.69328C52.114 8.04703 50.7699 6.70781 49.1179 6.70781C47.4659 6.70781 46.122 8.04715 46.122 9.69328C46.122 10.3114 46.3115 10.8865 46.6359 11.3634L43.3817 14.6016C43.3129 14.6675 43.0952 14.7575 43.0002 14.7592H35.7456V8.94117H37.7861C38.1636 10.1598 39.3043 11.048 40.6495 11.048C42.3016 11.048 43.6455 9.70863 43.6455 8.06227C43.6455 6.41602 42.3015 5.07668 40.6495 5.07668C39.3043 5.07668 38.1636 5.96473 37.7861 7.18336H35.7456V7.05023C35.7456 3.16266 32.5692 0 28.6647 0C25.8736 0 23.3697 1.6268 22.2271 4.11422C22.0515 4.1018 21.8763 4.09547 21.7025 4.09547C17.6445 4.09547 14.3322 7.33523 14.2381 11.3536C13.8877 11.3037 13.5334 11.2785 13.1775 11.2785C9.06043 11.2785 5.71109 14.6134 5.71109 18.7125C5.71109 19.6123 5.86895 20.4829 6.18113 21.311C3.10801 23.1345 1.23242 26.3918 1.23242 30C1.23242 31.9373 1.78426 33.8205 2.82816 35.4458C3.68809 36.7846 4.8466 37.8989 6.20926 38.7054C5.88184 39.5539 5.71109 40.4626 5.71109 41.375C5.71109 43.1846 6.3718 44.9285 7.57145 46.2854C7.89289 46.6491 8.44836 46.6833 8.81211 46.3617C9.17586 46.0402 9.20996 45.4848 8.8884 45.1211C7.97293 44.0857 7.46891 42.7553 7.46891 41.3749C7.46891 40.4463 7.6884 39.5606 8.12059 38.7422C8.63645 37.7624 9.43789 36.935 10.4517 36.3861C10.8786 36.1549 11.0371 35.6216 10.8059 35.1948C10.5748 34.7678 10.0413 34.609 9.61461 34.8405C8.56473 35.4093 7.68945 36.2067 7.03496 37.1508C4.52176 35.6389 2.99023 32.9658 2.99023 30C2.99023 26.8289 4.74664 23.9862 7.58234 22.5473C7.58234 22.5473 9.2232 21.6345 11.4015 21.6345C11.887 21.6345 12.2804 21.2411 12.2804 20.7555C12.2804 20.27 11.887 19.8766 11.4015 19.8766C10.1246 19.8766 8.90234 20.1128 7.77547 20.5425C7.57344 19.9566 7.46914 19.3443 7.46914 18.7126C7.46914 15.5827 10.0299 13.0364 13.1777 13.0364C13.7694 13.0364 14.3547 13.127 14.9175 13.3057C15.2059 13.3972 15.521 13.3341 15.7517 13.1384C15.9826 12.9427 16.0965 12.6422 16.0532 12.3427C16.014 12.0698 15.9941 11.7963 15.9941 11.5296C15.9941 8.39977 18.555 5.8534 21.7027 5.8534C22.0119 5.8534 22.3278 5.87988 22.6422 5.93156C25.3443 6.37852 27.4113 8.71793 27.4113 11.5296C27.4113 12.0151 27.8047 12.4085 28.2902 12.4085C28.7757 12.4085 29.1691 12.0151 29.1691 11.5296C29.1691 8.23641 27.0064 5.43832 24.0212 4.46496C24.9492 2.81473 26.7129 1.75781 28.6647 1.75781C31.5998 1.75781 33.9877 4.13203 33.9877 7.05023V7.14785H32.2973C31.8118 7.14785 31.4184 7.54125 31.4184 8.02676C31.4184 8.51227 31.8118 8.90566 32.2973 8.90566H33.9877V14.7591H26.8791C25.2707 14.7591 23.9622 13.459 23.9622 11.861C23.9622 11.3755 23.5688 10.9821 23.0833 10.9821C22.5978 10.9821 22.2044 11.3755 22.2044 11.861C22.2044 14.4282 24.3015 16.5169 26.8791 16.5169H33.9877V31.3125H19.7309C19.2454 31.3125 18.852 31.7059 18.852 32.1914C18.852 32.6769 19.2454 33.0703 19.7309 33.0703H33.9877V45.1378H31.2718C28.7919 45.1378 26.7744 47.1472 26.7744 49.6173C26.7744 50.1028 27.1678 50.4962 27.6533 50.4962C28.1388 50.4962 28.5322 50.1028 28.5322 49.6173C28.5322 48.1166 29.7611 46.8956 31.2718 46.8956H33.9877V52.9498C33.9877 53.0878 33.9807 53.2242 33.9703 53.3596H32.2973C31.8118 53.3596 31.4184 53.753 31.4184 54.2385C31.4184 54.724 31.8118 55.1174 32.2973 55.1174H33.5189C32.6844 56.9575 30.8232 58.2422 28.6647 58.2422C26.726 58.2422 24.9688 57.1962 24.0361 55.5618C25.0977 55.215 26.0746 54.6321 26.8978 53.838C27.2471 53.501 27.2571 52.9446 26.92 52.5954C26.583 52.2458 26.0266 52.236 25.6774 52.573C24.8381 53.3828 23.7889 53.9055 22.6559 54.0945C22.3365 54.1479 22.0157 54.1751 21.7025 54.1751C18.5547 54.1751 15.9938 51.6287 15.9938 48.4987C15.9938 48.4187 15.9986 48.3356 16.0025 48.2534C16.712 47.9646 17.3784 47.5695 17.9728 47.0733C18.3454 46.7623 18.3952 46.208 18.0841 45.8353C17.773 45.4627 17.2278 45.4241 16.8461 45.724C15.0825 47.1094 13.3767 47.0878 12.6943 47.0312C12.2091 46.9901 11.7859 47.3507 11.7455 47.8343C11.7054 48.318 12.065 48.7427 12.5487 48.783C13.1107 48.8295 13.6831 48.8132 14.2398 48.7338C14.3647 52.7248 17.6645 55.9329 21.7026 55.9329C21.8805 55.9329 22.0599 55.9262 22.2399 55.9131C23.3886 58.3841 25.8874 60 28.6647 60C32.5691 60 35.7456 56.8373 35.7456 52.9498V51.0075H40.4047C40.5001 51.0091 40.7178 51.099 40.7864 51.1649L42.8818 53.25C42.5983 53.706 42.4341 54.243 42.4341 54.8177C42.4341 56.4641 43.7782 57.8034 45.4302 57.8034C47.0823 57.8034 48.4262 56.4641 48.4262 54.8177C48.4262 53.1714 47.0822 51.832 45.4302 51.832C44.9957 51.832 44.5831 51.9254 44.21 52.0918L42.0262 49.9188C41.6302 49.5248 40.9637 49.2497 40.405 49.2497H35.7456V44.5514H43.3862C43.7636 45.77 44.9043 46.6582 46.2497 46.6582C47.9018 46.6582 49.2457 45.3189 49.2457 43.6725C49.2457 42.0261 47.9016 40.6868 46.2497 40.6868C44.9045 40.6868 43.7636 41.5748 43.3862 42.7936H35.7456V36.9061H44.8888C45.2662 38.1247 46.4069 39.0129 47.7522 39.0129C49.4043 39.0129 50.7482 37.6736 50.7482 36.0272C50.7482 34.3808 49.4042 33.0415 47.7522 33.0415C46.4069 33.0415 45.2662 33.9295 44.8888 35.1483H35.7456V28.7511H37.9227C38.3002 29.9696 39.4409 30.8578 40.7861 30.8578C42.4382 30.8578 43.7822 29.5185 43.7822 27.8722C43.7822 26.2259 42.4381 24.8865 40.7861 24.8865C39.4409 24.8865 38.3001 25.7746 37.9227 26.9933H35.7456V21.9213H45.3219C45.4172 21.9231 45.635 22.0129 45.7036 22.0787L47.5089 23.8754C47.6804 24.0461 47.9046 24.1314 48.1289 24.1314C48.3545 24.1314 48.5802 24.045 48.7518 23.8724C49.0943 23.5283 49.0929 22.9718 48.7488 22.6294L46.9434 20.8327C46.5474 20.4387 45.8809 20.1635 45.3222 20.1635H35.7456V16.517H43.0002ZM49.1179 8.46551C49.8007 8.46551 50.3561 9.01629 50.3561 9.69316C50.3561 10.3702 49.8007 10.9211 49.1179 10.9211C48.4352 10.9211 47.8798 10.3703 47.8798 9.69316C47.8798 9.01629 48.4352 8.46551 49.1179 8.46551ZM40.6495 6.83449C41.3322 6.83449 41.8877 7.38527 41.8877 8.06227C41.8877 8.73926 41.3322 9.29016 40.6495 9.29016C39.9668 9.29016 39.4114 8.73937 39.4114 8.06227C39.4113 7.38527 39.9668 6.83449 40.6495 6.83449ZM45.4302 53.5897C46.1129 53.5897 46.6684 54.1406 46.6684 54.8176C46.6684 55.4946 46.1129 56.0455 45.4302 56.0455C44.7474 56.0455 44.192 55.4947 44.192 54.8176C44.192 54.1406 44.7474 53.5897 45.4302 53.5897ZM46.2497 42.4446C46.9324 42.4446 47.4879 42.9954 47.4879 43.6725C47.4879 44.3495 46.9324 44.9004 46.2497 44.9004C45.5669 44.9004 45.0115 44.3496 45.0115 43.6725C45.0115 42.9955 45.5669 42.4446 46.2497 42.4446ZM47.7521 34.7993C48.4348 34.7993 48.9903 35.3501 48.9903 36.0272C48.9903 36.7042 48.4348 37.2551 47.7521 37.2551C47.0694 37.2551 46.5139 36.7043 46.5139 36.0272C46.5139 35.3501 47.0694 34.7993 47.7521 34.7993ZM40.7861 26.6443C41.4689 26.6443 42.0243 27.1951 42.0243 27.8722C42.0243 28.5491 41.4689 29.1 40.7861 29.1C40.1034 29.1 39.5479 28.5492 39.5479 27.8722C39.5479 27.1951 40.1034 26.6443 40.7861 26.6443Z" fill="black"/>
</g>
</g>
</g>
<defs>
<clipPath id="clip0_647_7030">
<rect width="60" height="60" fill="white" transform="translate(0.666992)"/>
</clipPath>
</defs>
</svg>
