<svg width="61" height="60" viewBox="0 0 61 60" fill="none" xmlns="http://www.w3.org/2000/svg">
<g id="data 1" clip-path="url(#clip0_647_7079)">
<rect id="Rectangle 4474" x="1.41699" y="1.5" width="48.75" height="39.75" rx="4" fill="#F9BD39"/>
<rect id="Rectangle 4473" x="8.91699" y="9" width="46.5" height="39.75" rx="4" fill="white"/>
<g id="Group">
<g id="Group_2">
<path id="Vector" d="M46.1682 0H6.16799C3.40798 0.00325001 1.17122 2.24001 1.16797 5.00002V37.0002C1.16772 39.2808 2.71073 41.2724 4.91898 41.8422L5.41899 39.9062C4.09361 39.5644 3.16748 38.3689 3.16798 37.0002V5.00002C3.16798 3.34314 4.51111 2.00001 6.16799 2.00001H46.1682C47.825 2.00001 49.1682 3.34314 49.1682 5.00002V6.00002H51.1682V5.00002C51.1649 2.24001 48.9282 0.00325001 46.1682 0Z" fill="black"/>
</g>
</g>
<g id="Group_3">
<g id="Group_4">
<path id="Vector_2" d="M7.167 4H5.16699V6.00001H7.167V4Z" fill="black"/>
</g>
</g>
<g id="Group_5">
<g id="Group_6">
<path id="Vector_3" d="M11.166 4H9.16602V6.00001H11.166V4Z" fill="black"/>
</g>
</g>
<g id="Group_7">
<g id="Group_8">
<path id="Vector_4" d="M15.168 4H13.168V6.00001H15.168V4Z" fill="black"/>
</g>
</g>
<g id="Group_9">
<g id="Group_10">
<path id="Vector_5" d="M59.8742 55.2933L50.3892 45.8082C50.8874 44.9189 51.2859 43.9771 51.5772 43.0002H53.1672V41.0002H52.0072C52.3838 38.5796 52.0934 36.1021 51.1672 33.8342V24.0002H49.1672V30.3682C48.5733 29.6096 47.9031 28.9139 47.1671 28.2922V20.0001H45.1671V26.8942C44.527 26.5232 43.8581 26.2038 43.1671 25.9392V16.0001H41.1671V25.3322C40.5081 25.1899 39.8397 25.096 39.1671 25.0512V18.0001H37.1671V25.0512C36.4945 25.096 35.8261 25.1899 35.1671 25.3322V22.0001H33.1671V25.9392C32.4761 26.2038 31.8073 26.5232 31.1671 26.8942V21.0001H29.1671V28.2922C28.4311 28.9139 27.7609 29.6096 27.1671 30.3682V23.0002H25.1671V33.8342C24.2408 36.1021 23.9504 38.5796 24.327 41.0002H11.167V43.0002H24.757C26.9503 50.398 34.7253 54.617 42.123 52.4238C43.5808 51.9915 44.9583 51.3243 46.2011 50.4483L55.4602 59.7073C55.8507 60.0977 56.4837 60.0977 56.8742 59.7073L59.8742 56.7073C60.2646 56.3168 60.2646 55.6838 59.8742 55.2933ZM38.1671 51.0003C31.5426 50.9931 26.1742 45.6247 26.1671 39.0002C26.1671 32.3728 31.5397 27.0002 38.1671 27.0002C44.7945 27.0002 50.1672 32.3728 50.1672 39.0002C50.1672 45.6276 44.7945 51.0003 38.1671 51.0003ZM56.1672 57.5863L47.7551 49.1743C48.3001 48.6593 48.8034 48.1019 49.2602 47.5073L57.7532 56.0003L56.1672 57.5863Z" fill="black"/>
</g>
</g>
<g id="Group_11">
<g id="Group_12">
<path id="Vector_6" d="M38.168 29.0001C32.6451 29.0001 28.168 33.4773 28.168 39.0002C28.168 44.5231 32.6451 49.0002 38.168 49.0002C43.6909 49.0002 48.1681 44.5231 48.1681 39.0002C48.1621 33.4798 43.6884 29.0061 38.168 29.0001ZM38.168 47.0002C35.3135 46.9966 32.6772 45.4722 31.25 43.0002H45.086C43.6588 45.4722 41.0225 46.9966 38.168 47.0002ZM30.431 41.0002C29.6264 37.9552 30.7007 34.7226 33.168 32.7651V39.0002H35.168V31.5891C35.8093 31.3296 36.4816 31.1549 37.168 31.0691V39.0002H39.168V31.0691C39.8544 31.1549 40.5268 31.3296 41.168 31.5891V39.0002H43.168V32.7651C45.6353 34.7226 46.7097 37.9552 45.905 41.0002H30.431Z" fill="black"/>
</g>
</g>
<g id="Group_13">
<g id="Group_14">
<path id="Vector_7" d="M52.1682 8H12.168C9.40798 8.00325 7.17122 10.24 7.16797 13V45.0002C7.17122 47.7602 9.40798 49.9969 12.168 50.0002H25.168V48.0002H12.168C10.5111 48.0002 9.16798 46.657 9.16798 45.0002V13C9.16798 11.3431 10.5111 10 12.168 10H52.1682C53.825 10 55.1682 11.3431 55.1682 13V45.0002C55.168 45.7308 54.9014 46.4362 54.4182 46.9842L55.9182 48.3072C56.7242 47.3942 57.1687 46.218 57.1682 45.0002V13C57.1649 10.24 54.9282 8.00325 52.1682 8Z" fill="black"/>
</g>
</g>
<g id="Group_15">
<g id="Group_16">
<path id="Vector_8" d="M13.167 12H11.167V14H13.167V12Z" fill="black"/>
</g>
</g>
<g id="Group_17">
<g id="Group_18">
<path id="Vector_9" d="M17.166 12.0001H15.166V14.0001H17.166V12.0001Z" fill="black"/>
</g>
</g>
<g id="Group_19">
<g id="Group_20">
<path id="Vector_10" d="M21.168 12.0001H19.168V14.0001H21.168V12.0001Z" fill="black"/>
</g>
</g>
<g id="Group_21">
<g id="Group_22">
<path id="Vector_11" d="M15.168 33.0002H13.168V39.0003H15.168V33.0002Z" fill="black"/>
</g>
</g>
<g id="Group_23">
<g id="Group_24">
<path id="Vector_12" d="M19.167 27.0001H17.167V39.0002H19.167V27.0001Z" fill="black"/>
</g>
</g>
<g id="Group_25">
<g id="Group_26">
<path id="Vector_13" d="M23.166 30.0001H21.166V39.0002H23.166V30.0001Z" fill="black"/>
</g>
</g>
</g>
<defs>
<clipPath id="clip0_647_7079">
<rect width="60" height="60" fill="white" transform="translate(0.666992)"/>
</clipPath>
</defs>
</svg>
