<svg width="30" height="30" viewBox="0 0 30 30" fill="none" xmlns="http://www.w3.org/2000/svg">
<g id="development 1" clip-path="url(#clip0_464_2850)">
<g id="Group">
<g id="Group_2">
<g id="Group_3">
<path id="Vector" d="M27.2723 23.5455H2.72683C1.4541 23.5455 0.454102 22.5455 0.454102 21.2728V7.22732C0.454102 5.95459 1.4541 4.95459 2.72683 4.95459H2.90865C3.18137 4.95459 3.36319 5.13641 3.36319 5.40914C3.36319 5.68186 3.18137 5.86368 2.90865 5.86368H2.72683C1.9541 5.86368 1.36319 6.45459 1.36319 7.22732V21.2728C1.36319 22.0455 1.9541 22.6364 2.72683 22.6364H27.2723C28.045 22.6364 28.6359 22.0455 28.6359 21.2728V7.22732C28.6359 6.45459 28.045 5.86368 27.2723 5.86368H13.2723C12.9996 5.86368 12.8177 5.68186 12.8177 5.40914C12.8177 5.13641 12.9996 4.95459 13.2723 4.95459H27.2723C28.545 4.95459 29.545 5.95459 29.545 7.22732V21.2728C29.545 22.5455 28.545 23.5455 27.2723 23.5455Z" fill="#919191"/>
</g>
<g id="Group_4">
<path id="Vector_2" d="M29.0905 20.7729H0.908647C0.63592 20.7729 0.454102 20.591 0.454102 20.3183C0.454102 20.0456 0.63592 19.8638 0.908647 19.8638H29.0905C29.3632 19.8638 29.545 20.0456 29.545 20.3183C29.545 20.591 29.3632 20.7729 29.0905 20.7729Z" fill="#919191"/>
</g>
<g id="Group_5">
<path id="Vector_3" d="M18.1355 26.5001H11.8627C11.59 26.5001 11.4082 26.3183 11.4082 26.0456V23.091C11.4082 22.8183 11.59 22.6365 11.8627 22.6365H18.1355C18.4082 22.6365 18.59 22.8183 18.59 23.091V26.0456C18.59 26.3183 18.4082 26.5001 18.1355 26.5001ZM12.3173 25.591H17.6809V23.5456H12.3173V25.591Z" fill="#919191"/>
</g>
<g id="Group_6">
<path id="Vector_4" d="M20.0906 29.5002H9.90882C9.27246 29.5002 8.77246 29.0002 8.77246 28.3638V26.7274C8.77246 26.0911 9.27246 25.5911 9.90882 25.5911H20.0906C20.727 25.5911 21.227 26.0911 21.227 26.7274V28.3638C21.227 29.0002 20.727 29.5002 20.0906 29.5002ZM9.90882 26.5002C9.81792 26.5002 9.68155 26.6365 9.68155 26.7274V28.3638C9.68155 28.4547 9.72701 28.5911 9.90882 28.5911H20.0906C20.1816 28.5911 20.3179 28.5456 20.3179 28.3638V26.7274C20.3179 26.6365 20.2725 26.5002 20.0906 26.5002H9.90882Z" fill="#919191"/>
</g>
<g id="Group_7">
<path id="Vector_5" d="M15.6815 22.1818H14.3178C14.0451 22.1818 13.8633 22 13.8633 21.7273C13.8633 21.4545 14.0451 21.2727 14.3178 21.2727H15.6815C15.9542 21.2727 16.136 21.4545 16.136 21.7273C16.136 22 15.9542 22.1818 15.6815 22.1818Z" fill="#919191"/>
</g>
</g>
<g id="Group_8">
<path id="Vector_6" d="M8.09019 11.5909C7.63564 11.5909 7.22655 11.5455 6.81746 11.4546C6.59019 11.4091 6.45382 11.1819 6.49928 10.9546C6.59019 10.4546 6.45382 10.1819 6.31746 10.0909C6.22655 10.0455 5.95382 10.1819 5.6811 10.5455C5.54473 10.7273 5.27201 10.7728 5.09019 10.6819C4.40837 10.2273 3.86292 9.6364 3.45382 8.95458C3.31746 8.77276 3.40837 8.50003 3.59019 8.36367C3.99928 8.04549 4.09019 7.77276 4.09019 7.68185C4.04473 7.59094 3.77201 7.45458 3.27201 7.45458C3.04473 7.45458 2.81746 7.31822 2.77201 7.09094C2.63564 6.27276 2.63564 5.45458 2.81746 4.72731C2.86292 4.50003 3.09019 4.36367 3.31746 4.40912C3.72655 4.40912 4.04473 4.27276 4.09019 4.18185C4.13564 4.09094 3.99928 3.77276 3.63564 3.50003C3.45382 3.36367 3.40837 3.09094 3.54473 2.90912C3.99928 2.22731 4.59019 1.68185 5.27201 1.27276C5.45382 1.1364 5.72655 1.22731 5.86292 1.40912C6.13564 1.81822 6.45382 1.90912 6.54473 1.90912C6.63564 1.81822 6.81746 1.50003 6.77201 1.00003C6.77201 0.772761 6.90837 0.545488 7.13564 0.500034C7.95382 0.36367 8.77201 0.36367 9.49928 0.545488C9.72655 0.590943 9.86292 0.818216 9.81746 1.04549C9.72655 1.54549 9.86292 1.81822 9.99928 1.90912C10.0902 1.95458 10.3629 1.81822 10.6356 1.45458C10.772 1.27276 11.0447 1.22731 11.2266 1.31822C11.9084 1.77276 12.4538 2.36367 12.8629 3.04549C12.9993 3.22731 12.9084 3.50003 12.7266 3.6364C12.3175 3.95458 12.2266 4.22731 12.2266 4.31822C12.272 4.40912 12.5447 4.54549 12.9993 4.50003C13.2266 4.45458 13.4538 4.6364 13.4993 4.86367C13.6356 5.68185 13.6356 6.50003 13.4538 7.22731C13.4084 7.45458 13.1811 7.59094 12.9538 7.54549C12.4538 7.45458 12.1811 7.59094 12.0902 7.72731C11.9993 7.95458 12.272 8.27276 12.5447 8.45458C12.7266 8.59094 12.772 8.86367 12.6811 9.04549C12.2266 9.72731 11.6356 10.2728 10.9538 10.6819C10.772 10.8182 10.4993 10.7273 10.3629 10.5455C10.1356 10.1819 9.81746 10 9.63564 10.0909C9.54473 10.1364 9.40837 10.4091 9.45382 10.9091C9.45382 11.1364 9.31746 11.3637 9.09019 11.4091C8.81746 11.5455 8.45382 11.5909 8.09019 11.5909ZM7.40837 10.6364C7.81746 10.6819 8.22655 10.7273 8.63564 10.6364C8.6811 10 8.99928 9.50003 9.40837 9.31822C9.90837 9.1364 10.4538 9.31822 10.9084 9.77276C11.272 9.54549 11.5447 9.27276 11.8175 8.95458C11.3629 8.50003 11.2266 7.90912 11.4084 7.40912C11.6356 6.95458 12.1356 6.68185 12.772 6.68185C12.8175 6.27276 12.8629 5.86367 12.8175 5.45458C12.1811 5.45458 11.6811 5.1364 11.4993 4.68185C11.3175 4.22731 11.4993 3.68185 11.9538 3.22731C11.7266 2.86367 11.4538 2.59094 11.1356 2.31822C10.6811 2.77276 10.0902 2.95458 9.63564 2.72731C9.1811 2.50003 8.95382 2.00003 8.95382 1.36367C8.54473 1.31822 8.13564 1.27276 7.72655 1.36367C7.6811 2.04549 7.40837 2.54549 6.90837 2.72731C6.45382 2.90912 5.90837 2.72731 5.45382 2.27276C5.09019 2.50003 4.81746 2.77276 4.54473 3.09094C4.99928 3.54549 5.1811 4.1364 4.95382 4.59094C4.72655 5.04549 4.22655 5.27276 3.59019 5.27276C3.54473 5.68185 3.49928 6.09094 3.59019 6.50003C4.22655 6.54549 4.72655 6.81822 4.90837 7.27276C5.09019 7.72731 4.90837 8.27276 4.45382 8.72731C4.6811 9.09094 4.95382 9.36367 5.27201 9.6364C5.72655 9.18185 6.31746 9.00003 6.77201 9.22731C7.13564 9.50003 7.40837 10 7.40837 10.6364Z" fill="#919191"/>
</g>
<g id="Group_9">
<path id="Vector_7" d="M8.13628 9.09091C6.45446 9.09091 5.09082 7.72727 5.09082 6.04545C5.09082 4.36364 6.45446 3 8.13628 3C9.81809 3 11.1817 4.36364 11.1817 6.04545C11.1817 7.72727 9.81809 9.09091 8.13628 9.09091ZM8.13628 3.90909C6.95446 3.90909 5.99991 4.86364 5.99991 6.04545C5.99991 7.22727 6.95446 8.18182 8.13628 8.18182C9.31809 8.18182 10.2726 7.22727 10.2726 6.04545C10.2726 4.86364 9.31809 3.90909 8.13628 3.90909Z" fill="#919191"/>
</g>
<g id="Group_10">
<path id="Vector_8" d="M25.9992 18.7272H16.4083C15.4992 18.7272 14.8174 18.0454 14.8174 17.1363V8.90902C14.8174 7.99993 15.4992 7.31812 16.4083 7.31812H26.0447C26.9537 7.31812 27.6356 7.99993 27.6356 8.90902V17.1818C27.5901 18.0454 26.8628 18.7272 25.9992 18.7272ZM16.4083 8.22721C16.0447 8.22721 15.7265 8.54539 15.7265 8.90902V17.1363C15.7265 17.4999 16.0447 17.8181 16.4083 17.8181H25.9992C26.3628 17.8181 26.681 17.5454 26.7265 17.1363V8.90902C26.7265 8.54539 26.4083 8.22721 26.0447 8.22721H16.4083Z" fill="#919191"/>
</g>
<g id="Group_11">
<path id="Vector_9" d="M27.1356 11.2729H15.2719C14.9992 11.2729 14.8174 11.091 14.8174 10.8183C14.8174 10.5456 14.9992 10.3638 15.2719 10.3638H27.1356C27.4083 10.3638 27.5901 10.5456 27.5901 10.8183C27.5901 11.091 27.4083 11.2729 27.1356 11.2729Z" fill="#919191"/>
</g>
<g id="Group_12">
<g id="Group_13">
<path id="Vector_10" d="M21.7269 9.77286H16.8178C16.5451 9.77286 16.3633 9.59104 16.3633 9.31832C16.3633 9.04559 16.5451 8.86377 16.8178 8.86377H21.7269C21.9996 8.86377 22.1815 9.04559 22.1815 9.31832C22.1815 9.59104 21.9996 9.77286 21.7269 9.77286Z" fill="#919191"/>
</g>
<g id="Group_14">
<path id="Vector_11" d="M23.6362 9.77286H23.1362C22.8635 9.77286 22.6816 9.59104 22.6816 9.31832C22.6816 9.04559 22.8635 8.86377 23.1362 8.86377H23.6362C23.9089 8.86377 24.0907 9.04559 24.0907 9.31832C24.0907 9.59104 23.9089 9.77286 23.6362 9.77286Z" fill="#919191"/>
</g>
<g id="Group_15">
<path id="Vector_12" d="M25.5903 9.77286H25.0903C24.8176 9.77286 24.6357 9.59104 24.6357 9.31832C24.6357 9.04559 24.8176 8.86377 25.0903 8.86377H25.5903C25.863 8.86377 26.0448 9.04559 26.0448 9.31832C26.0448 9.59104 25.863 9.77286 25.5903 9.77286Z" fill="#919191"/>
</g>
</g>
<g id="Group_16">
<g id="Group_17">
<path id="Vector_13" d="M19.5452 16.2273C19.4088 16.2273 19.3179 16.1819 19.227 16.091L17.9088 14.7728C17.8179 14.6819 17.7725 14.591 17.7725 14.4546C17.7725 14.3182 17.8179 14.2273 17.9088 14.1364L19.2725 12.8182C19.4543 12.6364 19.727 12.6364 19.9088 12.8182C20.0906 13.0001 20.0906 13.2728 19.9088 13.4546L18.8634 14.4546L19.8634 15.4546C20.0452 15.6364 20.0452 15.9092 19.8634 16.091C19.7725 16.1819 19.6816 16.2273 19.5452 16.2273Z" fill="#919191"/>
</g>
<g id="Group_18">
<path id="Vector_14" d="M22.8637 16.2275C22.7274 16.2275 22.6365 16.1821 22.5455 16.0912C22.3637 15.9093 22.3637 15.6366 22.5455 15.4548L23.8637 14.1366C24.0455 13.9548 24.3183 13.9548 24.5001 14.1366C24.6819 14.3184 24.6819 14.5912 24.5001 14.773L23.1819 16.0912C23.091 16.1821 23.0001 16.2275 22.8637 16.2275Z" fill="#919191"/>
</g>
<g id="Group_19">
<path id="Vector_15" d="M24.1815 14.9092C24.0906 14.9092 23.9542 14.8637 23.8633 14.7728L22.4996 13.4546C22.3178 13.2728 22.3178 13.0001 22.4996 12.8182C22.6815 12.6364 22.9542 12.6364 23.136 12.8182L24.4996 14.1364C24.6815 14.3182 24.6815 14.591 24.4996 14.7728C24.4087 14.8637 24.3178 14.9092 24.1815 14.9092Z" fill="#919191"/>
</g>
<g id="Group_20">
<path id="Vector_16" d="M20.7269 16.682C20.6815 16.682 20.636 16.682 20.5906 16.682C20.3633 16.6365 20.2269 16.3638 20.2724 16.1365L21.2269 12.5911C21.2724 12.3638 21.5451 12.2274 21.7724 12.2729C21.9997 12.3183 22.136 12.5911 22.0906 12.8183L21.1815 16.3638C21.0906 16.5456 20.9087 16.682 20.7269 16.682Z" fill="#919191"/>
</g>
</g>
<g id="Group_21">
<path id="Vector_17" d="M11.7722 18.7272H4.49947C3.40856 18.7272 2.54492 17.8636 2.54492 16.7727C2.54492 15.6818 3.40856 14.8181 4.49947 14.8181H11.7722C12.8631 14.8181 13.7267 15.6818 13.7267 16.7727C13.7267 17.8636 12.8631 18.7272 11.7722 18.7272ZM4.49947 15.7272C3.95401 15.7272 3.45401 16.2272 3.45401 16.7727C3.45401 17.3181 3.95401 17.8181 4.49947 17.8181H11.7722C12.3176 17.8181 12.8176 17.3181 12.8176 16.7727C12.8176 16.2272 12.3176 15.7272 11.7722 15.7272H4.49947Z" fill="#919191"/>
</g>
<g id="Group_22">
<path id="Vector_18" d="M9.18164 17.2272H5.13619C4.86346 17.2272 4.68164 17.0454 4.68164 16.7727C4.68164 16.4999 4.86346 16.3181 5.13619 16.3181H9.18164C9.45437 16.3181 9.63619 16.4999 9.63619 16.7727C9.63619 17.0454 9.45437 17.2272 9.18164 17.2272Z" fill="#919191"/>
</g>
</g>
</g>
<defs>
<clipPath id="clip0_464_2850">
<rect width="30" height="30" fill="white"/>
</clipPath>
</defs>
</svg>
