<svg width="26" height="26" viewBox="0 0 26 26" fill="none" xmlns="http://www.w3.org/2000/svg">
<g id="diagram 1" clip-path="url(#clip0_464_3297)">
<path id="Vector" d="M25.2379 24.4766H24.4254V9.44555C24.4254 9.02488 24.0844 8.68384 23.6637 8.68384H20.6169C20.1962 8.68384 19.8552 9.02488 19.8552 9.44555V24.4766H18.3318V14.5236C18.3318 14.1029 17.9907 13.7619 17.5701 13.7619H14.5232C14.1026 13.7619 13.7615 14.1029 13.7615 14.5236V24.4766H12.2381V17.3165C12.2381 16.8959 11.8971 16.5548 11.4764 16.5548H8.42957C8.00891 16.5548 7.66786 16.8959 7.66786 17.3165V24.4766H6.14445V19.1446C6.14445 18.724 5.8034 18.3829 5.38274 18.3829H2.33591C1.91524 18.3829 1.5742 18.724 1.5742 19.1446V24.4766H0.761708C0.341042 24.4766 0 24.8176 0 25.2383C0 25.659 0.341042 26 0.761708 26H25.2379C25.6586 26 25.9996 25.659 25.9996 25.2383C25.9996 24.8176 25.6586 24.4766 25.2379 24.4766Z" fill="#F5C118"/>
<path id="Vector_2" d="M0.761708 16.3672C5.51568 16.3672 10.671 14.6598 15.2781 11.5596C18.8864 9.13156 21.8941 6.02973 23.7625 2.85356L24.5022 5.61434C24.5934 5.95468 25.0337 6.2487 25.4351 6.15292C25.8443 6.05532 26.0826 5.62638 25.9737 5.22003L24.7264 0.56498C24.6174 0.158685 24.2 -0.0825225 23.7935 0.0264018L19.1384 1.27372C18.7321 1.3826 18.491 1.80027 18.5999 2.20661C18.7088 2.61296 19.1262 2.85417 19.5327 2.74519L22.5316 1.94164C20.7885 4.9705 17.9079 7.95375 14.4276 10.2957C10.0692 13.2286 5.21592 14.8438 0.761708 14.8438C0.341042 14.8438 0 15.1848 0 15.6055C0 16.0261 0.341042 16.3672 0.761708 16.3672Z" fill="#F5C118"/>
</g>
<defs>
<clipPath id="clip0_464_3297">
<rect width="26" height="26" fill="white"/>
</clipPath>
</defs>
</svg>
