<svg width="26" height="26" viewBox="0 0 26 26" fill="none" xmlns="http://www.w3.org/2000/svg">
<g id="facebook 1" clip-path="url(#clip0_444_1965)">
<path id="Vector" fill-rule="evenodd" clip-rule="evenodd" d="M12.9586 0.394043C15.3023 0.420788 17.4196 0.996805 19.3105 2.12209C21.1789 3.22492 22.7331 4.78863 23.8245 6.66369C24.943 8.56601 25.5155 10.6962 25.5422 13.0541C25.4758 16.2805 24.4582 19.036 22.4894 21.3209C20.5206 23.6057 17.999 25.0193 15.3888 25.5612V16.5156H17.8566L18.4147 12.9609H14.6778V10.6327C14.6571 10.1501 14.8097 9.6759 15.1081 9.29599C15.407 8.91503 15.9333 8.71481 16.6869 8.69531H18.9435V5.58148C18.9111 5.57107 18.6039 5.52987 18.0218 5.4579C17.3616 5.38067 16.6978 5.33941 16.0332 5.33432C14.5289 5.34126 13.3393 5.76558 12.4642 6.60728C11.5891 7.44873 11.1421 8.66615 11.1232 10.2595V12.9609H8.27942V16.5156H11.1232V25.5612C7.91811 25.0193 5.39656 23.6057 3.42778 21.3209C1.45899 19.036 0.441432 16.2804 0.375 13.0541C0.401579 10.6961 0.974114 8.5659 2.0926 6.66369C3.18403 4.78863 4.73825 3.22492 6.60664 2.12209C8.49751 0.997021 10.6148 0.421004 12.9586 0.394043Z" fill="white"/>
</g>
<defs>
<clipPath id="clip0_444_1965">
<rect width="26" height="26" fill="white"/>
</clipPath>
</defs>
</svg>
