<svg width="22" height="22" viewBox="0 0 22 22" fill="none" xmlns="http://www.w3.org/2000/svg">
<g id="fi-rr-angle-small-right">
<path id="Vector" d="M14.1164 9.05658L9.90886 4.84908C9.73712 4.67835 9.50478 4.58252 9.26261 4.58252C9.02044 4.58252 8.78811 4.67835 8.61636 4.84908C8.53045 4.9343 8.46225 5.03568 8.41571 5.14738C8.36918 5.25909 8.34521 5.3789 8.34521 5.49991C8.34521 5.62092 8.36918 5.74074 8.41571 5.85244C8.46225 5.96415 8.53045 6.06553 8.61636 6.15075L12.833 10.3491C12.9189 10.4343 12.9871 10.5357 13.0337 10.6474C13.0802 10.7591 13.1042 10.8789 13.1042 10.9999C13.1042 11.1209 13.0802 11.2407 13.0337 11.3524C12.9871 11.4641 12.9189 11.5655 12.833 11.6507L8.61636 15.8491C8.44375 16.0205 8.3463 16.2534 8.34544 16.4967C8.34458 16.7399 8.44038 16.9736 8.61178 17.1462C8.78318 17.3188 9.01612 17.4162 9.25937 17.4171C9.50262 17.418 9.73625 17.3221 9.90886 17.1507L14.1164 12.9432C14.6313 12.4276 14.9206 11.7287 14.9206 10.9999C14.9206 10.2712 14.6313 9.57221 14.1164 9.05658Z" fill="black"/>
</g>
</svg>
