<svg width="13" height="14" viewBox="0 0 13 14" fill="none" xmlns="http://www.w3.org/2000/svg">
<g id="Frame 9456">
<path id="Vector" d="M11.8759 5.99162C11.7984 5.91351 11.7062 5.85151 11.6047 5.80921C11.5031 5.7669 11.3942 5.74512 11.2842 5.74512C11.1742 5.74512 11.0653 5.7669 10.9637 5.80921C10.8622 5.85151 10.77 5.91351 10.6925 5.99162L6.87586 9.80827C6.79839 9.88638 6.70622 9.94838 6.60467 9.99068C6.50312 10.033 6.3942 10.0548 6.28419 10.0548C6.17418 10.0548 6.06526 10.033 5.96371 9.99068C5.86216 9.94838 5.76999 9.88638 5.69252 9.80827L1.87586 5.99162C1.79839 5.91351 1.70622 5.85151 1.60467 5.80921C1.50312 5.7669 1.3942 5.74512 1.28419 5.74512C1.17418 5.74512 1.06526 5.7669 0.963708 5.80921C0.862159 5.85151 0.769992 5.91351 0.692522 5.99162C0.537313 6.14775 0.450195 6.35896 0.450195 6.57911C0.450195 6.79927 0.537313 7.01048 0.692522 7.16661L4.51752 10.9916C4.98627 11.4598 5.62169 11.7227 6.28419 11.7227C6.94669 11.7227 7.58211 11.4598 8.05086 10.9916L11.8759 7.16661C12.0311 7.01048 12.1182 6.79927 12.1182 6.57911C12.1182 6.35896 12.0311 6.14775 11.8759 5.99162Z" fill="#1D1F21"/>
</g>
</svg>
