<svg width="50" height="50" viewBox="0 0 80 80" fill="none" xmlns="http://www.w3.org/2000/svg">
<g filter="url(#filter0_b_1318_1627)">
<circle cx="40" cy="40" r="40" fill="black" fill-opacity="0.4"/>
</g>
<path d="M61.6136 38.8756L57.0985 34.3074C56.8956 34.1083 56.6235 33.9979 56.3408 34C56.0582 34.0022 55.7877 34.1167 55.5879 34.3189C55.388 34.5211 55.2747 34.7947 55.2726 35.0807C55.2704 35.3666 55.3795 35.642 55.5763 35.8472L58.4271 38.7315H21.5728L24.4236 35.8472C24.6204 35.642 24.7295 35.3666 24.7273 35.0807C24.7252 34.7947 24.6119 34.5211 24.4121 34.3189C24.2122 34.1167 23.9417 34.0022 23.6591 34C23.3764 33.9979 23.1043 34.1083 22.9014 34.3074L18.3862 38.8757C18.1389 39.1265 18 39.4664 18 39.8206C18 40.1749 18.1389 40.5148 18.3862 40.7656L22.9014 45.3338C23.1041 45.5336 23.3764 45.6446 23.6595 45.6427C23.9425 45.6409 24.2134 45.5263 24.4135 45.3239C24.6137 45.1214 24.7269 44.8473 24.7288 44.561C24.7307 44.2747 24.621 43.9991 24.4236 43.794L21.5728 40.9096H58.4271L55.5763 43.794C55.3771 43.9987 55.2658 44.2749 55.2669 44.5622C55.268 44.8496 55.3813 45.1249 55.5821 45.3281C55.783 45.5313 56.0551 45.6459 56.3391 45.647C56.6231 45.6482 56.8961 45.5357 57.0985 45.334L61.6137 40.7658C61.8611 40.5149 62 40.175 62 39.8207C62 39.4663 61.861 39.1264 61.6136 38.8756Z" fill="white"/>
<defs>
<filter id="filter0_b_1318_1627" x="-2" y="-2" width="84" height="84" filterUnits="userSpaceOnUse" color-interpolation-filters="sRGB">
<feFlood flood-opacity="0" result="BackgroundImageFix"/>
<feGaussianBlur in="BackgroundImageFix" stdDeviation="1"/>
<feComposite in2="SourceAlpha" operator="in" result="effect1_backgroundBlur_1318_1627"/>
<feBlend mode="normal" in="SourceGraphic" in2="effect1_backgroundBlur_1318_1627" result="shape"/>
</filter>
</defs>
</svg>
