<svg width="60" height="60" viewBox="0 0 60 60" fill="none" xmlns="http://www.w3.org/2000/svg">
<g id="Frame 34964">
<rect id="Rectangle 4468" x="17" y="17" width="26" height="26" rx="4" fill="#F9BD39"/>
<g id="Processor security">
<path id="Vector" d="M24.999 8.98669H26.999V10.9837H24.999V8.98669Z" fill="black"/>
<path id="Vector_2" d="M51.001 32.9513H53.001V34.9483H51.001V32.9513Z" fill="black"/>
<path id="Vector_3" d="M33 48.9276H35V50.9247H33V48.9276Z" fill="black"/>
<path id="Vector_4" d="M24.999 51.9232H26.999V53.9203H24.999V51.9232Z" fill="black"/>
<path id="Vector_5" d="M9 28.9572H11V30.9542H9V28.9572Z" fill="black"/>
<path id="Vector_6" d="M33 8.98669H35V10.9837H33V8.98669Z" fill="black"/>
<path id="Vector_7" d="M49 24.963H51V26.9601H49V24.963Z" fill="black"/>
<path id="Vector_8" d="M44 14.9779H46V16.975H44V14.9779Z" fill="black"/>
<path id="Vector_9" d="M14 14.9778H16V16.9748H14V14.9778Z" fill="black"/>
<path id="Vector_10" d="M44 42.9365H46V44.9336H44V42.9365Z" fill="black"/>
<path id="Vector_11" d="M14 42.9365H16V44.9336H14V42.9365Z" fill="black"/>
<path id="Vector_12" d="M29.8818 28.9572C29.1824 28.9798 28.513 29.2462 27.9899 29.7102C27.4668 30.1743 27.123 30.8066 27.0182 31.4975C26.9133 32.1883 27.0542 32.8939 27.4162 33.4919C27.7782 34.0898 28.3385 34.5423 28.9998 34.7706V36.9454H30.9998V34.7636C31.6773 34.5267 32.247 34.0545 32.6049 33.4332C32.9628 32.8118 33.0852 32.0827 32.9497 31.3788C32.8141 30.6749 32.4297 30.0431 31.8666 29.5985C31.3034 29.154 30.599 28.9264 29.8818 28.9572ZM30.9998 31.9139C31.005 32.0449 30.9843 32.1757 30.9389 32.2988C30.8935 32.4219 30.8242 32.5349 30.7351 32.6312C30.6459 32.7275 30.5386 32.8054 30.4193 32.8603C30.3 32.9153 30.1711 32.9462 30.0398 32.9513C29.9083 32.9565 29.7772 32.9356 29.6538 32.8901C29.5304 32.8445 29.4172 32.775 29.3208 32.6857C29.1754 32.5517 29.0731 32.3777 29.0269 32.1856C28.9806 31.9936 28.9924 31.7921 29.0608 31.6068C29.1292 31.4214 29.2511 31.2605 29.4112 31.1443C29.5712 31.0282 29.7621 30.962 29.9598 30.9543H29.9998C30.2582 30.9541 30.5067 31.0538 30.6931 31.2325C30.8796 31.4112 30.9895 31.656 30.9998 31.9139Z" fill="black"/>
<path id="Vector_13" d="M35 26.1453V24.9631C35 23.639 34.4732 22.3691 33.5355 21.4328C32.5979 20.4965 31.3261 19.9705 30 19.9705C28.6739 19.9705 27.4021 20.4965 26.4645 21.4328C25.5268 22.3691 25 23.639 25 24.9631V26.1453C24.4171 26.3511 23.9121 26.7317 23.5541 27.235C23.1961 27.7383 23.0026 28.3398 23 28.9572V36.9454C23 37.7398 23.3161 38.5018 23.8787 39.0635C24.4413 39.6253 25.2044 39.9409 26 39.9409H34C34.7956 39.9409 35.5587 39.6253 36.1213 39.0635C36.6839 38.5018 37 37.7398 37 36.9454V28.9572C36.9974 28.3398 36.8039 27.7383 36.4459 27.235C36.0879 26.7317 35.5829 26.3511 35 26.1453ZM27 24.9631C27 24.1686 27.3161 23.4067 27.8787 22.8449C28.4413 22.2831 29.2043 21.9675 30 21.9675C30.7956 21.9675 31.5587 22.2831 32.1213 22.8449C32.6839 23.4067 33 24.1686 33 24.9631V25.9616H27V24.9631ZM35 36.9454C35 37.2102 34.8946 37.4642 34.7071 37.6514C34.5196 37.8387 34.2652 37.9439 34 37.9439H26C25.7348 37.9439 25.4804 37.8387 25.2929 37.6514C25.1054 37.4642 25 37.2102 25 36.9454V28.9572C25 28.6923 25.1054 28.4384 25.2929 28.2511C25.4804 28.0638 25.7348 27.9586 26 27.9586H34C34.2652 27.9586 34.5196 28.0638 34.7071 28.2511C34.8946 28.4384 35 28.6923 35 28.9572V36.9454Z" fill="black"/>
<path id="Vector_14" d="M57 38.9424C56.5545 38.9441 56.1152 39.0465 55.715 39.242L53.415 36.9454H44V34.9483H49V32.9513H44V30.9542H49.236L54.923 28.1144C55.4214 28.5911 56.0695 28.8812 56.7575 28.9357C57.4455 28.9901 58.1312 28.8055 58.6986 28.4131C59.266 28.0208 59.6802 27.4447 59.8712 26.7825C60.0621 26.1202 60.018 25.4124 59.7464 24.7789C59.4747 24.1453 58.9923 23.6249 58.3806 23.3058C57.7689 22.9866 57.0655 22.8883 56.3895 23.0274C55.7136 23.1665 55.1065 23.5346 54.6711 24.0693C54.2356 24.604 53.9986 25.2725 54 25.9616C54.0047 26.0831 54.0171 26.2041 54.037 26.3241L48.764 28.9572H44V26.9601H47V24.9631H44V22.966H48.414L51.714 19.6709C52.1145 19.8665 52.5542 19.9689 53 19.9705C53.5933 19.9705 54.1734 19.7948 54.6667 19.4656C55.1601 19.1365 55.5446 18.6686 55.7716 18.1213C55.9987 17.5739 56.0581 16.9716 55.9424 16.3905C55.8266 15.8094 55.5409 15.2756 55.1213 14.8567C54.7018 14.4378 54.1672 14.1525 53.5853 14.0369C53.0033 13.9213 52.4001 13.9806 51.8519 14.2073C51.3038 14.4341 50.8352 14.818 50.5056 15.3106C50.1759 15.8033 50 16.3824 50 16.9749C50.0017 17.4197 50.1043 17.8584 50.3 18.258L47.586 20.969H44C43.9984 19.6454 43.4711 18.3764 42.5338 17.4404C41.5964 16.5045 40.3256 15.978 39 15.9764V13.3942L44.715 7.68863C45.1152 7.88405 45.5545 7.98646 46 7.98819C46.5933 7.98819 47.1734 7.8125 47.6667 7.48334C48.1601 7.15419 48.5446 6.68634 48.7716 6.13897C48.9987 5.5916 49.0581 4.98929 48.9424 4.40821C48.8266 3.82713 48.5409 3.29337 48.1213 2.87443C47.7018 2.45549 47.1672 2.17019 46.5853 2.05461C46.0033 1.93902 45.4001 1.99834 44.8519 2.22507C44.3038 2.4518 43.8352 2.83575 43.5056 3.32837C43.1759 3.82099 43 4.40015 43 4.99262C43.0017 5.43745 43.1043 5.87611 43.3 6.27572L37 12.5664V15.9764H35V12.9808H33V15.9764H31V8.80298C31.6672 8.56743 32.2296 8.10395 32.5876 7.49444C32.9457 6.88493 33.0765 6.16864 32.9568 5.47218C32.8371 4.77571 32.4747 4.14391 31.9337 3.68844C31.3926 3.23297 30.7077 2.98316 30 2.98316C29.2923 2.98316 28.6074 3.23297 28.0663 3.68844C27.5253 4.14391 27.1629 4.77571 27.0432 5.47218C26.9235 6.16864 27.0543 6.88493 27.4124 7.49444C27.7704 8.10395 28.3328 8.56743 29 8.80298V15.9764H27V12.9808H25V15.9764H23V8.57332L18.7 4.27967C18.8959 3.87976 18.9984 3.44074 19 2.99557C19 2.4031 18.8241 1.82394 18.4944 1.33132C18.1648 0.838703 17.6962 0.454753 17.1481 0.228026C16.5999 0.00129794 15.9967 -0.0580243 15.4147 0.0575604C14.8328 0.173145 14.2982 0.458446 13.8787 0.877384C13.4591 1.29632 13.1734 1.83008 13.0576 2.41116C12.9419 2.99225 13.0013 3.59456 13.2284 4.14193C13.4554 4.68929 13.8399 5.15714 14.3333 5.4863C14.8266 5.81545 15.4067 5.99114 16 5.99114C16.4455 5.98942 16.8848 5.88701 17.285 5.69158L21 9.4001V15.9764C19.6744 15.978 18.4036 16.5045 17.4662 17.4404C16.5289 18.3764 16.0016 19.6454 16 20.969H12.414L9.7 18.258C9.89571 17.8584 9.99828 17.4197 10 16.9749C10 16.3824 9.82405 15.8033 9.49441 15.3106C9.16476 14.818 8.69623 14.4341 8.14805 14.2073C7.59987 13.9806 6.99667 13.9213 6.41473 14.0369C5.83279 14.1525 5.29824 14.4378 4.87868 14.8567C4.45912 15.2756 4.1734 15.8094 4.05765 16.3905C3.94189 16.9716 4.0013 17.5739 4.22836 18.1213C4.45543 18.6686 4.83994 19.1365 5.33329 19.4656C5.82664 19.7948 6.40666 19.9705 7 19.9705C7.44549 19.9687 7.8848 19.8663 8.285 19.6709L11.585 22.966H16V24.9631H9.638L4.4 29.3206C3.97073 29.0855 3.48963 28.9606 3 28.9572C2.40666 28.9572 1.82664 29.1329 1.33329 29.462C0.839943 29.7912 0.455426 30.259 0.228363 30.8064C0.00129986 31.3538 -0.0581102 31.9561 0.0576455 32.5371C0.173401 33.1182 0.459124 33.652 0.878681 34.0709C1.29824 34.4899 1.83279 34.7752 2.41473 34.8908C2.99667 35.0063 3.59987 34.947 4.14805 34.7203C4.69623 34.4936 5.16477 34.1096 5.49441 33.617C5.82405 33.1244 6 32.5452 6 31.9527C6.00068 31.552 5.92005 31.1553 5.763 30.7865L10.362 26.9601H16V28.9572H13V30.9542H16V32.9513H7V34.9483H16V36.9454H10.465L6.435 42.9804C6.29128 42.9551 6.14589 42.9404 6 42.9365C5.3043 42.9301 4.62762 43.1632 4.08377 43.5964C3.53993 44.0297 3.16208 44.6367 3.01379 45.3155C2.8655 45.9942 2.95581 46.7032 3.26953 47.3233C3.58325 47.9433 4.10124 48.4366 4.73639 48.7201C5.37154 49.0037 6.08509 49.0602 6.75705 48.8801C7.429 48.7 8.01836 48.2944 8.426 47.7315C8.83364 47.1685 9.0347 46.4825 8.99537 45.7889C8.95603 45.0954 8.67869 44.4364 8.21 43.923L11.535 38.9424H16C16.0016 40.266 16.5289 41.535 17.4662 42.471C18.4036 43.4069 19.6744 43.9334 21 43.935V50.5113L17.285 54.2198C16.8848 54.0244 16.4455 53.922 16 53.9203C15.4067 53.9203 14.8266 54.0959 14.3333 54.4251C13.8399 54.7543 13.4554 55.2221 13.2284 55.7695C13.0013 56.3168 12.9419 56.9191 13.0576 57.5002C13.1734 58.0813 13.4591 58.6151 13.8787 59.034C14.2982 59.4529 14.8328 59.7383 15.4147 59.8538C15.9967 59.9694 16.5999 59.9101 17.1481 59.6834C17.6962 59.4566 18.1648 59.0727 18.4944 58.5801C18.8241 58.0875 19 57.5083 19 56.9158C18.9983 56.471 18.8957 56.0323 18.7 55.6327L23 51.3391V43.935H25V49.9262H27V43.935H29V52.4764L35.074 56.2708C34.9108 56.9704 35.0009 57.7051 35.3285 58.3446C35.6561 58.9841 36.1999 59.4871 36.8635 59.7644C37.5271 60.0417 38.2677 60.0753 38.9537 59.8594C39.6398 59.6434 40.2272 59.1918 40.6116 58.5847C40.996 57.9775 41.1526 57.254 41.0537 56.5425C40.9548 55.831 40.6067 55.1775 40.0712 54.6979C39.5356 54.2182 38.8473 53.9435 38.1283 53.9223C37.4092 53.9011 36.7059 54.135 36.143 54.5823L31 51.37V43.935H33V46.9306H35V43.935H37V51.9232H44.184C44.4199 52.5894 44.8841 53.1509 45.4945 53.5085C46.1049 53.866 46.8222 53.9966 47.5197 53.8771C48.2172 53.7576 48.85 53.3958 49.3061 52.8555C49.7622 52.3152 50.0124 51.6313 50.0124 50.9247C50.0124 50.218 49.7622 49.5342 49.3061 48.9939C48.85 48.4536 48.2172 48.0918 47.5197 47.9723C46.8222 47.8528 46.1049 47.9833 45.4945 48.3409C44.8841 48.6984 44.4199 49.2599 44.184 49.9262H39V43.935C40.3256 43.9334 41.5964 43.4069 42.5338 42.471C43.4711 41.535 43.9984 40.266 44 38.9424H52.586L54.3 40.6549C54.1043 41.0545 54.0017 41.4931 54 41.938C54 42.5304 54.1759 43.1096 54.5056 43.6022C54.8352 44.0948 55.3038 44.4788 55.8519 44.7055C56.4001 44.9322 57.0033 44.9916 57.5853 44.876C58.1672 44.7604 58.7018 44.4751 59.1213 44.0562C59.5409 43.6372 59.8266 43.1035 59.9424 42.5224C60.0581 41.9413 59.9987 41.339 59.7716 40.7916C59.5446 40.2443 59.1601 39.7764 58.6667 39.4473C58.1734 39.1181 57.5933 38.9424 57 38.9424ZM57 24.9631C57.1978 24.9631 57.3911 25.0216 57.5556 25.1314C57.72 25.2411 57.8482 25.397 57.9239 25.5795C57.9996 25.7619 58.0194 25.9627 57.9808 26.1564C57.9422 26.3501 57.847 26.528 57.7071 26.6677C57.5673 26.8073 57.3891 26.9024 57.1951 26.9409C57.0011 26.9795 56.8 26.9597 56.6173 26.8841C56.4346 26.8085 56.2784 26.6806 56.1685 26.5164C56.0586 26.3521 56 26.1591 56 25.9616C56 25.6968 56.1054 25.4428 56.2929 25.2555C56.4804 25.0683 56.7348 24.9631 57 24.9631ZM53 15.9764C53.1978 15.9764 53.3911 16.0349 53.5556 16.1447C53.72 16.2544 53.8482 16.4103 53.9239 16.5928C53.9996 16.7752 54.0194 16.976 53.9808 17.1697C53.9422 17.3634 53.847 17.5413 53.7071 17.681C53.5673 17.8206 53.3891 17.9157 53.1951 17.9542C53.0011 17.9928 52.8 17.973 52.6173 17.8974C52.4346 17.8218 52.2784 17.6939 52.1685 17.5296C52.0586 17.3654 52 17.1724 52 16.9749C52 16.7101 52.1054 16.4561 52.2929 16.2688C52.4804 16.0816 52.7348 15.9764 53 15.9764ZM46 3.99409C46.1978 3.99409 46.3911 4.05266 46.5556 4.16238C46.72 4.2721 46.8482 4.42804 46.9239 4.6105C46.9996 4.79296 47.0194 4.99373 46.9808 5.18742C46.9422 5.38111 46.847 5.55903 46.7071 5.69868C46.5673 5.83833 46.3891 5.93343 46.1951 5.97195C46.0011 6.01048 45.8 5.99071 45.6173 5.91513C45.4346 5.83956 45.2784 5.71157 45.1685 5.54737C45.0586 5.38316 45 5.19011 45 4.99262C45 4.72779 45.1054 4.47381 45.2929 4.28656C45.4804 4.0993 45.7348 3.99409 46 3.99409ZM30 4.99262C30.1978 4.99262 30.3911 5.05118 30.5556 5.1609C30.72 5.27062 30.8482 5.42657 30.9239 5.60902C30.9996 5.79148 31.0194 5.99225 30.9808 6.18594C30.9422 6.37964 30.847 6.55756 30.7071 6.6972C30.5673 6.83685 30.3891 6.93195 30.1951 6.97048C30.0011 7.00901 29.8 6.98923 29.6173 6.91366C29.4346 6.83808 29.2784 6.7101 29.1685 6.54589C29.0586 6.38168 29 6.18863 29 5.99114C29 5.72632 29.1054 5.47234 29.2929 5.28508C29.4804 5.09782 29.7348 4.99262 30 4.99262ZM15 2.99557C15 2.79808 15.0586 2.60503 15.1685 2.44082C15.2784 2.27662 15.4346 2.14863 15.6173 2.07306C15.8 1.99748 16.0011 1.97771 16.1951 2.01623C16.3891 2.05476 16.5673 2.14986 16.7071 2.28951C16.847 2.42915 16.9422 2.60707 16.9808 2.80077C17.0194 2.99446 16.9996 3.19523 16.9239 3.37769C16.8482 3.56015 16.72 3.71609 16.5556 3.82581C16.3911 3.93553 16.1978 3.99409 16 3.99409C15.7348 3.99409 15.4804 3.88889 15.2929 3.70163C15.1054 3.51437 15 3.2604 15 2.99557ZM6 16.9749C6 16.7774 6.05865 16.5844 6.16853 16.4201C6.27841 16.2559 6.43459 16.128 6.61732 16.0524C6.80004 15.9768 7.00111 15.957 7.19509 15.9956C7.38907 16.0341 7.56726 16.1292 7.70711 16.2688C7.84696 16.4085 7.9422 16.5864 7.98079 16.7801C8.01937 16.9738 7.99957 17.1746 7.92388 17.357C7.84819 17.5395 7.72002 17.6954 7.55557 17.8051C7.39112 17.9149 7.19778 17.9734 7 17.9734C6.73478 17.9734 6.48043 17.8682 6.29289 17.681C6.10536 17.4937 6 17.2397 6 16.9749ZM3 32.9513C2.80222 32.9513 2.60888 32.8927 2.44443 32.783C2.27998 32.6733 2.15181 32.5173 2.07612 32.3349C2.00043 32.1524 1.98063 31.9516 2.01922 31.7579C2.0578 31.5642 2.15304 31.3863 2.29289 31.2467C2.43275 31.107 2.61093 31.0119 2.80491 30.9734C2.99889 30.9349 3.19996 30.9547 3.38268 31.0302C3.56541 31.1058 3.72159 31.2338 3.83147 31.398C3.94135 31.5622 4 31.7553 4 31.9527C4 32.2176 3.89464 32.4715 3.70711 32.6588C3.51957 32.8461 3.26522 32.9513 3 32.9513ZM6 46.9306C5.80222 46.9306 5.60888 46.872 5.44443 46.7623C5.27998 46.6526 5.15181 46.4966 5.07612 46.3142C5.00043 46.1317 4.98063 45.931 5.01922 45.7373C5.0578 45.5436 5.15304 45.3657 5.29289 45.226C5.43275 45.0864 5.61093 44.9913 5.80491 44.9527C5.99889 44.9142 6.19996 44.934 6.38268 45.0096C6.56541 45.0851 6.72159 45.2131 6.83147 45.3773C6.94135 45.5415 7 45.7346 7 45.9321C7 46.1969 6.89464 46.4509 6.70711 46.6381C6.51957 46.8254 6.26522 46.9306 6 46.9306ZM16 57.9143C15.8022 57.9143 15.6089 57.8558 15.4444 57.7461C15.28 57.6363 15.1518 57.4804 15.0761 57.2979C15.0004 57.1155 14.9806 56.9147 15.0192 56.721C15.0578 56.5273 15.153 56.3494 15.2929 56.2098C15.4327 56.0701 15.6109 55.975 15.8049 55.9365C15.9989 55.898 16.2 55.9177 16.3827 55.9933C16.5654 56.0689 16.7216 56.1969 16.8315 56.3611C16.9414 56.5253 17 56.7183 17 56.9158C17 57.1806 16.8946 57.4346 16.7071 57.6219C16.5196 57.8091 16.2652 57.9143 16 57.9143ZM38 55.9173C38.1978 55.9173 38.3911 55.9759 38.5556 56.0856C38.72 56.1953 38.8482 56.3512 38.9239 56.5337C38.9996 56.7162 39.0194 56.9169 38.9808 57.1106C38.9422 57.3043 38.847 57.4822 38.7071 57.6219C38.5673 57.7615 38.3891 57.8566 38.1951 57.8952C38.0011 57.9337 37.8 57.9139 37.6173 57.8383C37.4346 57.7628 37.2784 57.6348 37.1685 57.4706C37.0586 57.3064 37 57.1133 37 56.9158C37 56.651 37.1054 56.397 37.2929 56.2098C37.4804 56.0225 37.7348 55.9173 38 55.9173ZM47 49.9262C47.1978 49.9262 47.3911 49.9847 47.5556 50.0944C47.72 50.2042 47.8482 50.3601 47.9239 50.5426C47.9996 50.725 48.0194 50.9258 47.9808 51.1195C47.9422 51.3132 47.847 51.4911 47.7071 51.6307C47.5673 51.7704 47.3891 51.8655 47.1951 51.904C47.0011 51.9426 46.8 51.9228 46.6173 51.8472C46.4346 51.7716 46.2784 51.6436 46.1685 51.4794C46.0586 51.3152 46 51.1222 46 50.9247C46 50.6599 46.1054 50.4059 46.2929 50.2186C46.4804 50.0314 46.7348 49.9262 47 49.9262ZM42 38.9424C42 39.7369 41.6839 40.4988 41.1213 41.0606C40.5587 41.6224 39.7956 41.938 39 41.938H21C20.2044 41.938 19.4413 41.6224 18.8787 41.0606C18.3161 40.4988 18 39.7369 18 38.9424V20.969C18 20.1745 18.3161 19.4126 18.8787 18.8508C19.4413 18.289 20.2044 17.9734 21 17.9734H39C39.7956 17.9734 40.5587 18.289 41.1213 18.8508C41.6839 19.4126 42 20.1745 42 20.969V38.9424ZM57 42.9365C56.8022 42.9365 56.6089 42.8779 56.4444 42.7682C56.28 42.6585 56.1518 42.5025 56.0761 42.3201C56.0004 42.1376 55.9806 41.9369 56.0192 41.7432C56.0578 41.5495 56.153 41.3716 56.2929 41.2319C56.4327 41.0923 56.6109 40.9972 56.8049 40.9586C56.9989 40.9201 57.2 40.9399 57.3827 41.0155C57.5654 41.091 57.7216 41.219 57.8315 41.3832C57.9413 41.5474 58 41.7405 58 41.938C58 42.2028 57.8946 42.4568 57.7071 42.644C57.5196 42.8313 57.2652 42.9365 57 42.9365Z" fill="black"/>
</g>
</g>
</svg>
