<svg width="26" height="26" viewBox="0 0 26 26" fill="none" xmlns="http://www.w3.org/2000/svg">
<g id="interview 1">
<path id="Vector" d="M0.47125 23.7535C0.381875 23.8916 0.385938 24.0703 0.483438 24.2044C0.560625 24.3141 0.686563 24.3791 0.816563 24.3791C0.845 24.3791 0.873438 24.3791 0.905938 24.371L4.63938 23.5422C5.71594 24.0907 6.9225 24.3791 8.13313 24.3791C12.3459 24.3791 15.7788 20.9828 15.8438 16.7822C17.6719 17.2778 19.6747 17.091 21.3728 16.2297L25.1063 17.0544C25.1347 17.0625 25.1631 17.0625 25.1956 17.0625C25.3256 17.0625 25.4516 16.9975 25.5288 16.8878C25.6222 16.7538 25.6263 16.575 25.5409 16.4369L24.0175 14.0278C25.0413 12.6913 25.6019 11.0378 25.6019 9.33972C25.6019 5.08222 22.1406 1.62097 17.8831 1.62097C13.6256 1.62097 10.2375 5.01722 10.1725 9.21378C9.5225 9.03503 8.84 8.93347 8.13313 8.93347C3.8675 8.93753 0.40625 12.3988 0.40625 16.6563C0.40625 18.3503 0.966875 20.0038 1.99469 21.3444L0.47125 23.7535ZM17.875 2.43753C21.6816 2.43753 24.7813 5.53722 24.7813 9.34378C24.7813 10.9485 24.2206 12.5125 23.1969 13.7435C23.0831 13.8775 23.0709 14.0725 23.1644 14.2188L24.3222 16.0469L21.3972 15.401C21.3038 15.3807 21.2022 15.3928 21.1169 15.4375C19.4959 16.2988 17.5419 16.4653 15.8031 15.921C15.5269 12.9919 13.6013 10.5341 10.9688 9.48597C10.9688 9.43722 10.9647 9.38847 10.9647 9.33972C10.9647 5.53316 14.0644 2.43347 17.8709 2.43347L17.875 2.43753ZM1.21875 16.6563C1.21875 12.8497 4.31844 9.75003 8.125 9.75003C11.9316 9.75003 15.0313 12.8497 15.0313 16.6563C15.0313 20.4628 11.9316 23.5625 8.125 23.5625C6.99563 23.5625 5.87438 23.2822 4.87906 22.75C4.81813 22.7175 4.75313 22.7013 4.68813 22.7013C4.65969 22.7013 4.62719 22.7013 4.59875 22.7094L1.67781 23.3553L2.83563 21.5272C2.92906 21.3769 2.91688 21.186 2.80719 21.0519C1.78344 19.8169 1.22281 18.2528 1.22281 16.6482L1.21875 16.6563Z" fill="black"/>
<path id="Vector_2" d="M8.125 20.3125C8.46155 20.3125 8.73438 20.0397 8.73438 19.7031C8.73438 19.3666 8.46155 19.0938 8.125 19.0938C7.78845 19.0938 7.51562 19.3666 7.51562 19.7031C7.51562 20.0397 7.78845 20.3125 8.125 20.3125Z" fill="black"/>
<path id="Vector_3" d="M8.125 13.4062C8.79531 13.4062 9.34375 13.9547 9.34375 14.625C9.34375 15.2953 8.79531 15.8438 8.125 15.8438C7.90156 15.8438 7.71875 16.0266 7.71875 16.25V18.2812H8.53125V16.6156C9.4575 16.4288 10.1562 15.6081 10.1562 14.625C10.1562 13.5038 9.24625 12.5938 8.125 12.5938C7.00375 12.5938 6.09375 13.5038 6.09375 14.625H6.90625C6.90625 13.9547 7.45469 13.4062 8.125 13.4062Z" fill="black"/>
<path id="Vector_4" d="M14.625 6.5H21.125V7.3125H14.625V6.5Z" fill="black"/>
<path id="Vector_5" d="M14.625 8.9375H21.125V9.75H14.625V8.9375Z" fill="black"/>
<path id="Vector_6" d="M16.25 11.375H21.125V12.1875H16.25V11.375Z" fill="black"/>
</g>
</svg>
