<svg width="61" height="60" viewBox="0 0 61 60" fill="none" xmlns="http://www.w3.org/2000/svg">
<g id="interview 1">
<path id="Vector 11" d="M57.708 38.25L49.083 36.375L54.333 31.5L57.708 38.25Z" fill="#F9BD39"/>
<ellipse id="Ellipse 199" cx="41.583" cy="21.75" rx="17.25" ry="16.5" fill="#F9BD39"/>
<ellipse id="Ellipse 200" cx="19.083" cy="39" rx="17.25" ry="16.5" fill="#F7F7FA"/>
<path id="Vector" d="M1.42051 54.8157C1.21426 55.1345 1.22363 55.547 1.44863 55.8563C1.62676 56.1095 1.91738 56.2595 2.21738 56.2595C2.28301 56.2595 2.34863 56.2595 2.42363 56.2407L11.0393 54.3282C13.5236 55.5938 16.308 56.2595 19.1018 56.2595C28.8236 56.2595 36.7455 48.422 36.8955 38.7282C41.1143 39.872 45.7361 39.4407 49.6549 37.4532L58.2705 39.3563C58.3361 39.3751 58.4018 39.3751 58.4768 39.3751C58.7768 39.3751 59.0674 39.2251 59.2455 38.972C59.4611 38.6626 59.4705 38.2501 59.2736 37.9313L55.758 32.372C58.1205 29.2876 59.4143 25.472 59.4143 21.5532C59.4143 11.7282 51.4268 3.74072 41.6018 3.74072C31.7768 3.74072 23.958 11.5782 23.808 21.2626C22.308 20.8501 20.733 20.6157 19.1018 20.6157C9.25801 20.6251 1.27051 28.6126 1.27051 38.4376C1.27051 42.347 2.56426 46.1626 4.93613 49.2563L1.42051 54.8157ZM41.583 5.6251C50.3674 5.6251 57.5205 12.7782 57.5205 21.5626C57.5205 25.2657 56.2268 28.8751 53.8643 31.7157C53.6018 32.0251 53.5736 32.4751 53.7893 32.8126L56.4611 37.0313L49.7111 35.5407C49.4955 35.4938 49.2611 35.522 49.0643 35.6251C45.3236 37.6126 40.8143 37.997 36.8018 36.7407C36.1643 29.9813 31.7205 24.3095 25.6455 21.8907C25.6455 21.7782 25.6361 21.6657 25.6361 21.5532C25.6361 12.7688 32.7893 5.61572 41.5736 5.61572L41.583 5.6251ZM3.14551 38.4376C3.14551 29.6532 10.2986 22.5001 19.083 22.5001C27.8674 22.5001 35.0205 29.6532 35.0205 38.4376C35.0205 47.222 27.8674 54.3751 19.083 54.3751C16.4768 54.3751 13.8893 53.7282 11.5924 52.5001C11.4518 52.4251 11.3018 52.3876 11.1518 52.3876C11.0861 52.3876 11.0111 52.3876 10.9455 52.4063L4.20488 53.897L6.87676 49.6782C7.09238 49.3313 7.06426 48.8907 6.81113 48.5813C4.44863 45.7313 3.15488 42.122 3.15488 38.4188L3.14551 38.4376Z" fill="black"/>
<path id="Vector_2" d="M19.083 46.875C19.8597 46.875 20.4893 46.2454 20.4893 45.4688C20.4893 44.6921 19.8597 44.0625 19.083 44.0625C18.3064 44.0625 17.6768 44.6921 17.6768 45.4688C17.6768 46.2454 18.3064 46.875 19.083 46.875Z" fill="black"/>
<path id="Vector_3" d="M19.083 30.9375C20.6299 30.9375 21.8955 32.2031 21.8955 33.75C21.8955 35.2969 20.6299 36.5625 19.083 36.5625C18.5674 36.5625 18.1455 36.9844 18.1455 37.5V42.1875H20.0205V38.3438C22.158 37.9125 23.7705 36.0188 23.7705 33.75C23.7705 31.1625 21.6705 29.0625 19.083 29.0625C16.4955 29.0625 14.3955 31.1625 14.3955 33.75H16.2705C16.2705 32.2031 17.5361 30.9375 19.083 30.9375Z" fill="black"/>
<path id="Vector_4" d="M34.083 15H49.083V16.875H34.083V15Z" fill="black"/>
<path id="Vector_5" d="M34.083 20.625H49.083V22.5H34.083V20.625Z" fill="black"/>
<path id="Vector_6" d="M37.833 26.25H49.083V28.125H37.833V26.25Z" fill="black"/>
</g>
</svg>
