<svg width="187" height="32" viewBox="0 0 187 32" fill="none" xmlns="http://www.w3.org/2000/svg">
<path fill-rule="evenodd" clip-rule="evenodd" d="M29.4578 27.3076C17.2398 26.8051 -4.02838 23.8558 2.06188 9.91626C6.34045 20.1514 18.6156 24.8589 30.0279 26.6389C29.9094 26.8084 29.6335 27.1514 29.4578 27.3076Z" fill="#1D1F21"/>
<path fill-rule="evenodd" clip-rule="evenodd" d="M33.6758 24.6619C33.6758 24.8912 33.8386 27.3234 25.9142 31.1906C31.7544 26.7391 31.324 25.9388 31.2109 25.625C16.6487 23.6821 0.184821 15.9609 6.38065 0.80957C13.4231 17.7961 29.4524 23.0772 33.6758 24.6619Z" fill="#1D1F21"/>
<path fill-rule="evenodd" clip-rule="evenodd" d="M28.0223 28.6682C15.4713 29.9697 -2.39422 30.8504 0.2661 19.9878C6.5852 26.0167 13.6365 27.1507 28.4289 28.3033C28.26 28.4781 28.1688 28.5439 28.0223 28.6682Z" fill="#1D1F21"/>
<path fill-rule="evenodd" clip-rule="evenodd" d="M55.6217 26.6889C54.6284 27.0909 52.5048 27.4929 50.8257 27.4929C48.1883 27.4929 46.2009 26.7559 44.6596 25.2476C42.6722 23.3715 41.6104 20.0214 41.6789 16.1344C41.7817 7.92506 46.5777 4.50635 51.4764 4.50635C53.2241 4.50635 54.5256 4.84216 55.2449 5.17717L54.4563 8.9628C53.8055 8.62779 52.9501 8.46029 51.8189 8.46029C48.7706 8.46029 46.3379 10.5047 46.3379 16.4025C46.3379 21.8297 48.4966 23.7735 50.5859 23.7735C50.9969 23.7735 51.3052 23.74 51.4764 23.673V18.2115H49.4205V14.6261H55.6217V26.6889Z" fill="#1D1F21"/>
<path fill-rule="evenodd" clip-rule="evenodd" d="M62.5047 16.0005C62.5047 21.127 63.498 23.7401 65.3133 23.7401C67.198 23.7401 67.9172 20.3899 67.9172 15.7995C67.9172 11.8455 67.3007 8.26012 65.2791 8.26012C63.498 8.26012 62.5047 11.1412 62.5047 16.0005ZM72.6105 15.5985C72.6105 24.1094 69.5271 27.56 65.1421 27.56C59.9016 27.56 57.8457 22.132 57.8457 15.9335C57.8457 9.76847 60.3469 4.44019 65.4503 4.44019C71.0349 4.44019 72.6105 10.4377 72.6105 15.5985Z" fill="#1D1F21"/>
<path fill-rule="evenodd" clip-rule="evenodd" d="M75.4492 4.70728H79.937V23.5716H85.8633V27.2911H75.4492V4.70728Z" fill="#1D1F21"/>
<path fill-rule="evenodd" clip-rule="evenodd" d="M92.9526 23.8083C93.1581 23.8753 93.5006 23.8753 93.7412 23.8753C95.899 23.8753 97.7828 21.7974 97.7828 15.5662C97.7828 10.9414 96.5498 8.12731 93.8439 8.12731C93.5349 8.12731 93.2266 8.12731 92.9526 8.22781V23.8083ZM88.4648 5.0452C89.596 4.77639 91.2392 4.60889 93.0211 4.60889C95.9333 4.60889 97.9541 5.27891 99.4269 6.61896C101.414 8.36182 102.443 11.3442 102.443 15.7337C102.443 20.2906 101.243 23.5402 99.2214 25.2831C97.6801 26.7572 95.3844 27.4607 92.1648 27.4607C90.7605 27.4607 89.3562 27.3267 88.4648 27.2262V5.0452Z" fill="#1D1F21"/>
<path fill-rule="evenodd" clip-rule="evenodd" d="M115.045 17.3731H109.769V23.4719H115.73V27.2919H105.281V4.70728H115.319V8.52721H109.769V13.7215H115.045V17.3731Z" fill="#1D1F21"/>
<path fill-rule="evenodd" clip-rule="evenodd" d="M118.777 27.2911V4.70728H122.888L126.45 13.5532C127.136 15.2952 128.267 18.2106 128.918 20.1545H128.987C128.85 17.7751 128.541 13.8547 128.541 9.69975V4.70728H132.48V27.2911H128.369L124.841 18.7132C124.087 16.8036 123.025 13.9552 122.512 11.9116H122.443C122.546 14.1897 122.717 17.6746 122.717 22.1981V27.2911H118.777Z" fill="#1D1F21"/>
<path fill-rule="evenodd" clip-rule="evenodd" d="M139.98 16.0005C139.98 21.127 140.973 23.7401 142.789 23.7401C144.673 23.7401 145.393 20.3899 145.393 15.7995C145.393 11.8455 144.776 8.26012 142.754 8.26012C140.973 8.26012 139.98 11.1412 139.98 16.0005ZM150.086 15.5985C150.086 24.1094 147.002 27.56 142.617 27.56C137.376 27.56 135.32 22.132 135.32 15.9335C135.32 9.76847 137.822 4.44019 142.926 4.44019C148.51 4.44019 150.086 10.4377 150.086 15.5985Z" fill="#1D1F21"/>
<path fill-rule="evenodd" clip-rule="evenodd" d="M155.324 27.2911L151.385 4.70728H156.044L157.175 13.7207C157.482 16.3011 157.688 18.8807 157.962 21.6278H158.065C158.373 18.8472 158.887 16.4016 159.367 13.6872L161.012 4.70728H164.642L166.184 13.6202C166.595 16.1671 167.006 18.6797 167.28 21.6278H167.348C167.657 18.6797 167.931 16.2676 168.24 13.6537L169.37 4.70728H173.755L169.679 27.2911H165.054L163.683 19.8865C163.307 17.8086 162.963 15.2282 162.655 12.4811H162.587C162.176 15.1947 161.799 17.7081 161.32 19.92L159.778 27.2911H155.324Z" fill="#1D1F21"/>
<path fill-rule="evenodd" clip-rule="evenodd" d="M176.184 4.70728H180.671V23.5716H186.598V27.2911H176.184V4.70728Z" fill="#1D1F21"/>
<path fill-rule="evenodd" clip-rule="evenodd" d="M55.6217 26.6889C54.6284 27.0909 52.5048 27.4929 50.8257 27.4929C48.1883 27.4929 46.2009 26.7559 44.6596 25.2476C42.6722 23.3715 41.6104 20.0214 41.6789 16.1344C41.7817 7.92506 46.5777 4.50635 51.4764 4.50635C53.2241 4.50635 54.5256 4.84216 55.2449 5.17717L54.4563 8.9628C53.8055 8.62779 52.9501 8.46029 51.8189 8.46029C48.7706 8.46029 46.3379 10.5047 46.3379 16.4025C46.3379 21.8297 48.4966 23.7735 50.5859 23.7735C50.9969 23.7735 51.3052 23.74 51.4764 23.673V18.2115H49.4205V14.6261H55.6217V26.6889Z" fill="#1D1F21"/>
<path fill-rule="evenodd" clip-rule="evenodd" d="M62.5047 16.0005C62.5047 21.127 63.498 23.7401 65.3133 23.7401C67.198 23.7401 67.9172 20.3899 67.9172 15.7995C67.9172 11.8455 67.3007 8.26012 65.2791 8.26012C63.498 8.26012 62.5047 11.1412 62.5047 16.0005ZM72.6105 15.5985C72.6105 24.1094 69.5271 27.56 65.1421 27.56C59.9016 27.56 57.8457 22.132 57.8457 15.9335C57.8457 9.76847 60.3469 4.44019 65.4503 4.44019C71.0349 4.44019 72.6105 10.4377 72.6105 15.5985Z" fill="#1D1F21"/>
<path fill-rule="evenodd" clip-rule="evenodd" d="M75.4492 4.70728H79.937V23.5716H85.8633V27.2911H75.4492V4.70728Z" fill="#1D1F21"/>
<path fill-rule="evenodd" clip-rule="evenodd" d="M92.9526 23.8083C93.1581 23.8753 93.5006 23.8753 93.7412 23.8753C95.899 23.8753 97.7828 21.7974 97.7828 15.5662C97.7828 10.9414 96.5498 8.12731 93.8439 8.12731C93.5349 8.12731 93.2266 8.12731 92.9526 8.22781V23.8083ZM88.4648 5.0452C89.596 4.77639 91.2392 4.60889 93.0211 4.60889C95.9333 4.60889 97.9541 5.27891 99.4269 6.61896C101.414 8.36182 102.443 11.3442 102.443 15.7337C102.443 20.2906 101.243 23.5402 99.2214 25.2831C97.6801 26.7572 95.3844 27.4607 92.1648 27.4607C90.7605 27.4607 89.3562 27.3267 88.4648 27.2262V5.0452Z" fill="#1D1F21"/>
<path fill-rule="evenodd" clip-rule="evenodd" d="M115.045 17.3731H109.769V23.4719H115.73V27.2919H105.281V4.70728H115.319V8.52721H109.769V13.7215H115.045V17.3731Z" fill="#1D1F21"/>
<path fill-rule="evenodd" clip-rule="evenodd" d="M118.777 27.2911V4.70728H122.888L126.45 13.5532C127.136 15.2952 128.267 18.2106 128.918 20.1545H128.987C128.85 17.7751 128.541 13.8547 128.541 9.69975V4.70728H132.48V27.2911H128.369L124.841 18.7132C124.087 16.8036 123.025 13.9552 122.512 11.9116H122.443C122.546 14.1897 122.717 17.6746 122.717 22.1981V27.2911H118.777Z" fill="#1D1F21"/>
<path fill-rule="evenodd" clip-rule="evenodd" d="M139.98 16.0005C139.98 21.127 140.973 23.7401 142.789 23.7401C144.673 23.7401 145.393 20.3899 145.393 15.7995C145.393 11.8455 144.776 8.26012 142.754 8.26012C140.973 8.26012 139.98 11.1412 139.98 16.0005ZM150.086 15.5985C150.086 24.1094 147.002 27.56 142.617 27.56C137.376 27.56 135.32 22.132 135.32 15.9335C135.32 9.76847 137.822 4.44019 142.926 4.44019C148.51 4.44019 150.086 10.4377 150.086 15.5985Z" fill="#1D1F21"/>
<path fill-rule="evenodd" clip-rule="evenodd" d="M155.324 27.2911L151.385 4.70728H156.044L157.175 13.7207C157.482 16.3011 157.688 18.8807 157.962 21.6278H158.065C158.373 18.8472 158.887 16.4016 159.367 13.6872L161.012 4.70728H164.642L166.184 13.6202C166.595 16.1671 167.006 18.6797 167.28 21.6278H167.348C167.657 18.6797 167.931 16.2676 168.24 13.6537L169.37 4.70728H173.755L169.679 27.2911H165.054L163.683 19.8865C163.307 17.8086 162.963 15.2282 162.655 12.4811H162.587C162.176 15.1947 161.799 17.7081 161.32 19.92L159.778 27.2911H155.324Z" fill="#1D1F21"/>
<path fill-rule="evenodd" clip-rule="evenodd" d="M176.184 4.70728H180.671V23.5716H186.598V27.2911H176.184V4.70728Z" fill="#1D1F21"/>
</svg>
