<svg width="61" height="60" viewBox="0 0 61 60" fill="none" xmlns="http://www.w3.org/2000/svg">
<g id="microservice 2">
<circle id="Ellipse 201" cx="11.208" cy="49.125" r="4.125" fill="#F9BD39"/>
<circle id="Ellipse 202" cx="11.208" cy="10.875" r="4.125" fill="#F9BD39"/>
<circle id="Ellipse 203" cx="49.458" cy="10.875" r="4.125" fill="#F9BD39"/>
<circle id="Ellipse 204" cx="49.458" cy="49.125" r="4.125" fill="#F9BD39"/>
<path id="Vector 12" d="M17.208 31.5V28.5L19.083 27.375L20.583 24L19.833 21.75L21.708 19.5L24.333 20.25L27.708 19.125L28.833 16.5H31.833L33.333 18.75L36.333 20.25L38.583 19.5L40.833 21.75L40.083 24L41.583 27.375L43.833 28.125L43.458 31.875L41.583 33L40.083 35.625L40.833 38.25L38.583 40.5L36.333 39.75L32.583 41.625L31.833 43.5H28.833L27.708 41.25L24.333 40.125L22.083 40.5L19.833 38.25L20.583 35.625L19.083 32.625L17.208 31.5Z" fill="#F9BD39"/>
<path id="Vector" d="M30.333 22.25C26.0596 22.25 22.583 25.7266 22.583 30C22.583 34.2734 26.0596 37.75 30.333 37.75C34.6064 37.75 38.083 34.2734 38.083 30C38.083 25.7266 34.6064 22.25 30.333 22.25ZM30.333 35.875C27.0935 35.875 24.458 33.2395 24.458 30C24.458 26.7605 27.0935 24.125 30.333 24.125C33.5725 24.125 36.208 26.7605 36.208 30C36.208 33.2395 33.5725 35.875 30.333 35.875ZM58.7948 13.061C59.1567 12.9218 59.3955 12.574 59.3955 12.1861V9.72797C59.3955 9.34008 59.1567 8.99238 58.7948 8.85305L57.7343 8.44477C57.5657 7.88344 57.341 7.34121 57.0623 6.8243L57.5239 5.78484C57.6813 5.43047 57.6043 5.01574 57.33 4.74152L55.5917 3.00328C55.3176 2.72895 54.9027 2.6523 54.5483 2.80934L53.5093 3.27082C52.9923 2.99227 52.4499 2.76738 51.888 2.59875L51.48 1.53844C51.3407 1.17633 50.9929 0.9375 50.605 0.9375H48.1468C47.7589 0.9375 47.4112 1.17633 47.2719 1.5382L46.8637 2.59875C46.3023 2.76727 45.7599 2.99203 45.2429 3.2707L44.2036 2.80922C43.8492 2.65172 43.4345 2.72883 43.1602 3.00305L41.422 4.74117C41.1478 5.01539 41.0707 5.43023 41.228 5.78461L41.6898 6.82406C41.4112 7.34109 41.1863 7.88344 41.0178 8.44465L39.9573 8.85293C39.5953 8.99215 39.3566 9.33996 39.3566 9.72785V12.1861C39.3566 12.574 39.5954 12.9217 39.9573 13.061L41.0178 13.4693C41.1863 14.0306 41.4111 14.5729 41.6898 15.0898L41.2282 16.1292C41.0708 16.4836 41.1478 16.8983 41.4221 17.1725L41.6284 17.3788L39.7177 19.2894L39.1107 18.6823C38.8365 18.4078 38.4215 18.3311 38.0673 18.4883L36.3529 19.2498C35.5068 18.7748 34.6102 18.4032 33.6775 18.1406L33.0042 16.3911C32.865 16.0293 32.5171 15.7904 32.1293 15.7904H31.2705V7.36289C32.6243 6.95848 33.6143 5.70234 33.6143 4.21875C33.6143 2.40949 32.1423 0.9375 30.333 0.9375C28.5238 0.9375 27.0518 2.40949 27.0518 4.21875C27.0518 5.70234 28.0418 6.95848 29.3955 7.36289V15.7907H28.5369C28.149 15.7907 27.8013 16.0295 27.662 16.3914L26.9885 18.1412C26.0561 18.4036 25.1599 18.7752 24.3137 19.2502L22.5989 18.4886C22.2445 18.3311 21.8296 18.4082 21.5554 18.6824L20.9483 19.2895L19.0378 17.379L19.2439 17.1729C19.5181 16.8987 19.5952 16.4838 19.4379 16.1295L18.9764 15.0905C19.2549 14.5736 19.4798 14.0311 19.6484 13.4692L20.7087 13.0611C21.0707 12.9219 21.3095 12.5741 21.3095 12.1862V9.72797C21.3095 9.34008 21.0706 8.99238 20.7087 8.85305L19.6482 8.44477C19.4797 7.88344 19.2548 7.34121 18.9762 6.8243L19.4379 5.78484C19.5952 5.43047 19.5182 5.01574 19.244 4.74152L17.5059 3.00328C17.2317 2.72895 16.8167 2.6523 16.4625 2.80934L15.4235 3.27082C14.9064 2.99227 14.364 2.76738 13.8022 2.59875L13.3941 1.53844C13.2548 1.17633 12.907 0.9375 12.5191 0.9375H10.061C9.67309 0.9375 9.32539 1.17633 9.18605 1.5382L8.77789 2.59875C8.21645 2.76727 7.6741 2.99203 7.15707 3.2707L6.11773 2.80922C5.76324 2.65172 5.34863 2.72883 5.07441 3.00305L3.33605 4.74117C3.06184 5.01539 2.98473 5.43023 3.14211 5.78461L3.60383 6.82406C3.32527 7.34109 3.10039 7.88344 2.93187 8.44465L1.87133 8.85293C1.50934 8.99227 1.27051 9.34008 1.27051 9.72797V12.1862C1.27051 12.5741 1.50934 12.9218 1.87121 13.0611L2.93176 13.4694C3.10027 14.0307 3.32504 14.573 3.60371 15.0899L3.14211 16.1293C2.98473 16.4837 3.06172 16.8984 3.33605 17.1727L5.0743 18.9109C5.34852 19.1852 5.76324 19.2625 6.11762 19.1048L7.1566 18.6434C7.67363 18.922 8.21609 19.1469 8.77789 19.3154L9.18594 20.3757C9.32516 20.7376 9.67297 20.9764 10.0609 20.9764H12.5191C12.9069 20.9764 13.2547 20.7376 13.394 20.3757L13.8023 19.3151C14.3638 19.1466 14.906 18.9217 15.4229 18.6431L16.4625 19.1047C16.8166 19.2622 17.2316 19.1851 17.5058 18.9109L17.712 18.7047L19.6225 20.6152L19.0154 21.2223C18.7412 21.4966 18.6641 21.9114 18.8216 22.2657L19.5833 23.9808C19.1084 24.8271 18.7368 25.7231 18.4745 26.6551L16.7245 27.3287C16.3625 27.4679 16.1238 27.8157 16.1238 28.2036V29.0625H7.69578C7.29137 27.7088 6.03523 26.7188 4.55176 26.7188C2.7425 26.7188 1.27051 28.1907 1.27051 30C1.27051 31.8093 2.7425 33.2813 4.55176 33.2813C6.03523 33.2813 7.29137 32.2913 7.69578 30.9375H16.1237V31.796C16.1237 32.1839 16.3625 32.5316 16.7244 32.6709L18.4745 33.3447C18.7368 34.2766 19.1084 35.1728 19.5833 36.0189L18.8216 37.7339C18.6641 38.0883 18.7412 38.503 19.0154 38.7772L19.6227 39.3845L17.7119 41.2951L17.5059 41.0891C17.2317 40.8148 16.8167 40.7381 16.4625 40.8952L15.4235 41.3566C14.9064 41.0781 14.3639 40.8531 13.8022 40.6847L13.3941 39.6244C13.2548 39.2624 12.907 39.0236 12.5192 39.0236H10.061C9.67309 39.0236 9.32539 39.2624 9.18605 39.6244L8.77789 40.6849C8.21633 40.8534 7.67398 41.0782 7.15707 41.3569L6.11773 40.8953C5.76336 40.7378 5.34863 40.8149 5.0743 41.0891L3.33605 42.8273C3.06184 43.1017 2.98473 43.5164 3.14211 43.8708L3.60371 44.9102C3.32516 45.4272 3.10039 45.9694 2.93176 46.5307L1.87121 46.939C1.50934 47.0782 1.27051 47.426 1.27051 47.8139V50.2722C1.27051 50.66 1.50934 51.0077 1.87121 51.1471L2.93176 51.5554C3.10027 52.1167 3.32516 52.6589 3.60371 53.1758L3.14211 54.2154C2.98473 54.5698 3.06172 54.9845 3.33605 55.2587L5.0743 56.997C5.34863 57.2714 5.76348 57.3482 6.11773 57.1909L7.15672 56.7294C7.67375 57.0081 8.21621 57.233 8.77789 57.4015L9.18594 58.4618C9.32516 58.8237 9.67297 59.0625 10.0609 59.0625H12.5191C12.9069 59.0625 13.2547 58.8237 13.394 58.4618L13.8023 57.4011C14.3638 57.2326 14.906 57.0077 15.4229 56.7292L16.4625 57.1909C16.8168 57.3484 17.2317 57.2714 17.5059 56.997L19.2441 55.2587C19.5184 54.9845 19.5955 54.5698 19.4381 54.2154L18.9766 53.1765C19.2552 52.6595 19.48 52.1171 19.6487 51.5552L20.7089 51.1472C21.0709 51.008 21.3097 50.6602 21.3097 50.2723V47.8139C21.3097 47.426 21.0709 47.0783 20.709 46.939L19.6484 46.5307C19.4799 45.9694 19.255 45.4272 18.9765 44.9102L19.4381 43.8708C19.5955 43.5164 19.5185 43.1017 19.2443 42.8275L19.038 42.6212L20.9486 40.7106L21.5557 41.3176C21.83 41.5921 22.2448 41.6688 22.5991 41.5116L24.3134 40.7502C25.1599 41.2252 26.0561 41.5968 26.9887 41.8591L27.6621 43.6086C27.8013 43.9706 28.1491 44.2095 28.537 44.2095H29.3955V52.6373C28.0418 53.0418 27.0518 54.2979 27.0518 55.7814C27.0518 57.5906 28.5238 59.0626 30.333 59.0626C32.1423 59.0626 33.6143 57.5906 33.6143 55.7814C33.6143 54.2978 32.6243 53.0418 31.2705 52.6373V44.2095H32.129C32.5168 44.2095 32.8646 43.9706 33.0039 43.6088L33.6777 41.8587C34.6098 41.5963 35.5059 41.2247 36.352 40.7498L38.067 41.5116C38.4214 41.6691 38.8363 41.592 39.1105 41.3177L39.7176 40.7106L41.6281 42.6211L41.422 42.8272C41.1478 43.1014 41.0707 43.5163 41.228 43.8707L41.6898 44.9101C41.4112 45.4272 41.1863 45.9695 41.0178 46.5307L39.9573 46.939C39.5953 47.0782 39.3566 47.426 39.3566 47.8139V50.2722C39.3566 50.66 39.5954 51.0077 39.9573 51.1471L41.0178 51.5554C41.1863 52.1167 41.4111 52.6589 41.6898 53.1758L41.2282 54.2153C41.0708 54.5697 41.1478 54.9844 41.4221 55.2586L43.1604 56.9968C43.4345 57.2712 43.8493 57.3483 44.2037 57.1908L45.2427 56.7293C45.7597 57.008 46.3021 57.2329 46.8639 57.4014L47.272 58.4617C47.4112 58.8236 47.759 59.0624 48.1469 59.0624H50.6052C50.9929 59.0624 51.3407 58.8236 51.4801 58.4617L51.8884 57.401C52.4498 57.2325 52.992 57.0076 53.5089 56.7291L54.5485 57.1907C54.9028 57.3483 55.3176 57.2711 55.5918 56.9968L57.3301 55.2587C57.6043 54.9844 57.6814 54.5697 57.5239 54.2153L57.0624 53.1763C57.3411 52.6593 57.566 52.1168 57.7345 51.555L58.7948 51.147C59.1567 51.0077 59.3955 50.6599 59.3955 50.272V47.8138C59.3955 47.4259 59.1567 47.0782 58.7948 46.9389L57.7343 46.5306C57.5657 45.9693 57.341 45.427 57.0623 44.9101L57.5239 43.8707C57.6813 43.5163 57.6043 43.1016 57.33 42.8273L55.5917 41.0891C55.3176 40.8148 54.9027 40.7381 54.5483 40.8952L53.5093 41.3566C52.9923 41.0781 52.4498 40.8532 51.888 40.6847L51.48 39.6244C51.3406 39.2624 50.9928 39.0236 50.605 39.0236H48.1468C47.7589 39.0236 47.4112 39.2624 47.2719 39.6243L46.8637 40.6848C46.3022 40.8533 45.7598 41.0782 45.2429 41.3568L44.2036 40.8953C43.8492 40.7378 43.4345 40.8149 43.1602 41.0891L42.954 41.2954L41.0434 39.3847L41.6504 38.7777C41.9246 38.5034 42.0017 38.0886 41.8442 37.7343L41.0829 36.02C41.5577 35.1738 41.9293 34.2776 42.1919 33.3448L43.9414 32.6713C44.3033 32.5321 44.5421 32.1843 44.5421 31.7964V30.9375H52.97C53.3744 32.2913 54.6305 33.2813 56.114 33.2813C57.9233 33.2813 59.3953 31.8093 59.3953 30C59.3953 28.1907 57.9233 26.7188 56.114 26.7188C54.6305 26.7188 53.3744 27.7088 52.97 29.0625H44.5421V28.204C44.5421 27.8161 44.3033 27.4684 43.9414 27.3291L42.1913 26.6554C41.9288 25.7232 41.5573 24.8271 41.0825 23.981L41.8442 22.266C42.0016 21.9116 41.9246 21.4969 41.6503 21.2227L41.0431 20.6155L42.9538 18.7049L43.1599 18.911C43.434 19.1854 43.8488 19.2626 44.2032 19.105L45.2422 18.6435C45.7592 18.9221 46.3017 19.147 46.8635 19.3155L47.2715 20.3759C47.4107 20.7377 47.7586 20.9766 48.1464 20.9766H50.6047C50.9925 20.9766 51.3403 20.7377 51.4796 20.3759L51.8879 19.3152C52.4493 19.1467 52.9916 18.9218 53.5085 18.6432L54.548 19.1048C54.9023 19.2623 55.3171 19.1852 55.5914 18.911L57.3296 17.1729C57.6038 16.8987 57.6809 16.4838 57.5236 16.1295L57.0621 15.0905C57.3407 14.5734 57.5656 14.0311 57.7341 13.4692L58.7948 13.061ZM28.9268 4.21875C28.9268 3.44332 29.5576 2.8125 30.333 2.8125C31.1084 2.8125 31.7393 3.44332 31.7393 4.21875C31.7393 4.99418 31.1084 5.62512 30.333 5.62512C29.5576 5.62512 28.9268 4.99418 28.9268 4.21875ZM16.6351 17.13L15.7484 16.7364C15.4659 16.6109 15.1398 16.6327 14.8764 16.7948C14.2575 17.1759 13.5862 17.4544 12.8813 17.6222C12.5806 17.6937 12.3345 17.9088 12.2236 18.1973L11.8754 19.1016H10.7046L10.3566 18.1976C10.2457 17.9092 9.99957 17.6939 9.69875 17.6224C8.9934 17.4545 8.32191 17.1762 7.70293 16.795C7.43961 16.6329 7.11359 16.6111 6.83094 16.7365L5.94477 17.1299L5.11695 16.3021L5.5107 15.4155C5.63621 15.133 5.6143 14.8068 5.45223 14.5436C5.07102 13.9245 4.7927 13.2531 4.625 12.5484C4.5534 12.2479 4.33824 12.0016 4.04973 11.8907L3.14551 11.5424V10.3717L4.04973 10.0235C4.33824 9.91254 4.5534 9.66633 4.625 9.36574C4.7927 8.66098 5.07102 7.98973 5.45223 7.37039C5.6143 7.10719 5.63609 6.78105 5.5107 6.49852L5.11695 5.61211L5.94488 4.78418L6.83129 5.17781C7.11383 5.3032 7.44008 5.28141 7.70328 5.11934C8.3225 4.73801 8.99387 4.45969 9.69852 4.29211C9.99934 4.22051 10.2454 4.00535 10.3565 3.71684L10.7046 2.8125H11.8754L12.2233 3.71648C12.3343 4.00488 12.5804 4.22016 12.8812 4.29164C13.5866 4.45957 14.258 4.73801 14.8769 5.1191C15.1402 5.28141 15.4665 5.3032 15.749 5.1777L16.6352 4.78418L17.463 5.61199L17.0693 6.49852C16.9437 6.78105 16.9657 7.10731 17.1277 7.37051C17.5089 7.98961 17.7873 8.66098 17.955 9.36563C18.0266 9.66621 18.2417 9.91242 18.5302 10.0234L19.4346 10.3717V11.5424L18.5306 11.8904C18.2421 12.0014 18.0269 12.2476 17.9553 12.5483C17.7875 13.2538 17.5092 13.9252 17.1281 14.5438C16.9659 14.807 16.944 15.1334 17.0695 15.4159L17.463 16.3021L16.6351 17.13ZM4.55176 31.4063C3.77633 31.4063 3.14551 30.7754 3.14551 30C3.14551 29.2246 3.77633 28.5938 4.55176 28.5938C5.32719 28.5938 5.95801 29.2246 5.95801 30C5.95801 30.7754 5.32719 31.4063 4.55176 31.4063ZM19.4346 48.4576V49.6284L18.5307 49.9764C18.2422 50.0873 18.0269 50.3336 17.9553 50.6343C17.7875 51.3397 17.5092 52.0111 17.1281 52.6298C16.9659 52.8931 16.944 53.2194 17.0695 53.502L17.463 54.3881L16.6351 55.2159L15.7486 54.8222C15.4661 54.6967 15.1398 54.7185 14.8766 54.8807C14.2576 55.2618 13.5863 55.5402 12.8814 55.708C12.5807 55.7795 12.3346 55.9947 12.2237 56.2832L11.8754 57.1875H10.7046L10.3566 56.2835C10.2457 55.9951 9.99957 55.7798 9.69875 55.7084C8.9934 55.5404 8.32191 55.2621 7.70293 54.8809C7.43949 54.7187 7.11324 54.6972 6.83094 54.8224L5.94488 55.2159L5.11695 54.3881L5.5107 53.5015C5.63621 53.2189 5.6143 52.8927 5.45223 52.6295C5.07102 52.0104 4.7927 51.339 4.625 50.6344C4.5534 50.3338 4.33824 50.0876 4.04973 49.9766L3.14551 49.6283V48.4576L4.04973 48.1095C4.33824 47.9985 4.5534 47.7523 4.625 47.4517C4.7927 46.7469 5.07102 46.0757 5.45223 45.4566C5.6143 45.1934 5.63621 44.8671 5.5107 44.5846L5.11695 43.6981L5.94488 42.8702L6.83129 43.2639C7.11395 43.3894 7.44008 43.3675 7.7034 43.2053C8.32238 42.8242 8.99363 42.5459 9.69852 42.3782C9.99934 42.3066 10.2454 42.0914 10.3565 41.8028L10.7046 40.8986H11.8753L12.2232 41.8025C12.3343 42.0912 12.5804 42.3064 12.8812 42.3779C13.5864 42.5456 14.2578 42.8239 14.8768 43.2052C15.1401 43.3675 15.4664 43.3893 15.7489 43.2638L16.6351 42.8702L17.4629 43.6981L17.0691 44.5846C16.9436 44.8671 16.9655 45.1934 17.1276 45.4566C17.5088 46.0757 17.7871 46.747 17.9548 47.4517C18.0264 47.7523 18.2416 47.9985 18.5301 48.1095L19.4346 48.4576ZM31.7393 55.7813C31.7393 56.5567 31.1084 57.1875 30.333 57.1875C29.5576 57.1875 28.9268 56.5567 28.9268 55.7813C28.9268 55.0058 29.5576 54.375 30.333 54.375C31.1084 54.375 31.7393 55.0058 31.7393 55.7813ZM44.0309 42.8699L44.9173 43.2635C45.1999 43.3889 45.5261 43.3671 45.7893 43.205C46.4083 42.8239 47.0796 42.5456 47.7847 42.3777C48.0854 42.3062 48.3315 42.0909 48.4425 41.8025L48.7905 40.8983H49.9613L50.3093 41.8023C50.4203 42.0909 50.6664 42.3062 50.9673 42.3777C51.6726 42.5454 52.344 42.8237 52.9629 43.2049C53.2263 43.3672 53.5525 43.389 53.835 43.2635L54.7211 42.87L55.5489 43.6978L55.1552 44.5843C55.0297 44.8669 55.0516 45.1931 55.2137 45.4563C55.5949 46.0754 55.8732 46.7468 56.0409 47.4515C56.1125 47.752 56.3277 47.9982 56.6162 48.1092L57.5204 48.4574V49.6281L56.6164 49.9761C56.3279 50.0871 56.1127 50.3333 56.0411 50.634C55.8733 51.3393 55.595 52.0106 55.2138 52.6296C55.0517 52.8929 55.0298 53.2192 55.1553 53.5017L55.5488 54.3879L54.7209 55.2156L53.8343 54.822C53.5517 54.6964 53.2256 54.7182 52.9623 54.8804C52.3433 55.2615 51.672 55.54 50.9671 55.7078C50.6664 55.7793 50.4204 55.9944 50.3094 56.2829L49.9613 57.1875H48.7905L48.4426 56.2835C48.3316 55.9951 48.0855 55.7798 47.7847 55.7084C47.0793 55.5404 46.4079 55.2621 45.7889 54.8809C45.5255 54.7188 45.1995 54.697 44.9169 54.8224L44.0307 55.2158L43.2029 54.388L43.5966 53.5015C43.7221 53.2189 43.7002 52.8927 43.5382 52.6295C43.157 52.0104 42.8786 51.339 42.7109 50.6344C42.6393 50.3338 42.4242 50.0876 42.1357 49.9766L41.2314 49.6283V48.4576L42.1357 48.1095C42.4242 47.9985 42.6393 47.7523 42.7109 47.4517C42.8786 46.7469 43.157 46.0757 43.5382 45.4563C43.7002 45.1931 43.722 44.867 43.5966 44.5845L43.2029 43.6981L44.0309 42.8699ZM56.1143 28.5938C56.8897 28.5938 57.5205 29.2246 57.5205 30C57.5205 30.7754 56.8897 31.4063 56.1143 31.4063C55.3388 31.4063 54.708 30.7754 54.708 30C54.708 29.2246 55.3388 28.5938 56.1143 28.5938ZM42.6673 28.8476V31.1524L41.0691 31.7677C40.7807 31.8786 40.5655 32.1248 40.4939 32.4255C40.2378 33.5012 39.8135 34.525 39.2325 35.4684C39.0703 35.7318 39.0484 36.058 39.1739 36.3405L39.8695 37.9068L38.2398 39.5365L36.6729 38.8406C36.3903 38.7151 36.0641 38.737 35.8009 38.8991C34.857 39.4802 33.8335 39.9046 32.7587 40.1605C32.458 40.232 32.2119 40.4472 32.1009 40.7357L31.4855 42.3343H29.1807L28.5656 40.7363C28.4545 40.4476 28.2084 40.2325 27.9077 40.161C26.8323 39.905 25.8084 39.4806 24.8646 38.8995C24.6012 38.7373 24.275 38.7154 23.9926 38.841L22.4264 39.5366L20.7966 37.9068L21.4925 36.3398C21.618 36.0573 21.5961 35.7311 21.4339 35.4679C20.8529 34.524 20.4284 33.5005 20.1726 32.4257C20.101 32.1251 19.8859 31.8789 19.5973 31.7679L17.9987 31.1525V28.8477L19.5972 28.2323C19.8857 28.1214 20.1009 27.8752 20.1725 27.5746C20.4283 26.4997 20.8527 25.4762 21.4338 24.5323C21.5959 24.2689 21.6178 23.9428 21.4923 23.6603L20.7964 22.0934L22.4263 20.4636L23.993 21.1595C24.2756 21.2849 24.602 21.2632 24.8652 21.1009C25.8089 20.5198 26.8325 20.0954 27.9075 19.8397C28.2082 19.7681 28.4544 19.553 28.5654 19.2645L29.1806 17.6659H31.4853L32.1004 19.2641C32.2114 19.5526 32.4576 19.7678 32.7583 19.8393C33.8341 20.0953 34.8578 20.5198 35.8013 21.1008C36.0646 21.2631 36.391 21.285 36.6734 21.1594L38.2398 20.4636L39.8695 22.0934L39.1736 23.6602C39.0481 23.9427 39.07 24.2689 39.2322 24.5322C39.8134 25.476 40.2377 26.4995 40.4935 27.5743C40.5651 27.8749 40.7803 28.1211 41.0688 28.2321L42.6673 28.8476ZM57.5205 11.5424L56.6165 11.8904C56.3281 12.0014 56.1129 12.2476 56.0413 12.5483C55.8734 13.2537 55.5951 13.925 55.2139 14.5438C55.0517 14.807 55.0298 15.1334 55.1553 15.4159L55.5488 16.3021L54.7209 17.1299L53.8343 16.7362C53.5517 16.6107 53.2256 16.6325 52.9623 16.7947C52.3433 17.1758 51.672 17.4543 50.9671 17.6221C50.6664 17.6936 50.4204 17.9087 50.3094 18.1972L49.9613 19.1016H48.7905L48.4426 18.1976C48.3316 17.9092 48.0855 17.6939 47.7847 17.6224C47.0793 17.4545 46.4079 17.1762 45.7889 16.795C45.5255 16.6329 45.1995 16.6111 44.9169 16.7365L44.0307 17.1299L43.2029 16.3021L43.5966 15.4155C43.7221 15.133 43.7002 14.8068 43.5382 14.5436C43.157 13.9245 42.8786 13.2531 42.7109 12.5484C42.6393 12.2479 42.4242 12.0016 42.1357 11.8907L41.2314 11.5424V10.3717L42.1357 10.0235C42.4242 9.91254 42.6393 9.66633 42.7109 9.36574C42.8786 8.66098 43.157 7.98973 43.5382 7.37039C43.7002 7.10719 43.722 6.78105 43.5966 6.49852L43.2029 5.61211L44.0308 4.78418L44.9172 5.17781C45.1998 5.3032 45.526 5.28141 45.7892 5.11934C46.4084 4.73801 47.0797 4.4598 47.7845 4.29211C48.0852 4.22051 48.3314 4.00535 48.4423 3.71684L48.7904 2.81262H49.9612L50.3091 3.7166C50.4201 4.005 50.6662 4.22027 50.967 4.29176C51.6725 4.45969 52.344 4.73813 52.9627 5.11922C53.2262 5.28152 53.5524 5.30332 53.8348 5.17781L54.721 4.7843L55.5488 5.61211L55.1551 6.49863C55.0296 6.78117 55.0515 7.10742 55.2136 7.37063C55.5948 7.98973 55.8731 8.66109 56.0408 9.36574C56.1124 9.66633 56.3275 9.91254 56.6161 10.0235L57.5205 10.3717V11.5424ZM49.376 5.3577C46.2886 5.3577 43.7766 7.86961 43.7766 10.957C43.7766 14.0445 46.2886 16.5564 49.376 16.5564C52.4634 16.5564 54.9753 14.0445 54.9753 10.957C54.9753 7.86961 52.4634 5.3577 49.376 5.3577ZM49.376 14.6814C47.3224 14.6814 45.6516 13.0106 45.6516 10.957C45.6516 8.90344 47.3224 7.2327 49.376 7.2327C51.4296 7.2327 53.1003 8.90344 53.1003 10.957C53.1003 13.0106 51.4296 14.6814 49.376 14.6814ZM11.29 5.3577C8.20262 5.3577 5.6907 7.86961 5.6907 10.957C5.6907 14.0445 8.20262 16.5564 11.29 16.5564C14.3775 16.5564 16.8894 14.0445 16.8894 10.957C16.8894 7.86961 14.3775 5.3577 11.29 5.3577ZM11.29 14.6814C9.23645 14.6814 7.5657 13.0106 7.5657 10.957C7.5657 8.90344 9.23645 7.2327 11.29 7.2327C13.3436 7.2327 15.0144 8.90344 15.0144 10.957C15.0144 13.0106 13.3436 14.6814 11.29 14.6814ZM49.376 54.6423C52.4634 54.6423 54.9753 52.1304 54.9753 49.043C54.9753 45.9556 52.4634 43.4436 49.376 43.4436C46.2886 43.4436 43.7766 45.9556 43.7766 49.043C43.7766 52.1304 46.2886 54.6423 49.376 54.6423ZM49.376 45.3186C51.4296 45.3186 53.1003 46.9894 53.1003 49.043C53.1003 51.0966 51.4296 52.7673 49.376 52.7673C47.3224 52.7673 45.6516 51.0966 45.6516 49.043C45.6516 46.9894 47.3224 45.3186 49.376 45.3186ZM11.29 43.4438C8.20262 43.4438 5.6907 45.9557 5.6907 49.043C5.6907 52.1305 8.20262 54.6423 11.29 54.6423C14.3775 54.6423 16.8894 52.1304 16.8894 49.043C16.8894 45.9556 14.3775 43.4438 11.29 43.4438ZM11.29 52.7673C9.23645 52.7673 7.5657 51.0966 7.5657 49.043C7.5657 46.9895 9.23645 45.3188 11.29 45.3188C13.3436 45.3188 15.0144 46.9895 15.0144 49.043C15.0144 51.0966 13.3436 52.7673 11.29 52.7673Z" fill="black"/>
</g>
</svg>
