<svg width="18" height="18" viewBox="0 0 18 18" fill="none" xmlns="http://www.w3.org/2000/svg">
<g id="mobile-development 1" clip-path="url(#clip0_464_2893)">
<g id="Code_x2C__coding_x2C__mobile_x2C__development">
<g id="XMLID_1809_">
<g id="XMLID_1832_">
<g id="Group">
<g id="Group_2">
<path id="Vector" d="M9.84375 2.25H8.15625C8.001 2.25 7.875 2.124 7.875 1.96875C7.875 1.8135 8.001 1.6875 8.15625 1.6875H9.84375C9.999 1.6875 10.125 1.8135 10.125 1.96875C10.125 2.124 9.999 2.25 9.84375 2.25Z" fill="#919191"/>
</g>
</g>
</g>
<g id="XMLID_1831_">
<g id="Group_3">
<g id="Group_4">
<path id="Vector_2" d="M12.0938 17.4375H5.90625C5.13056 17.4375 4.5 16.8064 4.5 16.0312V6.46875C4.5 6.3135 4.626 6.1875 4.78125 6.1875C4.9365 6.1875 5.0625 6.3135 5.0625 6.46875V16.0312C5.0625 16.4964 5.44106 16.875 5.90625 16.875H12.0938C12.5589 16.875 12.9375 16.4964 12.9375 16.0312V6.46875C12.9375 6.3135 13.0635 6.1875 13.2188 6.1875C13.374 6.1875 13.5 6.3135 13.5 6.46875V16.0312C13.5 16.8064 12.8694 17.4375 12.0938 17.4375Z" fill="#919191"/>
</g>
</g>
</g>
<g id="XMLID_1830_">
<g id="Group_5">
<g id="Group_6">
<path id="Vector_3" d="M13.2188 8.4375C13.0635 8.4375 12.9375 8.3115 12.9375 8.15625V1.96875C12.9375 1.50356 12.5589 1.125 12.0938 1.125H5.90625C5.44106 1.125 5.0625 1.50356 5.0625 1.96875V8.15625C5.0625 8.3115 4.9365 8.4375 4.78125 8.4375C4.626 8.4375 4.5 8.3115 4.5 8.15625V1.96875C4.5 1.19362 5.13056 0.5625 5.90625 0.5625H12.0938C12.8694 0.5625 13.5 1.19362 13.5 1.96875V8.15625C13.5 8.3115 13.374 8.4375 13.2188 8.4375Z" fill="#919191"/>
</g>
</g>
</g>
<g id="XMLID_1816_">
<g id="XMLID_1824_">
<g id="Group_7">
<g id="Group_8">
<path id="Vector_4" d="M14.9062 3.40313C14.751 3.40313 14.625 3.30525 14.625 3.15V3.09375C14.625 2.9385 14.751 2.8125 14.9062 2.8125C15.0615 2.8125 15.1875 2.9385 15.1875 3.09375C15.1875 3.249 15.0615 3.40313 14.9062 3.40313Z" fill="#919191"/>
</g>
</g>
</g>
<g id="XMLID_1818_">
<g id="Group_9">
<g id="Group_10">
<path id="Vector_5" d="M14.9062 4.52813C14.751 4.52813 14.625 4.43025 14.625 4.275V4.21875C14.625 4.0635 14.751 3.9375 14.9062 3.9375C15.0615 3.9375 15.1875 4.0635 15.1875 4.21875C15.1875 4.374 15.0615 4.52813 14.9062 4.52813Z" fill="#919191"/>
</g>
</g>
</g>
<g id="XMLID_1817_">
<g id="Group_11">
<g id="Group_12">
<path id="Vector_6" d="M14.9062 5.65313C14.751 5.65313 14.625 5.55525 14.625 5.4V5.34375C14.625 5.1885 14.751 5.0625 14.9062 5.0625C15.0615 5.0625 15.1875 5.1885 15.1875 5.34375C15.1875 5.499 15.0615 5.65313 14.9062 5.65313Z" fill="#919191"/>
</g>
</g>
</g>
</g>
<g id="XMLID_1820_">
<g id="XMLID_1823_">
<g id="Group_13">
<g id="Group_14">
<path id="Vector_7" d="M3.09375 12.9095C2.9385 12.9095 2.8125 12.8116 2.8125 12.6563V12.6001C2.8125 12.4448 2.9385 12.3188 3.09375 12.3188C3.249 12.3188 3.375 12.4448 3.375 12.6001C3.375 12.7553 3.249 12.9095 3.09375 12.9095Z" fill="#919191"/>
</g>
</g>
</g>
<g id="XMLID_1822_">
<g id="Group_15">
<g id="Group_16">
<path id="Vector_8" d="M3.09375 14.0345C2.9385 14.0345 2.8125 13.9366 2.8125 13.7813V13.7251C2.8125 13.5698 2.9385 13.4438 3.09375 13.4438C3.249 13.4438 3.375 13.5698 3.375 13.7251C3.375 13.8803 3.249 14.0345 3.09375 14.0345Z" fill="#919191"/>
</g>
</g>
</g>
<g id="XMLID_1821_">
<g id="Group_17">
<g id="Group_18">
<path id="Vector_9" d="M3.09375 15.1595C2.9385 15.1595 2.8125 15.0616 2.8125 14.9063V14.8501C2.8125 14.6948 2.9385 14.5688 3.09375 14.5688C3.249 14.5688 3.375 14.6948 3.375 14.8501C3.375 15.0053 3.249 15.1595 3.09375 15.1595Z" fill="#919191"/>
</g>
</g>
</g>
</g>
<g id="XMLID_1815_">
<g id="Group_19">
<g id="Group_20">
<path id="Vector_10" d="M13.9731 15.1875C13.9534 15.1875 13.9331 15.1858 13.9134 15.1813C13.7616 15.1487 13.6654 14.9991 13.698 14.8472L13.8836 13.9866C13.9061 13.8808 13.9877 13.7981 14.0923 13.7728C14.3578 13.7087 14.6166 13.6007 14.8613 13.4516C14.9518 13.3954 15.0682 13.3971 15.1588 13.4544L15.7157 13.8105L16.0605 13.4629L15.7044 12.9105C15.6459 12.8199 15.6448 12.7035 15.7005 12.6118C15.8496 12.3671 15.9576 12.1084 16.0211 11.8429C16.0464 11.7383 16.1286 11.6572 16.2338 11.6336L16.875 11.4913V11.0093L16.2343 10.8669C16.1291 10.8433 16.047 10.7623 16.0217 10.6577C15.9581 10.3922 15.8496 10.1334 15.7011 9.88875C15.6448 9.79706 15.6459 9.68119 15.7044 9.59062L16.0611 9.03319L15.7168 8.68894L15.1594 9.04556C15.0688 9.1035 14.9529 9.10463 14.8618 9.04838C14.6166 8.89931 14.3578 8.79131 14.0929 8.72719C13.9877 8.70188 13.9067 8.61863 13.8842 8.51344L13.7458 7.875H13.5C13.3448 7.875 13.2188 7.749 13.2188 7.59375C13.2188 7.4385 13.3448 7.3125 13.5 7.3125H13.9725C14.1047 7.3125 14.2194 7.40531 14.247 7.53469L14.3972 8.22825C14.6031 8.29069 14.805 8.37506 14.9996 8.48025L15.6037 8.09381C15.7151 8.02294 15.8603 8.03869 15.9542 8.13206L16.6185 8.79581C16.7119 8.88919 16.7276 9.03488 16.6562 9.14625L16.2697 9.75037C16.3749 9.94556 16.4593 10.1475 16.5217 10.3539L17.2164 10.5081C17.3458 10.5367 17.4375 10.6515 17.4375 10.7831V11.7169C17.4375 11.8485 17.3458 11.9633 17.217 11.9914L16.5223 12.1455C16.4599 12.3519 16.3755 12.5539 16.2703 12.7485L16.6562 13.347C16.7282 13.4578 16.713 13.6041 16.6196 13.6974L15.9553 14.3668C15.8614 14.4608 15.7157 14.4765 15.6043 14.4056L15.0002 14.0192C14.805 14.1244 14.6036 14.2088 14.3978 14.2712L14.2476 14.9648C14.2189 15.0975 14.1019 15.1875 13.9731 15.1875Z" fill="#919191"/>
</g>
</g>
</g>
<g id="XMLID_1810_">
<g id="Group_21">
<g id="Group_22">
<path id="Vector_11" d="M14.2821 12.7001C14.1921 12.7001 14.1032 12.6562 14.0487 12.5758C13.962 12.447 13.9964 12.2721 14.1257 12.1854C14.4379 11.9751 14.6247 11.6252 14.6247 11.25C14.6247 10.6296 14.1201 10.125 13.4997 10.125C13.4232 10.125 13.3472 10.1329 13.2747 10.1475C13.1239 10.1779 12.9737 10.0811 12.9422 9.92812C12.9113 9.77569 13.0092 9.62719 13.1616 9.59625C13.2719 9.57431 13.3855 9.5625 13.4997 9.5625C14.43 9.5625 15.1872 10.3196 15.1872 11.25C15.1872 11.8131 14.9076 12.3373 14.4385 12.6523C14.3907 12.6844 14.3361 12.7001 14.2821 12.7001Z" fill="#919191"/>
</g>
</g>
</g>
<g id="XMLID_1293_">
<g id="Group_23">
<g id="Group_24">
<path id="Vector_12" d="M4.5 8.43758C3.56963 8.43758 2.8125 7.68045 2.8125 6.75008C2.8125 6.18476 3.09375 5.65995 3.56512 5.34495C3.69281 5.25945 3.86831 5.2932 3.95494 5.42314C4.041 5.55195 4.00613 5.72689 3.87675 5.81295C3.56288 6.02332 3.375 6.3732 3.375 6.75008C3.375 7.37051 3.87956 7.87508 4.5 7.87508C4.57538 7.87508 4.64963 7.86776 4.7205 7.85314C4.86956 7.8222 5.02088 7.92064 5.05181 8.07364C5.08275 8.22607 4.98375 8.37401 4.83131 8.40439C4.72388 8.42633 4.61363 8.43758 4.5 8.43758Z" fill="#919191"/>
</g>
</g>
</g>
<g id="XMLID_1811_">
<g id="Group_25">
<g id="Group_26">
<path id="Vector_13" d="M4.5 10.6875H4.0275C3.89531 10.6875 3.78056 10.5947 3.753 10.4653L3.60281 9.77172C3.39694 9.70928 3.195 9.62491 3.00038 9.51972L2.39625 9.90616C2.28431 9.97703 2.13975 9.96184 2.04581 9.8679L1.3815 9.20416C1.28813 9.11078 1.27237 8.96509 1.34381 8.85372L1.73025 8.24959C1.62506 8.05441 1.54069 7.85247 1.47825 7.64603L0.783563 7.49191C0.654188 7.46322 0.5625 7.34847 0.5625 7.21684V6.28309C0.5625 6.15147 0.654187 6.03672 0.783 6.00859L1.47769 5.85447C1.54013 5.64803 1.6245 5.44609 1.72969 5.25147L1.34438 4.65241C1.27238 4.54159 1.28756 4.39534 1.38094 4.30197L2.04525 3.63259C2.13806 3.53809 2.28431 3.52234 2.39625 3.59378L3.00038 3.98022C3.19556 3.87503 3.39694 3.79066 3.60281 3.72822L3.753 3.03466C3.78562 2.88222 3.93806 2.78547 4.08712 2.81922C4.239 2.85184 4.33519 3.00147 4.30256 3.15334L4.11694 4.01397C4.09444 4.11972 4.01288 4.20241 3.90825 4.22772C3.64275 4.29184 3.384 4.39984 3.13875 4.54891C3.04763 4.60516 2.93175 4.60347 2.84119 4.54609L2.28431 4.19003L1.93894 4.53766L2.295 5.09003C2.35406 5.18059 2.35519 5.29703 2.29894 5.38872C2.14987 5.63341 2.04188 5.89216 1.97831 6.15766C1.953 6.26228 1.87088 6.34328 1.76569 6.36691L1.125 6.50866V6.99072L1.76569 7.13303C1.87088 7.15666 1.953 7.23766 1.97831 7.34228C2.04188 7.60778 2.15044 7.86653 2.29894 8.11122C2.35519 8.20291 2.35406 8.31878 2.29556 8.40934L1.93894 8.96622L2.28319 9.31047L2.84063 8.95384C2.93119 8.89647 3.04763 8.89534 3.13819 8.95103C3.38344 9.10009 3.64219 9.20809 3.90712 9.27222C4.01231 9.29753 4.09331 9.38078 4.11581 9.48597L4.25419 10.125H4.5C4.65525 10.125 4.78125 10.251 4.78125 10.4062C4.78125 10.5615 4.65525 10.6875 4.5 10.6875Z" fill="#919191"/>
</g>
</g>
</g>
<g id="XMLID_1813_">
<g id="XMLID_1890_">
<g id="Group_27">
<g id="Group_28">
<path id="Vector_14" d="M8.71881 10.4063C8.69631 10.4063 8.67381 10.4035 8.65075 10.3979C8.49944 10.3602 8.40831 10.2077 8.446 10.057L9.0085 7.807C9.04562 7.65569 9.19581 7.56456 9.34937 7.60225C9.50069 7.63994 9.59181 7.79237 9.55412 7.94312L8.99162 10.1931C8.96012 10.3214 8.84537 10.4063 8.71881 10.4063Z" fill="#919191"/>
</g>
</g>
</g>
<g id="XMLID_1888_">
<g id="Group_29">
<g id="Group_30">
<path id="Vector_15" d="M10.4064 10.4063C10.3344 10.4063 10.2624 10.3788 10.2073 10.3242C10.0976 10.2145 10.0976 10.0362 10.2073 9.9265L11.1337 9.00007L10.2078 8.07419C10.0981 7.9645 10.0981 7.78619 10.2078 7.6765C10.3175 7.56682 10.4958 7.56682 10.6055 7.6765L11.7305 8.8015C11.8402 8.91119 11.8402 9.0895 11.7305 9.19919L10.6055 10.3242C10.5504 10.3788 10.4784 10.4063 10.4064 10.4063Z" fill="#919191"/>
</g>
</g>
</g>
<g id="XMLID_1887_">
<g id="Group_31">
<g id="Group_32">
<path id="Vector_16" d="M7.59389 10.4066C7.52189 10.4066 7.44989 10.379 7.39477 10.3244L6.26977 9.19944C6.16008 9.08975 6.16008 8.91144 6.26977 8.80175L7.39477 7.67675C7.50445 7.56706 7.68277 7.56706 7.79245 7.67675C7.90214 7.78644 7.90214 7.96475 7.79245 8.07444L6.86658 9.00031L7.79245 9.92619C7.90214 10.0359 7.90214 10.2142 7.79245 10.3239C7.73789 10.379 7.66589 10.4066 7.59389 10.4066Z" fill="#919191"/>
</g>
</g>
</g>
</g>
</g>
</g>
</g>
<defs>
<clipPath id="clip0_464_2893">
<rect width="18" height="18" fill="white"/>
</clipPath>
</defs>
</svg>
