<svg width="61" height="60" viewBox="0 0 61 60" fill="none" xmlns="http://www.w3.org/2000/svg">
<g id="more 1">
<circle id="Ellipse 205" cx="8.33301" cy="30" r="5" fill="#F9BD39"/>
<circle id="Ellipse 206" cx="30.333" cy="30" r="5" fill="#F9BD39"/>
<circle id="Ellipse 207" cx="52.333" cy="30" r="5" fill="#F9BD39"/>
<g id="Group">
<path id="Vector" d="M30.333 23.4375C26.6768 23.4375 23.7705 26.4375 23.7705 30C23.7705 33.6562 26.7705 36.5625 30.333 36.5625C33.9893 36.5625 36.8955 33.5625 36.8955 30C36.8955 26.3438 33.9893 23.4375 30.333 23.4375ZM30.333 33.2812C28.5518 33.2812 27.0518 31.7812 27.0518 30C27.0518 28.2188 28.5518 26.7188 30.333 26.7188C32.1143 26.7188 33.6143 28.2188 33.6143 30C33.6143 31.7812 32.1143 33.2812 30.333 33.2812Z" fill="black"/>
<path id="Vector_2" d="M52.5518 23.4375C48.8955 23.4375 45.9893 26.4375 45.9893 30C45.9893 33.6562 48.9893 36.5625 52.5518 36.5625C56.208 36.5625 59.1143 33.5625 59.1143 30C59.208 26.3438 56.208 23.4375 52.5518 23.4375ZM52.5518 33.2812C50.7705 33.2812 49.2705 31.7812 49.2705 30C49.2705 28.2188 50.7705 26.7188 52.5518 26.7188C54.333 26.7188 55.833 28.2188 55.833 30C55.833 31.7812 54.4268 33.2812 52.5518 33.2812Z" fill="black"/>
<path id="Vector_3" d="M8.11426 23.4375C4.45801 23.4375 1.55176 26.4375 1.55176 30C1.55176 33.6562 4.55176 36.5625 8.11426 36.5625C11.7705 36.5625 14.6768 33.5625 14.6768 30C14.6768 26.3438 11.6768 23.4375 8.11426 23.4375ZM8.11426 33.2812C6.33301 33.2812 4.83301 31.7812 4.83301 30C4.83301 28.2188 6.33301 26.7188 8.11426 26.7188C9.89551 26.7188 11.3955 28.2188 11.3955 30C11.3955 31.7812 9.89551 33.2812 8.11426 33.2812Z" fill="black"/>
</g>
</g>
</svg>
