<svg width="45" height="44" viewBox="0 0 45 44" fill="none" xmlns="http://www.w3.org/2000/svg">
<g id="performance-2 1">
<path id="Vector" d="M14.061 19.9375H8.56104C8.18134 19.9375 7.87354 20.2453 7.87354 20.625V27.5C7.87354 27.8797 8.18134 28.1875 8.56104 28.1875H14.061C14.4407 28.1875 14.7485 27.8797 14.7485 27.5V20.625C14.7485 20.2453 14.4407 19.9375 14.061 19.9375Z" fill="#FFE283"/>
<path id="Vector_2" d="M25.7485 15.125H20.2485C19.8688 15.125 19.561 15.4328 19.561 15.8125V27.5C19.561 27.8797 19.8688 28.1875 20.2485 28.1875H25.7485C26.1282 28.1875 26.436 27.8797 26.436 27.5V15.8125C26.436 15.4328 26.1282 15.125 25.7485 15.125Z" fill="#FFD54B"/>
<path id="Vector_3" d="M37.436 10.3125H31.936C31.5563 10.3125 31.2485 10.6203 31.2485 11V27.5C31.2485 27.8797 31.5563 28.1875 31.936 28.1875H37.436C37.8157 28.1875 38.1235 27.8797 38.1235 27.5V11C38.1235 10.6203 37.8157 10.3125 37.436 10.3125Z" fill="#FFC400"/>
<path id="Vector_4" d="M12.0537 29.5625C12.0526 29.9 12.0686 30.2373 12.1018 30.5731C12.1187 30.8198 12.0573 31.0656 11.9265 31.2754C11.7957 31.4852 11.602 31.6485 11.3731 31.7419C11.0842 31.8634 10.8549 32.0941 10.7352 32.3838C10.6155 32.6735 10.6149 32.9987 10.7337 33.2887L11.6962 35.6056C11.8163 35.894 12.0458 36.1232 12.3343 36.2429C12.6229 36.3627 12.9471 36.3635 13.2362 36.245C13.47 36.146 13.7293 36.1239 13.9765 36.182C14.2237 36.2401 14.446 36.3753 14.6112 36.5681C15.0284 37.0658 15.4885 37.5259 15.9862 37.9431C16.1793 38.1081 16.3152 38.33 16.3745 38.577C16.4338 38.824 16.4134 39.0834 16.3162 39.3181C16.1977 39.6072 16.1984 39.9315 16.3182 40.22C16.438 40.5086 16.6672 40.738 16.9556 40.8581L19.2724 41.8206C19.5625 41.9394 19.8877 41.9388 20.1774 41.8191C20.467 41.6994 20.6977 41.4701 20.8193 41.1813C20.9129 40.9438 21.0804 40.7427 21.2971 40.6078C21.5137 40.4728 21.768 40.4111 22.0224 40.4319C22.6765 40.4903 23.3346 40.4903 23.9887 40.4319C24.2423 40.4106 24.496 40.4713 24.7125 40.605C24.9291 40.7386 25.0971 40.9382 25.1918 41.1744C25.3134 41.4633 25.5441 41.6925 25.8337 41.8122C26.1234 41.932 26.4486 41.9325 26.7387 41.8137L29.0556 40.8512C29.344 40.7311 29.5731 40.5017 29.6929 40.2131C29.8127 39.9246 29.8134 39.6003 29.6949 39.3113C29.5959 39.0774 29.5738 38.8182 29.6319 38.571C29.69 38.3238 29.8252 38.1015 30.0181 37.9363C30.5157 37.519 30.9758 37.0589 31.3931 36.5613C31.5581 36.3681 31.78 36.2322 32.027 36.1729C32.274 36.1137 32.5334 36.1341 32.7681 36.2313C33.0572 36.3497 33.3814 36.349 33.6699 36.2292C33.9585 36.1094 34.1879 35.8803 34.3081 35.5919L35.2706 33.275C35.3893 32.9849 35.3888 32.6597 35.269 32.3701C35.1493 32.0804 34.9201 31.8497 34.6312 31.7281C34.3937 31.6345 34.1926 31.467 34.0577 31.2504C33.9228 31.0337 33.8611 30.7794 33.8818 30.525C33.9189 30.2054 33.9395 29.8842 33.9437 29.5625" fill="#1D1F21"/>
<path id="Vector_5" d="M29.8735 29.5625C29.8735 31.3859 29.1492 33.1345 27.8599 34.4239C26.5706 35.7132 24.8219 36.4375 22.9985 36.4375C21.1752 36.4375 19.4265 35.7132 18.1372 34.4239C16.8479 33.1345 16.1235 31.3859 16.1235 29.5625" fill="#FDF8E1"/>
<path id="Vector_6" d="M2.37354 26.8125H43.6235V28.1875H2.37354V26.8125Z" fill="#1D1F21"/>
<path id="Vector_7" d="M40.1381 3.08C40.1 2.9836 40.0407 2.89704 39.9645 2.8268C39.8883 2.75656 39.7972 2.70445 39.6981 2.67438L35.4837 1.375L35.0849 2.75L37.4362 3.4375L5.43994 16.2731L5.95557 17.545L37.9381 4.7025L36.7487 6.82688L37.9449 7.51438L40.1106 3.67812C40.16 3.58696 40.1881 3.48579 40.1928 3.38221C40.1976 3.27863 40.1789 3.17532 40.1381 3.08Z" fill="#1D1F21"/>
</g>
</svg>
