<svg width="26" height="26" viewBox="0 0 26 26" fill="none" xmlns="http://www.w3.org/2000/svg">
<g id="pin 1" clip-path="url(#clip0_464_2696)">
<g id="Pin">
<path id="Vector" d="M13 0C10.4152 0.00342881 7.93723 1.03176 6.1095 2.8595C4.28176 4.68723 3.25343 7.16519 3.25 9.75C3.25 16.7497 12.3337 25.5166 12.7197 25.8862C12.7948 25.9592 12.8953 26 13 26C13.1047 26 13.2052 25.9592 13.2803 25.8862C13.6662 25.5166 22.75 16.7497 22.75 9.75C22.7466 7.16519 21.7182 4.68723 19.8905 2.8595C18.0628 1.03176 15.5848 0.00342881 13 0ZM13 14.2187C12.1162 14.2187 11.2522 13.9567 10.5173 13.4656C9.78241 12.9746 9.20964 12.2767 8.87141 11.4601C8.53318 10.6436 8.44469 9.74504 8.61712 8.87819C8.78954 8.01134 9.21515 7.21508 9.84012 6.59012C10.4651 5.96515 11.2613 5.53954 12.1282 5.36712C12.995 5.19469 13.8936 5.28318 14.7101 5.62141C15.5267 5.95964 16.2246 6.53241 16.7156 7.26729C17.2067 8.00218 17.4688 8.86616 17.4688 9.75C17.468 10.935 16.997 12.0712 16.1591 12.9091C15.3212 13.747 14.185 14.218 13 14.2187Z" fill="#F5C118"/>
</g>
</g>
<defs>
<clipPath id="clip0_464_2696">
<rect width="26" height="26" fill="white"/>
</clipPath>
</defs>
</svg>
