<svg width="26" height="26" viewBox="0 0 26 26" fill="none" xmlns="http://www.w3.org/2000/svg">
<g id="project-management 1" clip-path="url(#clip0_444_1756)">
<path id="Vector" d="M7.36654 8.66663C6.50949 8.66663 5.67168 8.92077 4.95907 9.39692C4.24645 9.87308 3.69104 10.5499 3.36306 11.3417C3.03508 12.1335 2.94927 13.0048 3.11647 13.8454C3.28367 14.6859 3.69638 15.4581 4.30241 16.0641C4.90844 16.6701 5.68056 17.0828 6.52115 17.25C7.36173 17.4172 8.23302 17.3314 9.02483 17.0034C9.81665 16.6755 10.4934 16.12 10.9696 15.4074C11.4457 14.6948 11.6999 13.857 11.6999 13C11.6986 11.8511 11.2417 10.7496 10.4293 9.93722C9.61689 9.12484 8.51542 8.66789 7.36654 8.66663ZM7.36654 16.4666C6.6809 16.4666 6.01065 16.2633 5.44056 15.8824C4.87047 15.5015 4.42614 14.96 4.16376 14.3266C3.90137 13.6931 3.83272 12.9961 3.96648 12.3236C4.10024 11.6512 4.43041 11.0335 4.91523 10.5487C5.40006 10.0638 6.01776 9.73367 6.69023 9.5999C7.36269 9.46614 8.05972 9.53479 8.69317 9.79718C9.32662 10.0596 9.86804 10.5039 10.249 11.074C10.6299 11.6441 10.8332 12.3143 10.8332 13C10.8322 13.9191 10.4666 14.8002 9.8167 15.4501C9.1668 16.1 8.28564 16.4656 7.36654 16.4666Z" fill="black"/>
<path id="Vector_2" d="M7.36709 10.4C6.85286 10.4 6.35018 10.5525 5.92261 10.8382C5.49504 11.1239 5.16179 11.53 4.965 12.005C4.76822 12.4801 4.71673 13.0029 4.81705 13.5073C4.91737 14.0116 5.165 14.4749 5.52861 14.8385C5.89223 15.2021 6.35551 15.4497 6.85986 15.5501C7.36421 15.6504 7.88698 15.5989 8.36207 15.4021C8.83716 15.2053 9.24322 14.8721 9.52891 14.4445C9.8146 14.0169 9.96709 13.5143 9.96709 13C9.9664 12.3107 9.69225 11.6498 9.20481 11.1623C8.71736 10.6749 8.05644 10.4007 7.36709 10.4ZM7.36709 14.7334C7.02427 14.7334 6.68915 14.6317 6.4041 14.4412C6.11906 14.2508 5.89689 13.9801 5.7657 13.6633C5.63451 13.3466 5.60018 12.9981 5.66706 12.6619C5.73394 12.3256 5.89903 12.0168 6.14144 11.7744C6.38385 11.532 6.6927 11.3669 7.02893 11.3C7.36517 11.2331 7.71368 11.2674 8.03041 11.3986C8.34713 11.5298 8.61784 11.752 8.8083 12.037C8.99877 12.3221 9.10042 12.6572 9.10042 13C9.10042 13.4597 8.91781 13.9006 8.59274 14.2257C8.26768 14.5507 7.8268 14.7334 7.36709 14.7334Z" fill="black"/>
<path id="Vector_3" d="M24.7 0H19.5C19.1552 0 18.8246 0.136964 18.5808 0.380761C18.337 0.624558 18.2 0.955219 18.2 1.3V3.46667H17.3333C16.9886 3.46667 16.6579 3.60363 16.4141 3.84743C16.1703 4.09123 16.0333 4.42189 16.0333 4.76667V12.5667H14.7143C14.7104 12.5008 14.7117 12.4336 14.706 12.3682C14.6916 12.2147 14.6348 12.0681 14.542 11.945C14.4492 11.8218 14.324 11.7268 14.1804 11.6705L13.2643 11.3044C13.137 10.8609 12.9597 10.4333 12.7357 10.0299L13.1257 9.11993C13.1878 8.97838 13.2093 8.82232 13.1877 8.66923C13.1662 8.51615 13.1023 8.37211 13.0035 8.25327C12.8691 8.09293 12.7261 7.93693 12.5766 7.78743C12.4271 7.63793 12.2711 7.49493 12.1099 7.35973C11.9912 7.26158 11.8476 7.19828 11.6951 7.17686C11.5425 7.15544 11.387 7.17674 11.2459 7.2384L10.3359 7.6284C9.93249 7.4044 9.50493 7.22703 9.06143 7.09973L8.69483 6.1828C8.63855 6.03946 8.54364 5.91454 8.42063 5.8219C8.29762 5.72926 8.15134 5.67254 7.99803 5.65803C7.57753 5.62033 7.1545 5.62033 6.734 5.65803C6.58046 5.67251 6.43395 5.72931 6.31077 5.82211C6.1876 5.91491 6.09259 6.04007 6.03633 6.18367L5.67017 7.09973C5.22667 7.22703 4.79911 7.4044 4.39573 7.6284L3.48573 7.2384C3.34425 7.17594 3.18811 7.15428 3.03497 7.17588C2.88182 7.19747 2.73777 7.26145 2.61907 7.3606C2.45873 7.49493 2.30273 7.63793 2.15323 7.78743C2.00373 7.93693 1.86073 8.09293 1.72553 8.25413C1.62729 8.37281 1.56393 8.51642 1.54251 8.66899C1.52109 8.82155 1.54244 8.97706 1.6042 9.1182L1.9942 10.0282C1.7702 10.4316 1.59283 10.8591 1.46553 11.3026L0.5486 11.6692C0.405667 11.7262 0.281295 11.8216 0.189279 11.9449C0.0972616 12.0682 0.0411961 12.2145 0.0273 12.3678C0.00866667 12.5766 0 12.7885 0 13C0 13.2115 0.00866667 13.4234 0.0273 13.6318C0.041774 13.7853 0.0985731 13.9319 0.191375 14.055C0.284177 14.1782 0.40934 14.2732 0.552933 14.3295L1.469 14.6956C1.5963 15.1391 1.77366 15.5667 1.99767 15.9701L1.60767 16.8801C1.54551 17.0216 1.52401 17.1777 1.5456 17.3308C1.56718 17.4839 1.63099 17.6279 1.72987 17.7467C1.8642 17.9071 2.0072 18.0631 2.1567 18.2126C2.3062 18.3621 2.4622 18.5051 2.6234 18.6403C2.74207 18.7385 2.88569 18.8019 3.03825 18.8233C3.19081 18.8447 3.34633 18.8234 3.48747 18.7616L4.39747 18.3716C4.80084 18.5956 5.22841 18.773 5.6719 18.9003L6.0385 19.8172C6.09478 19.9605 6.1897 20.0855 6.31271 20.1781C6.43571 20.2707 6.582 20.3275 6.7353 20.342C6.94417 20.3606 7.15607 20.3693 7.36753 20.3693C7.579 20.3693 7.7909 20.3606 7.99933 20.342C8.15287 20.3275 8.29939 20.2707 8.42256 20.1779C8.54574 20.0851 8.64074 19.9599 8.697 19.8163L9.06317 18.9003C9.50666 18.773 9.93422 18.5956 10.3376 18.3716L11.2476 18.7616C11.3891 18.8238 11.5452 18.8453 11.6983 18.8237C11.8514 18.8022 11.9954 18.7383 12.1143 18.6394C12.2746 18.5051 12.4306 18.3621 12.5801 18.2126C12.7296 18.0631 12.8726 17.9092 13.0078 17.7459C13.106 17.6272 13.1694 17.4836 13.1908 17.331C13.2122 17.1785 13.1909 17.0229 13.1291 16.8818L12.7391 15.9718C12.9631 15.5684 13.1405 15.1409 13.2678 14.6974L14.1839 14.3312C14.3272 14.2749 14.4521 14.18 14.5448 14.057C14.6374 13.934 14.6941 13.7877 14.7086 13.6344C14.7143 13.5685 14.713 13.5018 14.7169 13.4355H16.0333V21.2333C16.0333 21.5781 16.1703 21.9088 16.4141 22.1526C16.6579 22.3964 16.9886 22.5333 17.3333 22.5333H18.2V24.7C18.2 25.0448 18.337 25.3754 18.5808 25.6192C18.8246 25.863 19.1552 26 19.5 26H24.7C25.0448 26 25.3754 25.863 25.6192 25.6192C25.863 25.3754 26 25.0448 26 24.7V19.5C26 19.1552 25.863 18.8246 25.6192 18.5808C25.3754 18.337 25.0448 18.2 24.7 18.2H19.5C19.1552 18.2 18.8246 18.337 18.5808 18.5808C18.337 18.8246 18.2 19.1552 18.2 19.5V21.6667H17.3333C17.2184 21.6667 17.1082 21.621 17.0269 21.5397C16.9457 21.4585 16.9 21.3483 16.9 21.2333V13.4333H18.2V15.6C18.2 15.9448 18.337 16.2754 18.5808 16.5192C18.8246 16.763 19.1552 16.9 19.5 16.9H24.7C25.0448 16.9 25.3754 16.763 25.6192 16.5192C25.863 16.2754 26 15.9448 26 15.6V10.4C26 10.0552 25.863 9.72456 25.6192 9.48076C25.3754 9.23696 25.0448 9.1 24.7 9.1H19.5C19.1552 9.1 18.8246 9.23696 18.5808 9.48076C18.337 9.72456 18.2 10.0552 18.2 10.4V12.5667H16.9V4.76667C16.9 4.65174 16.9457 4.54152 17.0269 4.46025C17.1082 4.37899 17.2184 4.33333 17.3333 4.33333H18.2V6.5C18.2 6.84478 18.337 7.17544 18.5808 7.41924C18.8246 7.66304 19.1552 7.8 19.5 7.8H24.7C25.0448 7.8 25.3754 7.66304 25.6192 7.41924C25.863 7.17544 26 6.84478 26 6.5V1.3C26 0.955219 25.863 0.624558 25.6192 0.380761C25.3754 0.136964 25.0448 0 24.7 0ZM13.8446 13.5304L12.74 13.9715C12.6761 13.997 12.6192 14.0374 12.574 14.0892C12.5288 14.141 12.4966 14.2029 12.48 14.2697C12.3534 14.7794 12.1509 15.2673 11.8794 15.717C11.8438 15.7759 11.8227 15.8424 11.8178 15.911C11.813 15.9797 11.8246 16.0485 11.8517 16.1118L12.3366 17.1873C12.2183 17.3281 12.0922 17.4646 11.9609 17.5959C11.8296 17.7272 11.6931 17.8533 11.5843 17.9617L10.4767 17.485C10.4134 17.4579 10.3446 17.4463 10.276 17.4512C10.2073 17.456 10.1408 17.4771 10.0819 17.5127C9.6328 17.7841 9.14552 17.9865 8.63633 18.1133C8.56957 18.1299 8.50771 18.1621 8.45587 18.2073C8.40403 18.2525 8.36369 18.3094 8.3382 18.3733L7.92003 19.4744C7.55473 19.5078 7.15 19.4913 6.8419 19.4905L6.39513 18.3733C6.36964 18.3094 6.32931 18.2525 6.27747 18.2073C6.22562 18.1621 6.16376 18.1299 6.097 18.1133C5.58722 17.9867 5.09934 17.7842 4.64967 17.5127C4.5908 17.4771 4.52428 17.456 4.45563 17.4512C4.38699 17.4463 4.31818 17.4579 4.2549 17.485L3.17937 17.9716C3.03853 17.8533 2.90203 17.7272 2.77073 17.5959C2.63943 17.4646 2.51333 17.3281 2.405 17.2194L2.88167 16.1118C2.90872 16.0485 2.92032 15.9797 2.9155 15.911C2.91067 15.8424 2.88957 15.7759 2.85393 15.717C2.58243 15.2673 2.37997 14.7794 2.25333 14.2697C2.23677 14.2029 2.20455 14.141 2.15934 14.0892C2.11413 14.0374 2.05722 13.997 1.99333 13.9715L0.892233 13.5534C0.874467 13.3705 0.866667 13.1855 0.866667 13C0.866667 12.8145 0.874467 12.6295 0.8749 12.4752L1.99333 12.0285C2.05722 12.003 2.11413 11.9626 2.15934 11.9108C2.20455 11.859 2.23677 11.7971 2.25333 11.7303C2.37997 11.2206 2.58243 10.7327 2.85393 10.283C2.88957 10.2241 2.91067 10.1576 2.9155 10.089C2.92032 10.0203 2.90872 9.95151 2.88167 9.88823L2.39503 8.8127C2.51333 8.67187 2.63943 8.53537 2.77073 8.40407C2.90203 8.27277 3.03853 8.14667 3.1473 8.03833L4.2549 8.515C4.31818 8.54206 4.38699 8.55365 4.45563 8.54883C4.52428 8.54401 4.5908 8.5229 4.64967 8.48727C5.09934 8.21576 5.58722 8.01331 6.097 7.88667C6.16376 7.8701 6.22562 7.83788 6.27747 7.79267C6.32931 7.74746 6.36964 7.69056 6.39513 7.62667L6.8133 6.52557C7.1786 6.4922 7.58333 6.50867 7.89143 6.50953L8.3382 7.62667C8.36369 7.69056 8.40403 7.74746 8.45587 7.79267C8.50771 7.83788 8.56957 7.8701 8.63633 7.88667C9.14612 8.01331 9.634 8.21576 10.0837 8.48727C10.1425 8.5229 10.2091 8.54401 10.2777 8.54883C10.3463 8.55365 10.4152 8.54206 10.4784 8.515L11.554 8.0301C11.6948 8.1484 11.8313 8.2745 11.9626 8.4058C12.0939 8.5371 12.22 8.6736 12.3283 8.78237L11.8517 9.88997C11.8246 9.95324 11.813 10.0221 11.8178 10.0907C11.8227 10.1593 11.8438 10.2259 11.8794 10.2847C12.1507 10.7339 12.3532 11.2212 12.48 11.7303C12.4966 11.7971 12.5288 11.859 12.574 11.9108C12.6192 11.9626 12.6761 12.003 12.74 12.0285L13.8411 12.4466C13.8576 12.6295 13.8654 12.8145 13.8654 13C13.8667 13.1772 13.8597 13.3545 13.8446 13.5304ZM19.0667 19.5C19.0667 19.3851 19.1123 19.2749 19.1936 19.1936C19.2749 19.1123 19.3851 19.0667 19.5 19.0667H24.7C24.8149 19.0667 24.9251 19.1123 25.0064 19.1936C25.0877 19.2749 25.1333 19.3851 25.1333 19.5V24.7C25.1333 24.8149 25.0877 24.9251 25.0064 25.0064C24.9251 25.0877 24.8149 25.1333 24.7 25.1333H19.5C19.3851 25.1333 19.2749 25.0877 19.1936 25.0064C19.1123 24.9251 19.0667 24.8149 19.0667 24.7V19.5ZM19.0667 10.4C19.0667 10.2851 19.1123 10.1749 19.1936 10.0936C19.2749 10.0123 19.3851 9.96667 19.5 9.96667H24.7C24.8149 9.96667 24.9251 10.0123 25.0064 10.0936C25.0877 10.1749 25.1333 10.2851 25.1333 10.4V15.6C25.1333 15.7149 25.0877 15.8251 25.0064 15.9064C24.9251 15.9877 24.8149 16.0333 24.7 16.0333H19.5C19.3851 16.0333 19.2749 15.9877 19.1936 15.9064C19.1123 15.8251 19.0667 15.7149 19.0667 15.6V10.4ZM25.1333 6.5C25.1333 6.61493 25.0877 6.72515 25.0064 6.80641C24.9251 6.88768 24.8149 6.93333 24.7 6.93333H19.5C19.3851 6.93333 19.2749 6.88768 19.1936 6.80641C19.1123 6.72515 19.0667 6.61493 19.0667 6.5V1.3C19.0667 1.18507 19.1123 1.07485 19.1936 0.993587C19.2749 0.912321 19.3851 0.866667 19.5 0.866667H24.7C24.8149 0.866667 24.9251 0.912321 25.0064 0.993587C25.0877 1.07485 25.1333 1.18507 25.1333 1.3V6.5Z" fill="black"/>
<path id="Vector_4" d="M23.0395 2.35951L21.5996 4.52011L21.1064 4.02698C21.0247 3.94805 20.9153 3.90437 20.8016 3.90535C20.688 3.90634 20.5793 3.95192 20.499 4.03226C20.4186 4.1126 20.3731 4.22129 20.3721 4.33491C20.3711 4.44853 20.4148 4.55799 20.4937 4.63971L21.3604 5.50638C21.4416 5.58765 21.5518 5.63332 21.6667 5.63335C21.6806 5.63335 21.6949 5.63335 21.7101 5.63118C21.7738 5.62485 21.8354 5.60447 21.8903 5.5715C21.9452 5.53853 21.9922 5.4938 22.0277 5.44051L23.761 2.84051C23.7926 2.79317 23.8146 2.74006 23.8256 2.68424C23.8367 2.62841 23.8367 2.57095 23.8255 2.51514C23.8144 2.45933 23.7923 2.40626 23.7607 2.35896C23.729 2.31166 23.6884 2.27106 23.641 2.23948C23.5937 2.2079 23.5406 2.18595 23.4847 2.17489C23.4289 2.16383 23.3714 2.16387 23.3156 2.17502C23.2598 2.18616 23.2068 2.20819 23.1595 2.23985C23.1122 2.27151 23.0711 2.31217 23.0395 2.35951Z" fill="black"/>
<path id="Vector_5" d="M21.3604 14.6064C21.4417 14.6876 21.5519 14.7333 21.6668 14.7333C21.6807 14.7333 21.695 14.7333 21.7101 14.7312C21.7739 14.7248 21.8354 14.7044 21.8904 14.6715C21.9453 14.6385 21.9922 14.5938 22.0278 14.5405L23.7611 11.9405C23.7927 11.8931 23.8146 11.84 23.8257 11.7842C23.8368 11.7284 23.8367 11.6709 23.8256 11.6151C23.8144 11.5593 23.7924 11.5062 23.7607 11.4589C23.7291 11.4116 23.6884 11.371 23.6411 11.3395C23.5937 11.3079 23.5406 11.2859 23.4848 11.2749C23.429 11.2638 23.3715 11.2638 23.3157 11.275C23.2599 11.2861 23.2068 11.3082 23.1595 11.3398C23.1122 11.3715 23.0716 11.4121 23.04 11.4595L21.6001 13.6201L21.1069 13.127C21.0252 13.048 20.9157 13.0043 20.8021 13.0053C20.6885 13.0063 20.5798 13.0519 20.4995 13.1322C20.4191 13.2126 20.3736 13.3213 20.3726 13.4349C20.3716 13.5485 20.4153 13.658 20.4942 13.7397L21.3604 14.6064Z" fill="black"/>
</g>
<defs>
<clipPath id="clip0_444_1756">
<rect width="26" height="26" fill="white"/>
</clipPath>
</defs>
</svg>
