<svg width="32" height="32" viewBox="0 0 32 32" fill="none" xmlns="http://www.w3.org/2000/svg">
<path d="M29.6162 7.54124C28.5987 7.99137 27.5197 8.28707 26.4148 8.41857C27.5789 7.72142 28.4499 6.62489 28.8655 5.33324C27.7722 5.9839 26.5735 6.4399 25.3255 6.68657C24.4863 5.78867 23.374 5.19319 22.1614 4.99268C20.9489 4.79218 19.7041 4.99789 18.6205 5.57784C17.537 6.15779 16.6753 7.07948 16.1697 8.19963C15.664 9.31977 15.5425 10.5756 15.8242 11.7719C13.6067 11.661 11.4375 11.0849 9.45715 10.0811C7.47685 9.07723 5.72982 7.66813 4.3295 5.94524C3.83389 6.7965 3.57344 7.7642 3.57483 8.74924C3.57483 10.6826 4.56017 12.3906 6.05483 13.3906C5.16952 13.3626 4.3037 13.1236 3.5295 12.6932V12.7612C3.52946 14.0491 3.97488 15.2973 4.79021 16.2941C5.60554 17.291 6.74058 17.9752 8.00283 18.2306C7.18102 18.4535 6.31922 18.4863 5.48283 18.3266C5.83873 19.4351 6.53245 20.4045 7.46683 21.0991C8.40121 21.7937 9.52944 22.1786 10.6935 22.1999C9.53664 23.1085 8.21201 23.7801 6.79538 24.1764C5.37874 24.5727 3.89788 24.6858 2.4375 24.5092C4.98646 26.1484 7.95364 27.0187 10.9842 27.0159C21.2428 27.0159 26.8508 18.5186 26.8508 11.1492C26.8508 10.9092 26.8455 10.6666 26.8348 10.4279C27.926 9.63905 28.8679 8.66065 29.6162 7.54124Z" fill="#1D1F21"/>
</svg>
