<svg width="30" height="30" viewBox="0 0 30 30" fill="none" xmlns="http://www.w3.org/2000/svg">
<g id="settings 1" clip-path="url(#clip0_464_2826)">
<g id="Group">
<g id="Group_2">
<path id="Vector" d="M12.3804 6.76341C12.2616 6.46235 11.9214 6.31452 11.6203 6.43347C9.92082 7.10419 8.47033 8.25538 7.42584 9.76265C6.35627 11.3059 5.79102 13.1176 5.79102 15.0019C5.79102 15.3255 6.0534 15.5877 6.37689 15.5877C6.70039 15.5877 6.96277 15.3254 6.96277 15.0019C6.96277 11.6787 8.95982 8.74329 12.0505 7.52354C12.3515 7.40472 12.4992 7.06446 12.3804 6.76341Z" fill="#919191"/>
</g>
</g>
<g id="Group_3">
<g id="Group_4">
<path id="Vector_2" d="M18.8598 14.4216C18.5363 14.4216 18.2739 14.684 18.2739 15.0075C18.2739 16.8167 16.8021 18.2886 14.9929 18.2886C13.1837 18.2886 11.7118 16.8167 11.7118 15.0075C11.7118 13.1984 13.1837 11.7264 14.9929 11.7264C15.3164 11.7264 15.5788 11.4641 15.5788 11.1406C15.5788 10.817 15.3164 10.5547 14.9929 10.5547C12.5376 10.5547 10.54 12.5522 10.54 15.0075C10.54 17.4628 12.5376 19.4604 14.9929 19.4604C17.4481 19.4604 19.4457 17.4628 19.4457 15.0075C19.4457 14.684 19.1834 14.4216 18.8598 14.4216Z" fill="#919191"/>
</g>
</g>
<g id="Group_5">
<g id="Group_6">
<path id="Vector_3" d="M21.0312 14.3994C20.7076 14.3994 20.4453 14.6617 20.4453 14.9853V15.0074C20.4453 15.331 20.7077 15.5933 21.0312 15.5933C21.3547 15.5933 21.6171 15.3309 21.6171 15.0074V14.9853C21.6171 14.6617 21.3547 14.3994 21.0312 14.3994Z" fill="#919191"/>
</g>
</g>
<g id="Group_7">
<g id="Group_8">
<path id="Vector_4" d="M18.6603 19.743C18.5514 19.6334 18.4002 19.5713 18.2461 19.5713C18.092 19.5713 17.9409 19.6335 17.8318 19.743C17.7229 19.852 17.6602 20.0025 17.6602 20.1572C17.6602 20.3113 17.7228 20.4625 17.8318 20.5715C17.9409 20.6805 18.0914 20.7426 18.2461 20.7426C18.4002 20.7426 18.5514 20.6805 18.6603 20.5715C18.7693 20.4625 18.832 20.3113 18.832 20.1572C18.832 20.0025 18.7693 19.852 18.6603 19.743Z" fill="#919191"/>
</g>
</g>
<g id="Group_9">
<g id="Group_10">
<path id="Vector_5" d="M28.0068 21.2444C27.6702 21.2444 27.3531 21.3286 27.0748 21.4766L25.3409 19.7427C25.2309 19.6328 25.0819 19.571 24.9265 19.571H20.6542C20.3307 19.571 20.0684 19.8334 20.0684 20.1569C20.0684 20.4805 20.3307 20.7428 20.6542 20.7428H24.6838L26.2463 22.3053C26.0987 22.5834 26.0146 22.9002 26.0146 23.2363C26.0146 24.3348 26.9082 25.2284 28.0067 25.2284C29.1052 25.2284 29.9988 24.3348 29.9988 23.2363C29.9988 22.1379 29.1052 21.2444 28.0068 21.2444ZM28.0068 24.0567C27.5544 24.0567 27.1865 23.6887 27.1865 23.2364C27.1865 22.7841 27.5545 22.4162 28.0068 22.4162C28.459 22.4162 28.827 22.7842 28.827 23.2364C28.827 23.6887 28.459 24.0567 28.0068 24.0567Z" fill="#919191"/>
</g>
</g>
<g id="Group_11">
<g id="Group_12">
<path id="Vector_6" d="M28.0071 4.77346C26.9086 4.77346 26.015 5.66707 26.015 6.76553C26.015 7.10174 26.099 7.4185 26.2468 7.69658L24.6842 9.2591H18.2731C17.4586 8.7934 16.5439 8.4975 15.5849 8.41049V7.35141H21.7631C21.9765 7.35141 22.173 7.23539 22.2761 7.04859L24.0566 3.82189C24.2981 3.92607 24.5639 3.98408 24.8433 3.98408C25.9418 3.98408 26.8354 3.09047 26.8354 1.99201C26.8354 0.893613 25.9418 0 24.8433 0C23.7449 0 22.8513 0.893613 22.8513 1.99207C22.8513 2.37621 22.9608 2.73498 23.1499 3.03955L21.4172 6.17959H15.5849V0.58834C15.5849 0.264727 15.3225 0.00246094 14.999 0.00246094H12.3718C12.0483 0.00246094 11.7859 0.264785 11.7859 0.58834V2.40141C10.5754 2.70809 9.42279 3.18568 8.34871 3.82588L7.0716 2.54883C6.96168 2.43896 6.81262 2.37721 6.65717 2.37721C6.50178 2.37721 6.35272 2.43902 6.24285 2.549L2.53955 6.25506C2.31086 6.48393 2.31092 6.85471 2.53967 7.08346L3.81531 8.35916C3.17518 9.43336 2.69758 10.5859 2.39096 11.7964H0.586856C0.263301 11.7964 0.000976562 12.0587 0.000976562 12.3823V17.6215C0.000976562 17.9452 0.263359 18.2074 0.586856 18.2074H2.39107C2.69764 19.4179 3.17523 20.5704 3.81543 21.6446L2.53979 22.9203C2.31104 23.149 2.31098 23.5198 2.53967 23.7487L6.24297 27.4547C6.35283 27.5647 6.50189 27.6265 6.65729 27.6265H6.6574C6.81279 27.6265 6.9618 27.5648 7.07172 27.4549L8.34877 26.1779C9.42297 26.8181 10.5755 27.2957 11.7859 27.6024V29.4126C11.7859 29.7361 12.0481 29.9983 12.3715 29.9985H14.9986H14.999C15.1543 29.9985 15.3033 29.9382 15.4132 29.8284C15.5231 29.7185 15.5849 29.5695 15.5849 29.414V23.7955H21.4162L23.1506 26.9593C22.9611 27.2641 22.8513 27.6233 22.8513 28.0078C22.8513 29.1063 23.7449 29.9999 24.8434 29.9999C25.9418 29.9999 26.8355 29.1063 26.8355 28.0078C26.8355 26.9094 25.9418 26.0157 24.8433 26.0157C24.5647 26.0157 24.2993 26.0735 24.0582 26.1773L22.2769 22.9279C22.1741 22.7403 21.9771 22.6236 21.7632 22.6236H15.5848V21.0462C15.5848 20.7226 15.3224 20.4604 14.9989 20.4604C11.9891 20.4604 9.54045 18.0117 9.54045 15.0019C9.54045 12.0285 11.9303 9.60311 14.89 9.5448C14.9233 9.55072 14.9575 9.55436 14.9926 9.55436C17.2602 9.55436 19.3148 10.9817 20.1052 13.106C20.193 13.342 20.4166 13.4878 20.6543 13.4878C20.7222 13.4878 20.7913 13.4759 20.8586 13.4509C21.1619 13.338 21.3163 13.0008 21.2034 12.6975C20.8831 11.8365 20.3911 11.0705 19.7763 10.4309H24.9269C25.0823 10.4309 25.2313 10.3691 25.3412 10.2592L27.0751 8.52533C27.3534 8.67334 27.6705 8.75754 28.0071 8.75754C29.1055 8.75754 29.9992 7.86393 29.9992 6.76547C29.9992 5.66707 29.1055 4.77346 28.0071 4.77346ZM24.8433 1.17182C25.2957 1.17182 25.6636 1.53979 25.6636 1.99207C25.6636 2.44436 25.2956 2.81232 24.8433 2.81232C24.391 2.81232 24.0231 2.44436 24.0231 1.99207C24.0231 1.53979 24.391 1.17182 24.8433 1.17182ZM24.8433 27.1877C25.2957 27.1877 25.6636 27.5556 25.6636 28.0079C25.6636 28.4602 25.2955 28.8282 24.8433 28.8282C24.391 28.8282 24.0231 28.4602 24.0231 28.0079C24.0231 27.5556 24.391 27.1877 24.8433 27.1877ZM14.4131 8.3973C11.0307 8.69496 8.36863 11.5435 8.36863 15.0019C8.36863 18.4604 11.0305 21.3089 14.413 21.6066V28.8279L12.9576 28.8271V27.1379C12.9576 26.8618 12.7648 26.6231 12.4948 26.5651C11.099 26.2652 9.78215 25.7196 8.5808 24.9432C8.34889 24.7934 8.04385 24.8257 7.8485 25.021L6.65746 26.2121L3.78244 23.3349L4.97248 22.1449C5.16772 21.9496 5.20018 21.6445 5.05023 21.4126C4.27393 20.2112 3.72824 18.8944 3.42848 17.4986C3.37047 17.2286 3.13182 17.0358 2.85566 17.0358H1.17273V12.9683H2.85561C3.13182 12.9683 3.37041 12.7754 3.42842 12.5055C3.72824 11.1097 4.27387 9.79289 5.05018 8.59154C5.20012 8.35963 5.16766 8.05453 4.97242 7.85924L3.78238 6.6692L6.6574 3.79201L7.84844 4.98311C8.04379 5.17846 8.34883 5.21074 8.58074 5.06092C9.78203 4.28461 11.0989 3.73887 12.4947 3.43898C12.7647 3.38098 12.9576 3.14232 12.9576 2.86617V1.17428H14.413V8.3973H14.4131ZM28.0071 7.58572C27.5547 7.58572 27.1868 7.21775 27.1868 6.76547C27.1868 6.31318 27.5548 5.94521 28.0071 5.94521C28.4594 5.94521 28.8273 6.31318 28.8273 6.76547C28.8273 7.21775 28.4594 7.58572 28.0071 7.58572Z" fill="#919191"/>
</g>
</g>
<g id="Group_13">
<g id="Group_14">
<path id="Vector_7" d="M28.0066 13.0171C27.112 13.0171 26.3534 13.6099 26.1026 14.4233H24.374C24.0504 14.4233 23.7881 14.6856 23.7881 15.0092C23.7881 15.3327 24.0505 15.595 24.374 15.595H26.1025C26.3533 16.4084 27.1119 17.0012 28.0065 17.0012C29.105 17.0012 29.9986 16.1076 29.9986 15.0092C29.9987 13.9107 29.105 13.0171 28.0066 13.0171ZM28.0066 15.8294C27.5543 15.8294 27.1863 15.4614 27.1863 15.0092C27.1863 14.5569 27.5543 14.1889 28.0066 14.1889C28.4589 14.1889 28.8269 14.5569 28.8269 15.0092C28.8269 15.4614 28.4588 15.8294 28.0066 15.8294Z" fill="#919191"/>
</g>
</g>
</g>
<defs>
<clipPath id="clip0_464_2826">
<rect width="30" height="30" fill="white"/>
</clipPath>
</defs>
</svg>
