<svg width="146" height="24" viewBox="0 0 146 24" fill="none" xmlns="http://www.w3.org/2000/svg">
<g id="TEXT">
<path id="Fill-1" fill-rule="evenodd" clip-rule="evenodd" d="M14.6221 22.6889C13.6289 23.0909 11.5053 23.4929 9.82614 23.4929C7.18878 23.4929 5.20139 22.7559 3.66007 21.2476C1.67268 19.3715 0.610886 16.0214 0.679389 12.1344C0.782143 3.92506 5.57815 0.506348 10.4769 0.506348C12.2246 0.506348 13.5261 0.842157 14.2454 1.17717L13.4568 4.9628C12.806 4.62779 11.9505 4.46029 10.8194 4.46029C7.77106 4.46029 5.33839 6.50465 5.33839 12.4025C5.33839 17.8297 7.49705 19.7735 9.58638 19.7735C9.9974 19.7735 10.3057 19.74 10.4769 19.673V14.2115H8.42102V10.6261H14.6221V22.6889Z" fill="#1D1F21"/>
<path id="Fill-3" fill-rule="evenodd" clip-rule="evenodd" d="M21.5052 12.0005C21.5052 17.127 22.4985 19.7401 24.3138 19.7401C26.1985 19.7401 26.9177 16.3899 26.9177 11.7995C26.9177 7.84555 26.3012 4.26012 24.2796 4.26012C22.4985 4.26012 21.5052 7.14122 21.5052 12.0005ZM31.611 11.5985C31.611 20.1094 28.5275 23.56 24.1426 23.56C18.9021 23.56 16.8462 18.132 16.8462 11.9335C16.8462 5.76847 19.3474 0.440186 24.4508 0.440186C30.0354 0.440186 31.611 6.4377 31.611 11.5985Z" fill="#1D1F21"/>
<path id="Fill-5" fill-rule="evenodd" clip-rule="evenodd" d="M34.4507 0.707275H38.9384V19.5716H44.8647V23.2911H34.4507V0.707275Z" fill="#1D1F21"/>
<path id="Fill-7" fill-rule="evenodd" clip-rule="evenodd" d="M51.9531 19.8083C52.1586 19.8753 52.5011 19.8753 52.7417 19.8753C54.8995 19.8753 56.7833 17.7974 56.7833 11.5662C56.7833 6.94141 55.5503 4.12731 52.8444 4.12731C52.5353 4.12731 52.2271 4.12731 51.9531 4.22781V19.8083ZM47.4653 1.0452C48.5964 0.776393 50.2397 0.608887 52.0216 0.608887C54.9338 0.608887 56.9546 1.27891 58.4274 2.61896C60.4148 4.36182 61.4432 7.34422 61.4432 11.7337C61.4432 16.2906 60.2435 19.5402 58.2219 21.2831C56.6806 22.7572 54.3849 23.4607 51.1653 23.4607C49.761 23.4607 48.3567 23.3267 47.4653 23.2262V1.0452Z" fill="#1D1F21"/>
<path id="Fill-9" fill-rule="evenodd" clip-rule="evenodd" d="M74.0468 13.3731H68.7705V19.4719H74.7318V23.2919H64.2827V0.707275H74.3208V4.52721H68.7705V9.72149H74.0468V13.3731Z" fill="#1D1F21"/>
<path id="Fill-11" fill-rule="evenodd" clip-rule="evenodd" d="M77.7788 23.2911V0.707275H81.8898L85.4519 9.55318C86.1378 11.2952 87.2681 14.2106 87.9197 16.1545H87.9882C87.8512 13.7751 87.5421 9.8547 87.5421 5.69975V0.707275H91.4818V23.2911H87.3708L83.8429 14.7132C83.0886 12.8036 82.0268 9.9552 81.513 7.91163H81.4445C81.5473 10.1897 81.7185 13.6746 81.7185 18.1981V23.2911H77.7788Z" fill="#1D1F21"/>
<path id="Fill-13" fill-rule="evenodd" clip-rule="evenodd" d="M98.9816 12.0005C98.9816 17.127 99.9749 19.7401 101.79 19.7401C103.675 19.7401 104.394 16.3899 104.394 11.7995C104.394 7.84555 103.778 4.26012 101.756 4.26012C99.9749 4.26012 98.9816 7.14122 98.9816 12.0005ZM109.087 11.5985C109.087 20.1094 106.004 23.56 101.619 23.56C96.3777 23.56 94.3218 18.132 94.3218 11.9335C94.3218 5.76847 96.8238 0.440186 101.927 0.440186C107.511 0.440186 109.087 6.4377 109.087 11.5985Z" fill="#1D1F21"/>
<path id="Fill-15" fill-rule="evenodd" clip-rule="evenodd" d="M114.325 23.2911L110.385 0.707275H115.044L116.175 9.72069C116.483 12.3011 116.688 14.8807 116.962 17.6278H117.065C117.373 14.8472 117.888 12.4016 118.367 9.68719L120.012 0.707275H123.643L125.184 9.62019C125.595 12.1671 126.006 14.6797 126.28 17.6278H126.349C126.658 14.6797 126.932 12.2676 127.24 9.65369L128.37 0.707275H132.755L128.68 23.2911H124.054L122.684 15.8865C122.307 13.8086 121.964 11.2282 121.656 8.48115H121.587C121.176 11.1947 120.799 13.7081 120.321 15.92L118.778 23.2911H114.325Z" fill="#1D1F21"/>
<path id="Fill-17" fill-rule="evenodd" clip-rule="evenodd" d="M135.183 0.707275H139.671V19.5716H145.598V23.2911H135.183V0.707275Z" fill="#1D1F21"/>
<path id="Fill-19" fill-rule="evenodd" clip-rule="evenodd" d="M14.6221 22.6889C13.6289 23.0909 11.5053 23.4929 9.82614 23.4929C7.18878 23.4929 5.20139 22.7559 3.66007 21.2476C1.67268 19.3715 0.610886 16.0214 0.679389 12.1344C0.782143 3.92506 5.57815 0.506348 10.4769 0.506348C12.2246 0.506348 13.5261 0.842157 14.2454 1.17717L13.4568 4.9628C12.806 4.62779 11.9505 4.46029 10.8194 4.46029C7.77106 4.46029 5.33839 6.50465 5.33839 12.4025C5.33839 17.8297 7.49705 19.7735 9.58638 19.7735C9.9974 19.7735 10.3057 19.74 10.4769 19.673V14.2115H8.42102V10.6261H14.6221V22.6889Z" fill="#1D1F21"/>
<path id="Fill-21" fill-rule="evenodd" clip-rule="evenodd" d="M21.5052 12.0005C21.5052 17.127 22.4985 19.7401 24.3138 19.7401C26.1985 19.7401 26.9177 16.3899 26.9177 11.7995C26.9177 7.84555 26.3012 4.26012 24.2796 4.26012C22.4985 4.26012 21.5052 7.14122 21.5052 12.0005ZM31.611 11.5985C31.611 20.1094 28.5275 23.56 24.1426 23.56C18.9021 23.56 16.8462 18.132 16.8462 11.9335C16.8462 5.76847 19.3474 0.440186 24.4508 0.440186C30.0354 0.440186 31.611 6.4377 31.611 11.5985Z" fill="#1D1F21"/>
<path id="Fill-23" fill-rule="evenodd" clip-rule="evenodd" d="M34.4507 0.707275H38.9384V19.5716H44.8647V23.2911H34.4507V0.707275Z" fill="#1D1F21"/>
<path id="Fill-25" fill-rule="evenodd" clip-rule="evenodd" d="M51.9531 19.8083C52.1586 19.8753 52.5011 19.8753 52.7417 19.8753C54.8995 19.8753 56.7833 17.7974 56.7833 11.5662C56.7833 6.94141 55.5503 4.12731 52.8444 4.12731C52.5353 4.12731 52.2271 4.12731 51.9531 4.22781V19.8083ZM47.4653 1.0452C48.5964 0.776393 50.2397 0.608887 52.0216 0.608887C54.9338 0.608887 56.9546 1.27891 58.4274 2.61896C60.4148 4.36182 61.4432 7.34422 61.4432 11.7337C61.4432 16.2906 60.2435 19.5402 58.2219 21.2831C56.6806 22.7572 54.3849 23.4607 51.1653 23.4607C49.761 23.4607 48.3567 23.3267 47.4653 23.2262V1.0452Z" fill="#1D1F21"/>
<path id="Fill-27" fill-rule="evenodd" clip-rule="evenodd" d="M74.0468 13.3731H68.7705V19.4719H74.7318V23.2919H64.2827V0.707275H74.3208V4.52721H68.7705V9.72149H74.0468V13.3731Z" fill="#1D1F21"/>
<path id="Fill-29" fill-rule="evenodd" clip-rule="evenodd" d="M77.7788 23.2911V0.707275H81.8898L85.4519 9.55318C86.1378 11.2952 87.2681 14.2106 87.9197 16.1545H87.9882C87.8512 13.7751 87.5421 9.8547 87.5421 5.69975V0.707275H91.4818V23.2911H87.3708L83.8429 14.7132C83.0886 12.8036 82.0268 9.9552 81.513 7.91163H81.4445C81.5473 10.1897 81.7185 13.6746 81.7185 18.1981V23.2911H77.7788Z" fill="#1D1F21"/>
<path id="Fill-31" fill-rule="evenodd" clip-rule="evenodd" d="M98.9816 12.0005C98.9816 17.127 99.9749 19.7401 101.79 19.7401C103.675 19.7401 104.394 16.3899 104.394 11.7995C104.394 7.84555 103.778 4.26012 101.756 4.26012C99.9749 4.26012 98.9816 7.14122 98.9816 12.0005ZM109.087 11.5985C109.087 20.1094 106.004 23.56 101.619 23.56C96.3777 23.56 94.3218 18.132 94.3218 11.9335C94.3218 5.76847 96.8238 0.440186 101.927 0.440186C107.511 0.440186 109.087 6.4377 109.087 11.5985Z" fill="#1D1F21"/>
<path id="Fill-33" fill-rule="evenodd" clip-rule="evenodd" d="M114.325 23.2911L110.385 0.707275H115.044L116.175 9.72069C116.483 12.3011 116.688 14.8807 116.962 17.6278H117.065C117.373 14.8472 117.888 12.4016 118.367 9.68719L120.012 0.707275H123.643L125.184 9.62019C125.595 12.1671 126.006 14.6797 126.28 17.6278H126.349C126.658 14.6797 126.932 12.2676 127.24 9.65369L128.37 0.707275H132.755L128.68 23.2911H124.054L122.684 15.8865C122.307 13.8086 121.964 11.2282 121.656 8.48115H121.587C121.176 11.1947 120.799 13.7081 120.321 15.92L118.778 23.2911H114.325Z" fill="#1D1F21"/>
<path id="Fill-35" fill-rule="evenodd" clip-rule="evenodd" d="M135.183 0.707275H139.671V19.5716H145.598V23.2911H135.183V0.707275Z" fill="#1D1F21"/>
</g>
</svg>
