<svg width="61" height="60" viewBox="0 0 61 60" fill="none" xmlns="http://www.w3.org/2000/svg">
<g id="user-4 1">
<ellipse id="Ellipse 198" cx="30.292" cy="30" rx="13.125" ry="13.5" fill="#F9BD39"/>
<path id="Vector" d="M11.9169 1.87489C9.43048 1.78786 7.01134 2.69212 5.19165 4.38874C3.37196 6.08536 2.30078 8.43536 2.21375 10.9218C2.12673 13.4082 3.03099 15.8273 4.72761 17.647C6.42423 19.4667 8.77423 20.5379 11.2606 20.6249C9.84752 23.5485 9.11055 26.7527 9.10438 29.9999V30.1686C8.47887 30.3898 7.95167 30.825 7.61597 31.3972C7.28028 31.9695 7.15769 32.642 7.26988 33.2959C7.38208 33.9498 7.72182 34.543 8.22907 34.9706C8.73633 35.3982 9.37842 35.6328 10.0419 35.6328C10.7053 35.6328 11.3474 35.3982 11.8547 34.9706C12.3619 34.543 12.7017 33.9498 12.8139 33.2959C12.9261 32.642 12.8035 31.9695 12.4678 31.3972C12.1321 30.825 11.6049 30.3898 10.9794 30.1686V29.9999C10.9768 26.6739 11.8222 23.4021 13.4356 20.4936C15.0529 20.2277 16.5721 19.5424 17.8419 18.5061L20.1013 20.7561C19.0008 21.9966 18.1337 23.4258 17.5419 24.9749C17.2828 25.6286 17.0789 26.3028 16.9325 26.9905L18.8075 27.3843C18.9352 26.7909 19.1076 26.208 19.3231 25.6405C20.0576 23.7677 21.2412 22.1041 22.7697 20.7963C24.2982 19.4884 26.1249 18.5764 28.0888 18.1405L27.695 16.2655C25.3856 16.7917 23.2432 17.8839 21.4606 19.4436L19.2106 17.1843C20.3358 15.8082 21.0466 14.1406 21.2601 12.3759C21.4736 10.6113 21.1811 8.8223 20.4166 7.21758C19.652 5.61287 18.4471 4.25857 16.9421 3.31261C15.4372 2.36666 13.6944 1.86804 11.9169 1.87489ZM10.0419 33.7499C9.85646 33.7499 9.6752 33.6949 9.52103 33.5919C9.36686 33.4889 9.2467 33.3425 9.17574 33.1712C9.10479 32.9998 9.08622 32.8113 9.12239 32.6295C9.15857 32.4476 9.24786 32.2806 9.37897 32.1495C9.51008 32.0184 9.67713 31.9291 9.85898 31.8929C10.0408 31.8567 10.2293 31.8753 10.4006 31.9463C10.572 32.0172 10.7184 32.1374 10.8214 32.2915C10.9244 32.4457 10.9794 32.627 10.9794 32.8124C10.9794 33.061 10.8806 33.2995 10.7048 33.4753C10.529 33.6511 10.2905 33.7499 10.0419 33.7499ZM4.41688 11.2499C4.41362 10.0355 4.70528 8.83855 5.26679 7.76181C5.8283 6.68507 6.64286 5.76078 7.64048 5.06838C8.63809 4.37597 9.78892 3.93616 10.994 3.78675C12.1992 3.63733 13.4226 3.78278 14.5591 4.21059C15.6956 4.6384 16.7112 5.33578 17.5187 6.24279C18.3261 7.14981 18.9013 8.23932 19.1947 9.4177C19.4881 10.5961 19.4909 11.8281 19.203 13.0078C18.9151 14.1876 18.3451 15.2797 17.5419 16.1905V14.0624C17.5419 13.3165 17.2456 12.6011 16.7181 12.0737C16.1907 11.5462 15.4753 11.2499 14.7294 11.2499H14.3731C14.9508 10.7492 15.3616 10.0839 15.5505 9.34318C15.7395 8.60246 15.6975 7.82168 15.4303 7.10546C15.1631 6.38925 14.6834 5.7718 14.0554 5.33585C13.4275 4.8999 12.6813 4.66628 11.9169 4.66628C11.1524 4.66628 10.4063 4.8999 9.77831 5.33585C9.15036 5.7718 8.67065 6.38925 8.40344 7.10546C8.13623 7.82168 8.09429 8.60246 8.28324 9.34318C8.47219 10.0839 8.883 10.7492 9.46063 11.2499H9.10438C8.35846 11.2499 7.64309 11.5462 7.11564 12.0737C6.5882 12.6011 6.29188 13.3165 6.29188 14.0624V16.1905C5.08818 14.8257 4.42178 13.0697 4.41688 11.2499ZM10.0419 8.43739C10.0419 8.06655 10.1518 7.70404 10.3579 7.39569C10.5639 7.08735 10.8567 6.84703 11.1993 6.70511C11.542 6.5632 11.919 6.52607 12.2827 6.59841C12.6464 6.67076 12.9805 6.84934 13.2427 7.11156C13.5049 7.37379 13.6835 7.70788 13.7559 8.07159C13.8282 8.43531 13.7911 8.81231 13.6492 9.15492C13.5072 9.49753 13.2669 9.79037 12.9586 9.99639C12.6502 10.2024 12.2877 10.3124 11.9169 10.3124C11.4196 10.3124 10.9427 10.1148 10.5911 9.76321C10.2394 9.41158 10.0419 8.93467 10.0419 8.43739ZM15.6669 17.7374C14.5283 18.4003 13.2344 18.7495 11.9169 18.7495C10.5994 18.7495 9.30545 18.4003 8.16688 17.7374V14.0624C8.16688 13.8137 8.26565 13.5753 8.44147 13.3995C8.61728 13.2237 8.85574 13.1249 9.10438 13.1249H14.7294C14.978 13.1249 15.2165 13.2237 15.3923 13.3995C15.5681 13.5753 15.6669 13.8137 15.6669 14.0624V17.7374Z" fill="black"/>
<path id="Vector_2" d="M49.4161 1.87503C47.0393 1.8692 44.7491 2.76634 43.0086 4.38495C41.2682 6.00357 40.2075 8.22283 40.0411 10.5938C37.3528 9.28622 34.4221 8.55193 31.4349 8.43753C31.2137 7.81201 30.7785 7.28482 30.2063 6.94912C29.634 6.61343 28.9615 6.49084 28.3076 6.60303C27.6537 6.71522 27.0605 7.05497 26.6329 7.56222C26.2052 8.06947 25.9707 8.71157 25.9707 9.37503C25.9707 10.0385 26.2052 10.6806 26.6329 11.1878C27.0605 11.6951 27.6537 12.0348 28.3076 12.147C28.9615 12.2592 29.634 12.1366 30.2063 11.8009C30.7785 11.4652 31.2137 10.938 31.4349 10.3125C34.5012 10.4208 37.4984 11.2528 40.1817 12.7407C40.4477 14.3579 41.133 15.8771 42.1692 17.1469L39.9192 19.4063C38.1367 17.8465 35.9943 16.7544 33.6849 16.2282L33.2911 18.1032C35.2613 18.5438 37.0923 19.464 38.6214 20.7822C40.1505 22.1003 41.3306 23.7756 42.0567 25.6594C42.2735 26.2232 42.4459 26.8031 42.5724 27.3938L44.4474 27C44.2876 26.3104 44.068 25.6359 43.7911 24.9844C43.2016 23.4314 42.3343 21.9987 41.2317 20.7563L43.4911 18.5063C44.6542 19.4577 46.0289 20.1157 47.4994 20.4247C48.97 20.7337 50.4933 20.6846 51.9409 20.2817C53.3885 19.8788 54.7181 19.1339 55.8176 18.1096C56.9171 17.0853 57.7542 15.8118 58.2585 14.3962C58.7628 12.9807 58.9194 11.4647 58.7152 9.97601C58.511 8.48729 57.952 7.06946 57.0852 5.84202C56.2183 4.61458 55.0692 3.61348 53.7345 2.92309C52.3998 2.2327 50.9188 1.87325 49.4161 1.87503ZM28.7911 10.3125C28.6057 10.3125 28.4244 10.2575 28.2703 10.1545C28.1161 10.0515 27.9959 9.9051 27.925 9.73379C27.854 9.56249 27.8354 9.37399 27.8716 9.19213C27.9078 9.01027 27.9971 8.84323 28.1282 8.71212C28.2593 8.581 28.4263 8.49171 28.6082 8.45554C28.7901 8.41937 28.9786 8.43793 29.1499 8.50889C29.3212 8.57985 29.4676 8.70001 29.5706 8.85418C29.6736 9.00835 29.7286 9.18961 29.7286 9.37503C29.7286 9.62367 29.6298 9.86213 29.454 10.0379C29.2782 10.2138 29.0397 10.3125 28.7911 10.3125ZM45.6661 17.7375V14.0625C45.6661 13.8139 45.7649 13.5754 45.9407 13.3996C46.1165 13.2238 46.355 13.125 46.6036 13.125H52.2286C52.4772 13.125 52.7157 13.2238 52.8915 13.3996C53.0673 13.5754 53.1661 13.8139 53.1661 14.0625V17.7375C52.0275 18.4004 50.7336 18.7496 49.4161 18.7496C48.0986 18.7496 46.8047 18.4004 45.6661 17.7375ZM47.5411 8.43753C47.5411 8.06669 47.6511 7.70418 47.8571 7.39583C48.0631 7.08749 48.356 6.84717 48.6986 6.70525C49.0412 6.56334 49.4182 6.52621 49.7819 6.59856C50.1456 6.6709 50.4797 6.84948 50.7419 7.1117C51.0042 7.37393 51.1827 7.70802 51.2551 8.07173C51.3274 8.43545 51.2903 8.81245 51.1484 9.15506C51.0065 9.49767 50.7661 9.79051 50.4578 9.99653C50.1495 10.2026 49.7869 10.3125 49.4161 10.3125C48.9188 10.3125 48.4419 10.115 48.0903 9.76335C47.7386 9.41172 47.5411 8.93481 47.5411 8.43753ZM55.0411 16.1907V14.0625C55.0411 13.3166 54.7448 12.6012 54.2173 12.0738C53.6899 11.5463 52.9745 11.25 52.2286 11.25H51.8724C52.45 10.7493 52.8608 10.084 53.0497 9.34332C53.2387 8.6026 53.1968 7.82182 52.9295 7.10561C52.6623 6.38939 52.1826 5.77194 51.5547 5.33599C50.9267 4.90004 50.1805 4.66642 49.4161 4.66642C48.6517 4.66642 47.9055 4.90004 47.2775 5.33599C46.6496 5.77194 46.1699 6.38939 45.9027 7.10561C45.6355 7.82182 45.5935 8.6026 45.7825 9.34332C45.9714 10.084 46.3822 10.7493 46.9599 11.25H46.6036C45.8577 11.25 45.1423 11.5463 44.6149 12.0738C44.0874 12.6012 43.7911 13.3166 43.7911 14.0625V16.1907C42.8364 15.1081 42.2144 13.7731 41.9996 12.3458C41.7848 10.9186 41.9865 9.45961 42.5803 8.14408C43.1742 6.82856 44.135 5.71233 45.3475 4.92934C46.56 4.14635 47.9727 3.72987 49.4161 3.72987C50.8595 3.72987 52.2722 4.14635 53.4847 4.92934C54.6972 5.71233 55.658 6.82856 56.2519 8.14408C56.8457 9.45961 57.0474 10.9186 56.8326 12.3458C56.6178 13.7731 55.9958 15.1081 55.0411 16.1907Z" fill="black"/>
<path id="Vector_3" d="M11.9164 58.125C14.2932 58.1308 16.5834 57.2337 18.3239 55.6151C20.0643 53.9965 21.125 51.7772 21.2914 49.4063C24.215 50.8194 27.4192 51.5563 30.6664 51.5625H30.8351C31.0563 52.188 31.4914 52.7152 32.0637 53.0509C32.636 53.3866 33.3085 53.5092 33.9624 53.397C34.6163 53.2848 35.2095 52.9451 35.6371 52.4378C36.0647 51.9306 36.2993 51.2885 36.2993 50.625C36.2993 49.9615 36.0647 49.3194 35.6371 48.8122C35.2095 48.3049 34.6163 47.9652 33.9624 47.853C33.3085 47.7408 32.636 47.8634 32.0637 48.1991C31.4914 48.5348 31.0563 49.062 30.8351 49.6875H30.6664C27.3404 49.6901 24.0686 48.8447 21.1601 47.2313C20.8942 45.614 20.2089 44.0948 19.1726 42.825L21.4226 40.575C22.6659 41.6693 24.0946 42.5329 25.6414 43.125C26.2969 43.3811 26.9707 43.5879 27.657 43.7438L28.0508 41.8688C27.4576 41.7361 26.8748 41.5606 26.307 41.3437C24.4342 40.6093 22.7706 39.4257 21.4628 37.8972C20.1549 36.3686 19.2429 34.542 18.807 32.5781L16.932 32.9719C17.0817 33.6679 17.2854 34.3513 17.5414 35.0156C18.1312 36.5664 18.9949 37.9985 20.0914 39.2438L17.8414 41.4937C16.6783 40.5423 15.3036 39.8843 13.833 39.5754C12.3625 39.2664 10.8392 39.3154 9.39158 39.7183C7.94394 40.1212 6.61436 40.8662 5.51489 41.8904C4.41541 42.9147 3.57826 44.1883 3.07397 45.6038C2.56968 47.0193 2.41304 48.5353 2.61724 50.024C2.82145 51.5127 3.38051 52.9306 4.24733 54.158C5.11414 55.3855 6.26331 56.3866 7.59798 57.0769C8.93265 57.7673 10.4137 58.1268 11.9164 58.125ZM33.4789 49.6875C33.6643 49.6875 33.8456 49.7425 33.9997 49.8455C34.1539 49.9485 34.2741 50.0949 34.345 50.2662C34.416 50.4375 34.4345 50.626 34.3984 50.8079C34.3622 50.9898 34.2729 51.1568 34.1418 51.2879C34.0107 51.419 33.8436 51.5083 33.6618 51.5445C33.4799 51.5807 33.2914 51.5621 33.1201 51.4911C32.9488 51.4202 32.8024 51.3 32.6994 51.1458C32.5964 50.9917 32.5414 50.8104 32.5414 50.625C32.5414 50.3764 32.6402 50.1379 32.816 49.9621C32.9918 49.7863 33.2302 49.6875 33.4789 49.6875ZM8.16638 55.2375V51.5625C8.16638 51.3139 8.26515 51.0754 8.44097 50.8996C8.61679 50.7238 8.85524 50.625 9.10388 50.625H14.7289C14.9775 50.625 15.216 50.7238 15.3918 50.8996C15.5676 51.0754 15.6664 51.3139 15.6664 51.5625V55.2375C14.5278 55.9004 13.2339 56.2496 11.9164 56.2496C10.5989 56.2496 9.30496 55.9004 8.16638 55.2375ZM10.0414 45.9375C10.0414 45.5667 10.1513 45.2041 10.3574 44.8958C10.5634 44.5875 10.8562 44.3471 11.1989 44.2052C11.5415 44.0633 11.9185 44.0262 12.2822 44.0985C12.6459 44.1709 12.98 44.3495 13.2422 44.6117C13.5044 44.8739 13.683 45.208 13.7554 45.5717C13.8277 45.9354 13.7906 46.3124 13.6487 46.655C13.5067 46.9976 13.2664 47.2905 12.9581 47.4965C12.6497 47.7025 12.2872 47.8125 11.9164 47.8125C11.4191 47.8125 10.9422 47.615 10.5906 47.2633C10.2389 46.9117 10.0414 46.4348 10.0414 45.9375ZM11.9164 41.25C13.3559 41.2534 14.7641 41.671 15.9728 42.453C17.1814 43.235 18.1395 44.3483 18.7326 45.66C19.3257 46.9718 19.5287 48.4265 19.3175 49.8504C19.1063 51.2744 18.4897 52.6076 17.5414 53.6906V51.5625C17.5414 50.8166 17.2451 50.1012 16.7176 49.5738C16.1902 49.0463 15.4748 48.75 14.7289 48.75H14.3726C14.9503 48.2493 15.3611 47.584 15.55 46.8433C15.739 46.1026 15.697 45.3218 15.4298 44.6056C15.1626 43.8894 14.6829 43.2719 14.055 42.836C13.427 42.4 12.6808 42.1664 11.9164 42.1664C11.1519 42.1664 10.4058 42.4 9.77781 42.836C9.14987 43.2719 8.67015 43.8894 8.40294 44.6056C8.13573 45.3218 8.09379 46.1026 8.28274 46.8433C8.47169 47.584 8.8825 48.2493 9.46013 48.75H9.10388C8.35796 48.75 7.64259 49.0463 7.11514 49.5738C6.5877 50.1012 6.29138 50.8166 6.29138 51.5625V53.6906C5.34306 52.6076 4.72648 51.2744 4.51525 49.8504C4.30403 48.4265 4.50708 46.9718 5.10017 45.66C5.69326 44.3483 6.65133 43.235 7.85998 42.453C9.06864 41.671 10.4768 41.2534 11.9164 41.25Z" fill="black"/>
<path id="Vector_4" d="M50.0732 39.3751C51.4864 36.4515 52.2233 33.2473 52.2295 30.0001V29.8313C52.855 29.6102 53.3822 29.175 53.7179 28.6028C54.0536 28.0305 54.1762 27.358 54.064 26.7041C53.9518 26.0502 53.612 25.457 53.1048 25.0294C52.5975 24.6017 51.9554 24.3672 51.292 24.3672C50.6285 24.3672 49.9864 24.6017 49.4792 25.0294C48.9719 25.457 48.6322 26.0502 48.52 26.7041C48.4078 27.358 48.5304 28.0305 48.8661 28.6028C49.2018 29.175 49.729 29.6102 50.3545 29.8313V30.0001C50.357 33.3261 49.5117 36.5979 47.8982 39.5063C46.281 39.7723 44.7618 40.4576 43.492 41.4938L41.242 39.2438C42.3363 38.0006 43.1999 36.5719 43.792 35.0251C44.0481 34.3695 44.2549 33.6958 44.4107 33.0095L42.5357 32.6157C42.4031 33.2089 42.2276 33.7917 42.0107 34.3595C41.2826 36.241 40.1018 37.914 38.5728 39.2304C37.0439 40.5468 35.214 41.4659 33.2451 41.9063L33.6389 43.7813C34.3362 43.6164 35.0196 43.397 35.6826 43.1251C37.2334 42.5353 38.6655 41.6715 39.9107 40.5751L42.1607 42.8251C40.8383 44.4564 40.1018 46.4845 40.0694 48.5843C40.037 50.6841 40.7106 52.734 41.9821 54.4053C43.2537 56.0766 45.0495 57.2726 47.0819 57.8016C49.1142 58.3306 51.2653 58.1619 53.1903 57.3225C55.1153 56.4832 56.7028 55.0218 57.6982 53.1727C58.6936 51.3236 59.0394 49.1938 58.68 47.1247C58.3207 45.0556 57.277 43.1671 55.7164 41.7619C54.1558 40.3567 52.1685 39.5162 50.0732 39.3751ZM51.292 26.2501C51.4774 26.2501 51.6587 26.3051 51.8128 26.4081C51.967 26.5111 52.0872 26.6575 52.1581 26.8288C52.2291 27.0001 52.2477 27.1886 52.2115 27.3705C52.1753 27.5523 52.086 27.7194 51.9549 27.8505C51.8238 27.9816 51.6567 28.0709 51.4749 28.1071C51.293 28.1432 51.1045 28.1247 50.9332 28.0537C50.7619 27.9828 50.6155 27.8626 50.5125 27.7084C50.4095 27.5543 50.3545 27.373 50.3545 27.1876C50.3545 26.9389 50.4533 26.7005 50.6291 26.5247C50.8049 26.3489 51.0434 26.2501 51.292 26.2501ZM45.667 55.2376V51.5626C45.667 51.3139 45.7658 51.0755 45.9416 50.8997C46.1174 50.7239 46.3559 50.6251 46.6045 50.6251H52.2295C52.4781 50.6251 52.7166 50.7239 52.8924 50.8997C53.0682 51.0755 53.167 51.3139 53.167 51.5626V55.2376C52.0284 55.9005 50.7345 56.2497 49.417 56.2497C48.0995 56.2497 46.8056 55.9005 45.667 55.2376ZM47.542 45.9376C47.542 45.5667 47.652 45.2042 47.858 44.8959C48.064 44.5876 48.3569 44.3472 48.6995 44.2053C49.0421 44.0634 49.4191 44.0263 49.7828 44.0986C50.1465 44.171 50.4806 44.3495 50.7428 44.6118C51.005 44.874 51.1836 45.2081 51.256 45.5718C51.3283 45.9355 51.2912 46.3125 51.1493 46.6551C51.0074 46.9977 50.767 47.2906 50.4587 47.4966C50.1503 47.7026 49.7878 47.8126 49.417 47.8126C48.9197 47.8126 48.4428 47.615 48.0912 47.2634C47.7395 46.9118 47.542 46.4349 47.542 45.9376ZM55.042 53.6907V51.5626C55.042 50.8167 54.7457 50.1013 54.2182 49.5739C53.6908 49.0464 52.9754 48.7501 52.2295 48.7501H51.8732C52.4509 48.2494 52.8617 47.5841 53.0506 46.8434C53.2396 46.1027 53.1976 45.3219 52.9304 44.6057C52.6632 43.8894 52.1835 43.272 51.5556 42.8361C50.9276 42.4001 50.1814 42.1665 49.417 42.1665C48.6526 42.1665 47.9064 42.4001 47.2784 42.8361C46.6505 43.272 46.1708 43.8894 45.9036 44.6057C45.6363 45.3219 45.5944 46.1027 45.7833 46.8434C45.9723 47.5841 46.3831 48.2494 46.9607 48.7501H46.6045C45.8586 48.7501 45.1432 49.0464 44.6158 49.5739C44.0883 50.1013 43.792 50.8167 43.792 51.5626V53.6907C42.8373 52.6082 42.2153 51.2732 42.0005 49.8459C41.7857 48.4186 41.9874 46.9597 42.5812 45.6441C43.1751 44.3286 44.1359 43.2124 45.3484 42.4294C46.5609 41.6464 47.9736 41.2299 49.417 41.2299C50.8603 41.2299 52.273 41.6464 53.4856 42.4294C54.6981 43.2124 55.6589 44.3286 56.2528 45.6441C56.8466 46.9597 57.0483 48.4186 56.8335 49.8459C56.6187 51.2732 55.9967 52.6082 55.042 53.6907Z" fill="black"/>
<path id="Vector_5" d="M31.5195 17.8127L31.6883 15.9377C31.0082 15.8814 30.3246 15.8814 29.6445 15.9377L29.8133 17.8127C30.3806 17.7564 30.9522 17.7564 31.5195 17.8127Z" fill="black"/>
<path id="Vector_6" d="M44.7295 31.022C44.7295 30.6845 44.7295 30.347 44.7295 30.0001C44.7295 29.6532 44.7295 29.3345 44.7295 29.0063L42.8545 29.1188C42.8545 29.4095 42.8545 29.7001 42.8545 30.0001C42.8687 30.2843 42.8687 30.569 42.8545 30.8532L44.7295 31.022Z" fill="black"/>
<path id="Vector_7" d="M29.8133 42.1875L29.6445 44.0625C29.982 44.0625 30.3195 44.0625 30.6664 44.0625C31.0133 44.0625 31.3508 44.0625 31.6883 44.0625L31.5195 42.1875C30.9522 42.2438 30.3806 42.2438 29.8133 42.1875Z" fill="black"/>
<path id="Vector_8" d="M16.6045 29.0063C16.6045 29.3345 16.6045 29.6626 16.6045 30.0001C16.6045 30.3376 16.6045 30.6845 16.6045 31.022L18.4795 30.8532C18.4653 30.569 18.4653 30.2843 18.4795 30.0001C18.4795 29.7001 18.4795 29.4095 18.4795 29.1188L16.6045 29.0063Z" fill="black"/>
<path id="Vector_9" d="M23.167 21.5625V25.3125C23.167 25.5611 23.2658 25.7996 23.4416 25.9754C23.6174 26.1512 23.8559 26.25 24.1045 26.25V27.1875C23.8559 27.1875 23.6174 27.2863 23.4416 27.4621C23.2658 27.6379 23.167 27.8764 23.167 28.125V31.875C23.167 32.1236 23.2658 32.3621 23.4416 32.5379C23.6174 32.7137 23.8559 32.8125 24.1045 32.8125V33.75C23.8559 33.75 23.6174 33.8488 23.4416 34.0246C23.2658 34.2004 23.167 34.4389 23.167 34.6875V38.4375C23.167 38.6861 23.2658 38.9246 23.4416 39.1004C23.6174 39.2762 23.8559 39.375 24.1045 39.375H37.2295C37.4781 39.375 37.7166 39.2762 37.8924 39.1004C38.0682 38.9246 38.167 38.6861 38.167 38.4375V34.6875C38.167 34.4389 38.0682 34.2004 37.8924 34.0246C37.7166 33.8488 37.4781 33.75 37.2295 33.75V32.8125C37.4781 32.8125 37.7166 32.7137 37.8924 32.5379C38.0682 32.3621 38.167 32.1236 38.167 31.875V28.125C38.167 27.8764 38.0682 27.6379 37.8924 27.4621C37.7166 27.2863 37.4781 27.1875 37.2295 27.1875V26.25C37.4781 26.25 37.7166 26.1512 37.8924 25.9754C38.0682 25.7996 38.167 25.5611 38.167 25.3125V21.5625C38.167 21.3139 38.0682 21.0754 37.8924 20.8996C37.7166 20.7238 37.4781 20.625 37.2295 20.625H24.1045C23.8559 20.625 23.6174 20.7238 23.4416 20.8996C23.2658 21.0754 23.167 21.3139 23.167 21.5625ZM36.292 29.0625V30.9375H25.042V29.0625H36.292ZM36.292 37.5H25.042V35.625H36.292V37.5ZM35.3545 33.75H25.9795V32.8125H35.3545V33.75ZM35.3545 27.1875H25.9795V26.25H35.3545V27.1875ZM25.042 22.5H36.292V24.375H25.042V22.5Z" fill="black"/>
</g>
</svg>
