<svg width="44" height="12" viewBox="0 0 44 12" fill="none" xmlns="http://www.w3.org/2000/svg">
<path d="M43.6136 4.8756L39.0985 0.307443C38.8956 0.108305 38.6235 -0.00211511 38.3408 3.06994e-05C38.0582 0.0021765 37.7877 0.116716 37.5879 0.318912C37.388 0.521108 37.2747 0.794732 37.2726 1.08069C37.2704 1.36664 37.3795 1.64198 37.5763 1.84723L40.4271 4.73145H3.57277L6.42357 1.84723C6.62038 1.64198 6.72949 1.36664 6.72733 1.08069C6.72518 0.794732 6.61194 0.521108 6.41206 0.318912C6.21219 0.116716 5.94172 0.0021765 5.65908 3.06994e-05C5.37644 -0.00211511 5.1043 0.108305 4.90145 0.307443L0.386218 4.87569C0.138895 5.12652 0 5.46635 0 5.82065C0 6.17495 0.138895 6.51478 0.386218 6.76561L4.90136 11.3338C5.10408 11.5336 5.37643 11.6446 5.65945 11.6427C5.94247 11.6409 6.21338 11.5263 6.41352 11.3239C6.61367 11.1214 6.72694 10.8473 6.72882 10.561C6.7307 10.2747 6.62104 9.99911 6.42357 9.79398L3.57277 6.90959H40.4271L37.5763 9.79398C37.3771 9.99873 37.2658 10.2749 37.2669 10.5622C37.268 10.8496 37.3813 11.1249 37.5821 11.3281C37.783 11.5313 38.0551 11.6459 38.3391 11.6471C38.6231 11.6482 38.8961 11.5357 39.0985 11.334L43.6137 6.76578C43.8611 6.51493 44 6.17504 44 5.82068C44 5.46631 43.861 5.12643 43.6136 4.8756Z" fill="white"/>
</svg>
