<svg width="61" height="60" viewBox="0 0 61 60" fill="none" xmlns="http://www.w3.org/2000/svg">
<g id="web-design-3 1" clip-path="url(#clip0_697_7952)">
<path id="Rectangle 4476" d="M1.33301 39H59.333V45C59.333 47.2091 57.5421 49 55.333 49H5.33301C3.12387 49 1.33301 47.2091 1.33301 45V39Z" fill="#F9BD39"/>
<g id="Group">
<g id="Group_2">
<path id="Vector" d="M40.2675 4.79321H24.9623C24.4696 4.79321 24.0703 5.19247 24.0703 5.68524C24.0703 6.17802 24.4697 6.57728 24.9623 6.57728H40.2674C40.7602 6.57728 41.1595 6.17802 41.1595 5.68524C41.1595 5.19247 40.7602 4.79321 40.2675 4.79321Z" fill="black"/>
</g>
</g>
<g id="Group_3">
<g id="Group_4">
<path id="Vector_2" d="M31.7781 8.59473H24.9623C24.4696 8.59473 24.0703 8.9941 24.0703 9.48676C24.0703 9.97953 24.4697 10.3788 24.9623 10.3788H31.7781C32.2709 10.3788 32.6701 9.97953 32.6701 9.48676C32.6701 8.99398 32.2707 8.59473 31.7781 8.59473Z" fill="black"/>
</g>
</g>
<g id="Group_5">
<g id="Group_6">
<path id="Vector_3" d="M56.4812 8.75027C55.9886 8.75027 55.5892 9.14953 55.5892 9.6423C55.5892 10.135 55.9884 10.5343 56.4812 10.5343C57.3588 10.5343 58.0727 11.2482 58.0727 12.1259V37.4715H51.5625V10.5342H53.0491C53.5418 10.5342 53.9412 10.135 53.9412 9.64219C53.9412 9.14953 53.5419 8.75016 53.0491 8.75016H51.5625V2.6802C51.5625 1.20234 50.3602 0 48.8823 0H11.5453C10.0675 0 8.86512 1.20234 8.86512 2.6802V8.75027H4.18418C2.32289 8.75027 0.808594 10.2646 0.808594 12.1259V38.3636V46.5834C0.808594 48.4447 2.32289 49.959 4.18418 49.959H9.6777C10.1704 49.959 10.5697 49.5598 10.5697 49.067C10.5697 48.5743 10.1705 48.175 9.6777 48.175H4.18418C3.30656 48.175 2.59266 47.4611 2.59266 46.5834V39.2555H9.75703H50.6704H58.0726V46.5834C58.0726 47.4611 57.3587 48.175 56.4811 48.175H36.7519H23.9135H13.8802C13.3875 48.175 12.9881 48.5742 12.9881 49.067C12.9881 49.5596 13.3874 49.959 13.8802 49.959H23.0215V54.6859C20.6189 54.7288 18.6771 56.6953 18.6771 59.108C18.6771 59.6006 19.0764 60 19.5691 60H41.0962C41.5889 60 41.9883 59.6007 41.9883 59.108C41.9883 56.6953 40.0465 54.7287 37.6439 54.6859V49.959H56.4812C58.3425 49.959 59.8568 48.4447 59.8568 46.5834V38.3636V12.1259C59.8567 10.2646 58.3424 8.75027 56.4812 8.75027ZM8.86512 37.4715H2.59266V12.1259C2.59266 11.2482 3.30656 10.5343 4.18418 10.5343H8.86512V37.4715ZM49.7784 13.0321H19.3908C18.8981 13.0321 18.4987 13.4313 18.4987 13.9241C18.4987 14.4169 18.898 14.8161 19.3908 14.8161H49.7784V37.4715H10.6491V14.8161H14.7523C15.2449 14.8161 15.6443 14.4169 15.6443 13.9241C15.6443 13.4313 15.245 13.0321 14.7523 13.0321H10.6491V2.6802C10.6491 2.18602 11.051 1.78406 11.5452 1.78406H48.8823C49.3765 1.78406 49.7784 2.18602 49.7784 2.6802V13.0321ZM24.8054 49.9589H35.8598V54.6838H24.8054V49.9589ZM40.0492 58.2159H20.6162C20.9828 57.1977 21.9584 56.4679 23.1013 56.4679H23.9135H36.7519H37.5641C38.707 56.4679 39.6826 57.1977 40.0492 58.2159Z" fill="black"/>
</g>
</g>
<g id="Group_7">
<g id="Group_8">
<path id="Vector_4" d="M30.811 41.0193C29.3246 41.0193 28.1152 42.2287 28.1152 43.7152C28.1152 45.2016 29.3246 46.411 30.811 46.411C32.2977 46.411 33.5069 45.2017 33.5069 43.7152C33.5069 42.2287 32.2975 41.0193 30.811 41.0193ZM30.811 44.6269C30.3084 44.627 29.8993 44.2179 29.8993 43.7152C29.8993 43.2123 30.3084 42.8033 30.811 42.8033C31.3139 42.8033 31.7229 43.2124 31.7229 43.7152C31.7229 44.2179 31.3137 44.6269 30.811 44.6269Z" fill="black"/>
</g>
</g>
<g id="Group_9">
<g id="Group_10">
<path id="Vector_5" d="M20.4145 9.22619L17.4785 4.14084C17.3191 3.86486 17.0247 3.69482 16.706 3.69482C16.3872 3.69482 16.0929 3.86486 15.9335 4.14084L12.9975 9.22619C12.8381 9.50217 12.8381 9.84225 12.9975 10.1182C13.1568 10.3942 13.4512 10.5642 13.77 10.5642H19.6421C19.9607 10.5642 20.2552 10.3942 20.4145 10.1182C20.5739 9.84225 20.5739 9.50217 20.4145 9.22619ZM15.3148 8.78029L16.706 6.37092L18.0971 8.78029H15.3148Z" fill="black"/>
</g>
</g>
<g id="Group_11">
<g id="Group_12">
<path id="Vector_6" d="M47.1505 18.1052H34.2319C33.7392 18.1052 33.3398 18.5045 33.3398 18.9973C33.3398 19.4899 33.7391 19.8893 34.2319 19.8893H47.1505C47.6432 19.8893 48.0425 19.49 48.0425 18.9973C48.0425 18.5045 47.6432 18.1052 47.1505 18.1052Z" fill="black"/>
</g>
</g>
<g id="Group_13">
<g id="Group_14">
<path id="Vector_7" d="M47.1505 22.0283H34.2319C33.7392 22.0283 33.3398 22.4276 33.3398 22.9204C33.3398 23.4131 33.7391 23.8124 34.2319 23.8124H47.1505C47.6432 23.8124 48.0425 23.4131 48.0425 22.9204C48.0425 22.4276 47.6432 22.0283 47.1505 22.0283Z" fill="black"/>
</g>
</g>
<g id="Group_15">
<g id="Group_16">
<path id="Vector_8" d="M47.1505 25.9514H34.2319C33.7392 25.9514 33.3398 26.3507 33.3398 26.8434C33.3398 27.3361 33.7391 27.7355 34.2319 27.7355H47.1505C47.6432 27.7355 48.0425 27.3362 48.0425 26.8434C48.0425 26.3507 47.6432 25.9514 47.1505 25.9514Z" fill="black"/>
</g>
</g>
<g id="Group_17">
<g id="Group_18">
<path id="Vector_9" d="M47.1505 29.8745H34.2319C33.7392 29.8745 33.3398 30.2738 33.3398 30.7665C33.3398 31.2592 33.7391 31.6586 34.2319 31.6586H47.1505C47.6432 31.6586 48.0425 31.2593 48.0425 30.7665C48.0425 30.2738 47.6432 29.8745 47.1505 29.8745Z" fill="black"/>
</g>
</g>
<g id="Group_19">
<g id="Group_20">
<path id="Vector_10" d="M40.2682 33.7976H34.2319C33.7392 33.7976 33.3398 34.1969 33.3398 34.6896C33.3398 35.1823 33.7391 35.5817 34.2319 35.5817H40.2682C40.7609 35.5817 41.1602 35.1824 41.1602 34.6896C41.1602 34.1969 40.761 33.7976 40.2682 33.7976Z" fill="black"/>
</g>
</g>
<g id="Group_21">
<g id="Group_22">
<path id="Vector_11" d="M30.2138 17.3538H13.77C13.2773 17.3538 12.8779 17.753 12.8779 18.2458V28.7635V34.6897C12.8779 35.1823 13.2772 35.5817 13.77 35.5817H30.2138C30.7065 35.5817 31.1059 35.1824 31.1059 34.6897V29.6499V18.2458C31.1059 17.753 30.7065 17.3538 30.2138 17.3538ZM14.6621 19.1378H29.3218V28.4648C29.222 28.4477 29.1221 28.4327 29.0224 28.4215C27.4677 28.2473 26.5737 28.8694 25.8552 29.3691C25.3157 29.7441 24.8499 30.068 24.0697 30.1313C22.8076 30.2349 21.9984 29.5639 20.9734 28.7159C19.8323 27.7722 18.5381 26.7037 16.481 26.8275C15.8641 26.865 15.2561 27.0068 14.6621 27.25V19.1378ZM29.3219 33.7976H14.662V29.2429C15.2948 28.8608 15.9412 28.6477 16.5891 28.6083C17.9442 28.5257 18.8211 29.251 19.8363 30.0906C20.9581 31.0185 22.2288 32.0693 24.2139 31.9095C25.4735 31.8073 26.2497 31.2675 26.8736 30.834C27.5135 30.3891 27.9368 30.0956 28.8241 30.1945C28.989 30.213 29.1554 30.2439 29.3219 30.2872V33.7976Z" fill="black"/>
</g>
</g>
<g id="Group_23">
<g id="Group_24">
<path id="Vector_12" d="M24.3454 21.1304C22.8405 21.1304 21.6162 22.3546 21.6162 23.8596C21.6162 25.3644 22.8405 26.5887 24.3454 26.5887C25.8503 26.5887 27.0746 25.3645 27.0746 23.8596C27.0746 22.3546 25.8503 21.1304 24.3454 21.1304ZM24.3454 24.8048C23.8243 24.8048 23.4002 24.3807 23.4002 23.8596C23.4002 23.3383 23.8243 22.9143 24.3454 22.9143C24.8665 22.9143 25.2906 23.3384 25.2906 23.8596C25.2906 24.3807 24.8665 24.8048 24.3454 24.8048Z" fill="black"/>
</g>
</g>
</g>
<defs>
<clipPath id="clip0_697_7952">
<rect width="60" height="60" fill="white" transform="translate(0.333008)"/>
</clipPath>
</defs>
</svg>
