<svg width="34" height="32" viewBox="0 0 34 32" fill="none" xmlns="http://www.w3.org/2000/svg">
<g id="WING">
<path id="Fill-40" fill-rule="evenodd" clip-rule="evenodd" d="M29.4588 27.3076C17.2408 26.8051 -4.0274 23.8558 2.06286 9.91626C6.34143 20.1514 18.6166 24.8589 30.0289 26.6389C29.9104 26.8084 29.6345 27.1514 29.4588 27.3076Z" fill="#1D1F21"/>
<path id="Fill-37" fill-rule="evenodd" clip-rule="evenodd" d="M33.6758 24.6619C33.6758 24.8912 33.8386 27.3234 25.9142 31.1906C31.7544 26.7391 31.324 25.9388 31.2109 25.625C16.6487 23.6821 0.184821 15.9609 6.38065 0.80957C13.4231 17.7961 29.4524 23.0772 33.6758 24.6619Z" fill="#1D1F21"/>
<path id="Fill-42" fill-rule="evenodd" clip-rule="evenodd" d="M28.0223 28.6682C15.4713 29.9697 -2.39422 30.8504 0.2661 19.9878C6.5852 26.0167 13.6365 27.1507 28.4289 28.3033C28.26 28.4781 28.1688 28.5439 28.0223 28.6682Z" fill="#1D1F21"/>
</g>
</svg>
