<svg width="44" height="45" viewBox="0 0 44 45" fill="none" xmlns="http://www.w3.org/2000/svg">
<g id="Group 3">
<g id="Group">
<path id="Vector" d="M43.6737 37.9256C43.6122 38.2332 43.3046 41.5243 32.0469 45.0001C40.6901 40.294 40.2903 39.1252 40.2287 38.6945C21.6197 32.9119 1.78028 18.9782 13.2533 0C18.6976 24.3302 38.5062 34.8804 43.6737 37.9256Z" fill="white"/>
</g>
<g id="Group_2">
<path id="Vector_2" d="M38.4198 39.8019C38.2352 40.0173 37.7738 40.4171 37.5277 40.5709C21.6255 37.249 -5.56529 28.6673 5.50787 11.2886C8.82982 25.9297 23.8709 34.9113 38.4198 39.8019Z" fill="white"/>
</g>
<g id="Group_3">
<path id="Vector_3" d="M35.9613 41.678C35.7153 41.8626 35.5615 41.9549 35.3462 42.0779C18.6134 41.0936 -4.97857 38.3868 0.92711 24.3916C7.84783 33.8653 16.8294 36.9104 35.9613 41.678Z" fill="white"/>
</g>
</g>
</svg>
