<svg width="210" height="34" viewBox="0 0 210 34" fill="none" xmlns="http://www.w3.org/2000/svg">
<g id="Group 4">
<path id="Vector" d="M20.834 32.7102C19.4274 33.2963 16.3799 33.8823 13.9184 33.8823C10.1676 33.8823 7.23727 32.8274 5.01022 30.6004C2.19711 27.7873 0.67334 22.8643 0.67334 17.2381C0.790553 5.16516 7.70612 0.125 14.7389 0.125C17.2004 0.125 19.0758 0.593855 20.1307 1.06271L18.9586 6.57171C18.0209 6.10286 16.8487 5.86845 15.2077 5.86845C10.8709 5.86845 7.35448 8.91598 7.35448 17.5897C7.35448 25.5602 10.402 28.3733 13.4496 28.3733C14.0356 28.3733 14.5045 28.3733 14.7389 28.2561V20.2856H11.9258V15.011H20.834V32.7102Z" fill="white"/>
<path id="Vector_2" d="M45.2155 16.4181C45.2155 28.9599 40.7615 34.0001 34.432 34.0001C26.9303 34.0001 24 26.0296 24 16.887C24 7.86156 27.6336 0.00830078 34.9008 0.00830078C42.9885 0.00830078 45.2155 8.79927 45.2155 16.4181ZM30.6811 17.0042C30.6811 24.5058 32.0877 28.3738 34.6664 28.3738C37.3623 28.3738 38.4172 23.4509 38.4172 16.6525C38.4172 10.7919 37.4795 5.51731 34.6664 5.51731C32.2049 5.63452 30.6811 9.85419 30.6811 17.0042Z" fill="white"/>
<path id="Vector_3" d="M49.3179 0.477051H55.7646V28.2565H64.3211V33.7655H49.3179V0.477051Z" fill="white"/>
<path id="Vector_4" d="M68.0713 0.94544C69.7123 0.593801 72.0565 0.359375 74.6352 0.359375C78.8549 0.359375 81.668 1.29708 83.895 3.2897C86.7082 5.86838 88.2319 10.2053 88.2319 16.652C88.2319 23.3331 86.4737 28.1389 83.6606 30.7175C81.4336 32.8274 78.1516 33.8823 73.4631 33.8823C71.4705 33.8823 69.4778 33.6479 68.1885 33.5307V0.94544H68.0713ZM74.518 28.4905C74.8696 28.6077 75.3385 28.6077 75.6901 28.6077C78.7377 28.6077 81.5508 25.5602 81.5508 16.4176C81.5508 9.61921 79.7926 5.51676 75.9246 5.51676C75.4557 5.51676 74.9869 5.51675 74.6352 5.63396V28.4905H74.518Z" fill="white"/>
<path id="Vector_5" d="M106.282 18.9962H98.663V27.9044H107.22V33.5306H92.2163V0.359375H106.634V5.9856H98.663V13.6044H106.282V18.9962Z" fill="white"/>
<path id="Vector_6" d="M111.558 33.6483V0.477051H117.418L122.576 13.4877C123.513 16.0664 125.154 20.286 126.092 23.2164H126.209C125.975 19.7 125.623 13.9565 125.623 7.86147V0.477051H131.249V33.6483H125.389L120.349 20.9893C119.294 18.1762 117.77 13.9565 116.949 11.0262H116.832C116.949 14.4254 117.184 19.4655 117.184 26.1467V33.6483H111.558Z" fill="white"/>
<path id="Vector_7" d="M156.567 16.4181C156.567 28.9599 152.113 34.0001 145.783 34.0001C138.281 34.0001 135.351 26.0296 135.351 16.887C135.351 7.86156 138.985 0.00830078 146.252 0.00830078C154.34 0.00830078 156.567 8.79927 156.567 16.4181ZM142.032 17.0042C142.032 24.5058 143.439 28.3738 146.017 28.3738C148.713 28.3738 149.768 23.4509 149.768 16.6525C149.768 10.7919 148.831 5.51731 146.017 5.51731C143.556 5.63452 142.032 9.85419 142.032 17.0042Z" fill="white"/>
<path id="Vector_8" d="M164.184 33.6479L158.558 0.476595H165.239L166.88 13.7217C167.349 17.4725 167.583 21.3405 168.052 25.3257H168.17C168.638 21.2233 169.342 17.5897 170.045 13.6044L172.389 0.359375H177.664L179.891 13.4872C180.477 17.2381 181.063 20.8717 181.415 25.2085H181.532C182.001 20.8717 182.352 17.3553 182.821 13.4872L184.462 0.359375H190.792L184.931 33.5307H178.25L176.257 22.6298C175.671 19.5823 175.202 15.8315 174.733 11.729H174.616C174.03 15.7143 173.444 19.4651 172.741 22.6298L170.514 33.4134H164.184V33.6479Z" fill="white"/>
<path id="Vector_9" d="M194.075 0.477051H200.521V28.2565H209.078V33.7655H194.075V0.477051Z" fill="white"/>
</g>
</svg>
