<svg width="26" height="26" viewBox="0 0 26 26" fill="none" xmlns="http://www.w3.org/2000/svg">
<g id="gear 1" clip-path="url(#clip0_464_3300)">
<g id="Group">
<path id="Vector" d="M25.3542 10.5816L23.034 10.3029C22.7969 9.41786 22.4496 8.58174 22.0024 7.80593L23.4448 5.97248C23.6653 5.69065 23.6403 5.25491 23.3855 5.00116L20.9947 2.60926C20.743 2.35655 20.3062 2.32951 20.0234 2.54998L18.1868 3.99448C17.4141 3.5473 16.578 3.19995 15.6951 2.96492L15.4174 0.644774C15.3747 0.290148 15.0472 0 14.6894 0H11.3075C10.9497 0 10.6221 0.290148 10.5805 0.644774L10.3018 2.96492C9.41786 3.20099 8.5807 3.54938 7.80801 3.99552L5.97248 2.5531C5.69169 2.33263 5.25491 2.35863 5.0022 2.61134L2.6103 5.00428C2.35863 5.25595 2.33263 5.69273 2.55414 5.9756L3.99552 7.81009C3.54834 8.58382 3.20099 9.42098 2.96492 10.306L0.645814 10.5837C0.291188 10.6253 0 10.9528 0 11.3116V14.6936C0 15.0513 0.290148 15.3768 0.645814 15.4205L2.96596 15.6992C3.20307 16.5811 3.54938 17.4172 3.99656 18.191L2.55518 20.0275C2.33575 20.3093 2.36071 20.7451 2.61446 20.9988L5.0022 23.3918C5.25491 23.6435 5.69169 23.6715 5.97248 23.4511L7.80905 22.0055C8.58278 22.4527 9.4189 22.8011 10.3029 23.0361L10.5816 25.3552C10.6242 25.7109 10.9508 26 11.3085 26H14.6905C15.0492 26 15.3758 25.7109 15.4174 25.3552L15.6961 23.0361C16.5811 22.799 17.4172 22.4517 18.1899 22.0055L20.0265 23.4479C20.3083 23.6684 20.744 23.6424 20.9968 23.3897L23.3876 20.9968C23.6414 20.7451 23.6674 20.3083 23.4459 20.0244L22.0024 18.1899C22.4506 17.4162 22.7969 16.5801 23.034 15.6971L25.3531 15.4184C25.7088 15.3758 25.999 15.0513 25.999 14.6915V11.3095C26 10.9497 25.7109 10.6242 25.3542 10.5816ZM13.0005 19.4992C9.41058 19.4992 6.50078 16.5894 6.50078 12.9995C6.50078 9.40954 9.41058 6.49974 13.0005 6.49974C16.5905 6.49974 19.5003 9.40954 19.5003 12.9995C19.5003 16.5894 16.5915 19.4992 13.0005 19.4992Z" fill="#F5C118"/>
</g>
</g>
<defs>
<clipPath id="clip0_464_3300">
<rect width="25.999" height="26" fill="white"/>
</clipPath>
</defs>
</svg>
