<svg width="45" height="44" viewBox="0 0 45 44" fill="none" xmlns="http://www.w3.org/2000/svg">
<g id="Layer_1">
<g id="Group">
<path id="Vector" d="M17.4979 9.16632C16.4859 9.16632 15.6636 8.34677 15.6636 7.33196V5.50034C15.6636 2.4669 18.1305 0 21.1639 0H40.8744C41.8865 0 42.7088 0.819551 42.7088 1.83436C42.7088 2.84918 41.8865 3.66598 40.8744 3.66598H21.1639C20.1519 3.66598 19.3296 4.48828 19.3296 5.50034V7.33471C19.3323 8.34677 18.51 9.16632 17.4979 9.16632Z" fill="#1D1F21"/>
</g>
<g id="Group_2">
<path id="Vector_2" d="M27.5825 38.5024H21.1664C18.1329 38.5024 15.666 36.0355 15.666 33.0021V29.3361C15.6633 28.3213 16.4856 27.5017 17.4976 27.5017C18.5097 27.5017 19.332 28.3213 19.332 29.3361V33.0021C19.332 34.0141 20.1543 34.8364 21.1664 34.8364H27.5825C28.5946 34.8364 29.4169 35.656 29.4169 36.6708C29.4141 37.6828 28.5946 38.5024 27.5825 38.5024Z" fill="#1D1F21"/>
</g>
<g id="Group_3">
<path id="Vector_3" d="M13.2931 26.9655C12.7678 27.4907 11.9813 27.6475 11.2937 27.3642C10.6089 27.081 10.1634 26.4127 10.1634 25.6701V20.1698H2.83143C1.81662 20.167 0.99707 19.3475 0.99707 18.3354C0.99707 17.3234 1.81662 16.5011 2.83143 16.5011H10.1661V11.0007C10.1661 10.2582 10.6117 9.58987 11.2965 9.30661C11.9813 9.02334 12.7706 9.1801 13.2958 9.70538L20.6305 17.0401C21.3456 17.7551 21.3456 18.9157 20.6305 19.6335L13.2931 26.9655Z" fill="#F5C118"/>
<path id="Vector_4" d="M40.1651 0.178722L29.148 3.8502C27.6629 4.36723 26.6646 5.76432 26.6646 7.33192V40.334C26.6646 42.3554 28.3092 44 30.3305 44C30.7266 44 31.0978 43.945 31.4994 43.8212L42.5193 40.147C44.0016 39.6327 44.9999 38.2329 44.9999 36.668V3.66594C44.9999 1.25129 42.6265 -0.574825 40.1651 0.178722Z" fill="#FFE283"/>
</g>
</g>
</svg>
