<svg width="13" height="9" viewBox="0 0 13 9" fill="none" xmlns="http://www.w3.org/2000/svg">
<g id="Left 2">
<path id="Vector" d="M8.74026 7.60769C8.52987 7.81053 8.52835 8.14088 8.73687 8.34554C8.94539 8.5502 9.28498 8.55167 9.49537 8.34883L10.7788 7.11141C11.2622 6.64536 11.6573 6.26446 11.9375 5.92507C12.2289 5.57215 12.4398 5.21393 12.4961 4.78394C12.5208 4.5954 12.5208 4.4046 12.4961 4.21606C12.4398 3.78607 12.2289 3.42785 11.9375 3.07493C11.6573 2.73554 11.2622 2.35463 10.7788 1.88858L9.49537 0.651171C9.28498 0.448331 8.94539 0.449805 8.73687 0.654464C8.52835 0.859123 8.52987 1.18947 8.74026 1.39231L10.001 2.60783C10.5127 3.10114 10.8636 3.44065 11.1011 3.72832C11.1783 3.82181 11.2385 3.90411 11.2853 3.97826L0.536332 3.97826C0.240119 3.97826 -1.08758e-05 4.21185 -1.08499e-05 4.5C-1.0824e-05 4.78815 0.240119 5.02174 0.536332 5.02174L11.2853 5.02174C11.2385 5.09589 11.1783 5.1782 11.1011 5.27168C10.8636 5.55935 10.5127 5.89886 10.001 6.39217L8.74026 7.60769Z" fill="#1D1F21"/>
</g>
</svg>
