<svg width="45" height="44" viewBox="0 0 45 44" fill="none" xmlns="http://www.w3.org/2000/svg">
<g id="scale 1" clip-path="url(#clip0_444_2207)">
<path id="Vector" d="M33.9985 0H11.9985C5.9234 0 0.998535 4.92487 0.998535 11V33C0.998535 39.0751 5.9234 44 11.9985 44H33.9985C40.0737 44 44.9985 39.0751 44.9985 33V11C44.9985 4.92487 40.0737 0 33.9985 0Z" fill="#FDF8E1"/>
<path id="Vector_2" d="M44.9988 11V33C44.9988 35.9174 43.8399 38.7153 41.777 40.7782C39.7141 42.8411 36.9162 44 33.9988 44H11.9988C10.5538 44.0017 9.12259 43.7183 7.78718 43.1662C6.45177 42.6141 5.23833 41.8041 4.21631 40.7825L41.7813 3.21753C42.8029 4.23955 43.6129 5.45299 44.165 6.7884C44.7171 8.12382 45.0004 9.55499 44.9988 11Z" fill="#1D1F21"/>
<path id="Vector_3" d="M33.9985 0H11.9985C9.08115 0 6.28326 1.15893 4.22036 3.22183C2.15746 5.28473 0.998535 8.08262 0.998535 11L0.998535 33C0.998535 35.9174 2.15746 38.7153 4.22036 40.7782C6.28326 42.8411 9.08115 44 11.9985 44H33.9985C36.9159 44 39.7138 42.8411 41.7767 40.7782C43.8396 38.7153 44.9985 35.9174 44.9985 33V11C44.9985 8.08262 43.8396 5.28473 41.7767 3.22183C39.7138 1.15893 36.9159 0 33.9985 0ZM42.936 33C42.9333 35.3695 41.9908 37.6412 40.3153 39.3168C38.6398 40.9923 36.3681 41.9348 33.9985 41.9375H11.9985C9.629 41.9348 7.3573 40.9923 5.68178 39.3168C4.00627 37.6412 3.06376 35.3695 3.06104 33V11C3.06376 8.63047 4.00627 6.35876 5.68178 4.68325C7.3573 3.00773 9.629 2.06523 11.9985 2.0625H33.9985C36.3681 2.06523 38.6398 3.00773 40.3153 4.68325C41.9908 6.35876 42.9333 8.63047 42.936 11V33Z" fill="#1D1F21"/>
<path id="Vector_4" d="M32.2798 29.8224L15.1762 12.7188H21.9418V10.6562H11.6548V20.9433H13.7173V14.1769L30.8216 31.2812H24.0552V33.3438H34.3423V23.0567H32.2798V29.8224Z" fill="#F5C118"/>
</g>
<defs>
<clipPath id="clip0_444_2207">
<rect width="44" height="44" fill="white" transform="translate(0.998535)"/>
</clipPath>
</defs>
</svg>
