<svg width="40" height="40" viewBox="0 0 40 40" fill="none" xmlns="http://www.w3.org/2000/svg">
<path d="M22.9206 22.935C21.8569 23.9988 20.4456 24.5838 18.9406 24.5838C17.4356 24.5838 16.0244 23.9988 14.9606 22.935C13.8969 21.8725 13.3131 20.46 13.3131 18.9563C13.3131 17.4525 13.8981 16.04 14.9606 14.9763C16.0244 13.9125 17.4356 13.3275 18.9406 13.3275C20.4456 13.3275 21.8569 13.9125 22.9206 14.9763C23.9844 16.0388 24.5681 17.4525 24.5681 18.9563C24.5681 20.46 23.9844 21.8725 22.9206 22.935ZM39.9219 20.0788C39.9219 31.1063 30.9494 40.0788 19.9219 40.0788C8.89438 40.0788 -0.078125 31.1063 -0.078125 20.0788C-0.078125 9.0513 8.89438 0.0787964 19.9219 0.0787964C30.9494 0.0787964 39.9219 9.05005 39.9219 20.0788ZM28.8206 27.0388L25.5131 23.7225C26.5181 22.3438 27.0681 20.6938 27.0681 18.955C27.0681 16.7838 26.2231 14.7425 24.6881 13.2075C23.1531 11.6725 21.1131 10.8263 18.9406 10.8263C16.7681 10.8263 14.7281 11.6725 13.1931 13.2075C11.6581 14.7425 10.8131 16.7838 10.8131 18.955C10.8131 21.1263 11.6594 23.1675 13.1931 24.7013C14.7281 26.2363 16.7681 27.0825 18.9406 27.0825C20.6969 27.0825 22.3644 26.52 23.7519 25.495L27.0506 28.8025C27.2944 29.0475 27.6144 29.17 27.9356 29.17C28.2556 29.17 28.5744 29.0488 28.8181 28.805C29.3069 28.32 29.3069 27.5275 28.8206 27.0388Z" fill="#BCBCBC"/>
</svg>
