<svg width="45" height="44" viewBox="0 0 45 44" fill="none" xmlns="http://www.w3.org/2000/svg">
<g id="secure 1">
<path id="Vector 4" d="M14.5653 32.2666L7.23193 16.1333L14.5653 9.16663H37.2986L39.1319 13.9333L34.7319 23.8333L25.1986 35.5666L14.5653 32.2666Z" fill="#F5C118" stroke="black"/>
<path id="Vector" d="M42.1071 6.15811C42.0281 5.59081 41.62 5.12416 41.0682 4.97078L23.3838 0.0527495C23.1317 -0.0174204 22.8654 -0.0174204 22.6131 0.0527495L4.92875 4.97078C4.37698 5.12416 3.9688 5.59061 3.88982 6.15811C3.78724 6.89566 1.44729 24.3223 7.44912 32.9916C13.4439 41.6505 22.2874 43.8695 22.6608 43.9598C22.7719 43.9866 22.885 43.9998 22.9985 43.9998C23.112 43.9998 23.2251 43.9864 23.3361 43.9598C23.7098 43.8695 32.5533 41.6505 38.5478 32.9916C44.5496 24.3225 42.2097 6.89585 42.1071 6.15811ZM34.4026 16.332L22.3401 28.3945C22.0594 28.6752 21.6913 28.8157 21.3234 28.8157C20.9555 28.8157 20.5874 28.6754 20.3067 28.3945L12.8486 20.9364C12.5788 20.6668 12.4273 20.301 12.4273 19.9197C12.4273 19.5383 12.579 19.1725 12.8486 18.903L14.3294 17.4221C14.891 16.8607 15.8014 16.8606 16.3628 17.4221L21.3234 22.3827L30.8884 12.8175C31.1579 12.5478 31.5237 12.3963 31.9051 12.3963C32.2864 12.3963 32.6522 12.5478 32.9218 12.8175L34.4026 14.2984C34.9642 14.8599 34.9642 15.7704 34.4026 16.332Z" fill="#1D1F21"/>
</g>
</svg>
