<svg width="25" height="25" viewBox="0 0 25 25" fill="none" xmlns="http://www.w3.org/2000/svg">
<g id="singapore-2 1" clip-path="url(#clip0_444_1902)">
<path id="Vector" d="M24.6665 4.5H0.666504V20.4997H24.6665V4.5Z" fill="white"/>
<path id="Vector_2" d="M24.6665 4.5H0.666504V12.4998H24.6665V4.5Z" fill="#D80027"/>
<g id="Group">
<path id="Vector_3" d="M4.57908 8.50021C4.57908 7.33466 5.39827 6.36098 6.49214 6.12205C6.324 6.0853 6.14958 6.06543 5.97043 6.06543C4.62568 6.06543 3.53564 7.15546 3.53564 8.50016C3.53564 9.84487 4.62572 10.9349 5.97043 10.9349C6.14958 10.9349 6.324 10.915 6.49214 10.8783C5.39827 10.6395 4.57908 9.6658 4.57908 8.50021Z" fill="white"/>
<path id="Vector_4" d="M7.70951 6.23926L7.8822 6.77068H8.441L7.98889 7.09913L8.16157 7.63055L7.70951 7.30215L7.2574 7.63055L7.43014 7.09913L6.97803 6.77068H7.53682L7.70951 6.23926Z" fill="white"/>
<path id="Vector_5" d="M6.35404 7.28271L6.52668 7.81414H7.08548L6.63337 8.14259L6.80606 8.67401L6.35404 8.34561L5.90193 8.67401L6.07467 8.14259L5.62256 7.81414H6.18136L6.35404 7.28271Z" fill="white"/>
<path id="Vector_6" d="M9.06493 7.28271L9.23762 7.81414H9.79642L9.34431 8.14259L9.517 8.67401L9.06493 8.34561L8.61287 8.67401L8.7856 8.14259L8.3335 7.81414H8.89229L9.06493 7.28271Z" fill="white"/>
<path id="Vector_7" d="M8.5434 8.84814L8.71609 9.37957H9.27489L8.82282 9.70802L8.99551 10.2394L8.5434 9.91103L8.09139 10.2394L8.26407 9.70802L7.81201 9.37957H8.37076L8.5434 8.84814Z" fill="white"/>
<path id="Vector_8" d="M6.87548 8.84814L7.04812 9.37957H7.60692L7.15486 9.70802L7.32754 10.2394L6.87548 9.91103L6.42342 10.2394L6.59611 9.70802L6.14404 9.37957H6.70279L6.87548 8.84814Z" fill="white"/>
</g>
</g>
<defs>
<clipPath id="clip0_444_1902">
<rect width="24" height="24" fill="white" transform="translate(0.666504 0.5)"/>
</clipPath>
</defs>
</svg>
