<svg width="19" height="19" viewBox="0 0 19 19" fill="none" xmlns="http://www.w3.org/2000/svg">
<path fill-rule="evenodd" clip-rule="evenodd" d="M14.4858 12.6844C15.4385 11.3677 16 9.74941 16 8C16 3.58172 12.4183 0 8 0C3.58172 0 0 3.58172 0 8C0 12.4183 3.58172 16 8 16C9.76672 16 11.3997 15.4273 12.7234 14.4574L16.0751 17.8025C16.5637 18.2901 17.3552 18.2893 17.8429 17.8007C18.3305 17.312 18.3297 16.5206 17.8411 16.0329L14.4858 12.6844ZM8 13.6C4.90721 13.6 2.4 11.0928 2.4 8C2.4 4.90721 4.90721 2.4 8 2.4C11.0928 2.4 13.6 4.90721 13.6 8C13.6 11.0928 11.0928 13.6 8 13.6Z" fill="#484848"/>
</svg>
