<svg width="24" height="25" viewBox="0 0 24 25" fill="none" xmlns="http://www.w3.org/2000/svg">
<g id="united-kingdom-2 1" clip-path="url(#clip0_444_1879)">
<path id="Vector" d="M0 4.62744H24V20.3722H0V4.62744Z" fill="white"/>
<path id="Vector_2" d="M10.9867 4.62744V11.2559H0V14.0624H10.9867V20.3729H13.212V14.0624H24V11.2559H13.212V4.62744H10.9867Z" fill="#BD0034"/>
<path id="Vector_3" d="M10.2443 4.62744H1.875L10.2443 9.92019V4.62744Z" fill="#1A237B"/>
<path id="Vector_4" d="M0 10.3203H5.89875L0 6.58008V10.3203Z" fill="#1A237B"/>
<path id="Vector_5" d="M0 4.625V5.546L7.07925 9.96575H8.81775C8.81775 9.96575 1.8405 5.64425 0.183 4.625H0Z" fill="#BD0034"/>
<path id="Vector_6" d="M10.2443 20.3728H1.875L10.2443 15.0801V20.3728Z" fill="#1A237B"/>
<path id="Vector_7" d="M0 14.6797H5.89875L0 18.4199V14.6797Z" fill="#1A237B"/>
<path id="Vector_8" d="M0 20.3749V19.4539L7.07925 15.0342H8.81775C8.81775 15.0342 1.8405 19.3557 0.183 20.3749H0Z" fill="#BD0034"/>
<path id="Vector_9" d="M13.7559 4.62744H22.1251L13.7559 9.92019V4.62744Z" fill="#1A237B"/>
<path id="Vector_10" d="M24.0003 10.3203H18.1016L24.0003 6.58008V10.3203Z" fill="#1A237B"/>
<path id="Vector_11" d="M24.0004 4.625V5.546L16.9211 9.96575H15.1826C15.1826 9.96575 22.1576 5.64425 23.8174 4.62725L24.0004 4.625Z" fill="#BD0034"/>
<path id="Vector_12" d="M13.7559 20.3728H22.1251L13.7559 15.0801V20.3728Z" fill="#1A237B"/>
<path id="Vector_13" d="M24.0003 14.6797H18.1016L24.0003 18.4199V14.6797Z" fill="#1A237B"/>
<path id="Vector_14" d="M24.0004 20.3749V19.4539L16.9211 15.0342H15.1826C15.1826 15.0342 22.1576 19.3557 23.8174 20.3727L24.0004 20.3749Z" fill="#BD0034"/>
</g>
<defs>
<clipPath id="clip0_444_1879">
<rect width="24" height="24" fill="white" transform="translate(0 0.5)"/>
</clipPath>
</defs>
</svg>
