<svg width="60" height="60" viewBox="0 0 60 60" fill="none" xmlns="http://www.w3.org/2000/svg">
<g id="settings 2" clip-path="url(#clip0_647_7070)">
<path id="Vector 10" d="M27.375 15.375L22.125 17.625L18.75 15.375L15.375 18.75L17.625 21.75L15.375 26.8241L12 27L11.625 32.25L15.375 33L17.625 38.25L15.375 40.875L19.125 44.625L21.75 42.375L26.625 44.625L27.375 48H32.625L33 44.625L37.875 42.375L41.25 44.625L44.625 41.25L42.375 38.25L44.625 33.375L48.375 32.625V27.75L44.625 27L42 22.125L44.625 19.125L40.875 15.375L38.25 17.625L33 15.375V12.375L32.25 11.625H28.125L27.375 12.375V15.375Z" fill="#F9BD39" stroke="black"/>
<path id="Vector" d="M30.0399 38.6531C25.2147 38.6531 21.2891 34.8058 21.2891 30.076C21.2891 25.3462 25.2147 21.4984 30.0399 21.4984C30.7241 21.4984 31.5578 21.6668 31.5026 22.5426C31.4499 23.3787 30.6921 23.4339 30.0399 23.4339C26.2816 23.4339 23.2245 26.4136 23.2245 30.076C23.2245 33.7384 26.2816 36.7176 30.0399 36.7176C33.7981 36.7176 36.8552 33.7379 36.8552 30.076C36.8552 29.0057 36.6026 27.9847 36.1042 27.0407C35.8545 26.5684 36.0355 25.9829 36.5078 25.7333C36.98 25.4836 37.5665 25.6636 37.8157 26.1373C38.4534 27.345 38.7907 28.7071 38.7907 30.076C38.7907 34.8058 34.8655 38.6531 30.0399 38.6531Z" fill="black"/>
<path id="Vector_2" d="M34.6543 24.9165C34.4584 24.9165 34.2605 24.857 34.0892 24.7336C33.8332 24.5492 33.5613 24.3804 33.2811 24.2318C32.8084 23.9817 32.6284 23.3967 32.8781 22.9239C33.1277 22.4522 33.7132 22.2707 34.186 22.5213C34.545 22.7115 34.8934 22.9273 35.2214 23.1639C35.9647 23.6996 35.5718 24.9165 34.6543 24.9165Z" fill="black"/>
<path id="Vector_3" d="M56.3586 14.8089L56.3242 10.6074C56.3199 10.0757 55.8873 9.64792 55.3565 9.64792C55.3536 9.64792 55.3511 9.64792 55.3482 9.64792C54.814 9.65227 54.3839 10.0892 54.3882 10.6234L54.3984 11.8984C48.5886 4.98002 39.2823 0.483887 30.3558 0.483887C21.1255 0.483887 12.5813 4.61808 6.9176 11.8253C6.5876 12.2453 6.66066 12.8536 7.08066 13.1836C7.50115 13.514 8.10937 13.441 8.43986 13.0205C13.7344 6.28308 21.7226 2.41937 30.3558 2.41937C39.0336 2.41937 48.096 6.95131 53.4911 13.8499H50.8352C50.301 13.8499 49.8674 14.2829 49.8674 14.8176C49.8674 15.3518 50.301 15.7853 50.8352 15.7853H55.3908C55.7029 15.7849 56.3586 15.437 56.3586 14.8089Z" fill="black"/>
<path id="Vector_4" d="M58.0343 19.2416C57.8407 18.7442 57.2794 18.4975 56.7815 18.6915C56.2836 18.885 56.0368 19.4463 56.2309 19.9447C57.4478 23.0671 58.0647 26.3628 58.0647 29.7402C58.0647 40.352 50.6726 50.5418 40.1397 54.9291L40.8607 53.8258C41.153 53.3787 41.0272 52.7787 40.5801 52.487C40.1325 52.1952 39.533 52.32 39.2402 52.7676L36.9322 56.2989C36.6109 56.7891 36.8175 57.4776 37.3517 57.7137L41.2401 59.4286C42.3815 59.9294 43.163 58.1618 42.021 57.6576L40.3667 56.9284C45.4449 54.9121 50.0484 51.5589 53.513 47.311C57.7575 42.1065 60.0002 36.031 60.0002 29.7402C60.0002 26.1213 59.3388 22.5896 58.0343 19.2416C59.3388 22.5896 57.8402 18.7437 58.0343 19.2416Z" fill="black"/>
<path id="Vector_5" d="M31.5038 57.0377C31.123 57.0527 30.7403 57.0605 30.3556 57.0605C15.0769 57.0605 2.64672 44.805 2.64672 29.7401C2.64672 27.075 3.76688 23.7416 4.8343 20.9279L5.68785 22.8164C6.20317 23.9555 7.96495 23.1546 7.45205 22.02L5.64769 18.028C5.42559 17.5374 4.81447 17.3201 4.33253 17.5611L0.534626 19.4632C0.0565611 19.7022 -0.136503 20.2838 0.102529 20.7614C0.342045 21.2395 0.924625 21.4335 1.40124 21.193L2.95979 20.4126C1.85559 23.34 0.711722 26.8103 0.711722 29.7397C0.711722 45.8709 14.0099 58.995 30.3561 58.995C30.7664 58.995 31.1748 58.9863 31.5808 58.9703C32.1149 58.9495 32.5306 58.499 32.5093 57.9653C32.488 57.4316 32.0366 57.0174 31.5038 57.0377C32.0366 57.0174 31.1235 57.0527 31.5038 57.0377Z" fill="black"/>
<path id="Vector_6" d="M31.5485 49.3499C30.5986 49.3499 27.783 49.3611 27.3446 49.1743C26.5898 48.853 25.9743 48.0338 25.9743 47.1938V45.2661C24.5159 44.8838 23.1074 44.2887 21.8319 43.5159L20.477 44.8678C19.6264 45.7078 18.1762 45.567 17.3599 44.7861C16.9612 44.4043 15.409 42.8191 15.0499 42.402C14.2845 41.5122 14.3014 40.1332 15.138 39.298L16.5016 37.9379C15.7041 36.5791 15.1225 35.1512 14.7916 33.7388H12.8832C11.6933 33.7388 10.7101 32.7614 10.6448 31.5822C10.6143 31.0311 10.6288 28.8077 10.6448 28.2541C10.6777 27.1137 11.6004 26.0182 12.8038 26.0182H14.7383C15.1211 24.5641 15.7167 23.1595 16.4909 21.8883L15.1385 20.5388C14.2922 19.6925 14.4388 18.2361 15.2203 17.4232C15.603 17.0254 17.192 15.4761 17.6096 15.1185C18.4999 14.3564 19.879 14.3733 20.7151 15.2066L22.0806 16.5691C23.4427 15.7727 24.8749 15.192 26.2917 14.8611V12.8806C26.2917 11.6903 27.273 10.7104 28.4507 10.6446C29.0028 10.6141 31.2316 10.6272 31.7866 10.6446C32.9928 10.6824 33.9456 11.668 33.9456 12.8806V14.8083C35.404 15.1906 36.8125 15.7853 38.088 16.5585L39.4428 15.2066C40.2916 14.3637 41.7456 14.5093 42.5599 15.2888C42.9586 15.6706 44.5109 17.2553 44.8695 17.6724C45.6349 18.5627 45.618 19.9412 44.7809 20.7764L43.4178 22.1366C44.2153 23.4948 44.7964 24.9222 45.1278 26.3351H47.0362C48.1985 26.3351 49.2277 27.195 49.3467 28.3717C49.4043 28.9412 49.3709 31.2508 49.3545 31.8203C49.3216 32.9612 48.3998 34.0558 47.1954 34.0558H45.2609C44.8782 35.5098 44.2825 36.914 43.5083 38.1861L44.8607 39.5351C45.7075 40.3819 45.5604 41.8383 44.779 42.6512C44.3962 43.049 42.8077 44.5978 42.3896 44.9554C41.4988 45.718 40.1207 45.702 39.2841 44.8678L37.9186 43.5053C36.5566 44.3012 35.1248 44.8824 33.7075 45.2133V47.1145C33.7075 48.2554 32.7272 49.3499 31.5485 49.3499ZM27.9093 47.1169C27.9301 47.2151 27.9993 47.4145 28.2122 47.4145H31.472C31.5712 47.3937 31.772 47.3249 31.772 47.114V44.4198C31.772 43.947 32.1141 43.543 32.5811 43.4656C34.2306 43.1912 35.9435 42.5003 37.5349 41.4682C37.9177 41.2199 38.4224 41.2732 38.7451 41.5949L40.6511 43.497C40.8045 43.6504 41.0101 43.5599 41.1069 43.5028L43.4256 41.2664C43.564 41.1285 43.4803 40.9325 43.4232 40.8348L41.5874 39.0029C41.2569 38.6733 41.209 38.1551 41.4727 37.7704C42.4516 36.3425 43.1885 34.6093 43.5475 32.8891C43.6414 32.4406 44.0367 32.1193 44.4949 32.1193H47.1195C47.2182 32.099 47.419 32.0308 47.419 31.8198V28.5653C47.3793 28.3693 47.2506 28.2701 47.0362 28.2701H44.3357C43.8625 28.2701 43.459 27.9285 43.3811 27.4616C43.1067 25.8169 42.4143 24.1088 41.3803 22.5212C41.1301 22.1375 41.1833 21.6314 41.5075 21.3077L43.4135 19.4056C43.564 19.2556 43.4754 19.0529 43.4193 18.9566L41.178 16.6432C41.0377 16.5038 40.8383 16.588 40.7391 16.6451L38.9028 18.4775C38.5738 18.8061 38.0575 18.854 37.6738 18.5912C36.243 17.6153 34.5049 16.8793 32.7799 16.5208C32.3309 16.4279 32.0091 16.0316 32.0091 15.5733V12.8791C32.0091 12.6929 31.879 12.5787 31.7856 12.5787H28.5257C28.4266 12.5995 28.2257 12.6682 28.2257 12.8791V15.6527C28.2257 16.1254 27.8836 16.5295 27.4167 16.6069C25.7677 16.8812 24.0548 17.5717 22.4628 18.6038C22.0801 18.853 21.5759 18.7993 21.2532 18.477L19.3472 16.5754C19.1943 16.4225 18.9882 16.5125 18.8914 16.5691L16.5727 18.8056C16.4343 18.9435 16.518 19.1395 16.5751 19.2372L18.4109 21.0696C18.7414 21.3996 18.7893 21.9174 18.5256 22.302C17.5472 23.729 16.8103 25.4627 16.4507 27.1829C16.3569 27.6314 15.9616 27.9527 15.5033 27.9527H12.8803C12.7811 27.974 12.5803 28.0422 12.5803 28.2537V31.5053C12.6011 31.6035 12.6703 31.8029 12.8832 31.8029H15.5837C16.0569 31.8029 16.4604 32.145 16.5383 32.6114C16.8127 34.2556 17.5046 35.9641 18.5391 37.5522C18.7893 37.9359 18.7361 38.442 18.4119 38.7658L16.5059 40.6674C16.3554 40.8179 16.444 41.0206 16.5001 41.1169L18.7414 43.4303C18.8817 43.5701 19.0811 43.4859 19.1803 43.4278L21.0166 41.5954C21.3451 41.2669 21.8619 41.219 22.2461 41.4817C23.6764 42.4582 25.414 43.1941 27.1395 43.5527C27.5885 43.6456 27.9103 44.0419 27.9103 44.5001V47.1169H27.9093Z" fill="black"/>
</g>
<defs>
<clipPath id="clip0_647_7070">
<rect width="60" height="60" fill="white"/>
</clipPath>
</defs>
</svg>
