<svg width="60" height="60" viewBox="0 0 60 60" fill="none" xmlns="http://www.w3.org/2000/svg">
<g id="transformation 1">
<path id="Vector 7" d="M3 40.875V11.25H30.75V31.875H57V40.875L55.875 42.375H4.5L3 40.875Z" fill="#F9BD39"/>
<path id="Vector 6" d="M8.625 31.875V35.25H27V14.625H23.625V19.875H19.5V23.625H16.125V28.125H12V31.875H8.625Z" fill="#F9BD39" stroke="#F9BD39"/>
<path id="Vector" d="M57.1875 30.9375H31.875V5.625C31.875 5.50188 31.8508 5.37997 31.8036 5.26623C31.7565 5.15249 31.6875 5.04914 31.6004 4.96208C31.5134 4.87502 31.41 4.80597 31.2963 4.75886C31.1825 4.71174 31.0606 4.6875 30.9375 4.6875H4.6875C3.94184 4.68835 3.22697 4.98494 2.6997 5.5122C2.17244 6.03947 1.87585 6.75434 1.875 7.5V40.3125C1.87585 41.0582 2.17244 41.773 2.6997 42.3003C3.22697 42.8276 3.94184 43.1241 4.6875 43.125H24.375V50.625H21.5625C21.4394 50.625 21.3175 50.6492 21.2037 50.6964C21.09 50.7435 20.9866 50.8125 20.8996 50.8996C20.8125 50.9866 20.7435 51.09 20.6964 51.2037C20.6492 51.3175 20.625 51.4394 20.625 51.5625V55.3125C20.625 55.4356 20.6492 55.5575 20.6964 55.6713C20.7435 55.785 20.8125 55.8884 20.8996 55.9754C20.9866 56.0625 21.09 56.1315 21.2037 56.1786C21.3175 56.2258 21.4394 56.25 21.5625 56.25H38.4375C38.5606 56.25 38.6825 56.2258 38.7963 56.1786C38.91 56.1315 39.0134 56.0625 39.1004 55.9754C39.1875 55.8884 39.2565 55.785 39.3036 55.6713C39.3508 55.5575 39.375 55.4356 39.375 55.3125V51.5625C39.375 51.4394 39.3508 51.3175 39.3036 51.2037C39.2565 51.09 39.1875 50.9866 39.1004 50.8996C39.0134 50.8125 38.91 50.7435 38.7963 50.6964C38.6825 50.6492 38.5606 50.625 38.4375 50.625H35.625V43.125H55.3125C56.0582 43.1241 56.773 42.8276 57.3003 42.3003C57.8276 41.773 58.1241 41.0582 58.125 40.3125V31.875C58.125 31.7519 58.1008 31.63 58.0536 31.5162C58.0065 31.4025 57.9375 31.2991 57.8504 31.2121C57.7634 31.125 57.66 31.056 57.5463 31.0089C57.4325 30.9617 57.3106 30.9375 57.1875 30.9375ZM4.6875 6.5625H30V10.3125H3.75V7.5C3.75028 7.25145 3.84915 7.01316 4.0249 6.8374C4.20066 6.66165 4.43895 6.56278 4.6875 6.5625ZM37.5 54.375H22.5V52.5H37.5V54.375ZM33.75 50.625H26.25V43.125H29.0625V45.9375C29.0625 46.1861 29.1613 46.4246 29.3371 46.6004C29.5129 46.7762 29.7514 46.875 30 46.875C30.2486 46.875 30.4871 46.7762 30.6629 46.6004C30.8387 46.4246 30.9375 46.1861 30.9375 45.9375V43.125H33.75V50.625ZM56.25 40.3125C56.2497 40.5611 56.1509 40.7993 55.9751 40.9751C55.7993 41.1509 55.5611 41.2497 55.3125 41.25H4.6875C4.43895 41.2497 4.20066 41.1509 4.0249 40.9751C3.84915 40.7993 3.75028 40.5611 3.75 40.3125V12.1875H30V31.875C30 31.9981 30.0242 32.12 30.0714 32.2338C30.1185 32.3475 30.1875 32.4509 30.2746 32.5379C30.3616 32.625 30.465 32.694 30.5787 32.7411C30.6925 32.7883 30.8144 32.8125 30.9375 32.8125H56.25V40.3125Z" fill="black"/>
<path id="Vector_2" d="M5.625 9.375C6.14277 9.375 6.5625 8.95527 6.5625 8.4375C6.5625 7.91973 6.14277 7.5 5.625 7.5C5.10723 7.5 4.6875 7.91973 4.6875 8.4375C4.6875 8.95527 5.10723 9.375 5.625 9.375Z" fill="black"/>
<path id="Vector_3" d="M8.4375 9.375C8.95527 9.375 9.375 8.95527 9.375 8.4375C9.375 7.91973 8.95527 7.5 8.4375 7.5C7.91973 7.5 7.5 7.91973 7.5 8.4375C7.5 8.95527 7.91973 9.375 8.4375 9.375Z" fill="black"/>
<path id="Vector_4" d="M11.25 9.375C11.7678 9.375 12.1875 8.95527 12.1875 8.4375C12.1875 7.91973 11.7678 7.5 11.25 7.5C10.7322 7.5 10.3125 7.91973 10.3125 8.4375C10.3125 8.95527 10.7322 9.375 11.25 9.375Z" fill="black"/>
<path id="Vector_5" d="M28.125 15C28.125 14.8769 28.1008 14.755 28.0536 14.6412C28.0065 14.5275 27.9375 14.4241 27.8504 14.3371C27.7634 14.25 27.66 14.181 27.5463 14.1339C27.4325 14.0867 27.3106 14.0625 27.1875 14.0625H23.4375C23.3144 14.0625 23.1925 14.0867 23.0787 14.1339C22.965 14.181 22.8616 14.25 22.7746 14.3371C22.6875 14.4241 22.6185 14.5275 22.5714 14.6412C22.5242 14.755 22.5 14.8769 22.5 15V18.75H19.6875C19.5644 18.75 19.4425 18.7742 19.3287 18.8214C19.215 18.8685 19.1116 18.9375 19.0246 19.0246C18.9375 19.1116 18.8685 19.215 18.8214 19.3287C18.7742 19.4425 18.75 19.5644 18.75 19.6875V22.5H15.9375C15.8144 22.5 15.6925 22.5242 15.5787 22.5714C15.465 22.6185 15.3616 22.6875 15.2746 22.7746C15.1875 22.8616 15.1185 22.965 15.0714 23.0787C15.0242 23.1925 15 23.3144 15 23.4375V27.1875H12.1875C12.0644 27.1875 11.9425 27.2117 11.8287 27.2589C11.715 27.306 11.6116 27.375 11.5246 27.4621C11.4375 27.5491 11.3685 27.6525 11.3214 27.7662C11.2742 27.88 11.25 28.0019 11.25 28.125V30.9375H8.4375C8.31438 30.9375 8.19247 30.9617 8.07873 31.0089C7.96499 31.056 7.86164 31.125 7.77458 31.2121C7.68752 31.2991 7.61847 31.4025 7.57136 31.5162C7.52424 31.63 7.5 31.7519 7.5 31.875V34.6875H5.625V36.5625H31.875V34.6875H28.125V15ZM9.375 32.8125H11.25V34.6875H9.375V32.8125ZM13.125 29.0625H15V34.6875H13.125V29.0625ZM16.875 24.375H18.75V34.6875H16.875V24.375ZM20.625 20.625H22.5V34.6875H20.625V20.625ZM24.375 34.6875V15.9375H26.25V34.6875H24.375Z" fill="black"/>
<path id="Vector_6" d="M35.625 34.6875H33.75V36.5625H35.625V34.6875Z" fill="black"/>
<path id="Vector_7" d="M40.3125 25.3125C40.8281 25.3126 41.3339 25.1709 41.7744 24.9029C42.215 24.635 42.5734 24.2511 42.8105 23.7932C43.0476 23.3353 43.1542 22.821 43.1188 22.3066C43.0833 21.7922 42.9071 21.2974 42.6094 20.8764C42.3118 20.4553 41.9041 20.1242 41.4309 19.9193C40.9578 19.7143 40.4374 19.6433 39.9266 19.7142C39.4159 19.785 38.9344 19.9949 38.5349 20.3208C38.1354 20.6468 37.8331 21.0764 37.6613 21.5625H33.75V23.4375H37.6613C37.8557 23.9854 38.2148 24.4598 38.6895 24.7955C39.1642 25.1312 39.7311 25.3118 40.3125 25.3125ZM40.3125 21.5625C40.4979 21.5625 40.6792 21.6175 40.8333 21.7205C40.9875 21.8235 41.1077 21.9699 41.1786 22.1412C41.2496 22.3125 41.2682 22.501 41.232 22.6829C41.1958 22.8648 41.1065 23.0318 40.9754 23.1629C40.8443 23.294 40.6773 23.3833 40.4954 23.4195C40.3135 23.4557 40.125 23.4371 39.9537 23.3661C39.7824 23.2952 39.636 23.175 39.533 23.0208C39.43 22.8667 39.375 22.6854 39.375 22.5C39.3753 22.2514 39.4741 22.0132 39.6499 21.8374C39.8257 21.6616 40.0639 21.5628 40.3125 21.5625Z" fill="black"/>
<path id="Vector_8" d="M55.3125 4.6875C54.7311 4.68823 54.1642 4.86883 53.6895 5.20453C53.2148 5.54023 52.8557 6.01458 52.6613 6.5625H50.625C50.4898 6.5625 50.3561 6.59176 50.2333 6.64827C50.1104 6.70477 50.0012 6.78719 49.9132 6.88986L44.947 12.6837L41.9129 9.6496C41.8259 9.56254 41.7225 9.49348 41.6088 9.44636C41.495 9.39924 41.3731 9.375 41.25 9.375H33.75V11.25H40.8617L44.3371 14.7254C44.4241 14.8125 44.5275 14.8815 44.6412 14.9286C44.755 14.9758 44.8769 15 45 15H49.8488C50.0699 15.6255 50.5051 16.1527 51.0773 16.4884C51.6496 16.8241 52.3221 16.9467 52.976 16.8345C53.6299 16.7223 54.2231 16.3826 54.6507 15.8753C55.0784 15.3681 55.3129 14.726 55.3129 14.0625C55.3129 13.399 55.0784 12.7569 54.6507 12.2497C54.2231 11.7424 53.6299 11.4027 52.976 11.2905C52.3221 11.1783 51.6496 11.3009 51.0773 11.6366C50.5051 11.9723 50.0699 12.4995 49.8488 13.125H47.0384L51.0562 8.4375H52.6613C52.8332 8.92359 53.1354 9.35306 53.5349 9.67898C53.9344 10.0049 54.4158 10.2147 54.9265 10.2855C55.4372 10.3563 55.9576 10.2854 56.4307 10.0804C56.9038 9.87543 57.3114 9.54436 57.609 9.12336C57.9067 8.70236 58.0829 8.20764 58.1183 7.69328C58.1538 7.17891 58.0472 6.6647 57.8101 6.20683C57.5731 5.74897 57.2147 5.36508 56.7743 5.09713C56.3338 4.82917 55.8281 4.68747 55.3125 4.6875ZM52.5 13.125C52.6854 13.125 52.8667 13.18 53.0208 13.283C53.175 13.386 53.2952 13.5324 53.3661 13.7037C53.4371 13.875 53.4557 14.0635 53.4195 14.2454C53.3833 14.4273 53.294 14.5943 53.1629 14.7254C53.0318 14.8565 52.8648 14.9458 52.6829 14.982C52.501 15.0182 52.3125 14.9996 52.1412 14.9286C51.9699 14.8577 51.8235 14.7375 51.7205 14.5833C51.6175 14.4292 51.5625 14.2479 51.5625 14.0625C51.5628 13.8139 51.6616 13.5757 51.8374 13.3999C52.0132 13.2241 52.2514 13.1253 52.5 13.125ZM55.3125 8.4375C55.1271 8.4375 54.9458 8.38252 54.7917 8.2795C54.6375 8.17649 54.5173 8.03007 54.4464 7.85877C54.3754 7.68746 54.3568 7.49896 54.393 7.3171C54.4292 7.13525 54.5185 6.9682 54.6496 6.83709C54.7807 6.70598 54.9477 6.61669 55.1296 6.58051C55.3115 6.54434 55.5 6.56291 55.6713 6.63386C55.8426 6.70482 55.989 6.82498 56.092 6.97915C56.195 7.13332 56.25 7.31458 56.25 7.5C56.2497 7.74855 56.1509 7.98684 55.9751 8.1626C55.7993 8.33835 55.5611 8.43722 55.3125 8.4375Z" fill="black"/>
<path id="Vector_9" d="M44.0625 9.375C44.5781 9.37508 45.0839 9.23339 45.5244 8.96544C45.965 8.69749 46.3234 8.31358 46.5605 7.85568C46.7976 7.39779 46.9042 6.88352 46.8688 6.3691C46.8333 5.85468 46.6571 5.35991 46.3594 4.93887C46.0618 4.51783 45.6541 4.18673 45.1809 3.98176C44.7078 3.77679 44.1874 3.70583 43.6766 3.77666C43.1659 3.84748 42.6844 4.05735 42.2849 4.38333C41.8854 4.70931 41.5831 5.13885 41.4113 5.625H33.75V7.5H41.4113C41.6057 8.04792 41.9648 8.52227 42.4395 8.85797C42.9142 9.19367 43.4811 9.37427 44.0625 9.375ZM44.0625 5.625C44.2479 5.625 44.4292 5.67998 44.5833 5.783C44.7375 5.88601 44.8577 6.03243 44.9286 6.20374C44.9996 6.37504 45.0182 6.56354 44.982 6.7454C44.9458 6.92726 44.8565 7.0943 44.7254 7.22541C44.5943 7.35653 44.4273 7.44581 44.2454 7.48199C44.0635 7.51816 43.875 7.4996 43.7037 7.42864C43.5324 7.35768 43.386 7.23752 43.283 7.08335C43.18 6.92918 43.125 6.74792 43.125 6.5625C43.1253 6.31395 43.2241 6.07566 43.3999 5.8999C43.5757 5.72415 43.8139 5.62529 44.0625 5.625Z" fill="black"/>
<path id="Vector_10" d="M42.4624 17.5382C42.1762 18.1371 42.111 18.8178 42.2783 19.4601C42.4456 20.1025 42.8346 20.6649 43.3765 21.0482C43.9184 21.4314 44.5784 21.6108 45.2397 21.5545C45.9011 21.4982 46.5212 21.2099 46.9905 20.7405C47.4599 20.2712 47.7482 19.6511 47.8045 18.9897C47.8608 18.3284 47.6814 17.6684 47.2982 17.1265C46.915 16.5846 46.3525 16.1956 45.7101 16.0283C45.0678 15.861 44.3871 15.9262 43.7882 16.2124L41.9129 14.3371C41.8259 14.25 41.7225 14.181 41.6088 14.1339C41.495 14.0867 41.3731 14.0625 41.25 14.0625H33.75V15.9375H40.8617L42.4624 17.5382ZM45.9375 18.75C45.9375 18.9354 45.8825 19.1167 45.7795 19.2708C45.6765 19.425 45.5301 19.5452 45.3588 19.6161C45.1875 19.6871 44.999 19.7057 44.8171 19.6695C44.6352 19.6333 44.4682 19.544 44.3371 19.4129C44.206 19.2818 44.1167 19.1148 44.0805 18.9329C44.0443 18.751 44.0629 18.5625 44.1339 18.3912C44.2048 18.2199 44.325 18.0735 44.4792 17.9705C44.6333 17.8675 44.8146 17.8125 45 17.8125C45.2486 17.8128 45.4868 17.9116 45.6626 18.0874C45.8384 18.2632 45.9372 18.5014 45.9375 18.75Z" fill="black"/>
<path id="Vector_11" d="M48.5446 27.7731L51.4321 24.1637C52.0461 24.4161 52.7296 24.4433 53.3617 24.2406C53.9939 24.0378 54.5341 23.6181 54.8867 23.0557C55.2394 22.4932 55.3819 21.8242 55.2891 21.1668C55.1962 20.5094 54.874 19.9061 54.3793 19.4633C53.8847 19.0205 53.2494 18.7668 52.5858 18.7471C51.9222 18.7274 51.273 18.9428 50.7529 19.3554C50.2328 19.768 49.8753 20.3512 49.7435 21.0018C49.6117 21.6525 49.7142 22.3288 50.0328 22.9113L47.3619 26.2499H33.75V28.1249H47.8125C47.9531 28.1249 48.0919 28.0933 48.2186 28.0324C48.3454 27.9715 48.4568 27.8829 48.5446 27.7731ZM52.5 20.6249C52.6854 20.6249 52.8667 20.6799 53.0208 20.7829C53.175 20.8859 53.2952 21.0323 53.3661 21.2036C53.4371 21.375 53.4557 21.5635 53.4195 21.7453C53.3833 21.9272 53.294 22.0942 53.1629 22.2253C53.0318 22.3564 52.8648 22.4457 52.6829 22.4819C52.501 22.5181 52.3125 22.4995 52.1412 22.4286C51.9699 22.3576 51.8235 22.2374 51.7205 22.0833C51.6175 21.9291 51.5625 21.7478 51.5625 21.5624C51.5628 21.3139 51.6616 21.0756 51.8374 20.8998C52.0132 20.7241 52.2514 20.6252 52.5 20.6249Z" fill="black"/>
</g>
</svg>
