<svg width="61" height="60" viewBox="0 0 61 60" fill="none" xmlns="http://www.w3.org/2000/svg">
<g id="mobile-development 1">
<path id="Vector 13" d="M10.5 14.5001L14 13.0001V10.0001C15.2 8.80011 16.1667 9.46759 16.5 10.1343V34.5001H14L13.5 32.0001L10.5 31.0001L8 32.0001L6 30.0001L7.5 28.0001L6.5 25.0001L3.5 24.0001V21.0001L6 20.5001L7.5 17.5001L6 15.0001L8.5 13.0001L10.5 14.5001Z" fill="#F9BD39"/>
<path id="Vector 14" d="M51 30.1632L47.5 28.6632V25.6632C46.3 24.4632 45.3333 25.1307 45 25.7973V50.1632H47.5L48 47.6632L51 46.6632L53.5 47.6632L55.5 45.6632L54 43.6632L55 40.6632L58 39.6632V36.6632L55.5 36.1632L54 33.1632L55.5 30.6632L53 28.6632L51 30.1632Z" fill="#F9BD39"/>
<rect id="Rectangle 4469" x="17.167" y="3.75" width="27.75" height="52.5" rx="2" fill="white"/>
<g id="Code_x2C__coding_x2C__mobile_x2C__development">
<g id="XMLID_1809_">
<g id="XMLID_1832_">
<g id="Group">
<g id="Group_2">
<path id="Vector" d="M33.4795 7.5H27.8545C27.337 7.5 26.917 7.08 26.917 6.5625C26.917 6.045 27.337 5.625 27.8545 5.625H33.4795C33.997 5.625 34.417 6.045 34.417 6.5625C34.417 7.08 33.997 7.5 33.4795 7.5Z" fill="black"/>
</g>
</g>
</g>
<g id="XMLID_1831_">
<g id="Group_3">
<g id="Group_4">
<path id="Vector_2" d="M40.9795 58.125H20.3545C17.7689 58.125 15.667 56.0213 15.667 53.4375V21.5625C15.667 21.045 16.087 20.625 16.6045 20.625C17.122 20.625 17.542 21.045 17.542 21.5625V53.4375C17.542 54.9881 18.8039 56.25 20.3545 56.25H40.9795C42.5301 56.25 43.792 54.9881 43.792 53.4375V21.5625C43.792 21.045 44.212 20.625 44.7295 20.625C45.247 20.625 45.667 21.045 45.667 21.5625V53.4375C45.667 56.0213 43.5651 58.125 40.9795 58.125Z" fill="black"/>
</g>
</g>
</g>
<g id="XMLID_1830_">
<g id="Group_5">
<g id="Group_6">
<path id="Vector_3" d="M44.7295 28.125C44.212 28.125 43.792 27.705 43.792 27.1875V6.5625C43.792 5.01187 42.5301 3.75 40.9795 3.75H20.3545C18.8039 3.75 17.542 5.01187 17.542 6.5625V27.1875C17.542 27.705 17.122 28.125 16.6045 28.125C16.087 28.125 15.667 27.705 15.667 27.1875V6.5625C15.667 3.97875 17.7689 1.875 20.3545 1.875H40.9795C43.5651 1.875 45.667 3.97875 45.667 6.5625V27.1875C45.667 27.705 45.247 28.125 44.7295 28.125Z" fill="black"/>
</g>
</g>
</g>
<g id="XMLID_1816_">
<g id="XMLID_1824_">
<g id="Group_7">
<g id="Group_8">
<path id="Vector_4" d="M50.3545 11.3438C49.837 11.3438 49.417 11.0175 49.417 10.5V10.3125C49.417 9.795 49.837 9.375 50.3545 9.375C50.872 9.375 51.292 9.795 51.292 10.3125C51.292 10.83 50.872 11.3438 50.3545 11.3438Z" fill="black"/>
</g>
</g>
</g>
<g id="XMLID_1818_">
<g id="Group_9">
<g id="Group_10">
<path id="Vector_5" d="M50.3545 15.0938C49.837 15.0938 49.417 14.7675 49.417 14.25V14.0625C49.417 13.545 49.837 13.125 50.3545 13.125C50.872 13.125 51.292 13.545 51.292 14.0625C51.292 14.58 50.872 15.0938 50.3545 15.0938Z" fill="black"/>
</g>
</g>
</g>
<g id="XMLID_1817_">
<g id="Group_11">
<g id="Group_12">
<path id="Vector_6" d="M50.3545 18.8438C49.837 18.8438 49.417 18.5175 49.417 18V17.8125C49.417 17.295 49.837 16.875 50.3545 16.875C50.872 16.875 51.292 17.295 51.292 17.8125C51.292 18.33 50.872 18.8438 50.3545 18.8438Z" fill="black"/>
</g>
</g>
</g>
</g>
<g id="XMLID_1820_">
<g id="XMLID_1823_">
<g id="Group_13">
<g id="Group_14">
<path id="Vector_7" d="M10.9795 43.0313C10.462 43.0313 10.042 42.705 10.042 42.1875V42C10.042 41.4825 10.462 41.0625 10.9795 41.0625C11.497 41.0625 11.917 41.4825 11.917 42C11.917 42.5175 11.497 43.0313 10.9795 43.0313Z" fill="black"/>
</g>
</g>
</g>
<g id="XMLID_1822_">
<g id="Group_15">
<g id="Group_16">
<path id="Vector_8" d="M10.9795 46.7813C10.462 46.7813 10.042 46.455 10.042 45.9375V45.75C10.042 45.2325 10.462 44.8125 10.9795 44.8125C11.497 44.8125 11.917 45.2325 11.917 45.75C11.917 46.2675 11.497 46.7813 10.9795 46.7813Z" fill="black"/>
</g>
</g>
</g>
<g id="XMLID_1821_">
<g id="Group_17">
<g id="Group_18">
<path id="Vector_9" d="M10.9795 50.5313C10.462 50.5313 10.042 50.205 10.042 49.6875V49.5C10.042 48.9825 10.462 48.5625 10.9795 48.5625C11.497 48.5625 11.917 48.9825 11.917 49.5C11.917 50.0175 11.497 50.5313 10.9795 50.5313Z" fill="black"/>
</g>
</g>
</g>
</g>
<g id="XMLID_1815_">
<g id="Group_19">
<g id="Group_20">
<path id="Vector_10" d="M47.2439 50.625C47.1782 50.625 47.1107 50.6194 47.0451 50.6044C46.5389 50.4956 46.2182 49.9969 46.327 49.4906L46.9457 46.6219C47.0207 46.2694 47.2926 45.9938 47.6414 45.9094C48.5264 45.6956 49.3889 45.3356 50.2045 44.8387C50.5064 44.6512 50.8945 44.6569 51.1964 44.8481L53.0526 46.035L54.202 44.8762L53.0151 43.035C52.8201 42.7331 52.8164 42.345 53.002 42.0394C53.4989 41.2237 53.8589 40.3613 54.0707 39.4763C54.1551 39.1275 54.4289 38.8575 54.7795 38.7787L56.917 38.3044V36.6975L54.7814 36.2231C54.4307 36.1444 54.157 35.8744 54.0726 35.5256C53.8607 34.6406 53.4989 33.7781 53.0039 32.9625C52.8164 32.6569 52.8201 32.2706 53.0151 31.9687L54.2039 30.1106L53.0564 28.9631L51.1982 30.1519C50.8964 30.345 50.5101 30.3488 50.2064 30.1613C49.3889 29.6644 48.5264 29.3044 47.6432 29.0906C47.2926 29.0063 47.0226 28.7288 46.9476 28.3781L46.4864 26.25H45.667C45.1495 26.25 44.7295 25.83 44.7295 25.3125C44.7295 24.795 45.1495 24.375 45.667 24.375H47.242C47.6826 24.375 48.0651 24.6844 48.157 25.1156L48.6576 27.4275C49.3439 27.6356 50.017 27.9169 50.6657 28.2675L52.6795 26.9794C53.0507 26.7431 53.5345 26.7956 53.8476 27.1069L56.062 29.3194C56.3732 29.6306 56.4257 30.1163 56.1876 30.4875L54.8995 32.5012C55.2501 33.1519 55.5314 33.825 55.7395 34.5131L58.0551 35.0269C58.4864 35.1225 58.792 35.505 58.792 35.9438V39.0562C58.792 39.495 58.4864 39.8775 58.057 39.9713L55.7414 40.485C55.5332 41.1731 55.252 41.8462 54.9014 42.495L56.1876 44.49C56.4276 44.8594 56.377 45.3469 56.0657 45.6581L53.8514 47.8894C53.5382 48.2025 53.0526 48.255 52.6814 48.0188L50.6676 46.7306C50.017 47.0813 49.3457 47.3625 48.6595 47.5706L48.1589 49.8825C48.0632 50.325 47.6732 50.625 47.2439 50.625Z" fill="black"/>
</g>
</g>
</g>
<g id="XMLID_1810_">
<g id="Group_21">
<g id="Group_22">
<path id="Vector_11" d="M48.2743 42.3337C47.9743 42.3337 47.6781 42.1875 47.4962 41.9194C47.2075 41.49 47.3218 40.9069 47.7531 40.6181C48.7937 39.9169 49.4162 38.7506 49.4162 37.5C49.4162 35.4319 47.7343 33.75 45.6662 33.75C45.4112 33.75 45.1581 33.7763 44.9162 33.825C44.4137 33.9263 43.9131 33.6037 43.8081 33.0937C43.705 32.5856 44.0312 32.0906 44.5393 31.9875C44.9068 31.9144 45.2856 31.875 45.6662 31.875C48.7675 31.875 51.2912 34.3987 51.2912 37.5C51.2912 39.3769 50.3593 41.1244 48.7956 42.1744C48.6362 42.2812 48.4543 42.3337 48.2743 42.3337Z" fill="black"/>
</g>
</g>
</g>
<g id="XMLID_1293_">
<g id="Group_23">
<g id="Group_24">
<path id="Vector_12" d="M15.667 28.1249C12.5657 28.1249 10.042 25.6012 10.042 22.4999C10.042 20.6155 10.9795 18.8662 12.5507 17.8162C12.9764 17.5312 13.5614 17.6437 13.8501 18.0768C14.137 18.5062 14.0207 19.0893 13.5895 19.3762C12.5432 20.0774 11.917 21.2437 11.917 22.4999C11.917 24.568 13.5989 26.2499 15.667 26.2499C15.9182 26.2499 16.1657 26.2256 16.402 26.1768C16.8989 26.0737 17.4032 26.4018 17.5064 26.9118C17.6095 27.4199 17.2795 27.913 16.7714 28.0143C16.4132 28.0874 16.0457 28.1249 15.667 28.1249Z" fill="black"/>
</g>
</g>
</g>
<g id="XMLID_1811_">
<g id="Group_25">
<g id="Group_26">
<path id="Vector_13" d="M15.667 35.6249H14.092C13.6514 35.6249 13.2689 35.3155 13.177 34.8843L12.6764 32.5724C11.9901 32.3643 11.317 32.083 10.6682 31.7324L8.65449 33.0205C8.28137 33.2568 7.79949 33.2061 7.48637 32.893L5.27199 30.6805C4.96074 30.3693 4.90824 29.8836 5.14637 29.5124L6.43449 27.4986C6.08387 26.848 5.80262 26.1749 5.59449 25.4868L3.27887 24.973C2.84762 24.8774 2.54199 24.4949 2.54199 24.0561V20.9436C2.54199 20.5049 2.84762 20.1224 3.27699 20.0286L5.59262 19.5149C5.80074 18.8268 6.08199 18.1536 6.43262 17.5049L5.14824 15.508C4.90824 15.1386 4.95887 14.6511 5.27012 14.3399L7.48449 12.1086C7.79387 11.7936 8.28137 11.7411 8.65449 11.9793L10.6682 13.2674C11.3189 12.9168 11.9901 12.6355 12.6764 12.4274L13.177 10.1155C13.2857 9.60739 13.7939 9.28489 14.2907 9.39739C14.797 9.50614 15.1176 10.0049 15.0089 10.5111L14.3901 13.3799C14.3151 13.7324 14.0432 14.008 13.6945 14.0924C12.8095 14.3061 11.947 14.6661 11.1295 15.163C10.8257 15.3505 10.4395 15.3449 10.1376 15.1536L8.28137 13.9668L7.13012 15.1255L8.31699 16.9668C8.51387 17.2686 8.51762 17.6568 8.33012 17.9624C7.83324 18.778 7.47324 19.6405 7.26137 20.5255C7.17699 20.8743 6.90324 21.1443 6.55262 21.223L4.41699 21.6955V23.3024L6.55262 23.7768C6.90324 23.8555 7.17699 24.1255 7.26137 24.4743C7.47324 25.3593 7.83512 26.2218 8.33012 27.0374C8.51762 27.343 8.51387 27.7293 8.31887 28.0311L7.13012 29.8874L8.27762 31.0349L10.1357 29.8461C10.4376 29.6549 10.8257 29.6511 11.1276 29.8368C11.9451 30.3336 12.8076 30.6936 13.6907 30.9074C14.0414 30.9918 14.3114 31.2693 14.3864 31.6199L14.8476 33.7499H15.667C16.1845 33.7499 16.6045 34.1699 16.6045 34.6874C16.6045 35.2049 16.1845 35.6249 15.667 35.6249Z" fill="black"/>
</g>
</g>
</g>
<g id="XMLID_1813_">
<g id="XMLID_1890_">
<g id="Group_27">
<g id="Group_28">
<path id="Vector_14" d="M29.7297 34.6875C29.6547 34.6875 29.5797 34.6781 29.5028 34.6593C28.9984 34.5337 28.6947 34.0256 28.8203 33.5231L30.6953 26.0231C30.8191 25.5187 31.3197 25.215 31.8316 25.3406C32.3359 25.4662 32.6397 25.9743 32.5141 26.4768L30.6391 33.9768C30.5341 34.4043 30.1516 34.6875 29.7297 34.6875Z" fill="black"/>
</g>
</g>
</g>
<g id="XMLID_1888_">
<g id="Group_29">
<g id="Group_30">
<path id="Vector_15" d="M35.355 34.6876C35.115 34.6876 34.875 34.5957 34.6912 34.4138C34.3256 34.0482 34.3256 33.4538 34.6912 33.0882L37.7793 30.0001L34.6931 26.9138C34.3275 26.5482 34.3275 25.9538 34.6931 25.5882C35.0587 25.2226 35.6531 25.2226 36.0187 25.5882L39.7687 29.3382C40.1343 29.7038 40.1343 30.2982 39.7687 30.6638L36.0187 34.4138C35.835 34.5957 35.595 34.6876 35.355 34.6876Z" fill="black"/>
</g>
</g>
</g>
<g id="XMLID_1887_">
<g id="Group_31">
<g id="Group_32">
<path id="Vector_16" d="M25.98 34.6876C25.74 34.6876 25.5 34.5957 25.3162 34.4138L21.5662 30.6638C21.2006 30.2982 21.2006 29.7038 21.5662 29.3382L25.3162 25.5882C25.6818 25.2226 26.2762 25.2226 26.6418 25.5882C27.0075 25.9538 27.0075 26.5482 26.6418 26.9138L23.5556 30.0001L26.6418 33.0863C27.0075 33.4519 27.0075 34.0463 26.6418 34.4119C26.46 34.5957 26.22 34.6876 25.98 34.6876Z" fill="black"/>
</g>
</g>
</g>
</g>
</g>
</g>
</g>
</svg>
