<svg width="61" height="60" viewBox="0 0 61 60" fill="none" xmlns="http://www.w3.org/2000/svg">
<g id="odoo" clip-path="url(#clip0_647_6836)">
<circle id="Ellipse 192" cx="50.208" cy="4.125" r="2.625" fill="#F9BD39"/>
<circle id="Ellipse 193" cx="55.458" cy="13.125" r="2.625" fill="#F9BD39"/>
<circle id="Ellipse 194" cx="56.208" cy="30.375" r="2.625" fill="#F9BD39"/>
<circle id="Ellipse 195" cx="56.208" cy="46.125" r="2.625" fill="#F9BD39"/>
<circle id="Ellipse 196" cx="50.208" cy="55.875" r="2.625" fill="#F9BD39"/>
<path id="Vector 8" d="M30.333 1.125V17.25C22.458 17.25 20.583 22.5 18.708 27C15.408 37.5 25.083 41.875 30.333 42.75V58.875H25.083L24.708 54.375L16.833 51L13.458 53.625L6.33301 46.5L9.33301 43.5L6.33301 34.875H1.45801V24.75H6.33301L9.33301 17.25L6.33301 13.5L13.833 6.375L17.208 9L25.083 5.625V1.125H30.333Z" fill="#F9BD39"/>
<g id="Group">
<g id="Group_2">
<path id="Vector" d="M25.0929 13.5269C24.8553 12.9248 24.1749 12.6292 23.5727 12.8671C20.1737 14.2085 17.2727 16.5109 15.1837 19.5254C13.0446 22.6119 11.9141 26.2353 11.9141 30.0038C11.9141 30.6511 12.4388 31.1756 13.0858 31.1756C13.7328 31.1756 14.2576 30.651 14.2576 30.0038C14.2576 23.3576 18.2517 17.4867 24.433 15.0472C25.0351 14.8096 25.3304 14.129 25.0929 13.5269Z" fill="black"/>
</g>
</g>
<g id="Group_3">
<g id="Group_4">
<path id="Vector_2" d="M38.0517 28.8432C37.4046 28.8432 36.8799 29.3678 36.8799 30.0149C36.8799 33.6332 33.9362 36.5771 30.3178 36.5771C26.6994 36.5771 23.7556 33.6333 23.7556 30.0149C23.7556 26.3966 26.6994 23.4528 30.3178 23.4528C30.9649 23.4528 31.4895 22.9281 31.4895 22.281C31.4895 21.6338 30.9648 21.1093 30.3178 21.1093C25.4071 21.1093 21.4121 25.1043 21.4121 30.0149C21.4121 34.9255 25.4073 38.9206 30.3178 38.9206C35.2283 38.9206 39.2234 34.9255 39.2234 30.0149C39.2234 29.3678 38.6988 28.8432 38.0517 28.8432Z" fill="black"/>
</g>
</g>
<g id="Group_5">
<g id="Group_6">
<path id="Vector_3" d="M42.3973 28.7988C41.7502 28.7988 41.2256 29.3235 41.2256 29.9706V30.0148C41.2256 30.662 41.7504 31.1865 42.3973 31.1865C43.0443 31.1865 43.5691 30.6619 43.5691 30.0148V29.9706C43.5691 29.3235 43.0443 28.7988 42.3973 28.7988Z" fill="black"/>
</g>
</g>
<g id="Group_7">
<g id="Group_8">
<path id="Vector_4" d="M37.6536 39.4857C37.4357 39.2666 37.1334 39.1423 36.8252 39.1423C36.517 39.1425 36.2148 39.2667 35.9967 39.4857C35.7787 39.7037 35.6533 40.0048 35.6533 40.3142C35.6533 40.6224 35.7786 40.9248 35.9967 41.1427C36.2148 41.3607 36.5158 41.4849 36.8252 41.4849C37.1334 41.4849 37.4357 41.3607 37.6536 41.1427C37.8716 40.9248 37.9971 40.6224 37.9971 40.3142C37.9971 40.0047 37.8717 39.7037 37.6536 39.4857Z" fill="black"/>
</g>
</g>
<g id="Group_9">
<g id="Group_10">
<path id="Vector_5" d="M56.3465 42.4885C55.6734 42.4885 55.0392 42.6569 54.4825 42.9529L51.0147 39.4851C50.7949 39.2654 50.4969 39.1418 50.1861 39.1418H41.6415C40.9944 39.1418 40.4697 39.6665 40.4697 40.3136C40.4697 40.9608 40.9945 41.4854 41.6415 41.4854H49.7006L52.8256 44.6104C52.5303 45.1666 52.3623 45.8001 52.3623 46.4724C52.3623 48.6693 54.1495 50.4565 56.3464 50.4565C58.5433 50.4565 60.3305 48.6693 60.3305 46.4724C60.3307 44.2756 58.5433 42.4885 56.3465 42.4885ZM56.3465 48.1131C55.4418 48.1131 54.706 47.3772 54.706 46.4726C54.706 45.5679 55.442 44.8321 56.3465 44.8321C57.2511 44.8321 57.987 45.5681 57.987 46.4726C57.987 47.3772 57.251 48.1131 56.3465 48.1131Z" fill="black"/>
</g>
</g>
<g id="Group_11">
<g id="Group_12">
<path id="Vector_6" d="M56.3482 9.54691C54.1513 9.54691 52.364 11.3341 52.364 13.5311C52.364 14.2035 52.5321 14.837 52.8275 15.3932L49.7025 18.5182H36.8802C35.2511 17.5868 33.4217 16.995 31.5038 16.821V14.7028H43.8602C44.287 14.7028 44.68 14.4708 44.8862 14.0972L48.4472 7.64379C48.9302 7.85215 49.4619 7.96816 50.0206 7.96816C52.2175 7.96816 54.0048 6.18094 54.0048 3.98402C54.0048 1.78723 52.2175 0 50.0206 0C47.8237 0 46.0365 1.78723 46.0365 3.98414C46.0365 4.75242 46.2556 5.46996 46.6338 6.0791L43.1684 12.3592H31.5038V1.17668C31.5038 0.529453 30.9791 0.00492187 30.3321 0.00492187H25.0776C24.4305 0.00492187 23.9059 0.52957 23.9059 1.17668V4.80281C21.4848 5.41617 19.1796 6.37137 17.0314 7.65176L14.4772 5.09766C14.2573 4.87793 13.9592 4.75441 13.6483 4.75441C13.3375 4.75441 13.0394 4.87805 12.8197 5.09801L5.41309 12.5101C4.9557 12.9679 4.95582 13.7094 5.41332 14.1669L7.96461 16.7183C6.68434 18.8667 5.72914 21.1718 5.1159 23.5928H1.5077C0.860586 23.5928 0.335938 24.1174 0.335938 24.7645V35.2431C0.335938 35.8903 0.860703 36.4148 1.5077 36.4148H5.11613C5.72926 38.8358 6.68445 41.1409 7.96484 43.2892L5.41356 45.8406C4.95606 46.2981 4.95594 47.0396 5.41332 47.4974L12.8199 54.9095C13.0396 55.1293 13.3378 55.253 13.6486 55.2531H13.6488C13.9596 55.2531 14.2576 55.1296 14.4774 54.9098L17.0315 52.3559C19.1799 53.6361 21.485 54.5914 23.9059 55.2048V58.8252C23.9059 59.4722 24.4302 59.9966 25.0769 59.997H30.3313H30.332C30.6426 59.997 30.9406 59.8765 31.1604 59.6569C31.3802 59.437 31.5038 59.1389 31.5038 58.828V47.591H43.1663L46.6352 53.9186C46.2562 54.5282 46.0366 55.2465 46.0366 56.0156C46.0366 58.2125 47.8238 59.9998 50.0207 59.9998C52.2177 59.9998 54.0049 58.2125 54.0049 56.0156C54.0049 53.8187 52.2175 52.0315 50.0206 52.0315C49.4633 52.0315 48.9325 52.1469 48.4504 52.3546L44.8878 45.8558C44.6822 45.4806 44.2882 45.2473 43.8603 45.2473H31.5036V42.0925C31.5036 41.4452 30.9788 40.9207 30.3318 40.9207C24.3121 40.9207 19.4149 36.0234 19.4149 30.0038C19.4149 24.057 24.1946 19.2062 30.114 19.0896C30.1807 19.1014 30.249 19.1087 30.3192 19.1087C34.8545 19.1087 38.9636 21.9634 40.5444 26.212C40.7199 26.6839 41.1671 26.9756 41.6427 26.9756C41.7784 26.9756 41.9165 26.9518 42.0512 26.9018C42.6577 26.6761 42.9665 26.0016 42.7408 25.395C42.1002 23.6729 41.1163 22.1409 39.8866 20.8617H50.1877C50.4985 20.8617 50.7965 20.7382 51.0164 20.5185L54.4842 17.0507C55.0408 17.3467 55.675 17.5151 56.3482 17.5151C58.5451 17.5151 60.3323 15.7279 60.3323 13.5309C60.3323 11.3341 58.545 9.54691 56.3482 9.54691ZM50.0206 2.34363C50.9253 2.34363 51.6611 3.07957 51.6611 3.98414C51.6611 4.88871 50.9252 5.62465 50.0206 5.62465C49.1161 5.62465 48.3801 4.88871 48.3801 3.98414C48.3801 3.07957 49.1159 2.34363 50.0206 2.34363ZM50.0206 54.3754C50.9253 54.3754 51.6611 55.1113 51.6611 56.0159C51.6611 56.9204 50.9251 57.6564 50.0206 57.6564C49.1159 57.6564 48.3801 56.9204 48.3801 56.0159C48.3801 55.1113 49.1159 54.3754 50.0206 54.3754ZM29.1602 16.7946C22.3953 17.3899 17.0713 23.087 17.0713 30.0039C17.0713 36.9207 22.3951 42.6178 29.1601 43.2131V57.6558L26.2493 57.6541V54.2759C26.2493 53.7236 25.8636 53.2463 25.3236 53.1302C22.532 52.5305 19.8983 51.4391 17.4956 49.8864C17.0318 49.5867 16.4217 49.6514 16.031 50.042L13.6489 52.4242L7.89887 46.6698L10.2789 44.2897C10.6694 43.8991 10.7343 43.2891 10.4345 42.8251C8.88184 40.4224 7.79047 37.7889 7.19094 34.9972C7.07492 34.4572 6.59762 34.0716 6.04531 34.0716H2.67945V25.9366H6.0452C6.59762 25.9366 7.07481 25.5509 7.19082 25.011C7.79047 22.2193 8.88172 19.5858 10.4343 17.1831C10.7342 16.7193 10.6693 16.1091 10.2788 15.7185L7.89875 13.3384L13.6488 7.58402L16.0309 9.96621C16.4216 10.3569 17.0316 10.4215 17.4955 10.1218C19.898 8.56922 22.5317 7.47773 25.3235 6.87797C25.8635 6.76195 26.2491 6.28465 26.2491 5.73234V2.34855H29.16V16.7946H29.1602ZM56.3482 15.1714C55.4435 15.1714 54.7077 14.4355 54.7077 13.5309C54.7077 12.6264 55.4436 11.8904 56.3482 11.8904C57.2527 11.8904 57.9887 12.6264 57.9887 13.5309C57.9887 14.4355 57.2527 15.1714 56.3482 15.1714Z" fill="black"/>
</g>
</g>
<g id="Group_13">
<g id="Group_14">
<path id="Vector_7" d="M56.3482 26.0344C54.5589 26.0344 53.0417 27.22 52.5402 28.8468H49.0829C48.4358 28.8468 47.9111 29.3715 47.9111 30.0186C47.9111 30.6657 48.4359 31.1903 49.0829 31.1903H52.54C53.0416 32.817 54.5588 34.0027 56.348 34.0027C58.545 34.0027 60.3322 32.2155 60.3322 30.0186C60.3323 27.8216 58.545 26.0344 56.3482 26.0344ZM56.3482 31.6591C55.4435 31.6591 54.7077 30.9231 54.7077 30.0186C54.7077 29.114 55.4436 28.3781 56.3482 28.3781C57.2527 28.3781 57.9887 29.114 57.9887 30.0186C57.9887 30.9231 57.2526 31.6591 56.3482 31.6591Z" fill="black"/>
</g>
</g>
</g>
<defs>
<clipPath id="clip0_647_6836">
<rect width="60" height="60" fill="white" transform="translate(0.333008)"/>
</clipPath>
</defs>
</svg>
