<svg width="60" height="60" viewBox="0 0 60 60" fill="none" xmlns="http://www.w3.org/2000/svg">
<g id="project-management 1" clip-path="url(#clip0_647_6128)">
<rect id="Rectangle 4470" x="43.5" y="1.5" width="15" height="15" fill="#F9BD39"/>
<rect id="Rectangle 4471" x="43.5" y="22.5" width="15" height="15" fill="#F9BD39"/>
<rect id="Rectangle 4472" x="43.5" y="43.5" width="15" height="15" fill="#F9BD39"/>
<path id="Vector" d="M16.999 20C15.0212 20 13.0878 20.5865 11.4433 21.6853C9.79883 22.7841 8.51711 24.3459 7.76023 26.1732C7.00336 28.0004 6.80532 30.0111 7.19118 31.9509C7.57703 33.8907 8.52943 35.6725 9.92796 37.0711C11.3265 38.4696 13.1083 39.422 15.0481 39.8079C16.9879 40.1937 18.9986 39.9957 20.8259 39.2388C22.6531 38.4819 24.2149 37.2002 25.3137 35.5557C26.4125 33.9112 26.999 31.9778 26.999 30C26.9961 27.3487 25.9416 24.8069 24.0669 22.9321C22.1921 21.0574 19.6503 20.0029 16.999 20ZM16.999 38C15.4168 38 13.8701 37.5308 12.5545 36.6518C11.2389 35.7727 10.2135 34.5233 9.60799 33.0615C9.00249 31.5997 8.84406 29.9911 9.15275 28.4393C9.46143 26.8874 10.2234 25.462 11.3422 24.3431C12.461 23.2243 13.8865 22.4624 15.4383 22.1537C16.9902 21.845 18.5987 22.0035 20.0605 22.609C21.5223 23.2145 22.7717 24.2398 23.6508 25.5554C24.5298 26.871 24.999 28.4177 24.999 30C24.9966 32.121 24.153 34.1544 22.6532 35.6542C21.1535 37.154 19.12 37.9976 16.999 38Z" fill="black"/>
<path id="Vector_2" d="M17.001 24C15.8143 24 14.6543 24.3519 13.6676 25.0112C12.6809 25.6705 11.9118 26.6075 11.4577 27.7039C11.0036 28.8003 10.8848 30.0067 11.1163 31.1705C11.3478 32.3344 11.9192 33.4035 12.7583 34.2426C13.5975 35.0818 14.6666 35.6532 15.8304 35.8847C16.9943 36.1162 18.2007 35.9974 19.2971 35.5433C20.3934 35.0892 21.3305 34.3201 21.9898 33.3334C22.6491 32.3467 23.001 31.1867 23.001 30C22.9994 28.4092 22.3667 26.884 21.2419 25.7591C20.117 24.6342 18.5918 24.0016 17.001 24ZM17.001 34C16.2099 34 15.4365 33.7654 14.7787 33.3259C14.1209 32.8864 13.6082 32.2616 13.3055 31.5307C13.0027 30.7998 12.9235 29.9956 13.0778 29.2196C13.2322 28.4437 13.6131 27.731 14.1726 27.1716C14.732 26.6122 15.4447 26.2312 16.2206 26.0769C16.9965 25.9225 17.8008 26.0017 18.5317 26.3045C19.2626 26.6072 19.8873 27.1199 20.3269 27.7777C20.7664 28.4355 21.001 29.2089 21.001 30C21.001 31.0609 20.5796 32.0783 19.8294 32.8284C19.0793 33.5786 18.0618 34 17.001 34Z" fill="black"/>
<path id="Vector_3" d="M57 0H45C44.2043 0 43.4413 0.31607 42.8787 0.87868C42.3161 1.44129 42 2.20435 42 3V8H40C39.2043 8 38.4413 8.31607 37.8787 8.87868C37.3161 9.44129 37 10.2044 37 11V29H33.956C33.947 28.848 33.95 28.693 33.937 28.542C33.9036 28.1877 33.7725 27.8496 33.5584 27.5653C33.3442 27.2811 33.0554 27.0618 32.724 26.932L30.61 26.087C30.3162 25.0636 29.9069 24.0769 29.39 23.146L30.29 21.046C30.4335 20.7193 30.4831 20.3592 30.4332 20.0059C30.3834 19.6527 30.2362 19.3203 30.008 19.046C29.698 18.676 29.368 18.316 29.023 17.971C28.678 17.626 28.318 17.296 27.946 16.984C27.672 16.7575 27.3406 16.6114 26.9886 16.562C26.6366 16.5126 26.2778 16.5617 25.952 16.704L23.852 17.604C22.9211 17.0871 21.9344 16.6778 20.911 16.384L20.065 14.268C19.9351 13.9372 19.7161 13.6489 19.4322 13.4352C19.1484 13.2214 18.8108 13.0905 18.457 13.057C17.4866 12.97 16.5104 12.97 15.54 13.057C15.1857 13.0904 14.8476 13.2215 14.5633 13.4356C14.2791 13.6498 14.0598 13.9386 13.93 14.27L13.085 16.384C12.0616 16.6778 11.0749 17.0871 10.144 17.604L8.044 16.704C7.71749 16.5599 7.35719 16.5099 7.00377 16.5597C6.65036 16.6095 6.31792 16.7572 6.044 16.986C5.674 17.296 5.314 17.626 4.969 17.971C4.624 18.316 4.294 18.676 3.982 19.048C3.75529 19.3219 3.60908 19.6533 3.55964 20.0054C3.5102 20.3574 3.55948 20.7163 3.702 21.042L4.602 23.142C4.08507 24.0729 3.67577 25.0596 3.382 26.083L1.266 26.929C0.936155 27.0604 0.649143 27.2805 0.436797 27.5651C0.22445 27.8496 0.0950678 28.1874 0.063 28.541C0.02 29.023 0 29.512 0 30C0 30.488 0.02 30.977 0.063 31.458C0.0964015 31.8123 0.227476 32.1504 0.441634 32.4347C0.655792 32.7189 0.944631 32.9382 1.276 33.068L3.39 33.913C3.68377 34.9364 4.09307 35.9231 4.61 36.854L3.71 38.954C3.56655 39.2807 3.51695 39.6408 3.56676 39.9941C3.61657 40.3473 3.76382 40.6797 3.992 40.954C4.302 41.324 4.632 41.684 4.977 42.029C5.322 42.374 5.682 42.704 6.054 43.016C6.32786 43.2427 6.65928 43.3889 7.01135 43.4384C7.36342 43.4878 7.7223 43.4385 8.048 43.296L10.148 42.396C11.0789 42.9129 12.0656 43.3222 13.089 43.616L13.935 45.732C14.0649 46.0628 14.2839 46.3511 14.5678 46.5648C14.8516 46.7786 15.1892 46.9095 15.543 46.943C16.025 46.986 16.514 47.006 17.002 47.006C17.49 47.006 17.979 46.986 18.46 46.943C18.8143 46.9096 19.1524 46.7785 19.4367 46.5644C19.7209 46.3502 19.9402 46.0614 20.07 45.73L20.915 43.616C21.9384 43.3222 22.9251 42.9129 23.856 42.396L25.956 43.296C26.2826 43.4396 26.6428 43.4892 26.9961 43.4394C27.3494 43.3896 27.6818 43.2423 27.956 43.014C28.326 42.704 28.686 42.374 29.031 42.029C29.376 41.684 29.706 41.329 30.018 40.952C30.2447 40.6781 30.3909 40.3467 30.4404 39.9946C30.4898 39.6426 30.4405 39.2837 30.298 38.958L29.398 36.858C29.9149 35.9271 30.3242 34.9404 30.618 33.917L32.732 33.072C33.0628 32.9421 33.3511 32.7231 33.5648 32.4392C33.7786 32.1554 33.9095 31.8178 33.943 31.464C33.956 31.312 33.953 31.158 33.962 31.005H37V49C37 49.7957 37.3161 50.5587 37.8787 51.1213C38.4413 51.6839 39.2043 52 40 52H42V57C42 57.7957 42.3161 58.5587 42.8787 59.1213C43.4413 59.6839 44.2043 60 45 60H57C57.7957 60 58.5587 59.6839 59.1213 59.1213C59.6839 58.5587 60 57.7957 60 57V45C60 44.2043 59.6839 43.4413 59.1213 42.8787C58.5587 42.3161 57.7957 42 57 42H45C44.2043 42 43.4413 42.3161 42.8787 42.8787C42.3161 43.4413 42 44.2043 42 45V50H40C39.7348 50 39.4804 49.8946 39.2929 49.7071C39.1054 49.5196 39 49.2652 39 49V31H42V36C42 36.7957 42.3161 37.5587 42.8787 38.1213C43.4413 38.6839 44.2043 39 45 39H57C57.7957 39 58.5587 38.6839 59.1213 38.1213C59.6839 37.5587 60 36.7957 60 36V24C60 23.2044 59.6839 22.4413 59.1213 21.8787C58.5587 21.3161 57.7957 21 57 21H45C44.2043 21 43.4413 21.3161 42.8787 21.8787C42.3161 22.4413 42 23.2044 42 24V29H39V11C39 10.7348 39.1054 10.4804 39.2929 10.2929C39.4804 10.1054 39.7348 10 40 10H42V15C42 15.7956 42.3161 16.5587 42.8787 17.1213C43.4413 17.6839 44.2043 18 45 18H57C57.7957 18 58.5587 17.6839 59.1213 17.1213C59.6839 16.5587 60 15.7956 60 15V3C60 2.20435 59.6839 1.44129 59.1213 0.87868C58.5587 0.31607 57.7957 0 57 0ZM31.949 31.224L29.4 32.242C29.2526 32.3008 29.1212 32.3939 29.0169 32.5135C28.9126 32.6332 28.8382 32.7759 28.8 32.93C28.5078 34.1064 28.0405 35.2323 27.414 36.27C27.3318 36.4059 27.2831 36.5593 27.2719 36.7178C27.2608 36.8762 27.2876 37.035 27.35 37.181L28.469 39.663C28.196 39.988 27.905 40.303 27.602 40.606C27.299 40.909 26.984 41.2 26.733 41.45L24.177 40.35C24.031 40.2876 23.8722 40.2608 23.7138 40.2719C23.5553 40.2831 23.4019 40.3318 23.266 40.414C22.2295 41.0402 21.105 41.5074 19.93 41.8C19.7759 41.8382 19.6332 41.9126 19.5135 42.0169C19.3939 42.1212 19.3008 42.2526 19.242 42.4L18.277 44.941C17.434 45.018 16.5 44.98 15.789 44.978L14.758 42.4C14.6992 42.2526 14.6061 42.1212 14.4865 42.0169C14.3668 41.9126 14.2241 41.8382 14.07 41.8C12.8936 41.5078 11.7677 41.0405 10.73 40.414C10.5941 40.3318 10.4407 40.2831 10.2822 40.2719C10.1238 40.2608 9.96502 40.2876 9.819 40.35L7.337 41.473C7.012 41.2 6.697 40.909 6.394 40.606C6.091 40.303 5.8 39.988 5.55 39.737L6.65 37.181C6.71244 37.035 6.7392 36.8762 6.72807 36.7178C6.71694 36.5593 6.66824 36.4059 6.586 36.27C5.95945 35.2323 5.49225 34.1064 5.2 32.93C5.16177 32.7759 5.08742 32.6332 4.98309 32.5135C4.87875 32.3939 4.74744 32.3008 4.6 32.242L2.059 31.277C2.018 30.855 2 30.428 2 30C2 29.572 2.018 29.145 2.019 28.789L4.6 27.758C4.74744 27.6992 4.87875 27.6061 4.98309 27.4865C5.08742 27.3668 5.16177 27.2241 5.2 27.07C5.49225 25.8936 5.95945 24.7677 6.586 23.73C6.66824 23.5941 6.71694 23.4407 6.72807 23.2822C6.7392 23.1238 6.71244 22.965 6.65 22.819L5.527 20.337C5.8 20.012 6.091 19.697 6.394 19.394C6.697 19.091 7.012 18.8 7.263 18.55L9.819 19.65C9.96502 19.7124 10.1238 19.7392 10.2822 19.7281C10.4407 19.7169 10.5941 19.6682 10.73 19.586C11.7677 18.9595 12.8936 18.4922 14.07 18.2C14.2241 18.1618 14.3668 18.0874 14.4865 17.9831C14.6061 17.8788 14.6992 17.7474 14.758 17.6L15.723 15.059C16.566 14.982 17.5 15.02 18.211 15.022L19.242 17.6C19.3008 17.7474 19.3939 17.8788 19.5135 17.9831C19.6332 18.0874 19.7759 18.1618 19.93 18.2C21.1064 18.4922 22.2323 18.9595 23.27 19.586C23.4059 19.6682 23.5593 19.7169 23.7178 19.7281C23.8762 19.7392 24.035 19.7124 24.181 19.65L26.663 18.531C26.988 18.804 27.303 19.095 27.606 19.398C27.909 19.701 28.2 20.016 28.45 20.267L27.35 22.823C27.2876 22.969 27.2608 23.1278 27.2719 23.2862C27.2831 23.4447 27.3318 23.5981 27.414 23.734C28.0402 24.7705 28.5074 25.895 28.8 27.07C28.8382 27.2241 28.9126 27.3668 29.0169 27.4865C29.1212 27.6061 29.2526 27.6992 29.4 27.758L31.941 28.723C31.979 29.145 31.997 29.572 31.997 30C32 30.409 31.984 30.818 31.949 31.224ZM44 45C44 44.7348 44.1054 44.4804 44.2929 44.2929C44.4804 44.1054 44.7348 44 45 44H57C57.2652 44 57.5196 44.1054 57.7071 44.2929C57.8946 44.4804 58 44.7348 58 45V57C58 57.2652 57.8946 57.5196 57.7071 57.7071C57.5196 57.8946 57.2652 58 57 58H45C44.7348 58 44.4804 57.8946 44.2929 57.7071C44.1054 57.5196 44 57.2652 44 57V45ZM44 24C44 23.7348 44.1054 23.4804 44.2929 23.2929C44.4804 23.1054 44.7348 23 45 23H57C57.2652 23 57.5196 23.1054 57.7071 23.2929C57.8946 23.4804 58 23.7348 58 24V36C58 36.2652 57.8946 36.5196 57.7071 36.7071C57.5196 36.8946 57.2652 37 57 37H45C44.7348 37 44.4804 36.8946 44.2929 36.7071C44.1054 36.5196 44 36.2652 44 36V24ZM58 15C58 15.2652 57.8946 15.5196 57.7071 15.7071C57.5196 15.8946 57.2652 16 57 16H45C44.7348 16 44.4804 15.8946 44.2929 15.7071C44.1054 15.5196 44 15.2652 44 15V3C44 2.73478 44.1054 2.48043 44.2929 2.29289C44.4804 2.10536 44.7348 2 45 2H57C57.2652 2 57.5196 2.10536 57.7071 2.29289C57.8946 2.48043 58 2.73478 58 3V15Z" fill="black"/>
<path id="Vector_4" d="M53.1684 5.44512L49.8454 10.4311L48.7074 9.29313C48.5188 9.11097 48.2662 9.01017 48.004 9.01245C47.7418 9.01473 47.491 9.1199 47.3056 9.30531C47.1202 9.49071 47.015 9.74153 47.0127 10.0037C47.0105 10.2659 47.1112 10.5185 47.2934 10.7071L49.2934 12.7071C49.4809 12.8947 49.7352 13.0001 50.0004 13.0001C50.0324 13.0001 50.0654 13.0001 50.1004 12.9951C50.2475 12.9805 50.3896 12.9335 50.5163 12.8574C50.643 12.7813 50.7513 12.6781 50.8334 12.5551L54.8334 6.55512C54.9063 6.44586 54.9569 6.32332 54.9825 6.19449C55.008 6.06565 55.0079 5.93305 54.9822 5.80426C54.9564 5.67546 54.9056 5.55299 54.8326 5.44385C54.7595 5.3347 54.6657 5.24101 54.5564 5.16812C54.4471 5.09524 54.3246 5.04459 54.1958 5.01907C54.0669 4.99354 53.9343 4.99365 53.8055 5.01937C53.6767 5.04509 53.5543 5.09593 53.4451 5.16898C53.336 5.24203 53.2413 5.33587 53.1684 5.44512Z" fill="black"/>
<path id="Vector_5" d="M49.2924 33.7071C49.4799 33.8947 49.7342 34.0001 49.9994 34.0001C50.0314 34.0001 50.0644 34.0001 50.0994 33.9951C50.2465 33.9805 50.3886 33.9335 50.5153 33.8574C50.642 33.7813 50.7503 33.6781 50.8324 33.5551L54.8324 27.5551C54.9053 27.4459 54.9559 27.3233 54.9815 27.1945C55.007 27.0657 55.0069 26.933 54.9812 26.8043C54.9554 26.6755 54.9046 26.553 54.8316 26.4438C54.7585 26.3347 54.6647 26.241 54.5554 26.1681C54.4461 26.0952 54.3236 26.0446 54.1948 26.0191C54.0659 25.9935 53.9333 25.9936 53.8045 26.0194C53.6757 26.0451 53.5533 26.0959 53.4441 26.169C53.335 26.242 53.2413 26.3359 53.1684 26.4451L49.8454 31.4311L48.7074 30.2931C48.5188 30.111 48.2662 30.0102 48.004 30.0124C47.7418 30.0147 47.491 30.1199 47.3056 30.3053C47.1202 30.4907 47.015 30.7415 47.0127 31.0037C47.0105 31.2659 47.1112 31.5185 47.2934 31.7071L49.2924 33.7071Z" fill="black"/>
</g>
<defs>
<clipPath id="clip0_647_6128">
<rect width="60" height="60" fill="white"/>
</clipPath>
</defs>
</svg>
