<svg width="73" height="60" viewBox="0 0 73 60" fill="none" xmlns="http://www.w3.org/2000/svg">
<g id="Frame 34968">
<path id="Rectangle 4475" d="M0 13L69 12.5C70.7207 7.82956 67.3554 2.84721 62.3802 2.69946L52.1196 2.39474H34.6196H27.7791C26.8131 2.39474 25.8998 1.95384 25.2989 1.19737C24.698 0.440893 23.7848 0 22.8187 0H6C2.68629 0 0 2.68629 0 6V13Z" fill="#F9BD39"/>
<g id="Layer_1">
<g id="Group">
<g id="Group_2">
<g id="Group_3">
<path id="Vector" fill-rule="evenodd" clip-rule="evenodd" d="M65.2297 60H5.3856C2.4161 60 0.000192182 57.5841 0.000192182 54.6148L0 5.35974C0 5.35572 0 5.3517 0 5.34767C0.032373 2.39905 2.45958 0.000191451 5.41089 0.000191451L5.4107 0H24.6667C25.0398 0 25.3879 0.188684 25.5913 0.501495L33.0595 11.974H69.5113C70.1207 11.974 70.6147 12.468 70.6147 13.0774V54.6146C70.6151 57.5841 68.1994 60 65.2297 60ZM2.20673 5.36453V54.6146C2.20673 56.3671 3.63267 57.7931 5.38522 57.7931H65.2295C66.9822 57.7931 68.4082 56.3671 68.4082 54.6146V14.1809H32.4617C32.0885 14.1809 31.7407 13.9922 31.537 13.6796L24.0688 2.20692H5.41127C3.66581 2.20692 2.22991 3.6229 2.20673 5.36453Z" fill="black"/>
</g>
<g id="Group_4">
<path id="Vector_2" fill-rule="evenodd" clip-rule="evenodd" d="M32.4612 14.1806H1.12875C0.519414 14.1806 0.0253906 13.6866 0.0253906 13.0772C0.0253906 12.4679 0.519414 11.9739 1.12875 11.9739H32.4612C33.0706 11.9739 33.5646 12.4679 33.5646 13.0772C33.5646 13.6866 33.0706 14.1806 32.4612 14.1806Z" fill="black"/>
</g>
<g id="Group_5">
<path id="Vector_3" fill-rule="evenodd" clip-rule="evenodd" d="M69.5108 14.1809C68.9014 14.1809 68.4074 13.6869 68.4074 13.0775V7.00081C68.4074 6.21677 68.0954 5.47277 67.5288 4.90614C66.9621 4.33952 66.2181 4.02728 65.4341 4.02728H25.8456C25.2362 4.02728 24.7422 3.53326 24.7422 2.92392C24.7422 2.31458 25.2362 1.82056 25.8456 1.82056H65.4339C66.8075 1.82056 68.1057 2.36209 69.0892 3.34554C70.0726 4.32898 70.6142 5.62697 70.6142 7.00062V13.0774C70.6142 13.6869 70.1203 14.1809 69.5108 14.1809Z" fill="black"/>
</g>
<g id="Group_6">
<g id="Group_7">
<path id="Vector_4" fill-rule="evenodd" clip-rule="evenodd" d="M7.56165 8.18109H6.3309C5.72156 8.18109 5.22754 7.68707 5.22754 7.07773C5.22754 6.46839 5.72156 5.97437 6.3309 5.97437H7.56165C8.17099 5.97437 8.66501 6.46839 8.66501 7.07773C8.66501 7.68707 8.17099 8.18109 7.56165 8.18109Z" fill="black"/>
</g>
<g id="Group_8">
<path id="Vector_5" fill-rule="evenodd" clip-rule="evenodd" d="M15.1727 8.18109H13.9676C13.3583 8.18109 12.8643 7.68707 12.8643 7.07773C12.8643 6.46839 13.3583 5.97437 13.9676 5.97437H15.1727C15.782 5.97437 16.2761 6.46839 16.2761 7.07773C16.2761 7.68707 15.782 8.18109 15.1727 8.18109Z" fill="black"/>
</g>
<g id="Group_9">
<path id="Vector_6" fill-rule="evenodd" clip-rule="evenodd" d="M22.7938 8.18109H21.5887C20.9794 8.18109 20.4854 7.68707 20.4854 7.07773C20.4854 6.46839 20.9794 5.97437 21.5887 5.97437H22.7938C23.4031 5.97437 23.8972 6.46839 23.8972 7.07773C23.8972 7.68707 23.4031 8.18109 22.7938 8.18109Z" fill="black"/>
</g>
</g>
<g id="Group_10">
<path id="Vector_7" fill-rule="evenodd" clip-rule="evenodd" d="M57.7183 9.10443H38.9998C38.3905 9.10443 37.8965 8.61041 37.8965 8.00107C37.8965 7.39173 38.3905 6.89771 38.9998 6.89771H57.7183C58.3277 6.89771 58.8217 7.39173 58.8217 8.00107C58.8217 8.61041 58.3277 9.10443 57.7183 9.10443Z" fill="black"/>
</g>
<g id="Group_11">
<g id="Group_12">
<path id="Vector_8" fill-rule="evenodd" clip-rule="evenodd" d="M31.8219 50.0804C31.7273 50.0804 31.6313 50.0681 31.5357 50.0425C30.9472 49.8846 30.5978 49.2797 30.7557 48.691L37.7167 22.7116C37.8743 22.123 38.4792 21.7738 39.0681 21.9314C39.6567 22.0891 40.0059 22.6942 39.8483 23.2828L32.8871 49.2623C32.755 49.7553 32.309 50.0804 31.8219 50.0804Z" fill="black"/>
</g>
<g id="Group_13">
<g id="Group_14">
<path id="Vector_9" fill-rule="evenodd" clip-rule="evenodd" d="M26.3841 44.899C26.1017 44.899 25.8194 44.7912 25.6039 44.5759L17.3858 36.3575C16.9547 35.9267 16.9547 35.2281 17.3858 34.7973L25.6039 26.579C26.0347 26.1482 26.7335 26.1482 27.1643 26.579C27.5953 27.01 27.5953 27.7086 27.1643 28.1394L19.7262 35.5773L27.1643 43.0154C27.5953 43.4463 27.5953 44.1449 27.1643 44.5757C26.9488 44.7912 26.6665 44.899 26.3841 44.899Z" fill="black"/>
</g>
<g id="Group_15">
<path id="Vector_10" fill-rule="evenodd" clip-rule="evenodd" d="M44.2226 44.8988C43.9402 44.8988 43.6579 44.791 43.4424 44.5757C43.0114 44.1449 43.0114 43.4463 43.4424 43.0154L50.8805 35.5773L43.4424 28.1394C43.0114 27.7084 43.0114 27.0098 43.4424 26.579C43.8734 26.1482 44.5718 26.1482 45.0028 26.579L53.221 34.7973C53.652 35.2281 53.652 35.9267 53.221 36.3575L45.0028 44.5759C44.7873 44.791 44.505 44.8988 44.2226 44.8988Z" fill="black"/>
</g>
</g>
</g>
</g>
</g>
</g>
</g>
</svg>
