<svg width="41" height="41" viewBox="0 0 41 41" fill="none" xmlns="http://www.w3.org/2000/svg">
<g id="artificial-intelligence 1" clip-path="url(#clip0_464_2742)">
<g id="Group">
<g id="Group_2">
<path id="Vector" d="M9.57231 21.397H7.84959C6.7506 21.397 5.85645 20.5085 5.85645 19.4165C5.85645 19.0847 5.58762 18.8159 5.25586 18.8159C4.9241 18.8159 4.65527 19.0847 4.65527 19.4165C4.65527 21.1709 6.08827 22.5982 7.84967 22.5982H9.57231C9.90407 22.5982 10.1729 22.3293 10.1729 21.9976C10.1729 21.6658 9.90407 21.397 9.57231 21.397Z" fill="#919191"/>
</g>
</g>
<g id="Group_3">
<g id="Group_4">
<path id="Vector_2" d="M15.2158 25.8418H10.085C8.39042 25.8418 7.01172 27.2149 7.01172 28.9029C7.01172 29.2346 7.28054 29.5034 7.6123 29.5034C7.94407 29.5034 8.21289 29.2345 8.21289 28.9029C8.21289 27.8773 9.05267 27.043 10.085 27.043H15.2158C15.5476 27.043 15.8164 26.7741 15.8164 26.4424C15.8164 26.1106 15.5476 25.8418 15.2158 25.8418Z" fill="#919191"/>
</g>
</g>
<g id="Group_5">
<g id="Group_6">
<path id="Vector_3" d="M20.1093 25.8418H17.6182C17.2864 25.8418 17.0176 26.1106 17.0176 26.4424C17.0176 26.7741 17.2864 27.043 17.6182 27.043H20.1093C20.4411 27.043 20.7099 26.7741 20.7099 26.4424C20.7099 26.1106 20.441 25.8418 20.1093 25.8418Z" fill="#919191"/>
</g>
</g>
<g id="Group_7">
<g id="Group_8">
<path id="Vector_4" d="M15.8867 14.1719C15.555 14.1719 15.2861 14.4408 15.2861 14.7725C15.2861 16.4898 13.8808 17.8869 12.1533 17.8869C11.8216 17.8869 11.5527 18.1558 11.5527 18.4875C11.5527 18.8193 11.8216 19.0881 12.1533 19.0881C14.5431 19.0881 16.4873 17.1521 16.4873 14.7725C16.4873 14.4408 16.2185 14.1719 15.8867 14.1719Z" fill="#919191"/>
</g>
</g>
<g id="Group_9">
<g id="Group_10">
<path id="Vector_5" d="M14.7798 5.0926C13.3451 5.00051 12.1012 6.08821 12.0081 7.51809C11.9866 7.84913 12.2375 8.13485 12.5684 8.15647C12.5817 8.15735 12.5949 8.15775 12.6081 8.15775C12.922 8.15775 13.1861 7.91383 13.2068 7.59616C13.2568 6.82677 13.9278 6.24244 14.7026 6.29129C15.0339 6.31347 15.3192 6.06163 15.3405 5.73058C15.3619 5.39954 15.1108 5.11398 14.7798 5.0926Z" fill="#919191"/>
</g>
</g>
<g id="Group_11">
<g id="Group_12">
<path id="Vector_6" d="M12.7598 28.5161C12.428 28.5161 12.1592 28.7849 12.1592 29.1167C12.1592 29.4485 12.428 29.7173 12.7598 29.7173C13.7515 29.7173 14.5584 30.5188 14.5584 31.5039C14.5584 32.4893 13.7515 33.2908 12.7598 33.2908C12.428 33.2908 12.1592 33.5596 12.1592 33.8914C12.1592 34.2231 12.428 34.4919 12.7598 34.4919C14.4139 34.4919 15.7596 33.1516 15.7596 31.5039C15.7596 29.8565 14.4139 28.5161 12.7598 28.5161Z" fill="#919191"/>
</g>
</g>
<g id="Group_13">
<g id="Group_14">
<path id="Vector_7" d="M18.9062 14.3735C18.5745 14.3735 18.3057 14.6424 18.3057 14.9741C18.3057 15.3059 18.5745 15.5747 18.9062 15.5747C19.7029 15.5747 20.3512 16.2183 20.3512 17.0095C20.3512 17.8007 19.7029 18.4444 18.9062 18.4444C18.5745 18.4444 18.3057 18.7132 18.3057 19.045C18.3057 19.3767 18.5745 19.6456 18.9062 19.6456C20.3654 19.6456 21.5524 18.463 21.5524 17.0095C21.5524 15.556 20.3654 14.3735 18.9062 14.3735Z" fill="#919191"/>
</g>
</g>
<g id="Group_15">
<g id="Group_16">
<path id="Vector_8" d="M8.32617 10.5549C7.99441 10.5549 7.72559 10.8238 7.72559 11.1555C7.72559 11.4873 7.99441 11.7561 8.32617 11.7561C9.69503 11.7561 10.8086 12.8628 10.8086 14.2232C10.8086 15.5836 9.69503 16.6904 8.32617 16.6904C7.99441 16.6904 7.72559 16.9592 7.72559 17.2909C7.72559 17.6227 7.99441 17.8915 8.32617 17.8915C10.3573 17.8915 12.0098 16.2459 12.0098 14.2232C12.0098 12.2005 10.3573 10.5549 8.32617 10.5549Z" fill="#919191"/>
</g>
</g>
<g id="Group_17">
<g id="Group_18">
<path id="Vector_9" d="M36.561 10.5276C35.4321 10.5276 34.5137 11.4428 34.5137 12.5677C34.5137 13.6928 35.4321 14.608 36.561 14.608C37.6898 14.608 38.6082 13.6928 38.6082 12.5677C38.6082 11.4428 37.6898 10.5276 36.561 10.5276ZM36.561 13.4069C36.0945 13.4069 35.7149 13.0305 35.7149 12.5678C35.7148 12.1052 36.0944 11.7288 36.561 11.7288C37.0276 11.7288 37.4071 12.1052 37.4071 12.5678C37.4071 13.0304 37.0276 13.4069 36.561 13.4069Z" fill="#919191"/>
</g>
</g>
<g id="Group_19">
<g id="Group_20">
<path id="Vector_10" d="M38.5678 25.8987C37.4388 25.8987 36.5205 26.8139 36.5205 27.9389C36.5205 29.0639 37.4389 29.9791 38.5678 29.9791C39.6966 29.9791 40.615 29.0638 40.615 27.9389C40.615 26.814 39.6966 25.8987 38.5678 25.8987ZM38.5678 28.7779C38.1013 28.7779 37.7217 28.4015 37.7217 27.9389C37.7217 27.4763 38.1013 27.0999 38.5678 27.0999C39.0343 27.0999 39.4138 27.4762 39.4138 27.9389C39.4139 28.4015 39.0343 28.7779 38.5678 28.7779Z" fill="#919191"/>
</g>
</g>
<g id="Group_21">
<g id="Group_22">
<path id="Vector_11" d="M37.3074 18.7008C36.961 18.7009 36.6346 18.7874 36.3482 18.9394L35.1775 17.7745C34.9422 17.5405 34.5621 17.5415 34.3282 17.7765C34.0942 18.0116 34.0952 18.3919 34.3303 18.6258L35.4981 19.7879C35.3465 20.0726 35.2601 20.3969 35.2601 20.7409C35.2601 21.866 36.1786 22.7812 37.3074 22.7812C38.4364 22.7812 39.3547 21.866 39.3547 20.7409C39.3547 19.616 38.4363 18.7008 37.3074 18.7008ZM37.3075 21.5801C36.841 21.5801 36.4614 21.2037 36.4614 20.741C36.4614 20.2785 36.841 19.902 37.3075 19.902C37.774 19.902 38.1536 20.2784 38.1536 20.741C38.1536 21.2036 37.774 21.5801 37.3075 21.5801Z" fill="#919191"/>
</g>
</g>
<g id="Group_23">
<g id="Group_24">
<path id="Vector_12" d="M35.9535 32.168C34.8246 32.168 33.9062 33.0832 33.9062 34.2082C33.9062 35.3332 34.8247 36.2484 35.9535 36.2484C37.0825 36.2484 38.0008 35.3332 38.0008 34.2082C38.0008 33.0832 37.0825 32.168 35.9535 32.168ZM35.9535 35.0472C35.487 35.0472 35.1074 34.6708 35.1074 34.2081C35.1074 33.7455 35.487 33.3691 35.9535 33.3691C36.4201 33.3691 36.7996 33.7454 36.7996 34.2081C36.7997 34.6708 36.4201 35.0472 35.9535 35.0472Z" fill="#919191"/>
</g>
</g>
<g id="Group_25">
<g id="Group_26">
<path id="Vector_13" d="M28.927 11.2866C29.3088 11.2866 29.7642 11.0986 30.0348 10.8294L32.355 8.52055C32.5882 8.61272 32.8419 8.66397 33.1075 8.66397C34.2365 8.66397 35.1548 7.74876 35.1548 6.62374C35.1548 5.49881 34.2364 4.58367 33.1075 4.58367C31.9786 4.58367 31.0603 5.49889 31.0603 6.62374C31.0603 7.04615 31.1898 7.4391 31.4115 7.76502L29.1878 9.97773C29.1408 10.0228 28.992 10.0843 28.927 10.0854H23.9697V6.1098H25.3641C25.622 6.94253 26.4015 7.54945 27.3207 7.54945C28.4497 7.54945 29.368 6.63423 29.368 5.50921C29.368 4.38428 28.4496 3.46906 27.3207 3.46906C26.4015 3.46906 25.622 4.0759 25.3641 4.90863H23.9697V4.81766C23.9697 2.16115 21.7992 0 19.1311 0C17.2238 0 15.5129 1.11164 14.7321 2.81138C14.6121 2.80289 14.4924 2.79857 14.3736 2.79857C11.6007 2.79857 9.33727 5.01241 9.27297 7.75829C9.03354 7.72418 8.79138 7.70696 8.54819 7.70696C5.73488 7.70696 3.44617 9.98582 3.44617 12.7869C3.44617 13.4017 3.55403 13.9966 3.76736 14.5625C1.66739 15.8085 0.385742 18.0344 0.385742 20.5C0.385742 21.8239 0.76283 23.1107 1.47617 24.2213C2.06378 25.1361 2.85543 25.8976 3.78658 26.4487C3.56284 27.0285 3.44617 27.6495 3.44617 28.2729C3.44617 29.5095 3.89765 30.7012 4.71741 31.6284C4.93706 31.8769 5.31663 31.9002 5.56519 31.6805C5.81376 31.4608 5.83706 31.0813 5.61733 30.8327C4.99176 30.1252 4.64734 29.2161 4.64734 28.2729C4.64734 27.6383 4.79733 27.0331 5.09265 26.4738C5.44516 25.8043 5.99281 25.2389 6.68557 24.8639C6.97729 24.7059 7.08564 24.3414 6.92764 24.0498C6.76973 23.758 6.40513 23.6495 6.11357 23.8077C5.39615 24.1963 4.79805 24.7413 4.35081 25.3864C2.63346 24.3533 1.58691 22.5266 1.58691 20.5C1.58691 18.3331 2.78713 16.3906 4.72486 15.4074C4.72486 15.4074 5.84611 14.7835 7.3346 14.7835C7.66636 14.7835 7.93519 14.5147 7.93519 14.183C7.93519 13.8512 7.66636 13.5824 7.3346 13.5824C6.46207 13.5824 5.62686 13.7437 4.85682 14.0374C4.71877 13.637 4.6475 13.2186 4.6475 12.787C4.6475 10.6481 6.39737 8.90821 8.54835 8.90821C8.95266 8.90821 9.35265 8.97011 9.73719 9.09223C9.93426 9.15477 10.1496 9.11161 10.3073 8.97788C10.465 8.84415 10.5429 8.63883 10.5133 8.43415C10.4865 8.24773 10.4729 8.06082 10.4729 7.87857C10.4729 5.73984 12.2228 3.99982 14.3738 3.99982C14.585 3.99982 14.8009 4.01792 15.0158 4.05323C16.8622 4.35865 18.2746 5.95725 18.2746 7.87857C18.2746 8.21033 18.5435 8.47915 18.8752 8.47915C19.207 8.47915 19.4758 8.21033 19.4758 7.87857C19.4758 5.62821 17.998 3.71619 15.9581 3.05106C16.5922 1.9234 17.7974 1.20117 19.1311 1.20117C21.1368 1.20117 22.7685 2.82355 22.7685 4.81766V4.88437H21.6134C21.2816 4.88437 21.0128 5.15319 21.0128 5.48495C21.0128 5.81672 21.2816 6.08554 21.6134 6.08554H22.7685V10.0854H17.911C16.8119 10.0854 15.9178 9.19697 15.9178 8.10503C15.9178 7.77326 15.649 7.50444 15.3172 7.50444C14.9854 7.50444 14.7166 7.77326 14.7166 8.10503C14.7166 9.8593 16.1496 11.2865 17.911 11.2865H22.7685V21.3969H13.0264C12.6946 21.3969 12.4258 21.6657 12.4258 21.9975C12.4258 22.3292 12.6946 22.598 13.0264 22.598H22.7685V30.8442H20.9126C19.218 30.8442 17.8394 32.2173 17.8394 33.9052C17.8394 34.2369 18.1082 34.5057 18.44 34.5057C18.7718 34.5057 19.0406 34.2369 19.0406 33.9052C19.0406 32.8797 19.8804 32.0453 20.9126 32.0453H22.7685V36.1823C22.7685 36.2767 22.7637 36.3699 22.7566 36.4624H21.6134C21.2816 36.4624 21.0128 36.7312 21.0128 37.063C21.0128 37.3947 21.2816 37.6635 21.6134 37.6635H22.4481C21.8779 38.9209 20.6061 39.7988 19.1311 39.7988C17.8063 39.7988 16.6056 39.0841 15.9682 37.9672C16.6937 37.7303 17.3613 37.3319 17.9237 36.7893C18.1624 36.559 18.1693 36.1788 17.9389 35.9402C17.7086 35.7013 17.3284 35.6946 17.0898 35.9249C16.5163 36.4782 15.7993 36.8355 15.0251 36.9645C14.8069 37.0011 14.5877 37.0196 14.3736 37.0196C12.2226 37.0196 10.4727 35.2796 10.4727 33.1408C10.4727 33.0861 10.476 33.0293 10.4786 32.9731C10.9634 32.7758 11.4188 32.5058 11.825 32.1667C12.0796 31.9542 12.1137 31.5754 11.9011 31.3208C11.6884 31.0661 11.3159 31.0398 11.0551 31.2447C9.84994 32.1914 8.68432 32.1767 8.21802 32.138C7.8865 32.1099 7.59726 32.3563 7.56971 32.6868C7.54224 33.0173 7.788 33.3075 8.11857 33.3351C8.50254 33.3668 8.89372 33.3557 9.27409 33.3014C9.35946 36.0286 11.6143 38.2208 14.3737 38.2208C14.4953 38.2208 14.6179 38.2162 14.7409 38.2073C15.5258 39.8958 17.2333 41 19.1311 41C21.7991 41 23.9697 38.8389 23.9697 36.1823V34.8551H27.1535C27.2186 34.8562 27.3674 34.9177 27.4143 34.9627L28.8461 36.3875C28.6524 36.6991 28.5403 37.0661 28.5403 37.4588C28.5403 38.5838 29.4587 39.499 30.5875 39.499C31.7165 39.499 32.6348 38.5838 32.6348 37.4588C32.6348 36.3338 31.7164 35.4186 30.5875 35.4186C30.2907 35.4186 30.0087 35.4824 29.7538 35.5961L28.2615 34.1112C27.9909 33.842 27.5354 33.654 27.1537 33.654H23.9697V30.4435H29.1908C29.4487 31.2762 30.2282 31.8831 31.1475 31.8831C32.2765 31.8831 33.1948 30.9679 33.1948 29.8429C33.1948 28.7179 32.2764 27.8026 31.1475 27.8026C30.2283 27.8026 29.4487 28.4095 29.1908 29.2423H23.9697V25.2192H30.2176C30.4755 26.0519 31.255 26.6588 32.1743 26.6588C33.3032 26.6588 34.2216 25.7436 34.2216 24.6186C34.2216 23.4936 33.3031 22.5783 32.1743 22.5783C31.255 22.5783 30.4755 23.1852 30.2176 24.018H23.9697V19.6466H25.4574C25.7154 20.4793 26.4949 21.0862 27.4141 21.0862C28.5431 21.0862 29.4614 20.171 29.4614 19.046C29.4614 17.921 28.543 17.0058 27.4141 17.0058C26.4949 17.0058 25.7153 17.6126 25.4574 18.4454H23.9697V14.9796H30.5135C30.5786 14.9808 30.7275 15.0421 30.7743 15.0871L32.008 16.3149C32.1252 16.4315 32.2784 16.4898 32.4316 16.4898C32.5858 16.4898 32.74 16.4307 32.8573 16.3128C33.0913 16.0777 33.0904 15.6974 32.8553 15.4634L31.6216 14.2356C31.351 13.9664 30.8955 13.7784 30.5138 13.7784H23.9697V11.2866H28.927ZM33.1075 5.78476C33.574 5.78476 33.9536 6.16113 33.9536 6.62366C33.9536 7.08627 33.574 7.46272 33.1075 7.46272C32.641 7.46272 32.2615 7.08635 32.2615 6.62366C32.2615 6.16113 32.641 5.78476 33.1075 5.78476ZM27.3207 4.67024C27.7873 4.67024 28.1668 5.0466 28.1668 5.50921C28.1668 5.97183 27.7873 6.34827 27.3207 6.34827C26.8542 6.34827 26.4747 5.97191 26.4747 5.50921C26.4746 5.0466 26.8542 4.67024 27.3207 4.67024ZM30.5875 36.6196C31.0541 36.6196 31.4336 36.9961 31.4336 37.4587C31.4336 37.9213 31.0541 38.2978 30.5875 38.2978C30.121 38.2978 29.7414 37.9214 29.7414 37.4587C29.7414 36.9961 30.121 36.6196 30.5875 36.6196ZM31.1475 29.0038C31.614 29.0038 31.9936 29.3802 31.9936 29.8429C31.9936 30.3055 31.614 30.6819 31.1475 30.6819C30.681 30.6819 30.3014 30.3056 30.3014 29.8429C30.3014 29.3803 30.681 29.0038 31.1475 29.0038ZM32.1742 23.7795C32.6407 23.7795 33.0203 24.1559 33.0203 24.6186C33.0203 25.0812 32.6407 25.4576 32.1742 25.4576C31.7077 25.4576 31.3281 25.0813 31.3281 24.6186C31.3281 24.1559 31.7077 23.7795 32.1742 23.7795ZM27.4141 18.207C27.8806 18.207 28.2602 18.5833 28.2602 19.046C28.2602 19.5086 27.8806 19.885 27.4141 19.885C26.9476 19.885 26.568 19.5086 26.568 19.046C26.568 18.5833 26.9476 18.207 27.4141 18.207Z" fill="#919191"/>
</g>
</g>
</g>
<defs>
<clipPath id="clip0_464_2742">
<rect width="41" height="41" fill="white"/>
</clipPath>
</defs>
</svg>
