<svg width="26" height="26" viewBox="0 0 26 26" fill="none" xmlns="http://www.w3.org/2000/svg">
<g id="data 1" clip-path="url(#clip0_464_2784)">
<g id="Group">
<g id="Group_2">
<path id="Vector" d="M19.7169 0H2.38347C1.18747 0.00140834 0.218205 0.970671 0.216797 2.16668V16.0334C0.216689 17.0217 0.885325 17.8847 1.84224 18.1316L2.0589 17.2927C1.48457 17.1446 1.08325 16.6265 1.08347 16.0334V2.16668C1.08347 1.44869 1.66549 0.86667 2.38347 0.86667H19.7169C20.4349 0.86667 21.0169 1.44869 21.0169 2.16668V2.60001H21.8836V2.16668C21.8821 0.970671 20.9129 0.00140834 19.7169 0Z" fill="#919191"/>
</g>
</g>
<g id="Group_3">
<g id="Group_4">
<path id="Vector_2" d="M2.81687 1.7334H1.9502V2.60007H2.81687V1.7334Z" fill="#919191"/>
</g>
</g>
<g id="Group_5">
<g id="Group_6">
<path id="Vector_3" d="M4.55026 1.7334H3.68359V2.60007H4.55026V1.7334Z" fill="#919191"/>
</g>
</g>
<g id="Group_7">
<g id="Group_8">
<path id="Vector_4" d="M6.28366 1.7334H5.41699V2.60007H6.28366V1.7334Z" fill="#919191"/>
</g>
</g>
<g id="Group_9">
<g id="Group_10">
<path id="Vector_5" d="M25.6563 23.9604L21.5461 19.8502C21.762 19.4648 21.9347 19.0567 22.0609 18.6334H22.7499V17.7667H22.2472C22.4104 16.7178 22.2846 15.6442 21.8832 14.6614V10.4H21.0165V13.1595C20.7592 12.8308 20.4688 12.5293 20.1499 12.2599V8.66669H19.2832V11.6541C19.0058 11.4933 18.716 11.3549 18.4165 11.2403V6.93335H17.5499V10.9772C17.2643 10.9156 16.9747 10.8749 16.6832 10.8555V7.80002H15.8165V10.8555C15.525 10.8749 15.2354 10.9156 14.9498 10.9772V9.53336H14.0832V11.2403C13.7837 11.3549 13.494 11.4933 13.2165 11.6541V9.10003H12.3498V12.2599C12.0309 12.5293 11.7405 12.8308 11.4832 13.1595V9.9667H10.6165V14.6614C10.2151 15.6442 10.0893 16.7178 10.2525 17.7667H4.5498V18.6334H10.4388C11.3892 21.8391 14.7584 23.6673 17.9641 22.7169C18.5958 22.5296 19.1927 22.2405 19.7313 21.8609L23.7435 25.8731C23.9127 26.0423 24.187 26.0423 24.3563 25.8731L25.6563 24.5731C25.8254 24.4039 25.8254 24.1296 25.6563 23.9604ZM16.2499 22.1001C13.3792 22.097 11.0529 19.7707 11.0498 16.9001C11.0498 14.0282 13.378 11.7 16.2499 11.7C19.1217 11.7 21.4499 14.0282 21.4499 16.9001C21.4499 19.7719 19.1217 22.1001 16.2499 22.1001ZM24.0499 24.954L20.4047 21.3088C20.6408 21.0856 20.8589 20.8441 21.0568 20.5864L24.7372 24.2668L24.0499 24.954Z" fill="#919191"/>
</g>
</g>
<g id="Group_11">
<g id="Group_12">
<path id="Vector_6" d="M16.2503 12.5667C13.8571 12.5667 11.917 14.5067 11.917 16.9C11.917 19.2933 13.8571 21.2334 16.2503 21.2334C18.6436 21.2334 20.5837 19.2933 20.5837 16.9C20.5811 14.5078 18.6425 12.5693 16.2503 12.5667ZM16.2503 20.3667C15.0134 20.3651 13.871 19.7045 13.2525 18.6333H19.2482C18.6297 19.7045 17.4873 20.3651 16.2503 20.3667ZM12.8976 17.7667C12.549 16.4472 13.0145 15.0464 14.0837 14.1982V16.9H14.9503V13.6886C15.2282 13.5761 15.5196 13.5004 15.817 13.4632V16.9H16.6837V13.4632C16.9811 13.5004 17.2725 13.5761 17.5503 13.6886V16.9H18.417V14.1982C19.4862 15.0464 19.9517 16.4472 19.6031 17.7667H12.8976Z" fill="#919191"/>
</g>
</g>
<g id="Group_13">
<g id="Group_14">
<path id="Vector_7" d="M22.3165 3.4668H4.98308C3.78708 3.46821 2.81781 4.43747 2.81641 5.63347V19.5002C2.81781 20.6962 3.78708 21.6655 4.98308 21.6669H10.6164V20.8002H4.98308C4.2651 20.8002 3.68308 20.2182 3.68308 19.5002V5.63347C3.68308 4.91549 4.2651 4.33347 4.98308 4.33347H22.3165C23.0345 4.33347 23.6165 4.91549 23.6165 5.63347V19.5002C23.6164 19.8168 23.5009 20.1225 23.2915 20.3599L23.9415 20.9332C24.2908 20.5376 24.4834 20.0279 24.4832 19.5002V5.63347C24.4818 4.43747 23.5125 3.46821 22.3165 3.4668Z" fill="#919191"/>
</g>
</g>
<g id="Group_15">
<g id="Group_16">
<path id="Vector_8" d="M5.41647 5.19995H4.5498V6.06662H5.41647V5.19995Z" fill="#919191"/>
</g>
</g>
<g id="Group_17">
<g id="Group_18">
<path id="Vector_9" d="M7.14987 5.19995H6.2832V6.06662H7.14987V5.19995Z" fill="#919191"/>
</g>
</g>
<g id="Group_19">
<g id="Group_20">
<path id="Vector_10" d="M8.88327 5.19995H8.0166V6.06662H8.88327V5.19995Z" fill="#919191"/>
</g>
</g>
<g id="Group_21">
<g id="Group_22">
<path id="Vector_11" d="M6.28366 14.3H5.41699V16.9001H6.28366V14.3Z" fill="#919191"/>
</g>
</g>
<g id="Group_23">
<g id="Group_24">
<path id="Vector_12" d="M8.01706 11.7H7.15039V16.9H8.01706V11.7Z" fill="#919191"/>
</g>
</g>
<g id="Group_25">
<g id="Group_26">
<path id="Vector_13" d="M9.75046 13H8.88379V16.9H9.75046V13Z" fill="#919191"/>
</g>
</g>
</g>
<defs>
<clipPath id="clip0_464_2784">
<rect width="26" height="26" fill="white"/>
</clipPath>
</defs>
</svg>
