<svg width="26" height="26" viewBox="0 0 26 26" fill="none" xmlns="http://www.w3.org/2000/svg">
<g id="group 1">
<path id="Vector" d="M18.669 16.6053C18.4889 15.3817 17.8762 14.2632 16.942 13.4526C16.0078 12.6421 14.8141 12.1932 13.5773 12.1875H12.4246C11.1878 12.1932 9.99408 12.6421 9.05991 13.4526C8.12574 14.2632 7.51303 15.3817 7.33296 16.6053L6.78046 20.4685C6.76281 20.5934 6.77447 20.7206 6.81452 20.8402C6.85457 20.9598 6.92191 21.0684 7.01121 21.1575C7.22787 21.3742 8.55712 22.4792 13.002 22.4792C17.447 22.4792 18.773 21.3785 18.9929 21.1575C19.0822 21.0684 19.1495 20.9598 19.1896 20.8402C19.2296 20.7206 19.2413 20.5934 19.2236 20.4685L18.669 16.6053Z" fill="#F5C118"/>
<path id="Vector_2" d="M8.19025 12.7832C7.14324 13.7484 6.462 15.0458 6.26191 16.4557L5.86108 19.2291C2.64358 19.2074 1.66858 18.0374 1.50608 17.7991C1.44327 17.7125 1.39844 17.6142 1.37425 17.51C1.35006 17.4058 1.347 17.2978 1.36525 17.1924L1.60358 15.8491C1.72776 15.147 2.01939 14.4852 2.45375 13.9199C2.88812 13.3545 3.4524 12.9022 4.09877 12.6014C4.74513 12.3005 5.45451 12.16 6.16676 12.1916C6.87901 12.2233 7.57312 12.4262 8.19025 12.7832Z" fill="#F5C118"/>
<path id="Vector_3" d="M24.6346 17.1924C24.6528 17.2978 24.6498 17.4058 24.6256 17.51C24.6014 17.6142 24.5566 17.7125 24.4937 17.7991C24.3312 18.0374 23.3562 19.2074 20.1387 19.2291L19.7379 16.4557C19.5378 15.0458 18.8566 13.7484 17.8096 12.7832C18.4267 12.4262 19.1208 12.2233 19.8331 12.1916C20.5453 12.16 21.2547 12.3005 21.9011 12.6014C22.5474 12.9022 23.1117 13.3545 23.5461 13.9199C23.9804 14.4852 24.2721 15.147 24.3962 15.8491L24.6346 17.1924Z" fill="#F5C118"/>
<path id="Vector_4" d="M8.37449 10.4C8.10179 10.7867 7.73977 11.102 7.31919 11.3189C6.8986 11.5357 6.43187 11.6479 5.95866 11.6458C5.4866 11.6458 5.02131 11.5337 4.60111 11.3186C4.18091 11.1034 3.81785 10.7916 3.54183 10.4086C3.26582 10.0257 3.08476 9.58261 3.01357 9.11595C2.94238 8.6493 2.9831 8.1724 3.13237 7.72457C3.28165 7.27674 3.53521 6.87079 3.87215 6.54018C4.2091 6.20957 4.61979 5.96376 5.07037 5.82301C5.52095 5.68226 5.99853 5.6506 6.46375 5.73063C6.92897 5.81066 7.36852 6.0001 7.74616 6.28333C7.63754 6.70811 7.58294 7.14489 7.58366 7.58333C7.58449 8.57691 7.85804 9.5512 8.37449 10.4Z" fill="#F5C118"/>
<path id="Vector_5" d="M23.021 8.66667C23.0213 9.05798 22.9444 9.4455 22.7948 9.80708C22.6452 10.1687 22.4257 10.4972 22.149 10.7739C21.8723 11.0506 21.5438 11.27 21.1822 11.4196C20.8206 11.5693 20.4331 11.6461 20.0418 11.6458C19.5686 11.6479 19.1019 11.5357 18.6813 11.3189C18.2607 11.102 17.8987 10.7867 17.626 10.4C18.1424 9.5512 18.416 8.57691 18.4168 7.58333C18.4175 7.14489 18.3629 6.70811 18.2543 6.28334C18.6969 5.95137 19.2232 5.74923 19.7743 5.69954C20.3253 5.64985 20.8793 5.75459 21.3741 6.00202C21.869 6.24945 22.2852 6.62979 22.576 7.10043C22.8669 7.57106 23.021 8.1134 23.021 8.66667Z" fill="#F5C118"/>
<path id="Vector_6" d="M13 11.6458C15.2437 11.6458 17.0625 9.82691 17.0625 7.58325C17.0625 5.3396 15.2437 3.52075 13 3.52075C10.7563 3.52075 8.9375 5.3396 8.9375 7.58325C8.9375 9.82691 10.7563 11.6458 13 11.6458Z" fill="#F5C118"/>
</g>
</svg>
